<svg width="48" height="36" viewBox="0 0 48 36" fill="none" xmlns="http://www.w3.org/2000/svg">
<path d="M43.6483 15.4804L37.8101 10.8259C37.6575 10.7097 37.4686 10.6516 37.2726 10.6734C37.0837 10.6951 36.9094 10.7896 36.7861 10.9421L36.5027 11.2978L35.7475 10.6951C37.6425 7.73967 37.0328 3.75311 34.2227 1.51702C32.7702 0.362606 30.955 -0.160243 29.1106 0.0428902C27.2661 0.253536 25.6105 1.16842 24.4561 2.62048C23.3017 4.07292 22.7788 5.88816 22.982 7.73257C23.1926 9.57708 24.1075 11.2251 25.5596 12.3871C26.8377 13.4036 28.3624 13.8976 29.88 13.8976C31.6953 13.8976 33.4963 13.1858 34.8397 11.8282L35.5949 12.4309L35.2392 12.8811C34.9851 13.1933 35.0361 13.651 35.3483 13.9051L41.1936 18.5596C41.3244 18.6612 41.484 18.7121 41.6437 18.7121C41.8544 18.7121 42.065 18.6252 42.2101 18.4434L43.764 16.4974C43.8802 16.3448 43.9383 16.1559 43.9166 15.9599C43.8952 15.7781 43.8008 15.6037 43.6483 15.4804ZM28.5232 9.83828C28.3781 10.0197 28.1675 10.1141 27.9568 10.1141C27.7972 10.1141 27.6375 10.0632 27.5067 9.95447C25.8511 8.63291 25.5752 6.21489 26.8969 4.55932C27.1439 4.24709 27.6011 4.19611 27.9209 4.44313C28.2402 4.69013 28.2841 5.1474 28.0371 5.46714C27.2166 6.49825 27.3834 8.00126 28.4145 8.82175C28.7192 9.06838 28.7702 9.52603 28.5232 9.83828Z" fill="#C60D0D"/>
<path d="M47.8884 29.5971C47.6489 28.2608 47.3292 26.9249 46.7557 25.705C46.7486 25.6904 46.7411 25.6686 46.734 25.6615C46.0803 24.2964 45.1148 23.091 43.5754 22.2125C42.704 21.7114 41.6874 21.4501 40.6346 21.4501H34.7313C30.2657 17.3039 25.2844 15.3579 19.4028 15.4741C16.5564 15.1618 12.7079 16.5052 9.01204 17.9138L7.59597 18.4584C5.20693 19.3733 2.95616 20.2372 1.08239 20.6949C0.799027 20.7602 0.588756 20.9926 0.537776 21.2759C0.225554 23.0477 -0.0503107 24.9064 0.00778889 26.6129C0.000292555 26.62 0.000292554 26.6343 0.000292554 26.6418C0.000292554 26.6635 0.00741407 26.6853 0.00741407 26.6999C0.0872499 28.8056 0.682837 30.6647 2.33092 31.8192C2.45424 31.899 2.59966 31.95 2.75221 31.95H6.15067C6.41942 34.092 8.24927 35.7622 10.4712 35.7622C12.6859 35.7622 14.523 34.092 14.7845 31.95H30.9555C31.2243 34.092 33.0612 35.7622 35.276 35.7622C37.4979 35.7622 39.3278 34.092 39.5965 31.95H45.9864C46.5527 31.95 47.0827 31.6959 47.453 31.2528C47.8376 30.7952 47.9976 30.1924 47.8885 29.5972L47.8884 29.5971ZM2.34528 26.5179H0.827684C0.842302 25.6611 0.90752 24.739 0.994854 23.7803H2.3453C3.10767 23.7803 3.71752 24.3901 3.71752 25.1525C3.71752 25.9081 3.10767 26.5179 2.34528 26.5179ZM32.5158 21.4497H22.2853L20.4483 16.926C25.0082 17.0347 28.9004 18.4871 32.5163 21.4497H32.5158ZM18.8722 16.9114L20.7167 21.4497H11.7707L10.3329 18.9736C13.3389 17.8481 16.5558 16.7952 18.8722 16.9114ZM10.4707 34.3096C8.86606 34.3096 7.56618 33.0097 7.56618 31.4051C7.56618 29.8005 8.86606 28.5006 10.4707 28.5006C12.0681 28.5006 13.3752 29.8005 13.3752 31.4051C13.3752 33.0097 12.0682 34.3096 10.4707 34.3096ZM15.0382 29.6986L12.5547 23.2214L16.0112 28.6675L28.37 30.4321L15.0382 29.6986ZM35.2757 34.3096C33.6783 34.3096 32.3712 33.0097 32.3712 31.4051C32.3712 29.8005 33.6782 28.5006 35.2757 28.5006C36.8803 28.5006 38.1802 29.8005 38.1802 31.4051C38.1802 33.0097 36.8807 34.3096 35.2757 34.3096ZM40.2641 22.4373C41.9561 21.733 45.8916 23.9186 45.6955 25.8864C42.5662 25.7848 40.983 23.817 40.2641 22.4373Z" fill="#C60D0D"/>
</svg>
