<svg width="25" height="25" viewBox="0 0 25 25" fill="none" xmlns="http://www.w3.org/2000/svg">
<path d="M12.5 0C5.59687 0 0 5.59687 0 12.5C0 19.4031 5.59687 25 12.5 25C19.4031 25 25 19.4031 25 12.5C25 5.59687 19.4036 0 12.5 0ZM11.1632 6.36518L16.4712 11.6732C16.6911 11.8929 16.8144 12.191 16.8144 12.5017C16.8144 12.8125 16.6911 13.1107 16.4712 13.3304L11.1672 18.6344C10.8711 18.9305 10.4395 19.046 10.0351 18.9377C9.63069 18.8292 9.31469 18.5132 9.20643 18.1088C9.09813 17.7043 9.21393 17.2728 9.51004 16.9767L13.985 12.4995L9.50602 8.02183C9.21409 7.72503 9.10144 7.29549 9.21026 6.89357C9.31925 6.49161 9.63315 6.17772 10.0351 6.06888C10.4371 5.96004 10.8664 6.07255 11.1634 6.36464L11.1632 6.36518Z" fill="#08294B"/>
</svg>
