<svg width="25" height="25" viewBox="0 0 25 25" fill="none" xmlns="http://www.w3.org/2000/svg">
<path d="M12.5 0C19.4031 0 25 5.59687 25 12.5C25 19.4031 19.4031 25 12.5 25C5.59687 25 0 19.4031 0 12.5C0 5.59687 5.59643 0 12.5 0ZM13.8368 6.36518L8.5288 11.6732C8.30889 11.8929 8.1856 12.191 8.1856 12.5017C8.1856 12.8125 8.30889 13.1107 8.5288 13.3304L13.8328 18.6344C14.1289 18.9305 14.5605 19.046 14.9649 18.9377C15.3693 18.8292 15.6853 18.5132 15.7936 18.1088C15.9019 17.7043 15.7861 17.2728 15.49 16.9767L11.015 12.4995L15.494 8.02183C15.7859 7.72503 15.8986 7.29549 15.7897 6.89357C15.6807 6.49161 15.3669 6.17772 14.9649 6.06888C14.5629 5.96004 14.1336 6.07255 13.8366 6.36464L13.8368 6.36518Z" fill="#CFCFCF"/>
</svg>
