<svg width="19" height="19" viewBox="0 0 19 19" fill="none" xmlns="http://www.w3.org/2000/svg">
<g clip-path="url(#clip0_774_5432)">
<path d="M19.0004 9.55815C19.0004 4.27853 14.7468 -0.0012207 9.50042 -0.0012207C4.25167 -3.3203e-05 -0.00195312 4.27853 -0.00195312 9.55934C-0.00195312 14.3295 3.47267 18.2839 8.01367 19.0012V12.3215H5.60305V9.55934H8.01605V7.45153C8.01605 5.05634 9.43511 3.73347 11.6047 3.73347C12.6449 3.73347 13.7315 3.9199 13.7315 3.9199V6.27115H12.5333C11.3541 6.27115 10.986 7.00859 10.986 7.76503V9.55815H13.6199L13.1995 12.3203H10.9848V19C15.5258 18.2827 19.0004 14.3283 19.0004 9.55815Z" fill="#1877F2"/>
</g>
<defs>
<clipPath id="clip0_774_5432">
<rect width="19" height="19" fill="white"/>
</clipPath>
</defs>
</svg>
