<svg width="27" height="27" viewBox="0 0 27 27" fill="none" xmlns="http://www.w3.org/2000/svg">
<path d="M6.89093 27L0 21.3773L3.94988 17.495C5.00438 16.4544 6.34075 15.7439 7.79468 15.4508C9.24861 15.1577 10.7567 15.2948 12.1336 15.8453H16.9958C17.4797 15.8453 17.9439 16.0371 18.2861 16.3784C18.6283 16.7198 18.8205 17.1827 18.8205 17.6655C18.8205 18.1482 18.6283 18.6112 18.2861 18.9525C17.9439 19.2939 17.4797 19.4856 16.9958 19.4856H13.2306C13.0705 19.4856 12.917 19.5491 12.8037 19.662C12.6905 19.7749 12.6269 19.9281 12.6269 20.0878C12.6269 20.2475 12.6905 20.4006 12.8037 20.5136C12.917 20.6265 13.0705 20.6899 13.2306 20.6899H17.4975C17.8011 20.6899 18.1013 20.6256 18.3783 20.5015C18.6553 20.3773 18.9028 20.196 19.1044 19.9696L23.7048 14.7373C24.0391 14.3702 24.5047 14.149 25.0011 14.1215C25.4975 14.0939 25.9848 14.2622 26.3579 14.5899C26.731 14.9177 26.9599 15.3786 26.9952 15.8733C27.0305 16.368 26.8694 16.8566 26.5466 17.2338L20.8023 23.9041C20.3793 24.3877 19.8574 24.7753 19.2716 25.0408C18.6859 25.3064 18.0499 25.4438 17.4065 25.4438H8.44001L6.89093 27ZM9.67487 8.67739C9.42508 8.67812 9.18572 8.77742 9.0091 8.95361C8.83247 9.1298 8.73291 9.36855 8.73219 9.61772V12.8676C8.73291 13.1168 8.83247 13.3555 9.0091 13.5317C9.18572 13.7079 9.42508 13.8072 9.67487 13.8079H11.7697C12.0195 13.8072 12.2589 13.7079 12.4355 13.5317C12.6121 13.3555 12.7117 13.1168 12.7124 12.8676V9.62047C12.7117 9.3713 12.6121 9.13255 12.4355 8.95636C12.2589 8.78017 12.0195 8.68087 11.7697 8.68014L9.67487 8.67739ZM20.3972 13.8079H22.492C22.7408 13.8058 22.9788 13.7058 23.1542 13.5298C23.3297 13.3538 23.4284 13.1158 23.4292 12.8676V6.54379C23.4284 6.29462 23.3289 6.05587 23.1523 5.87968C22.9756 5.70349 22.7363 5.60419 22.4865 5.60346H20.3972C20.1474 5.60419 19.908 5.70349 19.7314 5.87968C19.5548 6.05587 19.4552 6.29462 19.4545 6.54379V12.8676C19.4552 13.1168 19.5548 13.3555 19.7314 13.5317C19.908 13.7079 20.1474 13.8072 20.3972 13.8079ZM14.0933 0.940326V12.8676C14.0941 13.1168 14.1936 13.3555 14.3702 13.5317C14.5469 13.7079 14.7862 13.8072 15.036 13.8079H17.1309C17.3806 13.8072 17.62 13.7079 17.7966 13.5317C17.9733 13.3555 18.0728 13.1168 18.0735 12.8676V0.940326C18.0728 0.691633 17.9736 0.453292 17.7976 0.277181C17.6216 0.101071 17.3829 0.00144906 17.1336 0H15.0388C14.7885 -1.06096e-06 14.5484 0.0989809 14.3712 0.275248C14.194 0.451514 14.0941 0.690684 14.0933 0.940326Z" fill="white"/>
</svg>
