<svg width="15" height="15" viewBox="0 0 15 15" fill="none" xmlns="http://www.w3.org/2000/svg">
<path d="M7.03554 0.988312C6.93836 0.988312 6.84101 0.989981 6.74368 0.993483C6.2246 1.0129 5.70176 1.09105 5.19053 1.22803C1.46214 2.22705 -0.759798 6.07842 0.23922 9.80682C1.23824 13.5352 5.08963 15.7572 8.81801 14.7581C12.5464 13.7591 14.7683 9.90773 13.7693 6.17933C13.7506 6.0907 13.714 6.00681 13.6618 5.93277C13.6096 5.85874 13.5429 5.7961 13.4657 5.74869C13.3885 5.70129 13.3025 5.6701 13.2128 5.65703C13.1232 5.64395 13.0318 5.64927 12.9443 5.67265C12.8568 5.69604 12.775 5.737 12.7038 5.79305C12.6326 5.84909 12.5736 5.91904 12.5303 5.99863C12.4871 6.07822 12.4605 6.16578 12.4522 6.25599C12.4439 6.3462 12.454 6.43716 12.482 6.52331C13.2944 9.55521 11.5059 12.6584 8.47403 13.4708C5.44215 14.2832 2.33896 12.4947 1.52655 9.46284C0.714178 6.43094 2.50264 3.32777 5.53451 2.51536C7.19067 2.07161 8.95988 2.40143 10.3451 3.41181C10.4159 3.46348 10.4963 3.50069 10.5815 3.52133C10.6667 3.54196 10.7552 3.54561 10.8418 3.53206C10.9284 3.51851 11.0115 3.48803 11.0864 3.44236C11.1612 3.39668 11.2263 3.33672 11.278 3.26588C11.3297 3.19504 11.3669 3.11472 11.3876 3.0295C11.4082 2.94427 11.4118 2.85583 11.3983 2.7692C11.3847 2.68256 11.3542 2.59944 11.3086 2.52459C11.2629 2.44974 11.2029 2.38463 11.1321 2.33295C9.92949 1.45577 8.49339 0.994416 7.03554 0.988312ZM14.3009 1.48345C14.1278 1.49303 13.9651 1.56967 13.8475 1.69713C12.089 3.53697 8.57455 7.33839 6.62379 9.39511L4.27844 7.32598C4.21273 7.2678 4.13621 7.22313 4.05324 7.19453C3.97027 7.16593 3.88248 7.15394 3.79489 7.15927C3.70729 7.16459 3.62159 7.18712 3.5427 7.22556C3.46381 7.264 3.39326 7.3176 3.33508 7.38331C3.2769 7.44901 3.23224 7.52554 3.20363 7.60851C3.17503 7.69148 3.16305 7.77927 3.16837 7.86687C3.1737 7.95446 3.19622 8.04015 3.23466 8.11904C3.2731 8.19794 3.32671 8.26849 3.39241 8.32666L6.22769 10.8284C6.35745 10.9433 6.52684 11.0032 6.69999 10.9954C6.87315 10.9877 7.03648 10.9128 7.15541 10.7867C9.02082 8.83503 12.9708 4.54046 14.8117 2.61443C14.9049 2.51838 14.967 2.39654 14.99 2.26473C15.0131 2.13292 14.9959 1.99722 14.9409 1.87527C14.8858 1.75332 14.7953 1.65074 14.6812 1.58087C14.5671 1.511 14.4346 1.47706 14.3009 1.48345Z"/>
</svg>
