<svg width="30" height="20" viewBox="0 0 30 20" fill="none" xmlns="http://www.w3.org/2000/svg">
<path fill-rule="evenodd" clip-rule="evenodd" d="M1.16752 8.1775L0.337452 11.8834C0.333093 11.9029 0.329854 11.9228 0.327737 11.9427L0.00761803 15.049C-0.0346077 15.4587 0.100042 15.8672 0.378308 16.1729C0.656575 16.4786 1.0523 16.6531 1.46758 16.6531H2.00842C2.2624 18.5414 3.89413 20 5.86654 20C7.83882 20 9.47055 18.5414 9.72465 16.6531H20.1904C20.4444 18.5414 22.0761 20 24.0485 20C26.0209 20 27.6527 18.5414 27.9066 16.6531H28.5323C28.9216 16.6531 29.2949 16.4998 29.5701 16.2267C29.8453 15.9535 30 15.5833 30 15.1971C30 13.1963 30 8.70098 30 8.70098C30 8.5774 29.9552 8.4579 29.8737 8.36435L28.9567 7.31134C28.946 7.23719 28.9188 7.1644 28.8745 7.09866L27.9191 0.80098C27.8816 0.554565 27.6717 0.370063 27.4206 0.362895C27.4206 0.362895 18.5929 0.112649 14.7011 0.00241687C13.4165 -0.0340388 12.1543 0.342751 11.1033 1.07656C8.05979 3.20137 1.37553 7.86818 1.37553 7.86818C1.26978 7.94196 1.19554 8.05231 1.16752 8.1775ZM7.05583 16.6531C6.85554 17.1075 6.39816 17.4255 5.86654 17.4255C5.33492 17.4255 4.87741 17.1075 4.67712 16.6531H3.05921C3.3036 17.9707 4.46835 18.9702 5.86654 18.9702C7.26472 18.9702 8.42948 17.9707 8.67387 16.6531H7.05583ZM25.238 16.6531C25.0375 17.1075 24.5802 17.4255 24.0485 17.4255C23.5169 17.4255 23.0595 17.1075 22.8591 16.6531H21.2412C21.4856 17.9707 22.6503 18.9702 24.0485 18.9702C25.4467 18.9702 26.6115 17.9707 26.8559 16.6531H25.238ZM6.78392 5.35151L4.05245 7.25845V10.0554L6.92741 7.36262L6.78392 5.35151ZM7.05583 15.6233H8.67387C8.42948 14.3058 7.26472 13.3063 5.86654 13.3063C4.46835 13.3063 3.3036 14.3058 3.05921 15.6233H4.67712C4.87741 15.1688 5.33492 14.851 5.86654 14.851C6.39816 14.851 6.85554 15.1688 7.05583 15.6233ZM25.1967 2.26823L25.8429 6.14797C25.8808 6.37882 25.7569 6.60595 25.5415 6.70098L21.8062 8.34804C21.7398 8.37733 21.6681 8.3924 21.5954 8.3924H18.2539V9.95925C18.2539 10.0958 18.1992 10.2268 18.1019 10.3234L16.6969 11.7173V15.6233H20.1904C20.4444 13.7349 22.0761 12.2763 24.0485 12.2763C26.0209 12.2763 27.6527 13.7349 27.9066 15.6233H28.5323C28.6463 15.6233 28.7555 15.5784 28.8361 15.4985C28.9167 15.4186 28.9619 15.3102 28.9619 15.1971V11.7452L26.0348 9.32505C25.9128 9.22421 25.8441 9.07369 25.8482 8.91625C25.8522 8.75893 25.9286 8.612 26.0556 8.51759L27.8388 7.19073L27.1001 2.32223L25.1967 2.26823ZM25.238 15.6233H26.8559C26.6115 14.3058 25.4467 13.3063 24.0485 13.3063C22.6503 13.3063 21.4856 14.3058 21.2412 15.6233H22.8591C23.0595 15.1688 23.5169 14.851 24.0485 14.851C24.5802 14.851 25.0375 15.1688 25.238 15.6233ZM11.9387 10.3968L12.4851 10.7331L11.8077 11.57C11.7145 11.6849 11.6756 11.8339 11.7007 11.9793C11.7257 12.1246 11.8124 12.2524 11.9387 12.3301L12.9834 12.9727C13.2269 13.1225 13.547 13.0481 13.698 12.8065C13.849 12.565 13.7738 12.2473 13.5305 12.0975L12.984 11.7614L13.6616 10.9244C13.7547 10.8095 13.7935 10.6604 13.7685 10.5151C13.7435 10.3698 13.6568 10.2421 13.5305 10.1644L12.4858 9.52166C12.2424 9.37188 11.9221 9.4464 11.7712 9.68787C11.6202 9.92947 11.6953 10.2472 11.9387 10.3968ZM2.13722 8.59556L1.75096 10.3201L3.01449 10.0554V7.98311L2.13722 8.59556ZM23.9973 1.29616L20.658 1.2015V7.36262H21.4853L24.7543 5.9212L23.9973 1.29616ZM19.6199 1.17209V7.36262H7.96811L7.77504 4.65947L11.7007 1.91875C12.5686 1.31284 13.6107 1.00167 14.6714 1.03182L19.6199 1.17209Z" fill="#436DBE"/>
</svg>
