<svg width="138" height="158" viewBox="0 0 138 158" fill="none" xmlns="http://www.w3.org/2000/svg">
<path d="M29.1496 152.192C28.3283 152.192 27.6296 152.053 27.0536 151.776C26.4883 151.488 25.9923 151.088 25.5656 150.576L26.6696 149.536C26.9896 149.941 27.363 150.251 27.7896 150.464C28.2163 150.677 28.7016 150.784 29.2456 150.784C29.8216 150.784 30.2483 150.683 30.5256 150.48C30.8136 150.267 30.9576 149.968 30.9576 149.584C30.9576 149.243 30.8456 148.981 30.6216 148.8C30.4083 148.608 30.067 148.48 29.5976 148.416L28.7816 148.304C28.387 148.251 28.0136 148.165 27.6616 148.048C27.3096 147.931 27.0003 147.771 26.7336 147.568C26.4776 147.365 26.2696 147.115 26.1096 146.816C25.9603 146.517 25.8856 146.149 25.8856 145.712C25.8856 145.285 25.9656 144.907 26.1256 144.576C26.2856 144.235 26.5096 143.952 26.7976 143.728C27.0856 143.493 27.427 143.317 27.8216 143.2C28.227 143.083 28.6696 143.024 29.1496 143.024C29.9496 143.024 30.6056 143.147 31.1176 143.392C31.6296 143.627 32.083 143.957 32.4776 144.384L31.4216 145.44C31.1763 145.163 30.8616 144.928 30.4776 144.736C30.0936 144.544 29.651 144.448 29.1496 144.448C28.627 144.448 28.2323 144.549 27.9656 144.752C27.699 144.955 27.5656 145.232 27.5656 145.584C27.5656 145.957 27.6883 146.235 27.9336 146.416C28.179 146.597 28.5416 146.72 29.0216 146.784L29.8376 146.912C30.2536 146.976 30.6323 147.067 30.9736 147.184C31.3256 147.301 31.6243 147.461 31.8696 147.664C32.115 147.856 32.3016 148.096 32.4296 148.384C32.5683 148.672 32.6376 149.019 32.6376 149.424C32.6376 149.84 32.5523 150.219 32.3816 150.56C32.2216 150.901 31.987 151.195 31.6776 151.44C31.379 151.675 31.011 151.861 30.5736 152C30.147 152.128 29.6723 152.192 29.1496 152.192ZM38.5095 146.048C38.5095 145.536 38.3762 145.141 38.1095 144.864C37.8428 144.587 37.4215 144.448 36.8455 144.448C36.3548 144.448 35.9602 144.555 35.6615 144.768C35.3628 144.971 35.1068 145.237 34.8935 145.568L33.8375 144.64C34.1255 144.16 34.5148 143.771 35.0055 143.472C35.4962 143.173 36.1468 143.024 36.9575 143.024C38.0242 143.024 38.8402 143.275 39.4055 143.776C39.9708 144.277 40.2535 144.997 40.2535 145.936V152H38.5095V146.048ZM45.9179 152.192C44.8085 152.192 43.9445 151.963 43.3259 151.504C42.7072 151.045 42.3979 150.4 42.3979 149.568C42.3979 149.056 42.5472 148.619 42.8459 148.256C43.1552 147.893 43.5499 147.643 44.0299 147.504V147.424C43.4965 147.296 43.0805 147.045 42.7819 146.672C42.4832 146.299 42.3339 145.84 42.3339 145.296C42.3339 144.613 42.5525 144.064 42.9899 143.648C43.4379 143.232 44.0459 143.024 44.8139 143.024C45.0485 143.024 45.2992 143.045 45.5659 143.088C45.8432 143.131 46.0939 143.211 46.3179 143.328L45.9499 144.608C45.7045 144.491 45.4325 144.432 45.1339 144.432C44.7605 144.432 44.4619 144.533 44.2379 144.736C44.0245 144.939 43.9179 145.211 43.9179 145.552C43.9179 145.712 43.9392 145.867 43.9819 146.016C44.0245 146.155 44.0992 146.283 44.2059 146.4C44.3125 146.507 44.4565 146.592 44.6379 146.656C44.8192 146.72 45.0485 146.752 45.3259 146.752H46.2059V147.936H45.4539C45.1019 147.936 44.7979 148.037 44.5419 148.24C44.2859 148.443 44.1579 148.725 44.1579 149.088V149.456C44.1579 149.883 44.2965 150.208 44.5739 150.432C44.8512 150.656 45.3099 150.768 45.9499 150.768C46.6219 150.768 47.1499 150.592 47.5339 150.24C47.9285 149.877 48.1259 149.36 48.1259 148.688V143.216H49.8699V148.928C49.8699 149.429 49.7739 149.883 49.5819 150.288C49.4005 150.683 49.1339 151.024 48.7819 151.312C48.4405 151.589 48.0245 151.808 47.5339 151.968C47.0539 152.117 46.5152 152.192 45.9179 152.192ZM54.8073 152.16C53.9433 152.16 53.2499 151.947 52.7273 151.52C52.2153 151.093 51.9593 150.448 51.9593 149.584C51.9593 148.763 52.2046 148.128 52.6953 147.68C53.1966 147.232 53.9006 147.008 54.8073 147.008H57.5273V146.336C57.5273 145.717 57.3566 145.248 57.0153 144.928C56.6846 144.608 56.1673 144.448 55.4633 144.448C54.8339 144.448 54.3166 144.581 53.9113 144.848C53.5166 145.115 53.1913 145.451 52.9353 145.856L51.8153 144.88C52.1566 144.336 52.6206 143.893 53.2073 143.552C53.8046 143.2 54.5939 143.024 55.5753 143.024C56.7806 143.024 57.6979 143.307 58.3273 143.872C58.9566 144.427 59.2713 145.227 59.2713 146.272V152H57.5273V148.176H55.3353C54.8233 148.176 54.4286 148.283 54.1513 148.496C53.8846 148.709 53.7513 149.019 53.7513 149.424V149.744C53.7513 150.149 53.8739 150.469 54.1193 150.704C54.3646 150.939 54.7006 151.056 55.1273 151.056C55.3406 151.056 55.5113 151.04 55.6393 151.008L55.7833 152.064C55.6873 152.085 55.5379 152.107 55.3353 152.128C55.1326 152.149 54.9566 152.16 54.8073 152.16ZM63.3015 150.544C62.7468 150.544 62.3308 150.411 62.0535 150.144C61.7762 149.877 61.6375 149.504 61.6375 149.024V148.208H63.2055V149.088H65.8775V150.544H63.3015ZM63.3015 146.512C62.7468 146.512 62.3308 146.384 62.0535 146.128C61.7762 145.861 61.6375 145.488 61.6375 145.008V144.176H63.2055V145.056H65.8775V146.512H63.3015ZM70.4549 152C69.8469 152 69.3989 151.845 69.1109 151.536C68.8229 151.227 68.6789 150.795 68.6789 150.24V143.216H70.4229V150.576H71.6709V152H70.4549ZM76.8599 152.192C76.3265 152.192 75.8252 152.117 75.3559 151.968C74.8972 151.808 74.4972 151.595 74.1559 151.328C73.8252 151.051 73.5639 150.72 73.3719 150.336C73.1799 149.952 73.0839 149.525 73.0839 149.056V148.256C73.0839 147.883 73.1692 147.595 73.3399 147.392C73.5105 147.179 73.8199 147.072 74.2679 147.072H76.0599V148.448H74.7319V148.928C74.7319 149.568 74.9292 150.037 75.3239 150.336C75.7292 150.624 76.2679 150.768 76.9399 150.768C77.6332 150.768 78.1665 150.555 78.5399 150.128C78.9239 149.701 79.1159 149.099 79.1159 148.32V146.944C79.1159 146.155 78.9025 145.541 78.4759 145.104C78.0599 144.667 77.4679 144.448 76.6999 144.448C76.0599 144.448 75.5105 144.581 75.0519 144.848C74.6039 145.115 74.2625 145.435 74.0279 145.808L72.9399 144.832C73.2492 144.32 73.7239 143.893 74.3639 143.552C75.0039 143.2 75.8092 143.024 76.7799 143.024C78.1025 143.024 79.1319 143.429 79.8679 144.24C80.6039 145.04 80.9719 146.16 80.9719 147.6C80.9719 148.304 80.8812 148.944 80.6999 149.52C80.5185 150.085 80.2519 150.565 79.8999 150.96C79.5479 151.355 79.1159 151.659 78.6039 151.872C78.0919 152.085 77.5105 152.192 76.8599 152.192ZM73.5571 140.272H78.8211V139.008H80.4531V141.648H73.5571V140.272ZM86.2773 152.192C85.1679 152.192 84.3039 151.963 83.6853 151.504C83.0666 151.045 82.7573 150.4 82.7573 149.568C82.7573 149.056 82.9066 148.619 83.2053 148.256C83.5146 147.893 83.9093 147.643 84.3893 147.504V147.424C83.8559 147.296 83.4399 147.045 83.1413 146.672C82.8426 146.299 82.6933 145.84 82.6933 145.296C82.6933 144.613 82.9119 144.064 83.3493 143.648C83.7973 143.232 84.4053 143.024 85.1733 143.024C85.4079 143.024 85.6586 143.045 85.9253 143.088C86.2026 143.131 86.4533 143.211 86.6773 143.328L86.3093 144.608C86.0639 144.491 85.7919 144.432 85.4933 144.432C85.1199 144.432 84.8213 144.533 84.5973 144.736C84.3839 144.939 84.2773 145.211 84.2773 145.552C84.2773 145.712 84.2986 145.867 84.3413 146.016C84.3839 146.155 84.4586 146.283 84.5653 146.4C84.6719 146.507 84.8159 146.592 84.9973 146.656C85.1786 146.72 85.4079 146.752 85.6853 146.752H86.5653V147.936H85.8133C85.4613 147.936 85.1573 148.037 84.9013 148.24C84.6453 148.443 84.5173 148.725 84.5173 149.088V149.456C84.5173 149.883 84.6559 150.208 84.9333 150.432C85.2106 150.656 85.6693 150.768 86.3093 150.768C86.9813 150.768 87.5093 150.592 87.8933 150.24C88.2879 149.877 88.4853 149.36 88.4853 148.688V143.216H90.2292V148.928C90.2292 149.429 90.1333 149.883 89.9413 150.288C89.7599 150.683 89.4933 151.024 89.1413 151.312C88.7999 151.589 88.3839 151.808 87.8933 151.968C87.4133 152.117 86.8746 152.192 86.2773 152.192ZM96.0466 152.192C94.8306 152.192 93.8866 151.787 93.2146 150.976C92.5426 150.155 92.2066 149.029 92.2066 147.6C92.2066 146.907 92.3026 146.277 92.4946 145.712C92.6973 145.147 92.98 144.667 93.3426 144.272C93.716 143.867 94.164 143.557 94.6866 143.344C95.2093 143.131 95.796 143.024 96.4466 143.024C97.044 143.024 97.588 143.115 98.0786 143.296C98.5693 143.467 98.9853 143.712 99.3266 144.032C99.6786 144.352 99.9453 144.741 100.127 145.2C100.319 145.648 100.415 146.149 100.415 146.704V152H98.6706V146.848C98.6706 146.091 98.468 145.504 98.0626 145.088C97.6573 144.661 97.1026 144.448 96.3986 144.448C95.6626 144.448 95.0866 144.677 94.6706 145.136C94.2653 145.595 94.0626 146.219 94.0626 147.008V148.176C94.0626 149.019 94.244 149.664 94.6066 150.112C94.98 150.549 95.5453 150.768 96.3026 150.768C96.5373 150.768 96.756 150.747 96.9586 150.704L97.1666 152.08C97.0066 152.123 96.8146 152.149 96.5906 152.16C96.3773 152.181 96.196 152.192 96.0466 152.192ZM105.962 152.192C105.141 152.192 104.442 152.053 103.866 151.776C103.301 151.488 102.805 151.088 102.378 150.576L103.482 149.536C103.802 149.941 104.175 150.251 104.602 150.464C105.029 150.677 105.514 150.784 106.058 150.784C106.634 150.784 107.061 150.683 107.338 150.48C107.626 150.267 107.77 149.968 107.77 149.584C107.77 149.243 107.658 148.981 107.434 148.8C107.221 148.608 106.879 148.48 106.41 148.416L105.594 148.304C105.199 148.251 104.826 148.165 104.474 148.048C104.122 147.931 103.813 147.771 103.546 147.568C103.29 147.365 103.082 147.115 102.922 146.816C102.773 146.517 102.698 146.149 102.698 145.712C102.698 145.285 102.778 144.907 102.938 144.576C103.098 144.235 103.322 143.952 103.61 143.728C103.898 143.493 104.239 143.317 104.634 143.2C105.039 143.083 105.482 143.024 105.962 143.024C106.762 143.024 107.418 143.147 107.93 143.392C108.442 143.627 108.895 143.957 109.29 144.384L108.234 145.44C107.989 145.163 107.674 144.928 107.29 144.736C106.906 144.544 106.463 144.448 105.962 144.448C105.439 144.448 105.045 144.549 104.778 144.752C104.511 144.955 104.378 145.232 104.378 145.584C104.378 145.957 104.501 146.235 104.746 146.416C104.991 146.597 105.354 146.72 105.834 146.784L106.65 146.912C107.066 146.976 107.445 147.067 107.786 147.184C108.138 147.301 108.437 147.461 108.682 147.664C108.927 147.856 109.114 148.096 109.242 148.384C109.381 148.672 109.45 149.019 109.45 149.424C109.45 149.84 109.365 150.219 109.194 150.56C109.034 150.901 108.799 151.195 108.49 151.44C108.191 151.675 107.823 151.861 107.386 152C106.959 152.128 106.485 152.192 105.962 152.192ZM114.074 152C113.466 152 113.013 151.845 112.714 151.536C112.426 151.227 112.282 150.795 112.282 150.24V147.152L110.906 146.576C110.949 146.053 111.077 145.573 111.29 145.136C111.514 144.699 111.807 144.325 112.17 144.016C112.543 143.696 112.975 143.451 113.466 143.28C113.957 143.109 114.49 143.024 115.066 143.024C116.335 143.024 117.317 143.349 118.01 144C118.714 144.64 119.066 145.509 119.066 146.608V152H117.322V146.832C117.322 146.064 117.114 145.477 116.698 145.072C116.293 144.656 115.727 144.448 115.002 144.448C114.405 144.448 113.882 144.581 113.434 144.848C112.997 145.104 112.698 145.451 112.538 145.888L113.226 146.16C113.525 146.277 113.733 146.416 113.85 146.576C113.967 146.725 114.026 146.949 114.026 147.248V150.576H114.954V152H114.074Z" fill="#5CA8EF"/>
<g clip-path="url(#clip0_1520_9728)">
<path opacity="0.3" d="M19.0048 63.1528C19.0048 94.0033 44.1159 119.013 75.0921 119.013C106.068 119.013 131.179 94.0033 131.179 63.1528C131.179 32.3023 106.068 7.29297 75.0921 7.29297C44.1159 7.29296 19.0048 32.3022 19.0048 63.1528Z" stroke="url(#paint0_linear_1520_9728)" stroke-width="10" stroke-linecap="round" stroke-linejoin="round"/>
<path d="M75.092 119.012C67.7257 119.015 60.4311 117.572 53.6249 114.766C46.8188 111.96 40.6346 107.845 35.4258 102.658C30.2171 97.47 26.0858 91.3109 23.2682 84.5324C20.4506 77.7538 19.0018 70.4888 19.0047 63.1523" stroke="url(#paint1_linear_1520_9728)" stroke-width="5" stroke-linecap="round" stroke-linejoin="round"/>
<path style="mix-blend-mode:screen" d="M-0.000115919 101.712C-0.000116735 120.385 15.199 135.522 33.9481 135.522C52.6971 135.522 67.8962 120.385 67.8962 101.712C67.8962 83.0388 52.6971 67.9014 33.9481 67.9014C15.199 67.9014 -0.000115103 83.0388 -0.000115919 101.712Z" fill="url(#paint2_radial_1520_9728)"/>
</g>
<path d="M65.4125 84.384C63.9832 84.384 62.7458 84.128 61.7005 83.616C60.6552 83.0827 59.7912 82.3253 59.1085 81.344C58.4258 80.3627 57.9138 79.1573 57.5725 77.728C57.2525 76.2987 57.0925 74.6667 57.0925 72.832C57.0925 71.0187 57.2525 69.3973 57.5725 67.968C57.9138 66.5173 58.4258 65.3013 59.1085 64.32C59.7912 63.3387 60.6552 62.592 61.7005 62.08C62.7458 61.5467 63.9832 61.28 65.4125 61.28C68.2498 61.28 70.3405 62.2933 71.6845 64.32C73.0498 66.3467 73.7325 69.184 73.7325 72.832C73.7325 76.48 73.0498 79.3173 71.6845 81.344C70.3405 83.3707 68.2498 84.384 65.4125 84.384ZM65.4125 80.832C66.8418 80.832 67.8338 80.2987 68.3885 79.232C68.9645 78.144 69.2525 76.6827 69.2525 74.848V70.816C69.2525 68.9813 68.9645 67.5307 68.3885 66.464C67.8338 65.376 66.8418 64.832 65.4125 64.832C63.9832 64.832 62.9805 65.376 62.4045 66.464C61.8498 67.5307 61.5725 68.9813 61.5725 70.816V74.848C61.5725 76.6827 61.8498 78.144 62.4045 79.232C62.9805 80.2987 63.9832 80.832 65.4125 80.832ZM77.912 84V80.576H84.056V64.704H83.768L78.904 70.464L76.28 68.256L81.816 61.664H88.184V80.576H93.304V84H77.912Z" fill="#26CFFF"/>
<path d="M59.6745 52.168C58.8532 52.168 58.1532 52.0187 57.5745 51.72C57.0052 51.4213 56.5152 51.02 56.1045 50.516L57.1965 49.494C57.5418 49.914 57.9198 50.2313 58.3305 50.446C58.7505 50.6607 59.2265 50.768 59.7585 50.768C60.3838 50.768 60.8552 50.628 61.1725 50.348C61.4898 50.068 61.6485 49.69 61.6485 49.214C61.6485 48.8313 61.5365 48.528 61.3125 48.304C61.0885 48.08 60.6918 47.912 60.1225 47.8L59.2545 47.646C58.3025 47.4687 57.5885 47.156 57.1125 46.708C56.6365 46.26 56.3985 45.644 56.3985 44.86C56.3985 44.4307 56.4778 44.0433 56.6365 43.698C56.8045 43.3433 57.0332 43.0493 57.3225 42.816C57.6212 42.5733 57.9805 42.3867 58.4005 42.256C58.8205 42.1253 59.2918 42.06 59.8145 42.06C60.5518 42.06 61.1912 42.1907 61.7325 42.452C62.2738 42.704 62.7358 43.0727 63.1185 43.558L62.0125 44.538C61.7605 44.2113 61.4525 43.95 61.0885 43.754C60.7245 43.558 60.2718 43.46 59.7305 43.46C59.1705 43.46 58.7365 43.572 58.4285 43.796C58.1205 44.02 57.9665 44.3467 57.9665 44.776C57.9665 45.1867 58.0925 45.4947 58.3445 45.7C58.5965 45.896 58.9885 46.0453 59.5205 46.148L60.3885 46.33C61.3685 46.5167 62.0825 46.834 62.5305 47.282C62.9878 47.73 63.2165 48.346 63.2165 49.13C63.2165 49.5873 63.1372 50.0027 62.9785 50.376C62.8198 50.7493 62.5865 51.0713 62.2785 51.342C61.9798 51.6033 61.6112 51.8087 61.1725 51.958C60.7338 52.098 60.2345 52.168 59.6745 52.168ZM70.0493 43.628V52H68.4673V43.628H65.5553V42.228H72.9613V43.628H70.0493ZM76.0433 52V42.228H82.3013V43.628H77.6253V46.344H81.8673V47.744H77.6253V50.6H82.3013V52H76.0433ZM85.8822 52V42.228H90.0822C90.9875 42.228 91.6875 42.494 92.1822 43.026C92.6768 43.558 92.9242 44.272 92.9242 45.168C92.9242 46.064 92.6768 46.778 92.1822 47.31C91.6875 47.842 90.9875 48.108 90.0822 48.108H87.4642V52H85.8822ZM87.4642 46.722H89.9842C90.3855 46.722 90.6982 46.6193 90.9222 46.414C91.1462 46.1993 91.2582 45.896 91.2582 45.504V44.832C91.2582 44.44 91.1462 44.1413 90.9222 43.936C90.6982 43.7213 90.3855 43.614 89.9842 43.614H87.4642V46.722Z" fill="#71DDFF" fill-opacity="0.83"/>
<defs>
<linearGradient id="paint0_linear_1520_9728" x1="75.0921" y1="125.805" x2="75.0921" y2="0.500097" gradientUnits="userSpaceOnUse">
<stop offset="0.01" stop-color="#6659E1"/>
<stop offset="1" stop-color="#463AB4"/>
</linearGradient>
<linearGradient id="paint1_linear_1520_9728" x1="47.0373" y1="122.42" x2="47.0373" y2="59.7449" gradientUnits="userSpaceOnUse">
<stop offset="0.01" stop-color="#0EB1D7"/>
<stop offset="1" stop-color="#6659E1"/>
</linearGradient>
<radialGradient id="paint2_radial_1520_9728" cx="0" cy="0" r="1" gradientUnits="userSpaceOnUse" gradientTransform="translate(33.9481 101.712) rotate(90) scale(33.8105 33.9482)">
<stop offset="0.01" stop-color="#0EB1D7"/>
<stop offset="0.14" stop-color="#0B88A5" stop-opacity="0.77"/>
<stop offset="0.3" stop-color="#085F74" stop-opacity="0.54"/>
<stop offset="0.45" stop-color="#053D4A" stop-opacity="0.34"/>
<stop offset="0.6" stop-color="#03222A" stop-opacity="0.19"/>
<stop offset="0.74" stop-color="#010F13" stop-opacity="0.09"/>
<stop offset="0.88" stop-color="#000405" stop-opacity="0.02"/>
<stop offset="0.99" stop-opacity="0"/>
</radialGradient>
<clipPath id="clip0_1520_9728">
<rect width="135" height="138" fill="white" transform="translate(138 0.5) rotate(90)"/>
</clipPath>
</defs>
</svg>
