<svg width="163" height="159" viewBox="0 0 163 159" fill="none" xmlns="http://www.w3.org/2000/svg">
<path d="M77.0018 152.997C76.3938 152.997 75.9458 152.842 75.6578 152.533C75.3698 152.224 75.2258 151.792 75.2258 151.237V144.213H76.9698V151.573H78.2178V152.997H77.0018ZM82.4948 153.157C81.6308 153.157 80.9374 152.944 80.4148 152.517C79.9028 152.09 79.6468 151.445 79.6468 150.581C79.6468 149.76 79.8921 149.125 80.3828 148.677C80.8841 148.229 81.5881 148.005 82.4948 148.005H85.2148V147.333C85.2148 146.714 85.0441 146.245 84.7028 145.925C84.3721 145.605 83.8548 145.445 83.1508 145.445C82.5214 145.445 82.0041 145.578 81.5988 145.845C81.2041 146.112 80.8788 146.448 80.6228 146.853L79.5028 145.877C79.8441 145.333 80.3081 144.89 80.8948 144.549C81.4921 144.197 82.2814 144.021 83.2628 144.021C84.2761 144.021 85.0814 144.218 85.6788 144.613C85.7748 144.037 86.1374 143.749 86.7668 143.749H88.7348V145.269H86.3508V145.301C86.7561 145.824 86.9588 146.48 86.9588 147.269V152.997H85.2148V149.173H83.0228C82.5108 149.173 82.1161 149.28 81.8388 149.493C81.5721 149.706 81.4388 150.016 81.4388 150.421V150.741C81.4388 151.146 81.5614 151.466 81.8068 151.701C82.0521 151.936 82.3881 152.053 82.8148 152.053C83.0281 152.053 83.1988 152.037 83.3268 152.005L83.4708 153.061C83.3748 153.082 83.2254 153.104 83.0228 153.125C82.8201 153.146 82.6441 153.157 82.4948 153.157ZM93.0559 153.189C92.2345 153.189 91.5359 153.05 90.9599 152.773C90.3945 152.485 89.8985 152.085 89.4719 151.573L90.5759 150.533C90.8959 150.938 91.2692 151.248 91.6959 151.461C92.1225 151.674 92.6079 151.781 93.1519 151.781C93.7279 151.781 94.1545 151.68 94.4319 151.477C94.7199 151.264 94.8639 150.965 94.8639 150.581C94.8639 150.24 94.7519 149.978 94.5279 149.797C94.3145 149.605 93.9732 149.477 93.5039 149.413L92.6879 149.301C92.2932 149.248 91.9199 149.162 91.5679 149.045C91.2159 148.928 90.9065 148.768 90.6399 148.565C90.3839 148.362 90.1759 148.112 90.0159 147.813C89.8665 147.514 89.7919 147.146 89.7919 146.709C89.7919 146.282 89.8719 145.904 90.0319 145.573C90.1919 145.232 90.4159 144.949 90.7039 144.725C90.9919 144.49 91.3332 144.314 91.7279 144.197C92.1332 144.08 92.5759 144.021 93.0559 144.021C93.8559 144.021 94.5119 144.144 95.0239 144.389C95.5359 144.624 95.9892 144.954 96.3839 145.381L95.3279 146.437C95.0825 146.16 94.7679 145.925 94.3839 145.733C93.9999 145.541 93.5572 145.445 93.0559 145.445C92.5332 145.445 92.1385 145.546 91.8719 145.749C91.6052 145.952 91.4719 146.229 91.4719 146.581C91.4719 146.954 91.5945 147.232 91.8399 147.413C92.0852 147.594 92.4479 147.717 92.9279 147.781L93.7439 147.909C94.1599 147.973 94.5385 148.064 94.8799 148.181C95.2319 148.298 95.5305 148.458 95.7759 148.661C96.0212 148.853 96.2079 149.093 96.3359 149.381C96.4745 149.669 96.5439 150.016 96.5439 150.421C96.5439 150.837 96.4585 151.216 96.2879 151.557C96.1279 151.898 95.8932 152.192 95.5839 152.437C95.2852 152.672 94.9172 152.858 94.4799 152.997C94.0532 153.125 93.5785 153.189 93.0559 153.189ZM91.6836 142.805C91.1716 142.805 90.7556 142.634 90.4356 142.293C90.1156 141.941 89.9556 141.472 89.9556 140.885C89.9556 140.256 90.1476 139.749 90.5316 139.365C90.9156 138.97 91.449 138.773 92.1316 138.773H96.5156V139.925H92.1156C91.8596 139.925 91.6623 140.01 91.5236 140.181C91.3743 140.341 91.2996 140.56 91.2996 140.837C91.2996 141.402 91.5396 141.685 92.0196 141.685C92.1583 141.685 92.2703 141.653 92.3556 141.589C92.441 141.525 92.5103 141.445 92.5636 141.349C92.617 141.253 92.6596 141.152 92.6916 141.045C92.713 140.928 92.7236 140.821 92.7236 140.725H93.7476C93.7476 140.821 93.7636 140.928 93.7956 141.045C93.817 141.152 93.8543 141.253 93.9076 141.349C93.961 141.445 94.0303 141.525 94.1156 141.589C94.201 141.653 94.313 141.685 94.4516 141.685C94.9316 141.685 95.1716 141.402 95.1716 140.837V140.485H96.5156V141.029C96.5156 141.594 96.3663 142.032 96.0676 142.341C95.769 142.65 95.3476 142.805 94.8036 142.805C94.4516 142.805 94.137 142.72 93.8596 142.549C93.5823 142.378 93.3903 142.106 93.2836 141.733H93.2036C93.097 142.106 92.905 142.378 92.6276 142.549C92.3503 142.72 92.0356 142.805 91.6836 142.805ZM99.4078 149.477H98.4798V148.053H99.7598C100.293 148.053 100.645 148.288 100.816 148.757L101.824 151.637H102.336C102.784 151.637 103.141 151.424 103.408 150.997C103.674 150.57 103.808 149.978 103.808 149.221V147.845C103.808 147.088 103.605 146.501 103.2 146.085C102.794 145.658 102.224 145.445 101.488 145.445C101.136 145.445 100.81 145.488 100.512 145.573C100.224 145.658 99.9678 145.776 99.7438 145.925C99.5198 146.064 99.3224 146.224 99.1518 146.405C98.9811 146.586 98.8371 146.773 98.7198 146.965L97.6158 145.989C97.7758 145.722 97.9731 145.472 98.2078 145.237C98.4424 145.002 98.7198 144.794 99.0398 144.613C99.3704 144.432 99.7438 144.288 100.16 144.181C100.576 144.074 101.045 144.021 101.568 144.021C102.858 144.021 103.861 144.421 104.576 145.221C105.301 146.01 105.664 147.114 105.664 148.533C105.664 149.226 105.584 149.85 105.424 150.405C105.264 150.96 105.034 151.429 104.736 151.813C104.437 152.197 104.08 152.49 103.664 152.693C103.248 152.896 102.778 152.997 102.256 152.997H100.656L99.4078 149.477ZM110.26 153.157C109.396 153.157 108.703 152.944 108.18 152.517C107.668 152.09 107.412 151.445 107.412 150.581C107.412 149.76 107.658 149.125 108.148 148.677C108.65 148.229 109.354 148.005 110.26 148.005H112.98V147.333C112.98 146.714 112.81 146.245 112.468 145.925C112.138 145.605 111.62 145.445 110.916 145.445C110.287 145.445 109.77 145.578 109.364 145.845C108.97 146.112 108.644 146.448 108.388 146.853L107.268 145.877C107.61 145.333 108.074 144.89 108.66 144.549C109.258 144.197 110.047 144.021 111.028 144.021C112.042 144.021 112.847 144.218 113.444 144.613C113.54 144.037 113.903 143.749 114.532 143.749H116.5V145.269H114.116V145.301C114.522 145.824 114.724 146.48 114.724 147.269V152.997H112.98V149.173H110.788C110.276 149.173 109.882 149.28 109.604 149.493C109.338 149.706 109.204 150.016 109.204 150.421V150.741C109.204 151.146 109.327 151.466 109.572 151.701C109.818 151.936 110.154 152.053 110.58 152.053C110.794 152.053 110.964 152.037 111.092 152.005L111.236 153.061C111.14 153.082 110.991 153.104 110.788 153.125C110.586 153.146 110.41 153.157 110.26 153.157ZM107.823 141.269H114.719V142.645H107.823V141.269ZM111.887 138.069H112.975V137.525C112.975 137.312 112.921 137.157 112.815 137.061C112.708 136.965 112.532 136.917 112.287 136.917H111.887V135.861H112.847C113.327 135.861 113.684 135.962 113.919 136.165C114.153 136.357 114.271 136.618 114.271 136.949C114.271 137.152 114.217 137.354 114.111 137.557C113.993 137.76 113.839 137.904 113.647 137.989V138.069H116.127V139.125H111.887V138.069ZM120.579 153.189C119.662 153.189 118.953 152.896 118.451 152.309C117.95 151.712 117.699 150.869 117.699 149.781V144.213H119.443V149.589C119.443 150.272 119.582 150.794 119.859 151.157C120.147 151.509 120.606 151.685 121.235 151.685C121.47 151.685 121.705 151.658 121.939 151.605C122.174 151.541 122.382 151.445 122.563 151.317C122.755 151.189 122.905 151.029 123.011 150.837C123.129 150.634 123.187 150.4 123.187 150.133V144.213H124.931V151.573H125.859V152.997H124.707C124.259 152.997 123.923 152.869 123.699 152.613C123.475 152.346 123.353 151.978 123.331 151.509H123.251C123.07 152 122.755 152.405 122.307 152.725C121.87 153.034 121.294 153.189 120.579 153.189Z" fill="#5CA8EF"/>
<g clip-path="url(#clip0_1530_9738)">
<path d="M90.4125 84.3811C88.9832 84.3811 87.7458 84.1251 86.7005 83.6131C85.6552 83.0797 84.7912 82.3224 84.1085 81.3411C83.4258 80.3597 82.9138 79.1544 82.5725 77.7251C82.2525 76.2957 82.0925 74.6637 82.0925 72.8291C82.0925 71.0157 82.2525 69.3944 82.5725 67.9651C82.9138 66.5144 83.4258 65.2984 84.1085 64.3171C84.7912 63.3357 85.6552 62.5891 86.7005 62.0771C87.7458 61.5437 88.9832 61.2771 90.4125 61.2771C93.2498 61.2771 95.3405 62.2904 96.6845 64.3171C98.0498 66.3437 98.7325 69.1811 98.7325 72.8291C98.7325 76.4771 98.0498 79.3144 96.6845 81.3411C95.3405 83.3677 93.2498 84.3811 90.4125 84.3811ZM90.4125 80.8291C91.8418 80.8291 92.8338 80.2957 93.3885 79.2291C93.9645 78.1411 94.2525 76.6797 94.2525 74.8451V70.8131C94.2525 68.9784 93.9645 67.5277 93.3885 66.4611C92.8338 65.3731 91.8418 64.8291 90.4125 64.8291C88.9832 64.8291 87.9805 65.3731 87.4045 66.4611C86.8498 67.5277 86.5725 68.9784 86.5725 70.8131V74.8451C86.5725 76.6797 86.8498 78.1411 87.4045 79.2291C87.9805 80.2957 88.9832 80.8291 90.4125 80.8291ZM111.136 83.9971V79.6771H101.024V76.0931L109.92 61.6611H115.136V76.4131H118.048V79.6771H115.136V83.9971H111.136ZM104.48 76.4131H111.136V65.7571H110.88L104.48 76.4131Z" fill="#26CFFF"/>
<path d="M84.6745 53.1651C83.8532 53.1651 83.1532 53.0157 82.5745 52.7171C82.0052 52.4184 81.5152 52.0171 81.1045 51.5131L82.1965 50.4911C82.5418 50.9111 82.9198 51.2284 83.3305 51.4431C83.7505 51.6577 84.2265 51.7651 84.7585 51.7651C85.3838 51.7651 85.8552 51.6251 86.1725 51.3451C86.4898 51.0651 86.6485 50.6871 86.6485 50.2111C86.6485 49.8284 86.5365 49.5251 86.3125 49.3011C86.0885 49.0771 85.6918 48.9091 85.1225 48.7971L84.2545 48.6431C83.3025 48.4657 82.5885 48.1531 82.1125 47.7051C81.6365 47.2571 81.3985 46.6411 81.3985 45.8571C81.3985 45.4277 81.4778 45.0404 81.6365 44.6951C81.8045 44.3404 82.0332 44.0464 82.3225 43.8131C82.6212 43.5704 82.9805 43.3837 83.4005 43.2531C83.8205 43.1224 84.2918 43.0571 84.8145 43.0571C85.5518 43.0571 86.1912 43.1877 86.7325 43.4491C87.2738 43.7011 87.7358 44.0697 88.1185 44.5551L87.0125 45.5351C86.7605 45.2084 86.4525 44.9471 86.0885 44.7511C85.7245 44.5551 85.2718 44.4571 84.7305 44.4571C84.1705 44.4571 83.7365 44.5691 83.4285 44.7931C83.1205 45.0171 82.9665 45.3437 82.9665 45.7731C82.9665 46.1837 83.0925 46.4917 83.3445 46.6971C83.5965 46.8931 83.9885 47.0424 84.5205 47.1451L85.3885 47.3271C86.3685 47.5137 87.0825 47.8311 87.5305 48.2791C87.9878 48.7271 88.2165 49.3431 88.2165 50.1271C88.2165 50.5844 88.1372 50.9997 87.9785 51.3731C87.8198 51.7464 87.5865 52.0684 87.2785 52.3391C86.9798 52.6004 86.6112 52.8057 86.1725 52.9551C85.7338 53.0951 85.2345 53.1651 84.6745 53.1651ZM95.0493 44.6251V52.9971H93.4673V44.6251H90.5553V43.2251H97.9613V44.6251H95.0493ZM101.043 52.9971V43.2251H107.301V44.6251H102.625V47.3411H106.867V48.7411H102.625V51.5971H107.301V52.9971H101.043ZM110.882 52.9971V43.2251H115.082C115.987 43.2251 116.687 43.4911 117.182 44.0231C117.677 44.5551 117.924 45.2691 117.924 46.1651C117.924 47.0611 117.677 47.7751 117.182 48.3071C116.687 48.8391 115.987 49.1051 115.082 49.1051H112.464V52.9971H110.882ZM112.464 47.7191H114.984C115.385 47.7191 115.698 47.6164 115.922 47.4111C116.146 47.1964 116.258 46.8931 116.258 46.5011V45.8291C116.258 45.4371 116.146 45.1384 115.922 44.9331C115.698 44.7184 115.385 44.6111 114.984 44.6111H112.464V47.7191Z" fill="#71DDFF" fill-opacity="0.83"/>
<path opacity="0.3" d="M99.3619 119.721C129.937 119.721 154.724 94.9344 154.724 64.3589C154.724 33.7834 129.937 8.99707 99.3619 8.99707C68.7863 8.99707 44 33.7834 44 64.3589C44 94.9344 68.7863 119.721 99.3619 119.721Z" stroke="url(#paint0_linear_1530_9738)" stroke-width="10" stroke-linecap="round" stroke-linejoin="round"/>
<path d="M99.3619 119.721C129.937 119.721 154.724 94.9344 154.724 64.3589C154.724 33.7834 129.937 8.99707 99.3619 8.99707C68.7863 8.99707 44 33.7834 44 64.3589C44 94.9344 68.7863 119.721 99.3619 119.721Z" stroke="url(#paint1_linear_1530_9738)" stroke-width="5" stroke-linecap="round" stroke-linejoin="round"/>
<path style="mix-blend-mode:screen" d="M138.724 144.884C161.659 144.884 180.251 126.292 180.251 103.357C180.251 80.4223 161.659 61.8301 138.724 61.8301C115.789 61.8301 97.1973 80.4223 97.1973 103.357C97.1973 126.292 115.789 144.884 138.724 144.884Z" fill="url(#paint2_radial_1530_9738)"/>
</g>
<defs>
<linearGradient id="paint0_linear_1530_9738" x1="161.478" y1="64.3589" x2="37.2677" y2="64.3589" gradientUnits="userSpaceOnUse">
<stop offset="0.01" stop-color="#6659E1"/>
<stop offset="1" stop-color="#463AB4"/>
</linearGradient>
<linearGradient id="paint1_linear_1530_9738" x1="158.101" y1="64.3589" x2="40.6447" y2="64.3589" gradientUnits="userSpaceOnUse">
<stop offset="0.01" stop-color="#0EB1D7"/>
<stop offset="1" stop-color="#6659E1"/>
</linearGradient>
<radialGradient id="paint2_radial_1530_9738" cx="0" cy="0" r="1" gradientUnits="userSpaceOnUse" gradientTransform="translate(138.724 103.357) scale(41.5268)">
<stop offset="0.01" stop-color="#0EB1D7"/>
<stop offset="0.14" stop-color="#0B88A5" stop-opacity="0.77"/>
<stop offset="0.3" stop-color="#085F74" stop-opacity="0.54"/>
<stop offset="0.45" stop-color="#053D4A" stop-opacity="0.34"/>
<stop offset="0.6" stop-color="#03222A" stop-opacity="0.19"/>
<stop offset="0.74" stop-color="#010F13" stop-opacity="0.09"/>
<stop offset="0.88" stop-color="#000405" stop-opacity="0.02"/>
<stop offset="0.99" stop-opacity="0"/>
</radialGradient>
<clipPath id="clip0_1530_9738">
<rect width="162" height="126" fill="white" transform="translate(162.5 126.997) rotate(-180)"/>
</clipPath>
</defs>
</svg>
