<svg width="75" height="56" viewBox="0 0 75 56" fill="none" xmlns="http://www.w3.org/2000/svg">
<path d="M26.384 55.9334H30.3579C31.4581 55.9334 32.3484 55.0446 32.3484 53.9459V49.7384H64.1667V53.9459C64.1667 55.044 65.0556 55.9334 66.1547 55.9334H70.1307C71.2313 55.9334 72.1207 55.0446 72.1207 53.9459V49.7384H74.1092V44.6445H22.406V49.7384H24.3945V53.9459C24.3945 55.0446 25.2828 55.9334 26.384 55.9334Z" fill="white"/>
<path d="M20.9855 16.5857V15.6021C20.9855 12.8971 18.772 10.6836 16.067 10.6836H15.0834H5.90211H4.91851C2.21348 10.6836 0 12.8971 0 15.6021V15.93V16.5857V30.3571C0 31.1213 0.476851 31.7705 1.14779 32.0329V33.3079H0V44.4564H3.60704V33.3079H2.45926V32.0329C3.13019 31.7699 3.60704 31.1208 3.60704 30.3571V16.5857H4.59064V26.255V31.0134V53.4781C4.59064 54.8286 5.69536 55.9333 7.04585 55.9333H7.38131C8.7318 55.9333 9.83651 54.8286 9.83651 53.4781V32.3248H11.1485V53.4781C11.1485 54.8286 12.2532 55.9333 13.6037 55.9333H13.9392C15.2896 55.9333 16.3944 54.8286 16.3944 53.4781V31.0134V26.255V16.5857H17.378V24.0182C17.378 24.7991 17.8807 25.4913 18.623 25.733L26.0003 28.135L24.4963 32.148C23.1549 32.5215 22.4054 32.7698 22.4054 32.7698V42.8982H74.1091V32.7698C74.1091 32.7698 73.3596 32.5215 72.0202 32.148L65.6271 15.0888C65.6271 15.0888 52.3513 12.8798 48.2598 12.8798C44.1658 12.8798 30.8909 15.0888 30.8909 15.0888L27.2677 24.7545L20.985 22.7093L20.9855 16.5857ZM69.8433 37.333C69.8433 39.1842 68.3443 40.6842 66.4916 40.6842C64.6425 40.6842 63.142 39.1842 63.142 37.333C63.142 35.4819 64.6425 33.9814 66.4916 33.9814C68.3443 33.9814 69.8433 35.4819 69.8433 37.333ZM33.8063 18.6391C36.8503 18.1495 45.1884 16.8594 48.2598 16.8594C51.3287 16.8594 59.6687 18.1495 62.7103 18.6355L67.2604 30.7752C67.2604 30.7752 55.2022 28.7943 48.2572 28.7943C41.3097 28.7943 29.2476 30.7752 29.2476 30.7752L33.8063 18.6391ZM30.0234 33.9814C31.873 33.9814 33.374 35.4819 33.374 37.333C33.374 39.1842 31.8725 40.6842 30.0234 40.6842C28.1707 40.6842 26.6717 39.1842 26.6717 37.333C26.6717 35.4819 28.1707 33.9814 30.0234 33.9814Z" fill="white"/>
<path d="M57.1956 28.2999C59.731 28.2999 61.7863 26.2446 61.7863 23.7093C61.7863 21.174 59.731 19.1187 57.1956 19.1187C54.6603 19.1187 52.605 21.174 52.605 23.7093C52.605 26.2446 54.6603 28.2999 57.1956 28.2999Z" fill="white"/>
<path d="M10.4927 9.37221C13.0281 9.37221 15.0834 7.3169 15.0834 4.78156C15.0834 2.24622 13.0281 0.190918 10.4927 0.190918C7.9574 0.190918 5.9021 2.24622 5.9021 4.78156C5.9021 7.3169 7.9574 9.37221 10.4927 9.37221Z" fill="white"/>
</svg>
