<svg width="30" height="30" viewBox="0 0 30 30" fill="none" xmlns="http://www.w3.org/2000/svg">
<path fill-rule="evenodd" clip-rule="evenodd" d="M21.2888 3.08628C21.3761 3.17336 21.4453 3.27682 21.4926 3.39071C21.5399 3.50461 21.5642 3.62671 21.5642 3.75003C21.5642 3.87334 21.5399 3.99544 21.4926 4.10934C21.4453 4.22324 21.3761 4.32669 21.2888 4.41378L10.7006 15L21.2888 25.5863C21.3759 25.6734 21.4451 25.7769 21.4922 25.8908C21.5394 26.0047 21.5637 26.1268 21.5637 26.25C21.5637 26.3733 21.5394 26.4954 21.4922 26.6092C21.4451 26.7231 21.3759 26.8266 21.2888 26.9138C21.2016 27.0009 21.0981 27.0701 20.9842 27.1173C20.8703 27.1644 20.7483 27.1887 20.625 27.1887C20.5017 27.1887 20.3797 27.1644 20.2658 27.1173C20.1519 27.0701 20.0484 27.0009 19.9613 26.9138L8.71125 15.6638C8.62395 15.5767 8.55468 15.4732 8.50742 15.3593C8.46016 15.2454 8.43583 15.1233 8.43583 15C8.43583 14.8767 8.46016 14.7546 8.50742 14.6407C8.55468 14.5268 8.62395 14.4234 8.71125 14.3363L19.9613 3.08628C20.0483 2.99897 20.1518 2.9297 20.2657 2.88244C20.3796 2.83518 20.5017 2.81085 20.625 2.81085C20.7483 2.81085 20.8704 2.83518 20.9843 2.88244C21.0982 2.9297 21.2017 2.99897 21.2888 3.08628Z" fill="#666666" fill-opacity="0.6"/>
</svg>
