<svg width="35" height="16" viewBox="0 0 35 16" fill="none" xmlns="http://www.w3.org/2000/svg">
<path d="M26.9828 15.1983C24.9727 15.1983 23.3369 13.5627 23.3369 11.5523C23.3369 9.54221 24.9724 7.90637 26.9828 7.90637C28.993 7.90637 30.6288 9.54194 30.6288 11.5523C30.6288 13.5627 28.9932 15.1983 26.9828 15.1983ZM26.9828 9.36509C25.7765 9.36509 24.7952 10.3463 24.7952 11.5527C24.7952 12.759 25.7765 13.7403 26.9828 13.7403C28.1891 13.7403 29.1704 12.759 29.1704 11.5527C29.1704 10.3463 28.1892 9.36509 26.9828 9.36509Z" fill="white"/>
<path d="M6.85917 15.1983C4.84904 15.1983 3.2132 13.5627 3.2132 11.5523C3.2132 9.54221 4.84876 7.90637 6.85917 7.90637C8.8693 7.90637 10.5051 9.54194 10.5051 11.5523C10.5051 13.5627 8.86957 15.1983 6.85917 15.1983ZM6.85917 9.36509C5.65287 9.36509 4.67157 10.3463 4.67157 11.5527C4.67157 12.759 5.6528 13.7403 6.85917 13.7403C8.06546 13.7403 9.04677 12.759 9.04677 11.5527C9.04677 10.3463 8.06553 9.36509 6.85917 9.36509Z" fill="white"/>
<path d="M34.271 13.1312H29.7721C29.5407 13.1312 29.3164 13.0215 29.1789 12.835C29.0413 12.6491 28.9937 12.4084 29.0614 12.1878C29.1355 11.9463 29.1704 11.7448 29.1704 11.5525C29.1704 10.3462 28.1892 9.36492 26.9828 9.36492C25.7765 9.36492 24.7952 10.3462 24.7952 11.5525C24.7952 11.744 24.8293 11.9463 24.9034 12.1891C24.9711 12.41 24.9298 12.6499 24.7923 12.8358C24.6548 13.0217 24.4376 13.1312 24.2062 13.1312H9.63463C9.4032 13.1312 9.18527 13.0215 9.048 12.835C8.91047 12.6491 8.87 12.4084 8.9377 12.1878C9.01176 11.9484 9.04588 11.7464 9.04588 11.5525C9.04588 10.3462 8.06465 9.36492 6.85829 9.36492C5.65192 9.36492 4.67069 10.3462 4.67069 11.5525C4.67069 11.7427 4.7056 11.9448 4.77966 12.1891C4.84737 12.41 4.80611 12.6499 4.66858 12.8358C4.53104 13.0217 4.3139 13.1312 4.08248 13.1312H2.65477C2.56352 13.1312 2.47307 13.114 2.38843 13.0807L0.864449 12.4832C0.618742 12.3872 0.444446 12.1651 0.407944 11.903L0.0064523 8.9571C-0.0213191 8.74921 0.0413653 8.53921 0.1789 8.38105L0.96283 7.47727V5.19793C0.96283 5.01781 1.02974 4.84404 1.15008 4.70942L3.7463 1.82917C3.81745 1.75088 3.90446 1.6882 4.00206 1.64694C4.30833 1.51601 11.6288 -1.52535 21.5812 0.998152C21.6474 1.01534 21.7108 1.04153 21.7698 1.07564L26.817 4.02943L33.7788 5.86366C34.0372 5.93137 34.2374 6.13555 34.3015 6.39555L34.644 7.79549C34.6532 7.83384 34.6596 7.87377 34.6625 7.91371L34.9978 12.3471C35.0135 12.5494 34.9436 12.7486 34.8056 12.8975C34.6675 13.0466 34.4739 13.1313 34.2708 13.1313L34.271 13.1312ZM30.6267 11.6731H33.485L33.2131 8.08349L32.988 7.1636L26.3494 5.41482C26.2854 5.39843 26.224 5.37277 26.1671 5.33945L21.1234 2.38721C12.452 0.22108 5.76099 2.53612 4.71557 2.93338L2.42113 5.47773V7.74997C2.42113 7.92585 2.35765 8.09539 2.24234 8.22789L1.49599 9.08746L1.79512 11.2822L2.79274 11.6731H3.21434C3.21302 11.6331 3.21222 11.5927 3.21222 11.5527C3.21222 9.5426 4.84779 7.90676 6.85819 7.90676C8.86833 7.90676 10.5042 9.54233 10.5042 11.5527C10.5042 11.5927 10.5034 11.6326 10.5021 11.6731H23.3396C23.3383 11.6326 23.3375 11.5927 23.3375 11.5527C23.3375 9.5426 24.9731 7.90676 26.9835 7.90676C28.9936 7.90676 30.6294 9.54233 30.6294 11.5527C30.6289 11.5924 30.6281 11.6323 30.6268 11.6731L30.6267 11.6731Z" fill="white"/>
<path d="M29.8998 6.44831H1.69236C1.28928 6.44831 0.963135 6.1222 0.963135 5.71909C0.963135 5.31598 1.28925 4.98987 1.69236 4.98987H29.8998C30.3028 4.98987 30.629 5.31598 30.629 5.71909C30.629 6.1222 30.3029 6.44831 29.8998 6.44831Z" fill="white"/>
<path d="M16.7751 6.44838C16.372 6.44838 16.0459 6.12227 16.0459 5.71916V0.890721C16.0459 0.487645 16.372 0.161499 16.7751 0.161499C17.1782 0.161499 17.5043 0.487611 17.5043 0.890721V5.71943C17.5041 6.12224 17.178 6.44838 16.7751 6.44838Z" fill="white"/>
</svg>
