<svg width="28" height="28" viewBox="0 0 28 28" fill="none" xmlns="http://www.w3.org/2000/svg">
<path fill-rule="evenodd" clip-rule="evenodd" d="M19.8694 2.88048C19.9509 2.96176 20.0155 3.05831 20.0596 3.16462C20.1038 3.27092 20.1265 3.38488 20.1265 3.49998C20.1265 3.61507 20.1038 3.72903 20.0596 3.83534C20.0155 3.94164 19.9509 4.0382 19.8694 4.11948L9.98715 14L19.8694 23.8805C19.9508 23.9618 20.0153 24.0584 20.0593 24.1647C20.1033 24.271 20.126 24.3849 20.126 24.5C20.126 24.615 20.1033 24.729 20.0593 24.8352C20.0153 24.9415 19.9508 25.0381 19.8694 25.1195C19.788 25.2008 19.6915 25.2654 19.5852 25.3094C19.4789 25.3534 19.365 25.3761 19.2499 25.3761C19.1348 25.3761 19.0209 25.3534 18.9146 25.3094C18.8083 25.2654 18.7118 25.2008 18.6304 25.1195L8.1304 14.6195C8.04892 14.5382 7.98427 14.4416 7.94016 14.3353C7.89605 14.229 7.87334 14.1151 7.87334 14C7.87334 13.8849 7.89605 13.7709 7.94016 13.6646C7.98427 13.5583 8.04892 13.4618 8.1304 13.3805L18.6304 2.88048C18.7117 2.79899 18.8082 2.73434 18.9145 2.69023C19.0208 2.64612 19.1348 2.62341 19.2499 2.62341C19.365 2.62341 19.479 2.64612 19.5853 2.69023C19.6916 2.73434 19.7881 2.79899 19.8694 2.88048Z" fill="white"/>
</svg>
