<?xml version="1.0" encoding="utf-8"?>
<!-- Generator: Adobe Illustrator 26.2.1, SVG Export Plug-In . SVG Version: 6.00 Build 0)  -->
<svg version="1.1" id="Layer_1" xmlns="http://www.w3.org/2000/svg" xmlns:xlink="http://www.w3.org/1999/xlink" x="0px" y="0px"
	 viewBox="0 0 163 158" style="enable-background:new 0 0 163 158;" xml:space="preserve">
<style type="text/css">
	.st0{display:none;fill:#6B5F5F;stroke:#000000;stroke-miterlimit:10;}
	.st1{display:none;fill:#FFFFFF;fill-opacity:0.3;}
	
		.st2{display:none;opacity:0.3;fill:none;stroke:#818181;stroke-width:10;stroke-linecap:round;stroke-linejoin:round;enable-background:new    ;}
	.st3{fill:#5CA8EF;}
	.st4{fill:#26CFFF;}
	.st5{fill:#71DDFF;fill-opacity:0.83;}
	
		.st6{opacity:0.3;fill:none;stroke:url(#SVGID_1_);stroke-width:10;stroke-linecap:round;stroke-linejoin:round;enable-background:new    ;}
	
		.st7{fill:none;stroke:url(#SVGID_00000027599069085836159610000009243482944023339414_);stroke-width:5;stroke-linecap:round;stroke-linejoin:round;}
	.st8{fill:url(#SVGID_00000146495448210222539600000000835521795480785287_);}
</style>
<rect x="-39.9" y="-25.2" class="st0" width="287.6" height="272.1"/>
<path class="st1" d="M95.1,152.2c-0.8,0-1.5-0.1-2.1-0.4c-0.6-0.3-1.1-0.7-1.5-1.2l1.1-1c0.3,0.4,0.7,0.7,1.1,0.9
	c0.4,0.2,0.9,0.3,1.5,0.3c0.6,0,1-0.1,1.3-0.3c0.3-0.2,0.4-0.5,0.4-0.9c0-0.3-0.1-0.6-0.3-0.8c-0.2-0.2-0.6-0.3-1-0.4l-0.8-0.1
	c-0.4-0.1-0.8-0.1-1.1-0.3c-0.4-0.1-0.7-0.3-0.9-0.5c-0.3-0.2-0.5-0.5-0.6-0.8c-0.1-0.3-0.2-0.7-0.2-1.1c0-0.4,0.1-0.8,0.2-1.1
	c0.2-0.3,0.4-0.6,0.7-0.8c0.3-0.2,0.6-0.4,1-0.5c0.4-0.1,0.8-0.2,1.3-0.2c0.8,0,1.5,0.1,2,0.4c0.5,0.2,1,0.6,1.4,1l-1.1,1.1
	c-0.2-0.3-0.6-0.5-0.9-0.7c-0.4-0.2-0.8-0.3-1.3-0.3c-0.5,0-0.9,0.1-1.2,0.3c-0.3,0.2-0.4,0.5-0.4,0.8c0,0.4,0.1,0.7,0.4,0.8
	c0.2,0.2,0.6,0.3,1.1,0.4l0.8,0.1c0.4,0.1,0.8,0.2,1.1,0.3c0.4,0.1,0.7,0.3,0.9,0.5c0.2,0.2,0.4,0.4,0.6,0.7c0.1,0.3,0.2,0.6,0.2,1
	c0,0.4-0.1,0.8-0.3,1.1c-0.2,0.3-0.4,0.6-0.7,0.9c-0.3,0.2-0.7,0.4-1.1,0.6C96.1,152.1,95.6,152.2,95.1,152.2z M96.1,157.6
	c-0.8,0-1.4-0.2-1.7-0.6c-0.4-0.4-0.6-0.8-0.6-1.4V155h-1v-1.2h1.3c0.4,0,0.7,0.1,0.9,0.3c0.2,0.2,0.3,0.4,0.3,0.7v0.7
	c0,0.3,0.1,0.6,0.2,0.8c0.1,0.2,0.4,0.3,0.7,0.3c0.3,0,0.5-0.1,0.7-0.3c0.1-0.2,0.2-0.4,0.2-0.8v-1.6h1.5v1.7c0,0.7-0.2,1.2-0.6,1.6
	C97.5,157.4,96.9,157.6,96.1,157.6z M104.3,152.2c-0.6,0-1.1-0.1-1.6-0.2c-0.5-0.2-0.9-0.4-1.2-0.7c-0.3-0.3-0.6-0.7-0.8-1.1
	c-0.2-0.4-0.3-0.9-0.3-1.5v-5.5h1.7v5.3c0,0.7,0.2,1.2,0.5,1.6c0.4,0.4,0.9,0.6,1.5,0.6s1.1-0.2,1.5-0.6c0.4-0.4,0.5-0.9,0.5-1.6
	v-8.3h1.7v8.4c0,0.5-0.1,1-0.3,1.5c-0.2,0.4-0.4,0.8-0.8,1.1c-0.3,0.3-0.7,0.5-1.2,0.7C105.4,152.1,104.9,152.2,104.3,152.2z"/>
<path class="st2" d="M99.5,6.9c-30.9,0-56,25.1-56,56.2s25.1,56.2,56,56.2c30.9,0,56-25.1,56-56.2S130.4,6.9,99.5,6.9z"/>
<path class="st1" d="M90.4,84.4c-1.4,0-2.7-0.3-3.7-0.8c-1-0.5-1.9-1.3-2.6-2.3s-1.2-2.2-1.5-3.6c-0.3-1.4-0.5-3.1-0.5-4.9
	c0-1.8,0.2-3.4,0.5-4.9c0.3-1.5,0.9-2.7,1.5-3.6s1.5-1.7,2.6-2.2c1-0.5,2.3-0.8,3.7-0.8c2.8,0,4.9,1,6.3,3c1.4,2,2,4.9,2,8.5
	s-0.7,6.5-2,8.5C95.3,83.4,93.2,84.4,90.4,84.4z M90.4,80.8c1.4,0,2.4-0.5,3-1.6c0.6-1.1,0.9-2.5,0.9-4.4v-4c0-1.8-0.3-3.3-0.9-4.4
	c-0.6-1.1-1.5-1.6-3-1.6s-2.4,0.5-3,1.6c-0.6,1.1-0.8,2.5-0.8,4.4v4c0,1.8,0.3,3.3,0.8,4.4C88,80.3,89,80.8,90.4,80.8z M108.4,70.7
	c1.3,0,2.2-0.3,2.8-0.8c0.6-0.5,0.9-1.2,0.9-2v-0.2c0-0.9-0.3-1.6-0.9-2.1c-0.6-0.5-1.4-0.8-2.4-0.8c-1,0-1.9,0.2-2.6,0.7
	c-0.7,0.5-1.4,1.1-2,2l-2.7-2.4c0.4-0.5,0.8-1,1.2-1.4c0.5-0.5,1-0.9,1.6-1.2c0.6-0.3,1.3-0.6,2-0.8c0.7-0.2,1.6-0.3,2.5-0.3
	c1.1,0,2.2,0.1,3.1,0.4c0.9,0.3,1.7,0.6,2.4,1.2c0.7,0.5,1.2,1.1,1.6,1.9c0.4,0.7,0.5,1.5,0.5,2.4c0,0.7-0.1,1.4-0.4,2
	c-0.2,0.6-0.5,1.1-0.9,1.5c-0.4,0.4-0.8,0.8-1.4,1.1c-0.5,0.3-1.1,0.4-1.6,0.6v0.2c0.6,0.1,1.2,0.3,1.8,0.6c0.6,0.3,1.1,0.7,1.5,1.1
	c0.4,0.4,0.8,1,1,1.6c0.3,0.6,0.4,1.3,0.4,2.1c0,1-0.2,1.9-0.6,2.7c-0.4,0.8-0.9,1.5-1.7,2.1c-0.7,0.6-1.6,1-2.6,1.3
	c-1,0.3-2.1,0.4-3.4,0.4c-1.1,0-2-0.1-2.9-0.4c-0.8-0.2-1.6-0.5-2.2-0.9c-0.6-0.4-1.2-0.8-1.6-1.3c-0.5-0.5-0.9-1-1.2-1.6l3.1-2.4
	c0.3,0.4,0.5,0.9,0.8,1.2c0.3,0.4,0.6,0.7,1,1c0.4,0.3,0.8,0.5,1.3,0.6s1,0.2,1.7,0.2c1.2,0,2.2-0.3,2.8-0.9c0.7-0.6,1-1.4,1-2.5
	v-0.2c0-1-0.4-1.8-1.1-2.3c-0.7-0.5-1.7-0.8-3.1-0.8h-2.2v-3.5H108.4z"/>
<path class="st1" d="M84.7,52.2c-0.8,0-1.5-0.1-2.1-0.4c-0.6-0.3-1.1-0.7-1.5-1.2l1.1-1c0.3,0.4,0.7,0.7,1.1,1
	c0.4,0.2,0.9,0.3,1.4,0.3c0.6,0,1.1-0.1,1.4-0.4s0.5-0.7,0.5-1.1c0-0.4-0.1-0.7-0.3-0.9s-0.6-0.4-1.2-0.5l-0.9-0.2
	c-1-0.2-1.7-0.5-2.1-0.9c-0.5-0.4-0.7-1.1-0.7-1.8c0-0.4,0.1-0.8,0.2-1.2c0.2-0.4,0.4-0.6,0.7-0.9c0.3-0.2,0.7-0.4,1.1-0.6
	c0.4-0.1,0.9-0.2,1.4-0.2c0.7,0,1.4,0.1,1.9,0.4c0.5,0.3,1,0.6,1.4,1.1l-1.1,1c-0.3-0.3-0.6-0.6-0.9-0.8c-0.4-0.2-0.8-0.3-1.4-0.3
	c-0.6,0-1,0.1-1.3,0.3c-0.3,0.2-0.5,0.6-0.5,1c0,0.4,0.1,0.7,0.4,0.9c0.3,0.2,0.6,0.3,1.2,0.4l0.9,0.2c1,0.2,1.7,0.5,2.1,1
	c0.5,0.4,0.7,1.1,0.7,1.8c0,0.5-0.1,0.9-0.2,1.2s-0.4,0.7-0.7,1c-0.3,0.3-0.7,0.5-1.1,0.6C85.7,52.1,85.2,52.2,84.7,52.2z M95,43.6
	V52h-1.6v-8.4h-2.9v-1.4H98v1.4H95z M101,52v-9.8h6.3v1.4h-4.7v2.7h4.2v1.4h-4.2v2.9h4.7V52H101z M110.9,52v-9.8h4.2
	c0.9,0,1.6,0.3,2.1,0.8c0.5,0.5,0.7,1.2,0.7,2.1s-0.2,1.6-0.7,2.1c-0.5,0.5-1.2,0.8-2.1,0.8h-2.6V52H110.9z M112.5,46.7h2.5
	c0.4,0,0.7-0.1,0.9-0.3c0.2-0.2,0.3-0.5,0.3-0.9v-0.7c0-0.4-0.1-0.7-0.3-0.9c-0.2-0.2-0.5-0.3-0.9-0.3h-2.5V46.7z"/>
<path class="st3" d="M95.1,151.6c-0.8,0-1.5-0.1-2.1-0.4c-0.6-0.3-1.1-0.7-1.5-1.2l1.1-1c0.3,0.4,0.7,0.7,1.1,0.9
	c0.4,0.2,0.9,0.3,1.5,0.3c0.6,0,1-0.1,1.3-0.3c0.3-0.2,0.4-0.5,0.4-0.9c0-0.3-0.1-0.6-0.3-0.8c-0.2-0.2-0.6-0.3-1-0.4l-0.8-0.1
	c-0.4-0.1-0.8-0.1-1.1-0.3c-0.4-0.1-0.7-0.3-0.9-0.5c-0.3-0.2-0.5-0.5-0.6-0.8c-0.1-0.3-0.2-0.7-0.2-1.1c0-0.4,0.1-0.8,0.2-1.1
	c0.2-0.3,0.4-0.6,0.7-0.8c0.3-0.2,0.6-0.4,1-0.5c0.4-0.1,0.8-0.2,1.3-0.2c0.8,0,1.5,0.1,2,0.4c0.5,0.2,1,0.6,1.4,1l-1.1,1.1
	c-0.2-0.3-0.6-0.5-0.9-0.7c-0.4-0.2-0.8-0.3-1.3-0.3c-0.5,0-0.9,0.1-1.2,0.3c-0.3,0.2-0.4,0.5-0.4,0.8c0,0.4,0.1,0.7,0.4,0.8
	c0.2,0.2,0.6,0.3,1.1,0.4l0.8,0.1c0.4,0.1,0.8,0.2,1.1,0.3c0.4,0.1,0.7,0.3,0.9,0.5c0.2,0.2,0.4,0.4,0.6,0.7c0.1,0.3,0.2,0.6,0.2,1
	c0,0.4-0.1,0.8-0.3,1.1c-0.2,0.3-0.4,0.6-0.7,0.9c-0.3,0.2-0.7,0.4-1.1,0.6C96.1,151.5,95.6,151.6,95.1,151.6z M96.1,157
	c-0.8,0-1.4-0.2-1.7-0.6c-0.4-0.4-0.6-0.8-0.6-1.4v-0.7h-1v-1.2h1.3c0.4,0,0.7,0.1,0.9,0.3c0.2,0.2,0.3,0.4,0.3,0.7v0.7
	c0,0.3,0.1,0.6,0.2,0.8c0.1,0.2,0.4,0.3,0.7,0.3c0.3,0,0.5-0.1,0.7-0.3c0.1-0.2,0.2-0.4,0.2-0.8v-1.6h1.5v1.7c0,0.7-0.2,1.2-0.6,1.6
	C97.5,156.8,96.9,157,96.1,157z M104.4,151.6c-0.6,0-1.1-0.1-1.6-0.2c-0.5-0.2-0.9-0.4-1.2-0.7c-0.3-0.3-0.6-0.7-0.8-1.1
	c-0.2-0.4-0.3-0.9-0.3-1.5v-5.5h1.7v5.3c0,0.7,0.2,1.2,0.5,1.6c0.4,0.4,0.9,0.6,1.5,0.6s1.1-0.2,1.5-0.6c0.4-0.4,0.5-0.9,0.5-1.6
	v-8.3h1.7v8.4c0,0.5-0.1,1-0.3,1.5c-0.2,0.4-0.4,0.8-0.8,1.1c-0.3,0.3-0.7,0.5-1.2,0.7C105.5,151.5,104.9,151.6,104.4,151.6z"/>
<path class="st4" d="M90.4,83.8c-1.4,0-2.7-0.3-3.7-0.8c-1-0.5-1.9-1.3-2.6-2.3c-0.7-1-1.2-2.2-1.5-3.6c-0.3-1.4-0.5-3.1-0.5-4.9
	c0-1.8,0.2-3.4,0.5-4.9c0.3-1.5,0.9-2.7,1.5-3.6c0.7-1,1.5-1.7,2.6-2.2c1-0.5,2.3-0.8,3.7-0.8c2.8,0,4.9,1,6.3,3c1.4,2,2,4.9,2,8.5
	c0,3.6-0.7,6.5-2,8.5C95.4,82.8,93.3,83.8,90.4,83.8z M90.4,80.2c1.4,0,2.4-0.5,3-1.6c0.6-1.1,0.9-2.5,0.9-4.4v-4
	c0-1.8-0.3-3.3-0.9-4.4c-0.6-1.1-1.5-1.6-3-1.6s-2.4,0.5-3,1.6c-0.6,1.1-0.8,2.5-0.8,4.4v4c0,1.8,0.3,3.3,0.8,4.4
	C88,79.7,89,80.2,90.4,80.2z M108.4,70.1c1.3,0,2.2-0.3,2.8-0.8c0.6-0.5,0.9-1.2,0.9-2v-0.2c0-0.9-0.3-1.6-0.9-2.1
	c-0.6-0.5-1.4-0.8-2.4-0.8c-1,0-1.9,0.2-2.6,0.7c-0.7,0.5-1.4,1.1-2,2l-2.7-2.4c0.4-0.5,0.8-1,1.2-1.4c0.5-0.5,1-0.9,1.6-1.2
	c0.6-0.3,1.3-0.6,2-0.8c0.7-0.2,1.6-0.3,2.5-0.3c1.1,0,2.2,0.1,3.1,0.4c0.9,0.3,1.7,0.6,2.4,1.2c0.7,0.5,1.2,1.1,1.6,1.9
	c0.4,0.7,0.5,1.5,0.5,2.4c0,0.7-0.1,1.4-0.4,2c-0.2,0.6-0.5,1.1-0.9,1.5c-0.4,0.4-0.8,0.8-1.4,1.1c-0.5,0.3-1.1,0.4-1.6,0.6v0.2
	c0.6,0.1,1.2,0.3,1.8,0.6c0.6,0.3,1.1,0.7,1.5,1.1c0.4,0.4,0.8,1,1,1.6c0.3,0.6,0.4,1.3,0.4,2.1c0,1-0.2,1.9-0.6,2.7
	c-0.4,0.8-0.9,1.5-1.7,2.1c-0.7,0.6-1.6,1-2.6,1.3c-1,0.3-2.1,0.4-3.4,0.4c-1.1,0-2-0.1-2.9-0.4c-0.8-0.2-1.6-0.5-2.2-0.9
	c-0.6-0.4-1.2-0.8-1.6-1.3c-0.5-0.5-0.9-1-1.2-1.6l3.1-2.4c0.3,0.4,0.5,0.9,0.8,1.2c0.3,0.4,0.6,0.7,1,1c0.4,0.3,0.8,0.5,1.3,0.6
	c0.5,0.1,1,0.2,1.7,0.2c1.2,0,2.2-0.3,2.8-0.9s1-1.4,1-2.5v-0.2c0-1-0.4-1.8-1.1-2.3c-0.7-0.5-1.7-0.8-3.1-0.8h-2.2v-3.5H108.4z"/>
<path class="st5" d="M84.7,51.5c-0.8,0-1.5-0.1-2.1-0.4c-0.6-0.3-1.1-0.7-1.5-1.2l1.1-1c0.3,0.4,0.7,0.7,1.1,1
	c0.4,0.2,0.9,0.3,1.4,0.3c0.6,0,1.1-0.1,1.4-0.4s0.5-0.7,0.5-1.1c0-0.4-0.1-0.7-0.3-0.9s-0.6-0.4-1.2-0.5L84.3,47
	c-1-0.2-1.7-0.5-2.1-0.9c-0.5-0.4-0.7-1.1-0.7-1.8c0-0.4,0.1-0.8,0.2-1.2c0.2-0.4,0.4-0.6,0.7-0.9c0.3-0.2,0.7-0.4,1.1-0.6
	c0.4-0.1,0.9-0.2,1.4-0.2c0.7,0,1.4,0.1,1.9,0.4c0.5,0.3,1,0.6,1.4,1.1l-1.1,1c-0.3-0.3-0.6-0.6-0.9-0.8c-0.4-0.2-0.8-0.3-1.4-0.3
	c-0.6,0-1,0.1-1.3,0.3s-0.5,0.6-0.5,1c0,0.4,0.1,0.7,0.4,0.9c0.3,0.2,0.6,0.3,1.2,0.4l0.9,0.2c1,0.2,1.7,0.5,2.1,1
	c0.5,0.4,0.7,1.1,0.7,1.8c0,0.5-0.1,0.9-0.2,1.2c-0.2,0.4-0.4,0.7-0.7,1c-0.3,0.3-0.7,0.5-1.1,0.6C85.7,51.5,85.2,51.5,84.7,51.5z
	 M95.1,43v8.4h-1.6V43h-2.9v-1.4H98V43H95.1z M101.1,51.4v-9.8h6.3V43h-4.7v2.7h4.2v1.4h-4.2V50h4.7v1.4H101.1z M110.9,51.4v-9.8
	h4.2c0.9,0,1.6,0.3,2.1,0.8c0.5,0.5,0.7,1.2,0.7,2.1c0,0.9-0.2,1.6-0.7,2.1c-0.5,0.5-1.2,0.8-2.1,0.8h-2.6v3.9H110.9z M112.5,46.1
	h2.5c0.4,0,0.7-0.1,0.9-0.3c0.2-0.2,0.3-0.5,0.3-0.9v-0.7c0-0.4-0.1-0.7-0.3-0.9c-0.2-0.2-0.5-0.3-0.9-0.3h-2.5V46.1z"/>
<linearGradient id="SVGID_1_" gradientUnits="userSpaceOnUse" x1="162.0415" y1="95.6236" x2="36.7208" y2="95.6236" gradientTransform="matrix(1 0 0 -1 0 157.8898)">
	<stop  offset="1.000000e-02" style="stop-color:#6659E1"/>
	<stop  offset="1" style="stop-color:#463AB4"/>
</linearGradient>
<path class="st6" d="M99.4,118.1c30.9,0,55.9-25,55.9-55.8c0-30.8-25-55.8-55.9-55.8s-55.9,25-55.9,55.8
	C43.5,93.1,68.5,118.1,99.4,118.1z"/>
<linearGradient id="SVGID_00000041999941307583722960000010319235523487239868_" gradientUnits="userSpaceOnUse" x1="158.7765" y1="95.3563" x2="40.2498" y2="95.3563" gradientTransform="matrix(1 0 0 -1 0 157.8898)">
	<stop  offset="1.000000e-02" style="stop-color:#0EB1D7"/>
	<stop  offset="1" style="stop-color:#6659E1"/>
</linearGradient>
<path style="fill:none;stroke:url(#SVGID_00000041999941307583722960000010319235523487239868_);stroke-width:5;stroke-linecap:round;stroke-linejoin:round;" d="
	M43.6,62.5c0-11,3.3-21.8,9.4-31c6.1-9.2,14.9-16.3,25.1-20.6s21.4-5.3,32.3-3.2c10.8,2.2,20.8,7.5,28.6,15.3
	c7.8,7.8,13.1,17.8,15.3,28.6c2.2,10.8,1,22.1-3.2,32.3c-4.2,10.2-11.4,18.9-20.6,25.1c-9.2,6.1-20,9.4-31,9.4"/>
<radialGradient id="SVGID_00000168082904406536989550000007659025285591924899_" cx="-210.3641" cy="493.1087" r="1" gradientTransform="matrix(45.0714 0 0 -45.0331 9620.918 22233.0449)" gradientUnits="userSpaceOnUse">
	<stop  offset="1.000000e-02" style="stop-color:#0EB1D7"/>
	<stop  offset="0.14" style="stop-color:#0B88A5;stop-opacity:0.77"/>
	<stop  offset="0.3" style="stop-color:#085F74;stop-opacity:0.54"/>
	<stop  offset="0.45" style="stop-color:#053D4A;stop-opacity:0.34"/>
	<stop  offset="0.6" style="stop-color:#03222A;stop-opacity:0.19"/>
	<stop  offset="0.74" style="stop-color:#010F13;stop-opacity:9.000000e-02"/>
	<stop  offset="0.88" style="stop-color:#000405;stop-opacity:2.000000e-02"/>
	<stop  offset="0.99" style="stop-color:#000000;stop-opacity:0"/>
</radialGradient>
<path style="fill:url(#SVGID_00000168082904406536989550000007659025285591924899_);" d="M168.5,61.3c19.1-16,21.5-44.4,5.5-63.4
	s-44.4-21.5-63.5-5.5S89,36.7,105,55.8S149.4,77.3,168.5,61.3z"/>
</svg>
