<svg width="88" height="56" viewBox="0 0 88 56" fill="none" xmlns="http://www.w3.org/2000/svg">
<path d="M17.3373 4.78606C17.3373 7.32351 15.2796 9.38121 12.7421 9.38121C10.2047 9.38121 8.14697 7.32351 8.14697 4.78606C8.14697 2.24862 10.2047 0.190918 12.7421 0.190918C15.2796 0.190918 17.3373 2.24862 17.3373 4.78606Z" fill="white"/>
<path d="M30.0689 34.6373C29.9912 34.4326 29.7723 34.316 29.5589 34.3653L29.496 34.3801C29.4837 34.2081 29.4621 34.0317 29.419 33.8474C28.8486 31.3925 27.2231 29.569 25.4589 29.164C25.4496 29.1023 25.4453 29.0413 25.4293 28.9802L21.5481 14.3807C20.971 12.2101 18.9995 10.6943 16.7538 10.6943H8.73132C6.48545 10.6943 4.51409 12.21 3.93695 14.3807L0.0558089 28.9808C-0.177287 29.8565 0.344393 30.7555 1.22003 30.988C1.36124 31.0256 1.50307 31.0435 1.64243 31.0435C2.36822 31.0435 3.03234 30.5582 3.22718 29.8238L6.7421 16.6018H7.66952L1.91126 38.2633H7.49067V53.6892C7.49067 54.9527 8.52478 55.9869 9.78832 55.9869C11.0519 55.9869 12.086 54.9528 12.086 53.6892V38.2633H13.3988V53.6892C13.3988 54.9527 14.4329 55.9869 15.6965 55.9869C16.9599 55.9869 17.9941 54.9528 17.9941 53.6892V38.2633H21.1804L21.583 42.5349C21.5997 42.7075 21.7033 42.8062 21.7637 42.85C21.8241 42.8937 21.9512 42.9603 22.1201 42.9215L31.8253 40.6665C31.9943 40.627 32.0782 40.5111 32.1133 40.4451C32.1485 40.3797 32.1978 40.2453 32.1361 40.0831L30.0689 34.6373ZM21.6862 31.1663L17.815 16.6018H18.7424L22.2574 29.8238C22.2876 29.9379 22.3332 30.044 22.3844 30.1451C22.1131 30.438 21.8786 30.7808 21.6862 31.1663ZM22.9454 35.9027L21.9582 32.1875C22.1419 31.5838 22.4237 31.0602 22.7851 30.6496C23.0774 30.8974 23.4492 31.0436 23.8426 31.0436C23.982 31.0436 24.1238 31.0257 24.265 30.9881C24.8576 30.8308 25.28 30.3665 25.4249 29.8134C26.9117 30.2062 28.2898 31.8293 28.793 33.9935C28.8368 34.1816 28.8572 34.3592 28.8621 34.5275L22.9454 35.9027Z" fill="white"/>
<path d="M35.4456 49.7856H37.4361V53.9973C37.4361 55.0967 38.3253 55.9866 39.4278 55.9866H43.4057C44.507 55.9866 45.3981 55.0968 45.3981 53.9973V49.7856H77.2463V53.9973C77.2463 55.0967 78.1361 55.9866 79.2361 55.9866H83.216C84.3173 55.9866 85.2077 55.0968 85.2077 53.9973V49.7856H87.1981V44.6865H35.4453L35.4456 49.7856Z" fill="white"/>
<path d="M78.7088 15.1037C78.7088 15.1037 65.4202 12.8931 61.3253 12.8931C57.2271 12.8931 43.9402 15.1037 43.9402 15.1037L37.5394 32.1795C36.197 32.5531 35.4465 32.8023 35.4465 32.8023V42.9405H87.1994V32.8023C87.1994 32.8023 86.4489 32.5538 85.109 32.1795L78.7088 15.1037ZM43.0704 40.7244C41.2162 40.7244 39.7152 39.2229 39.7152 37.3699C39.7152 35.5169 41.2161 34.0147 43.0704 34.0147C44.9216 34.0147 46.4243 35.5163 46.4243 37.3699C46.4243 39.2222 44.9215 40.7244 43.0704 40.7244ZM42.2946 30.8058L46.8571 18.6586C49.904 18.1684 58.2502 16.8771 61.3247 16.8771C64.3961 16.8771 72.7443 18.1684 75.7886 18.655L80.3432 30.8059C80.3432 30.8059 68.2737 28.8229 61.3226 28.8229C54.3681 28.8229 42.2942 30.8059 42.2942 30.8059L42.2946 30.8058ZM79.5733 40.7244C77.7221 40.7244 76.2206 39.2229 76.2206 37.3699C76.2206 35.5169 77.7228 34.0147 79.5733 34.0147C81.4275 34.0147 82.9278 35.5163 82.9278 37.3699C82.9278 39.2222 81.4275 40.7244 79.5733 40.7244Z" fill="white"/>
</svg>
