<svg width="15" height="15" viewBox="0 0 15 15" fill="none" xmlns="http://www.w3.org/2000/svg">
<g clip-path="url(#clip0_1670_20093)">
<path d="M13.125 0H1.875C1.37772 0 0.900806 0.197544 0.549175 0.549175C0.197544 0.900806 0 1.37772 0 1.875L0 13.125C0 13.6223 0.197544 14.0992 0.549175 14.4508C0.900806 14.8025 1.37772 15 1.875 15H13.125C13.6223 15 14.0992 14.8025 14.4508 14.4508C14.8025 14.0992 15 13.6223 15 13.125V1.875C15 1.37772 14.8025 0.900806 14.4508 0.549175C14.0992 0.197544 13.6223 0 13.125 0ZM0.9375 3.61594C0.9375 3.1725 1.3575 2.8125 1.875 2.8125H13.125C13.6425 2.8125 14.0625 3.1725 14.0625 3.61594V13.2591C14.0625 13.7025 13.6425 14.0625 13.125 14.0625H1.875C1.3575 14.0625 0.9375 13.7025 0.9375 13.2591V3.61594Z" fill="#B6B6B6"/>
<path d="M6.09375 6.5625C6.34239 6.5625 6.58085 6.46373 6.75666 6.28791C6.93248 6.1121 7.03125 5.87364 7.03125 5.625C7.03125 5.37636 6.93248 5.1379 6.75666 4.96209C6.58085 4.78627 6.34239 4.6875 6.09375 4.6875C5.84511 4.6875 5.60665 4.78627 5.43084 4.96209C5.25502 5.1379 5.15625 5.37636 5.15625 5.625C5.15625 5.87364 5.25502 6.1121 5.43084 6.28791C5.60665 6.46373 5.84511 6.5625 6.09375 6.5625ZM8.90625 6.5625C9.15489 6.5625 9.39335 6.46373 9.56916 6.28791C9.74498 6.1121 9.84375 5.87364 9.84375 5.625C9.84375 5.37636 9.74498 5.1379 9.56916 4.96209C9.39335 4.78627 9.15489 4.6875 8.90625 4.6875C8.65761 4.6875 8.41915 4.78627 8.24334 4.96209C8.06752 5.1379 7.96875 5.37636 7.96875 5.625C7.96875 5.87364 8.06752 6.1121 8.24334 6.28791C8.41915 6.46373 8.65761 6.5625 8.90625 6.5625ZM11.7188 6.5625C11.9674 6.5625 12.2058 6.46373 12.3817 6.28791C12.5575 6.1121 12.6562 5.87364 12.6562 5.625C12.6562 5.37636 12.5575 5.1379 12.3817 4.96209C12.2058 4.78627 11.9674 4.6875 11.7188 4.6875C11.4701 4.6875 11.2317 4.78627 11.0558 4.96209C10.88 5.1379 10.7812 5.37636 10.7812 5.625C10.7812 5.87364 10.88 6.1121 11.0558 6.28791C11.2317 6.46373 11.4701 6.5625 11.7188 6.5625ZM3.28125 9.375C3.52989 9.375 3.76835 9.27623 3.94416 9.10041C4.11998 8.9246 4.21875 8.68614 4.21875 8.4375C4.21875 8.18886 4.11998 7.9504 3.94416 7.77459C3.76835 7.59877 3.52989 7.5 3.28125 7.5C3.03261 7.5 2.79415 7.59877 2.61834 7.77459C2.44252 7.9504 2.34375 8.18886 2.34375 8.4375C2.34375 8.68614 2.44252 8.9246 2.61834 9.10041C2.79415 9.27623 3.03261 9.375 3.28125 9.375ZM6.09375 9.375C6.34239 9.375 6.58085 9.27623 6.75666 9.10041C6.93248 8.9246 7.03125 8.68614 7.03125 8.4375C7.03125 8.18886 6.93248 7.9504 6.75666 7.77459C6.58085 7.59877 6.34239 7.5 6.09375 7.5C5.84511 7.5 5.60665 7.59877 5.43084 7.77459C5.25502 7.9504 5.15625 8.18886 5.15625 8.4375C5.15625 8.68614 5.25502 8.9246 5.43084 9.10041C5.60665 9.27623 5.84511 9.375 6.09375 9.375ZM8.90625 9.375C9.15489 9.375 9.39335 9.27623 9.56916 9.10041C9.74498 8.9246 9.84375 8.68614 9.84375 8.4375C9.84375 8.18886 9.74498 7.9504 9.56916 7.77459C9.39335 7.59877 9.15489 7.5 8.90625 7.5C8.65761 7.5 8.41915 7.59877 8.24334 7.77459C8.06752 7.9504 7.96875 8.18886 7.96875 8.4375C7.96875 8.68614 8.06752 8.9246 8.24334 9.10041C8.41915 9.27623 8.65761 9.375 8.90625 9.375ZM11.7188 9.375C11.9674 9.375 12.2058 9.27623 12.3817 9.10041C12.5575 8.9246 12.6562 8.68614 12.6562 8.4375C12.6562 8.18886 12.5575 7.9504 12.3817 7.77459C12.2058 7.59877 11.9674 7.5 11.7188 7.5C11.4701 7.5 11.2317 7.59877 11.0558 7.77459C10.88 7.9504 10.7812 8.18886 10.7812 8.4375C10.7812 8.68614 10.88 8.9246 11.0558 9.10041C11.2317 9.27623 11.4701 9.375 11.7188 9.375ZM3.28125 12.1875C3.52989 12.1875 3.76835 12.0887 3.94416 11.9129C4.11998 11.7371 4.21875 11.4986 4.21875 11.25C4.21875 11.0014 4.11998 10.7629 3.94416 10.5871C3.76835 10.4113 3.52989 10.3125 3.28125 10.3125C3.03261 10.3125 2.79415 10.4113 2.61834 10.5871C2.44252 10.7629 2.34375 11.0014 2.34375 11.25C2.34375 11.4986 2.44252 11.7371 2.61834 11.9129C2.79415 12.0887 3.03261 12.1875 3.28125 12.1875ZM6.09375 12.1875C6.34239 12.1875 6.58085 12.0887 6.75666 11.9129C6.93248 11.7371 7.03125 11.4986 7.03125 11.25C7.03125 11.0014 6.93248 10.7629 6.75666 10.5871C6.58085 10.4113 6.34239 10.3125 6.09375 10.3125C5.84511 10.3125 5.60665 10.4113 5.43084 10.5871C5.25502 10.7629 5.15625 11.0014 5.15625 11.25C5.15625 11.4986 5.25502 11.7371 5.43084 11.9129C5.60665 12.0887 5.84511 12.1875 6.09375 12.1875ZM8.90625 12.1875C9.15489 12.1875 9.39335 12.0887 9.56916 11.9129C9.74498 11.7371 9.84375 11.4986 9.84375 11.25C9.84375 11.0014 9.74498 10.7629 9.56916 10.5871C9.39335 10.4113 9.15489 10.3125 8.90625 10.3125C8.65761 10.3125 8.41915 10.4113 8.24334 10.5871C8.06752 10.7629 7.96875 11.0014 7.96875 11.25C7.96875 11.4986 8.06752 11.7371 8.24334 11.9129C8.41915 12.0887 8.65761 12.1875 8.90625 12.1875Z" fill="#B6B6B6"/>
</g>
<defs>
<clipPath id="clip0_1670_20093">
<rect width="15" height="15" fill="white"/>
</clipPath>
</defs>
</svg>
