<svg width="21" height="21" viewBox="0 0 21 21" fill="none" xmlns="http://www.w3.org/2000/svg">
<path d="M19.828 7.31959L17.4172 8.06445L17.539 8.46977C18.0232 10.097 17.9407 11.8427 17.3052 13.4159C16.6697 14.989 15.5196 16.2944 14.0469 17.1142C12.5741 17.9341 10.8677 18.2189 9.21223 17.9211C7.55679 17.6233 6.05244 16.7609 4.95013 15.4778C3.84782 14.1947 3.21419 12.5685 3.15495 10.8704C3.09571 9.17226 3.61444 7.50496 4.6246 6.14661C5.63476 4.78825 7.07528 3.82096 8.70585 3.4061C10.3364 2.99124 12.0585 3.15389 13.5847 3.86693L13.9648 4.04518L15.0148 1.73421L14.6347 1.55595C12.5861 0.602698 10.276 0.387995 8.08975 0.947653C5.90346 1.50731 3.97312 2.8075 2.6207 4.63137C1.26827 6.45523 0.575514 8.69252 0.657961 10.9701C0.740408 13.2477 1.59308 15.4278 3.07376 17.147C4.55444 18.8661 6.57362 20.0203 8.79453 20.417C11.0154 20.8138 13.3038 20.4291 15.278 19.3271C17.2522 18.2252 18.7929 16.4725 19.6431 14.3616C20.4932 12.2506 20.6015 9.90891 19.9498 7.72704L19.828 7.31959Z" fill="#C60D0D"/>
<path d="M6.73909 6.88778L5.03809 8.76585L10.3511 13.6785L19.5512 4.38158L17.7683 2.58203L10.2734 10.1558L6.73909 6.88778Z" fill="#C60D0D"/>
</svg>
