<svg width="163" height="158" viewBox="0 0 163 158" fill="none" xmlns="http://www.w3.org/2000/svg">
<path d="M77.0018 152C76.3938 152 75.9458 151.845 75.6578 151.536C75.3698 151.227 75.2258 150.795 75.2258 150.24V143.216H76.9698V150.576H78.2178V152H77.0018ZM82.4948 152.16C81.6308 152.16 80.9374 151.947 80.4148 151.52C79.9028 151.093 79.6468 150.448 79.6468 149.584C79.6468 148.763 79.8921 148.128 80.3828 147.68C80.8841 147.232 81.5881 147.008 82.4948 147.008H85.2148V146.336C85.2148 145.717 85.0441 145.248 84.7028 144.928C84.3721 144.608 83.8548 144.448 83.1508 144.448C82.5214 144.448 82.0041 144.581 81.5988 144.848C81.2041 145.115 80.8788 145.451 80.6228 145.856L79.5028 144.88C79.8441 144.336 80.3081 143.893 80.8948 143.552C81.4921 143.2 82.2814 143.024 83.2628 143.024C84.2761 143.024 85.0814 143.221 85.6788 143.616C85.7748 143.04 86.1374 142.752 86.7668 142.752H88.7348V144.272H86.3508V144.304C86.7561 144.827 86.9588 145.483 86.9588 146.272V152H85.2148V148.176H83.0228C82.5108 148.176 82.1161 148.283 81.8388 148.496C81.5721 148.709 81.4388 149.019 81.4388 149.424V149.744C81.4388 150.149 81.5614 150.469 81.8068 150.704C82.0521 150.939 82.3881 151.056 82.8148 151.056C83.0281 151.056 83.1988 151.04 83.3268 151.008L83.4708 152.064C83.3748 152.085 83.2254 152.107 83.0228 152.128C82.8201 152.149 82.6441 152.16 82.4948 152.16ZM93.0559 152.192C92.2345 152.192 91.5359 152.053 90.9599 151.776C90.3945 151.488 89.8985 151.088 89.4719 150.576L90.5759 149.536C90.8959 149.941 91.2692 150.251 91.6959 150.464C92.1225 150.677 92.6079 150.784 93.1519 150.784C93.7279 150.784 94.1545 150.683 94.4319 150.48C94.7199 150.267 94.8639 149.968 94.8639 149.584C94.8639 149.243 94.7519 148.981 94.5279 148.8C94.3145 148.608 93.9732 148.48 93.5039 148.416L92.6879 148.304C92.2932 148.251 91.9199 148.165 91.5679 148.048C91.2159 147.931 90.9065 147.771 90.6399 147.568C90.3839 147.365 90.1759 147.115 90.0159 146.816C89.8665 146.517 89.7919 146.149 89.7919 145.712C89.7919 145.285 89.8719 144.907 90.0319 144.576C90.1919 144.235 90.4159 143.952 90.7039 143.728C90.9919 143.493 91.3332 143.317 91.7279 143.2C92.1332 143.083 92.5759 143.024 93.0559 143.024C93.8559 143.024 94.5119 143.147 95.0239 143.392C95.5359 143.627 95.9892 143.957 96.3839 144.384L95.3279 145.44C95.0825 145.163 94.7679 144.928 94.3839 144.736C93.9999 144.544 93.5572 144.448 93.0559 144.448C92.5332 144.448 92.1385 144.549 91.8719 144.752C91.6052 144.955 91.4719 145.232 91.4719 145.584C91.4719 145.957 91.5945 146.235 91.8399 146.416C92.0852 146.597 92.4479 146.72 92.9279 146.784L93.7439 146.912C94.1599 146.976 94.5385 147.067 94.8799 147.184C95.2319 147.301 95.5305 147.461 95.7759 147.664C96.0212 147.856 96.2079 148.096 96.3359 148.384C96.4745 148.672 96.5439 149.019 96.5439 149.424C96.5439 149.84 96.4585 150.219 96.2879 150.56C96.1279 150.901 95.8932 151.195 95.5839 151.44C95.2852 151.675 94.9172 151.861 94.4799 152C94.0532 152.128 93.5785 152.192 93.0559 152.192ZM91.6836 141.808C91.1716 141.808 90.7556 141.637 90.4356 141.296C90.1156 140.944 89.9556 140.475 89.9556 139.888C89.9556 139.259 90.1476 138.752 90.5316 138.368C90.9156 137.973 91.449 137.776 92.1316 137.776H96.5156V138.928H92.1156C91.8596 138.928 91.6623 139.013 91.5236 139.184C91.3743 139.344 91.2996 139.563 91.2996 139.84C91.2996 140.405 91.5396 140.688 92.0196 140.688C92.1583 140.688 92.2703 140.656 92.3556 140.592C92.441 140.528 92.5103 140.448 92.5636 140.352C92.617 140.256 92.6596 140.155 92.6916 140.048C92.713 139.931 92.7236 139.824 92.7236 139.728H93.7476C93.7476 139.824 93.7636 139.931 93.7956 140.048C93.817 140.155 93.8543 140.256 93.9076 140.352C93.961 140.448 94.0303 140.528 94.1156 140.592C94.201 140.656 94.313 140.688 94.4516 140.688C94.9316 140.688 95.1716 140.405 95.1716 139.84V139.488H96.5156V140.032C96.5156 140.597 96.3663 141.035 96.0676 141.344C95.769 141.653 95.3476 141.808 94.8036 141.808C94.4516 141.808 94.137 141.723 93.8596 141.552C93.5823 141.381 93.3903 141.109 93.2836 140.736H93.2036C93.097 141.109 92.905 141.381 92.6276 141.552C92.3503 141.723 92.0356 141.808 91.6836 141.808ZM99.4078 148.48H98.4798V147.056H99.7598C100.293 147.056 100.645 147.291 100.816 147.76L101.824 150.64H102.336C102.784 150.64 103.141 150.427 103.408 150C103.674 149.573 103.808 148.981 103.808 148.224V146.848C103.808 146.091 103.605 145.504 103.2 145.088C102.794 144.661 102.224 144.448 101.488 144.448C101.136 144.448 100.81 144.491 100.512 144.576C100.224 144.661 99.9678 144.779 99.7438 144.928C99.5198 145.067 99.3224 145.227 99.1518 145.408C98.9811 145.589 98.8371 145.776 98.7198 145.968L97.6158 144.992C97.7758 144.725 97.9731 144.475 98.2078 144.24C98.4424 144.005 98.7198 143.797 99.0398 143.616C99.3704 143.435 99.7438 143.291 100.16 143.184C100.576 143.077 101.045 143.024 101.568 143.024C102.858 143.024 103.861 143.424 104.576 144.224C105.301 145.013 105.664 146.117 105.664 147.536C105.664 148.229 105.584 148.853 105.424 149.408C105.264 149.963 105.034 150.432 104.736 150.816C104.437 151.2 104.08 151.493 103.664 151.696C103.248 151.899 102.778 152 102.256 152H100.656L99.4078 148.48ZM110.26 152.16C109.396 152.16 108.703 151.947 108.18 151.52C107.668 151.093 107.412 150.448 107.412 149.584C107.412 148.763 107.658 148.128 108.148 147.68C108.65 147.232 109.354 147.008 110.26 147.008H112.98V146.336C112.98 145.717 112.81 145.248 112.468 144.928C112.138 144.608 111.62 144.448 110.916 144.448C110.287 144.448 109.77 144.581 109.364 144.848C108.97 145.115 108.644 145.451 108.388 145.856L107.268 144.88C107.61 144.336 108.074 143.893 108.66 143.552C109.258 143.2 110.047 143.024 111.028 143.024C112.042 143.024 112.847 143.221 113.444 143.616C113.54 143.04 113.903 142.752 114.532 142.752H116.5V144.272H114.116V144.304C114.522 144.827 114.724 145.483 114.724 146.272V152H112.98V148.176H110.788C110.276 148.176 109.882 148.283 109.604 148.496C109.338 148.709 109.204 149.019 109.204 149.424V149.744C109.204 150.149 109.327 150.469 109.572 150.704C109.818 150.939 110.154 151.056 110.58 151.056C110.794 151.056 110.964 151.04 111.092 151.008L111.236 152.064C111.14 152.085 110.991 152.107 110.788 152.128C110.586 152.149 110.41 152.16 110.26 152.16ZM107.823 140.272H114.719V141.648H107.823V140.272ZM111.887 137.072H112.975V136.528C112.975 136.315 112.921 136.16 112.815 136.064C112.708 135.968 112.532 135.92 112.287 135.92H111.887V134.864H112.847C113.327 134.864 113.684 134.965 113.919 135.168C114.153 135.36 114.271 135.621 114.271 135.952C114.271 136.155 114.217 136.357 114.111 136.56C113.993 136.763 113.839 136.907 113.647 136.992V137.072H116.127V138.128H111.887V137.072ZM120.579 152.192C119.662 152.192 118.953 151.899 118.451 151.312C117.95 150.715 117.699 149.872 117.699 148.784V143.216H119.443V148.592C119.443 149.275 119.582 149.797 119.859 150.16C120.147 150.512 120.606 150.688 121.235 150.688C121.47 150.688 121.705 150.661 121.939 150.608C122.174 150.544 122.382 150.448 122.563 150.32C122.755 150.192 122.905 150.032 123.011 149.84C123.129 149.637 123.187 149.403 123.187 149.136V143.216H124.931V150.576H125.859V152H124.707C124.259 152 123.923 151.872 123.699 151.616C123.475 151.349 123.353 150.981 123.331 150.512H123.251C123.07 151.003 122.755 151.408 122.307 151.728C121.87 152.037 121.294 152.192 120.579 152.192Z" fill="white" fill-opacity="0.3"/>
<path opacity="0.3" d="M99.4943 6.85166C68.5632 6.85166 43.4886 31.9952 43.4886 63.0113C43.4886 94.0274 68.5632 119.171 99.4943 119.171C130.425 119.171 155.5 94.0274 155.5 63.0113C155.5 31.9952 130.425 6.85167 99.4943 6.85166Z" stroke="#818181" stroke-width="10" stroke-linecap="round" stroke-linejoin="round"/>
<path d="M90.4125 83.384C88.9832 83.384 87.7458 83.128 86.7005 82.616C85.6552 82.0827 84.7912 81.3253 84.1085 80.344C83.4258 79.3627 82.9138 78.1573 82.5725 76.728C82.2525 75.2987 82.0925 73.6667 82.0925 71.832C82.0925 70.0187 82.2525 68.3973 82.5725 66.968C82.9138 65.5173 83.4258 64.3013 84.1085 63.32C84.7912 62.3387 85.6552 61.592 86.7005 61.08C87.7458 60.5467 88.9832 60.28 90.4125 60.28C93.2498 60.28 95.3405 61.2933 96.6845 63.32C98.0498 65.3467 98.7325 68.184 98.7325 71.832C98.7325 75.48 98.0498 78.3173 96.6845 80.344C95.3405 82.3707 93.2498 83.384 90.4125 83.384ZM90.4125 79.832C91.8418 79.832 92.8338 79.2987 93.3885 78.232C93.9645 77.144 94.2525 75.6827 94.2525 73.848V69.816C94.2525 67.9813 93.9645 66.5307 93.3885 65.464C92.8338 64.376 91.8418 63.832 90.4125 63.832C88.9832 63.832 87.9805 64.376 87.4045 65.464C86.8498 66.5307 86.5725 67.9813 86.5725 69.816V73.848C86.5725 75.6827 86.8498 77.144 87.4045 78.232C87.9805 79.2987 88.9832 79.832 90.4125 79.832ZM111.136 83V78.68H101.024V75.096L109.92 60.664H115.136V75.416H118.048V78.68H115.136V83H111.136ZM104.48 75.416H111.136V64.76H110.88L104.48 75.416Z" fill="white" fill-opacity="0.3"/>
<path d="M84.6745 52.168C83.8532 52.168 83.1532 52.0187 82.5745 51.72C82.0052 51.4213 81.5152 51.02 81.1045 50.516L82.1965 49.494C82.5418 49.914 82.9198 50.2313 83.3305 50.446C83.7505 50.6607 84.2265 50.768 84.7585 50.768C85.3838 50.768 85.8552 50.628 86.1725 50.348C86.4898 50.068 86.6485 49.69 86.6485 49.214C86.6485 48.8313 86.5365 48.528 86.3125 48.304C86.0885 48.08 85.6918 47.912 85.1225 47.8L84.2545 47.646C83.3025 47.4687 82.5885 47.156 82.1125 46.708C81.6365 46.26 81.3985 45.644 81.3985 44.86C81.3985 44.4307 81.4778 44.0433 81.6365 43.698C81.8045 43.3433 82.0332 43.0493 82.3225 42.816C82.6212 42.5733 82.9805 42.3867 83.4005 42.256C83.8205 42.1253 84.2918 42.06 84.8145 42.06C85.5518 42.06 86.1912 42.1907 86.7325 42.452C87.2738 42.704 87.7358 43.0727 88.1185 43.558L87.0125 44.538C86.7605 44.2113 86.4525 43.95 86.0885 43.754C85.7245 43.558 85.2718 43.46 84.7305 43.46C84.1705 43.46 83.7365 43.572 83.4285 43.796C83.1205 44.02 82.9665 44.3467 82.9665 44.776C82.9665 45.1867 83.0925 45.4947 83.3445 45.7C83.5965 45.896 83.9885 46.0453 84.5205 46.148L85.3885 46.33C86.3685 46.5167 87.0825 46.834 87.5305 47.282C87.9878 47.73 88.2165 48.346 88.2165 49.13C88.2165 49.5873 88.1372 50.0027 87.9785 50.376C87.8198 50.7493 87.5865 51.0713 87.2785 51.342C86.9798 51.6033 86.6112 51.8087 86.1725 51.958C85.7338 52.098 85.2345 52.168 84.6745 52.168ZM95.0493 43.628V52H93.4673V43.628H90.5553V42.228H97.9613V43.628H95.0493ZM101.043 52V42.228H107.301V43.628H102.625V46.344H106.867V47.744H102.625V50.6H107.301V52H101.043ZM110.882 52V42.228H115.082C115.987 42.228 116.687 42.494 117.182 43.026C117.677 43.558 117.924 44.272 117.924 45.168C117.924 46.064 117.677 46.778 117.182 47.31C116.687 47.842 115.987 48.108 115.082 48.108H112.464V52H110.882ZM112.464 46.722H114.984C115.385 46.722 115.698 46.6193 115.922 46.414C116.146 46.1993 116.258 45.896 116.258 45.504V44.832C116.258 44.44 116.146 44.1413 115.922 43.936C115.698 43.7213 115.385 43.614 114.984 43.614H112.464V46.722Z" fill="white" fill-opacity="0.3"/>
</svg>
