<svg width="32" height="32" viewBox="0 0 32 32" fill="none" xmlns="http://www.w3.org/2000/svg">
<circle cx="16" cy="16" r="16" fill="white"/>
<path fill-rule="evenodd" clip-rule="evenodd" d="M11.3214 20.8798V22.2828C11.3214 22.5475 11.0567 22.7593 10.6861 22.7593H7.66834C7.32421 22.7593 7.03302 22.5475 7.03302 22.2828C7.03302 20.9857 6.71536 16.8561 7.32421 16.2208C6.95361 16.2208 6.45065 16.2208 6.08005 16.2208C5.78886 15.6384 6.34476 15.0296 6.90066 14.6855C7.29774 14.659 7.66834 14.6325 8.06541 14.6325C8.5419 13.6001 9.01839 12.5942 9.49488 11.5883C9.89195 10.8471 10.8714 10.3706 12.3803 10.1588C14.8157 9.94706 17.1981 9.94706 19.6335 10.1588C21.1424 10.3706 22.1218 10.8471 22.4924 11.5883C22.9689 12.5942 23.4454 13.6001 23.9219 14.6325C24.3189 14.6325 24.716 14.659 25.1131 14.6855C25.669 15.0296 26.2249 15.6384 25.9072 16.2208C25.5366 16.2208 25.0601 16.2208 24.6895 16.2208C25.2719 16.8561 24.9807 20.9857 24.9807 22.2828C24.9807 22.5475 24.6895 22.7593 24.3454 22.7593H21.3012C20.9571 22.7593 20.6659 22.5475 20.6659 22.2828V20.8798H11.3214ZM14.2068 18.8415H17.7805C17.9128 18.8415 18.0187 18.9474 18.0187 19.0797V19.9268C18.0187 20.0592 17.9128 20.1651 17.7805 20.1651H14.2068C14.1009 20.1651 13.995 20.0592 13.995 19.9268V19.0797C13.995 18.9474 14.1009 18.8415 14.2068 18.8415ZM12.3273 11.0324C11.5861 11.1118 11.1096 11.35 10.792 11.6942C10.3949 12.6472 9.99784 13.6266 9.60076 14.5796C13.8097 15.2943 18.204 15.2943 22.413 14.5796C22.0159 13.6266 21.5924 12.6472 21.1953 11.6942C20.8776 11.35 20.4276 11.1118 19.6864 11.0324C17.2246 10.7941 14.7892 10.7941 12.3273 11.0324ZM21.91 16.8561C20.9571 16.8561 20.1629 17.2003 20.1629 17.5973C20.1629 17.9944 20.9571 18.3385 21.91 18.3385C22.863 18.3385 23.6307 17.9944 23.6307 17.5973C23.6307 17.2003 22.863 16.8561 21.91 16.8561ZM10.1037 16.8561C11.0567 16.8561 11.8244 17.2003 11.8244 17.5973C11.8244 17.9944 11.0567 18.3385 10.1037 18.3385C9.15075 18.3385 8.3566 17.9944 8.3566 17.5973C8.3566 17.2003 9.15075 16.8561 10.1037 16.8561Z" fill="#11265D"/>
</svg>
