<svg width="163" height="158" viewBox="0 0 163 158" fill="none" xmlns="http://www.w3.org/2000/svg">
<path d="M66.3561 152.192C65.8335 152.192 65.3535 152.128 64.9161 152C64.4895 151.872 64.1161 151.68 63.7961 151.424C63.4868 151.157 63.2468 150.832 63.0761 150.448C62.9055 150.053 62.8201 149.589 62.8201 149.056C62.8201 148.448 62.9001 147.968 63.0601 147.616C63.2308 147.253 63.4228 146.928 63.6361 146.64C63.8281 146.373 63.9881 146.101 64.1161 145.824C64.2548 145.547 64.3241 145.264 64.3241 144.976V144.672H62.7081V143.216H64.5321C65.0121 143.216 65.3801 143.333 65.6361 143.568C65.9028 143.792 66.0361 144.101 66.0361 144.496V144.608C66.0361 144.96 65.9721 145.301 65.8441 145.632C65.7268 145.952 65.5455 146.325 65.3001 146.752C65.1081 147.093 64.9535 147.408 64.8361 147.696C64.7295 147.973 64.6761 148.299 64.6761 148.672V149.136C64.6761 149.669 64.8255 150.075 65.1241 150.352C65.4228 150.629 65.8228 150.768 66.3241 150.768C66.8575 150.768 67.2628 150.608 67.5401 150.288C67.8281 149.957 67.9721 149.504 67.9721 148.928V143.216H69.7161V148.864C69.7161 149.899 69.4281 150.715 68.8521 151.312C68.2761 151.899 67.4441 152.192 66.3561 152.192ZM66.8387 140.272H67.9747V139.712C67.9747 139.477 67.9267 139.312 67.8307 139.216C67.7241 139.109 67.5374 139.056 67.2707 139.056H66.8387V137.808H67.9107C68.4227 137.808 68.8121 137.92 69.0787 138.144C69.3347 138.357 69.4627 138.651 69.4627 139.024C69.4627 139.248 69.4041 139.472 69.2867 139.696C69.1587 139.909 68.9721 140.075 68.7267 140.192V140.272H71.6068V141.52H66.8387V140.272ZM75.4224 152.192C74.889 152.192 74.3877 152.117 73.9184 151.968C73.4597 151.808 73.0597 151.595 72.7184 151.328C72.3877 151.051 72.1264 150.72 71.9344 150.336C71.7424 149.952 71.6464 149.525 71.6464 149.056V148.256C71.6464 147.883 71.7317 147.595 71.9024 147.392C72.073 147.179 72.3824 147.072 72.8304 147.072H74.6224V148.448H73.2944V148.928C73.2944 149.568 73.4917 150.037 73.8864 150.336C74.2917 150.624 74.8304 150.768 75.5024 150.768C76.1957 150.768 76.729 150.555 77.1024 150.128C77.4864 149.701 77.6784 149.099 77.6784 148.32V146.944C77.6784 146.155 77.465 145.541 77.0384 145.104C76.6224 144.667 76.0304 144.448 75.2624 144.448C74.6224 144.448 74.073 144.581 73.6144 144.848C73.1664 145.115 72.825 145.435 72.5904 145.808L71.5024 144.832C71.8117 144.32 72.2864 143.893 72.9264 143.552C73.5664 143.2 74.3717 143.024 75.3424 143.024C76.665 143.024 77.6944 143.429 78.4304 144.24C79.1664 145.04 79.5344 146.16 79.5344 147.6C79.5344 148.304 79.4437 148.944 79.2624 149.52C79.081 150.085 78.8144 150.565 78.4624 150.96C78.1104 151.355 77.6784 151.659 77.1664 151.872C76.6544 152.085 76.073 152.192 75.4224 152.192ZM85.9758 152.192C85.6024 152.192 85.2718 152.144 84.9838 152.048C84.7064 151.963 84.4664 151.845 84.2638 151.696C84.0611 151.536 83.8904 151.36 83.7518 151.168C83.6131 150.965 83.5064 150.757 83.4318 150.544H83.3518V152H81.6078V143.216H83.3518V149.136C83.3518 149.403 83.4104 149.637 83.5278 149.84C83.6451 150.032 83.7944 150.192 83.9758 150.32C84.1571 150.448 84.3651 150.544 84.5998 150.608C84.8344 150.661 85.0744 150.688 85.3198 150.688C85.9918 150.688 86.4664 150.507 86.7438 150.144C87.0318 149.771 87.1758 149.253 87.1758 148.592V143.216H88.9198V148.784C88.9198 149.883 88.6638 150.725 88.1518 151.312C87.6398 151.899 86.9144 152.192 85.9758 152.192ZM86.5062 157.648C85.7169 157.648 85.1409 157.461 84.7782 157.088C84.4049 156.725 84.2182 156.256 84.2182 155.68V154.976H83.1782V153.744H84.4742C84.8796 153.744 85.1729 153.829 85.3542 154C85.5356 154.171 85.6262 154.4 85.6262 154.688V155.376C85.6262 155.717 85.6956 155.979 85.8342 156.16C85.9729 156.341 86.1969 156.432 86.5062 156.432C86.8156 156.432 87.0396 156.341 87.1782 156.16C87.3169 155.979 87.3862 155.717 87.3862 155.376V153.744H88.9062V155.408C88.9062 156.059 88.7142 156.592 88.3302 157.008C87.9356 157.435 87.3276 157.648 86.5062 157.648ZM93.8541 152.16C92.9901 152.16 92.2968 151.947 91.7741 151.52C91.2621 151.093 91.0061 150.448 91.0061 149.584C91.0061 148.763 91.2515 148.128 91.7421 147.68C92.2435 147.232 92.9475 147.008 93.8541 147.008H96.5741V146.336C96.5741 145.717 96.4035 145.248 96.0621 144.928C95.7315 144.608 95.2141 144.448 94.5101 144.448C93.8808 144.448 93.3635 144.581 92.9581 144.848C92.5635 145.115 92.2381 145.451 91.9821 145.856L90.8621 144.88C91.2035 144.336 91.6675 143.893 92.2541 143.552C92.8515 143.2 93.6408 143.024 94.6221 143.024C95.8275 143.024 96.7448 143.307 97.3741 143.872C98.0035 144.427 98.3181 145.227 98.3181 146.272V152H96.5741V148.176H94.3821C93.8701 148.176 93.4755 148.283 93.1981 148.496C92.9315 148.709 92.7981 149.019 92.7981 149.424V149.744C92.7981 150.149 92.9208 150.469 93.1661 150.704C93.4115 150.939 93.7475 151.056 94.1741 151.056C94.3875 151.056 94.5581 151.04 94.6861 151.008L94.8301 152.064C94.7341 152.085 94.5848 152.107 94.3821 152.128C94.1795 152.149 94.0035 152.16 93.8541 152.16ZM102.892 152.192C102.402 152.192 101.991 152.091 101.66 151.888C101.33 151.675 101.063 151.376 100.86 150.992C100.658 150.597 100.514 150.117 100.428 149.552C100.343 148.987 100.3 148.347 100.3 147.632C100.3 146.203 100.583 145.109 101.148 144.352C101.724 143.595 102.54 143.216 103.596 143.216H104.06V144.672H103.74C102.684 144.672 102.156 145.387 102.156 146.816V148.64C102.156 148.96 102.167 149.253 102.188 149.52C102.22 149.776 102.274 149.995 102.348 150.176C102.434 150.357 102.546 150.501 102.684 150.608C102.823 150.704 102.999 150.752 103.212 150.752C103.831 150.752 104.14 150.304 104.14 149.408V147.888H105.692V149.408C105.692 149.856 105.783 150.192 105.964 150.416C106.146 150.64 106.386 150.752 106.684 150.752C106.972 150.752 107.196 150.656 107.356 150.464C107.516 150.261 107.596 149.979 107.596 149.616V143.216H109.34V149.792C109.34 150.528 109.148 151.115 108.764 151.552C108.38 151.979 107.847 152.192 107.164 152.192C106.492 152.192 105.975 152.027 105.612 151.696C105.25 151.355 105.036 150.939 104.972 150.448H104.876C104.812 150.939 104.61 151.355 104.268 151.696C103.927 152.027 103.468 152.192 102.892 152.192ZM106.944 157.648C106.154 157.648 105.578 157.461 105.216 157.088C104.842 156.725 104.656 156.256 104.656 155.68V154.976H103.616V153.744H104.912C105.317 153.744 105.61 153.829 105.792 154C105.973 154.171 106.064 154.4 106.064 154.688V155.376C106.064 155.717 106.133 155.979 106.272 156.16C106.41 156.341 106.634 156.432 106.944 156.432C107.253 156.432 107.477 156.341 107.616 156.16C107.754 155.979 107.824 155.717 107.824 155.376V153.744H109.344V155.408C109.344 156.059 109.152 156.592 108.768 157.008C108.373 157.435 107.765 157.648 106.944 157.648ZM106.464 140.272H107.6V139.712C107.6 139.477 107.552 139.312 107.456 139.216C107.349 139.109 107.162 139.056 106.896 139.056H106.464V137.808H107.536C108.048 137.808 108.437 137.92 108.704 138.144C108.96 138.357 109.088 138.651 109.088 139.024C109.088 139.248 109.029 139.472 108.912 139.696C108.784 139.909 108.597 140.075 108.352 140.192V140.272H111.232V141.52H106.464V140.272ZM115.044 152.192C114.521 152.192 114.041 152.128 113.604 152C113.177 151.872 112.804 151.68 112.484 151.424C112.174 151.157 111.934 150.832 111.764 150.448C111.593 150.053 111.508 149.589 111.508 149.056C111.508 148.448 111.588 147.968 111.748 147.616C111.918 147.253 112.11 146.928 112.324 146.64C112.516 146.373 112.676 146.101 112.804 145.824C112.942 145.547 113.012 145.264 113.012 144.976V144.672H111.396V143.216H113.22C113.7 143.216 114.068 143.333 114.324 143.568C114.59 143.792 114.724 144.101 114.724 144.496V144.608C114.724 144.96 114.66 145.301 114.532 145.632C114.414 145.952 114.233 146.325 113.988 146.752C113.796 147.093 113.641 147.408 113.524 147.696C113.417 147.973 113.364 148.299 113.364 148.672V149.136C113.364 149.669 113.513 150.075 113.812 150.352C114.11 150.629 114.51 150.768 115.012 150.768C115.545 150.768 115.95 150.608 116.228 150.288C116.516 149.957 116.66 149.504 116.66 148.928V143.216H118.404V148.864C118.404 149.899 118.116 150.715 117.54 151.312C116.964 151.899 116.132 152.192 115.044 152.192ZM124.65 146.048C124.65 145.536 124.517 145.141 124.25 144.864C123.983 144.587 123.562 144.448 122.986 144.448C122.495 144.448 122.101 144.555 121.802 144.768C121.503 144.971 121.247 145.237 121.034 145.568L119.978 144.64C120.266 144.16 120.655 143.771 121.146 143.472C121.637 143.173 122.287 143.024 123.098 143.024C124.165 143.024 124.981 143.275 125.546 143.776C126.111 144.277 126.394 144.997 126.394 145.936V152H124.65V146.048ZM132.059 152.192C130.949 152.192 130.085 151.963 129.467 151.504C128.848 151.045 128.539 150.4 128.539 149.568C128.539 149.056 128.688 148.619 128.987 148.256C129.296 147.893 129.691 147.643 130.171 147.504V147.424C129.637 147.296 129.221 147.045 128.923 146.672C128.624 146.299 128.475 145.84 128.475 145.296C128.475 144.613 128.693 144.064 129.131 143.648C129.579 143.232 130.187 143.024 130.955 143.024C131.189 143.024 131.44 143.045 131.707 143.088C131.984 143.131 132.235 143.211 132.459 143.328L132.091 144.608C131.845 144.491 131.573 144.432 131.275 144.432C130.901 144.432 130.603 144.533 130.379 144.736C130.165 144.939 130.059 145.211 130.059 145.552C130.059 145.712 130.08 145.867 130.123 146.016C130.165 146.155 130.24 146.283 130.347 146.4C130.453 146.507 130.597 146.592 130.779 146.656C130.96 146.72 131.189 146.752 131.467 146.752H132.347V147.936H131.595C131.243 147.936 130.939 148.037 130.683 148.24C130.427 148.443 130.299 148.725 130.299 149.088V149.456C130.299 149.883 130.437 150.208 130.715 150.432C130.992 150.656 131.451 150.768 132.091 150.768C132.763 150.768 133.291 150.592 133.675 150.24C134.069 149.877 134.267 149.36 134.267 148.688V143.216H136.01V148.928C136.01 149.429 135.915 149.883 135.723 150.288C135.541 150.683 135.275 151.024 134.923 151.312C134.581 151.589 134.165 151.808 133.675 151.968C133.195 152.117 132.656 152.192 132.059 152.192Z" fill="#5CA8EF"/>
<g clip-path="url(#clip0_1528_9733)">
<path d="M90.4125 84.384C88.9832 84.384 87.7458 84.128 86.7005 83.616C85.6552 83.0827 84.7912 82.3253 84.1085 81.344C83.4258 80.3627 82.9138 79.1573 82.5725 77.728C82.2525 76.2987 82.0925 74.6667 82.0925 72.832C82.0925 71.0187 82.2525 69.3973 82.5725 67.968C82.9138 66.5173 83.4258 65.3013 84.1085 64.32C84.7912 63.3387 85.6552 62.592 86.7005 62.08C87.7458 61.5467 88.9832 61.28 90.4125 61.28C93.2498 61.28 95.3405 62.2933 96.6845 64.32C98.0498 66.3467 98.7325 69.184 98.7325 72.832C98.7325 76.48 98.0498 79.3173 96.6845 81.344C95.3405 83.3707 93.2498 84.384 90.4125 84.384ZM90.4125 80.832C91.8418 80.832 92.8338 80.2987 93.3885 79.232C93.9645 78.144 94.2525 76.6827 94.2525 74.848V70.816C94.2525 68.9813 93.9645 67.5307 93.3885 66.464C92.8338 65.376 91.8418 64.832 90.4125 64.832C88.9832 64.832 87.9805 65.376 87.4045 66.464C86.8498 67.5307 86.5725 68.9813 86.5725 70.816V74.848C86.5725 76.6827 86.8498 78.144 87.4045 79.232C87.9805 80.2987 88.9832 80.832 90.4125 80.832ZM117.472 84H101.984V80.096L108.992 73.952C110.187 72.9067 111.061 71.968 111.616 71.136C112.171 70.2827 112.448 69.3653 112.448 68.384V67.968C112.448 66.9867 112.128 66.24 111.488 65.728C110.848 65.1947 110.069 64.928 109.152 64.928C108 64.928 107.125 65.2587 106.528 65.92C105.931 66.56 105.504 67.3387 105.248 68.256L101.6 66.848C101.835 66.1013 102.165 65.3973 102.592 64.736C103.019 64.0533 103.552 63.456 104.192 62.944C104.853 62.432 105.621 62.0267 106.496 61.728C107.371 61.4293 108.373 61.28 109.504 61.28C110.677 61.28 111.723 61.4507 112.64 61.792C113.557 62.112 114.325 62.5707 114.944 63.168C115.584 63.7653 116.064 64.4693 116.384 65.28C116.725 66.0907 116.896 66.976 116.896 67.936C116.896 68.8747 116.747 69.728 116.448 70.496C116.149 71.264 115.744 72 115.232 72.704C114.72 73.3867 114.123 74.048 113.44 74.688C112.757 75.3067 112.032 75.936 111.264 76.576L106.56 80.448H117.472V84Z" fill="#26CFFF"/>
<path d="M84.6745 52.168C83.8532 52.168 83.1532 52.0187 82.5745 51.72C82.0052 51.4213 81.5152 51.02 81.1045 50.516L82.1965 49.494C82.5418 49.914 82.9198 50.2313 83.3305 50.446C83.7505 50.6607 84.2265 50.768 84.7585 50.768C85.3838 50.768 85.8552 50.628 86.1725 50.348C86.4898 50.068 86.6485 49.69 86.6485 49.214C86.6485 48.8313 86.5365 48.528 86.3125 48.304C86.0885 48.08 85.6918 47.912 85.1225 47.8L84.2545 47.646C83.3025 47.4687 82.5885 47.156 82.1125 46.708C81.6365 46.26 81.3985 45.644 81.3985 44.86C81.3985 44.4307 81.4778 44.0433 81.6365 43.698C81.8045 43.3433 82.0332 43.0493 82.3225 42.816C82.6212 42.5733 82.9805 42.3867 83.4005 42.256C83.8205 42.1253 84.2918 42.06 84.8145 42.06C85.5518 42.06 86.1912 42.1907 86.7325 42.452C87.2738 42.704 87.7358 43.0727 88.1185 43.558L87.0125 44.538C86.7605 44.2113 86.4525 43.95 86.0885 43.754C85.7245 43.558 85.2718 43.46 84.7305 43.46C84.1705 43.46 83.7365 43.572 83.4285 43.796C83.1205 44.02 82.9665 44.3467 82.9665 44.776C82.9665 45.1867 83.0925 45.4947 83.3445 45.7C83.5965 45.896 83.9885 46.0453 84.5205 46.148L85.3885 46.33C86.3685 46.5167 87.0825 46.834 87.5305 47.282C87.9878 47.73 88.2165 48.346 88.2165 49.13C88.2165 49.5873 88.1372 50.0027 87.9785 50.376C87.8198 50.7493 87.5865 51.0713 87.2785 51.342C86.9798 51.6033 86.6112 51.8087 86.1725 51.958C85.7338 52.098 85.2345 52.168 84.6745 52.168ZM95.0493 43.628V52H93.4673V43.628H90.5553V42.228H97.9613V43.628H95.0493ZM101.043 52V42.228H107.301V43.628H102.625V46.344H106.867V47.744H102.625V50.6H107.301V52H101.043ZM110.882 52V42.228H115.082C115.987 42.228 116.687 42.494 117.182 43.026C117.677 43.558 117.924 44.272 117.924 45.168C117.924 46.064 117.677 46.778 117.182 47.31C116.687 47.842 115.987 48.108 115.082 48.108H112.464V52H110.882ZM112.464 46.722H114.984C115.385 46.722 115.698 46.6193 115.922 46.414C116.146 46.1993 116.258 45.896 116.258 45.504V44.832C116.258 44.44 116.146 44.1413 115.922 43.936C115.698 43.7213 115.385 43.614 114.984 43.614H112.464V46.722Z" fill="#71DDFF" fill-opacity="0.83"/>
<path opacity="0.3" d="M99.1837 6.85166C68.2526 6.85166 43.178 31.9952 43.178 63.0113C43.178 94.0274 68.2526 119.171 99.1837 119.171C130.115 119.171 155.189 94.0274 155.189 63.0113C155.189 31.9952 130.115 6.85167 99.1837 6.85166Z" stroke="url(#paint0_linear_1528_9733)" stroke-width="10" stroke-linecap="round" stroke-linejoin="round"/>
<path d="M99.1836 119.171C84.33 119.171 70.0847 113.254 59.5816 102.722C49.0785 92.1902 43.1779 77.9057 43.1779 63.0113C43.1779 48.1168 49.0785 33.8324 59.5816 23.3004C70.0847 12.7685 84.33 6.85167 99.1836 6.85167" stroke="url(#paint1_linear_1528_9733)" stroke-width="5" stroke-linecap="round" stroke-linejoin="round"/>
<path style="mix-blend-mode:screen" d="M1.25274 55.4021C-4.54447 79.8031 10.4827 104.296 34.8168 110.11C59.1509 115.923 83.5771 100.854 89.3743 76.4534C95.1715 52.0524 80.1444 27.559 55.8103 21.7459C31.4762 15.9327 7.04994 31.0012 1.25274 55.4021Z" fill="url(#paint2_radial_1528_9733)"/>
</g>
<defs>
<linearGradient id="paint0_linear_1528_9733" x1="36.3674" y1="63.0113" x2="162" y2="63.0113" gradientUnits="userSpaceOnUse">
<stop offset="0.01" stop-color="#6659E1"/>
<stop offset="1" stop-color="#463AB4"/>
</linearGradient>
<linearGradient id="paint1_linear_1528_9733" x1="39.7615" y1="63.0113" x2="102.6" y2="63.0113" gradientUnits="userSpaceOnUse">
<stop offset="0.01" stop-color="#0EB1D7"/>
<stop offset="1" stop-color="#6659E1"/>
</linearGradient>
<radialGradient id="paint2_radial_1528_9733" cx="0" cy="0" r="1" gradientUnits="userSpaceOnUse" gradientTransform="translate(45.3186 65.9312) rotate(-180) scale(45.2939 45.4183)">
<stop offset="0.01" stop-color="#0EB1D7"/>
<stop offset="0.14" stop-color="#0B88A5" stop-opacity="0.77"/>
<stop offset="0.3" stop-color="#085F74" stop-opacity="0.54"/>
<stop offset="0.45" stop-color="#053D4A" stop-opacity="0.34"/>
<stop offset="0.6" stop-color="#03222A" stop-opacity="0.19"/>
<stop offset="0.74" stop-color="#010F13" stop-opacity="0.09"/>
<stop offset="0.88" stop-color="#000405" stop-opacity="0.02"/>
<stop offset="0.99" stop-opacity="0"/>
</radialGradient>
<clipPath id="clip0_1528_9733">
<rect width="162" height="126" fill="white" transform="translate(162.5 126) rotate(-180)"/>
</clipPath>
</defs>
</svg>
