<svg width="38" height="29" viewBox="0 0 38 29" fill="none" xmlns="http://www.w3.org/2000/svg">
<path d="M37.4242 27.8627H35.4667V0.568627C35.4667 0.417818 35.406 0.273186 35.298 0.166547C35.1901 0.0599089 35.0436 0 34.8909 0H30.0085C29.8558 0 29.7093 0.0599089 29.6014 0.166547C29.4934 0.273186 29.4327 0.417818 29.4327 0.568627V27.8627H26.4848V14.7843C26.4848 14.6335 26.4242 14.4889 26.3162 14.3822C26.2082 14.2756 26.0618 14.2157 25.9091 14.2157H21.0382C20.8855 14.2157 20.739 14.2756 20.6311 14.3822C20.5231 14.4889 20.4624 14.6335 20.4624 14.7843V27.8627H17.5376V6.2549C17.5376 6.10409 17.4769 5.95946 17.3689 5.85282C17.261 5.74618 17.1145 5.68627 16.9618 5.68627H12.0909C11.9382 5.68627 11.7918 5.74618 11.6838 5.85282C11.5758 5.95946 11.5152 6.10409 11.5152 6.2549V27.8627H8.56727V10.2353C8.56727 10.0845 8.50661 9.93985 8.39864 9.83321C8.29066 9.72658 8.14421 9.66667 7.99151 9.66667H3.10909C2.95639 9.66667 2.80994 9.72658 2.70197 9.83321C2.59399 9.93985 2.53333 10.0845 2.53333 10.2353V27.8627H0.575758C0.423057 27.8627 0.276611 27.9227 0.168636 28.0293C0.0606601 28.1359 0 28.2806 0 28.4314C0 28.5822 0.0606601 28.7268 0.168636 28.8335C0.276611 28.9401 0.423057 29 0.575758 29H37.4242C37.5769 29 37.7234 28.9401 37.8314 28.8335C37.9393 28.7268 38 28.5822 38 28.4314C38 28.2806 37.9393 28.1359 37.8314 28.0293C37.7234 27.9227 37.5769 27.8627 37.4242 27.8627Z" fill="#C60D0D"/>
</svg>
