<svg width="163" height="158" viewBox="0 0 163 158" fill="none" xmlns="http://www.w3.org/2000/svg">
<path d="M95.1028 152.192C94.2814 152.192 93.5828 152.053 93.0068 151.776C92.4414 151.488 91.9454 151.088 91.5188 150.576L92.6228 149.536C92.9428 149.941 93.3161 150.251 93.7428 150.464C94.1694 150.677 94.6548 150.784 95.1988 150.784C95.7748 150.784 96.2014 150.683 96.4788 150.48C96.7668 150.267 96.9108 149.968 96.9108 149.584C96.9108 149.243 96.7988 148.981 96.5748 148.8C96.3614 148.608 96.0201 148.48 95.5508 148.416L94.7348 148.304C94.3401 148.251 93.9668 148.165 93.6148 148.048C93.2628 147.931 92.9534 147.771 92.6868 147.568C92.4308 147.365 92.2228 147.115 92.0628 146.816C91.9134 146.517 91.8388 146.149 91.8388 145.712C91.8388 145.285 91.9188 144.907 92.0788 144.576C92.2388 144.235 92.4628 143.952 92.7508 143.728C93.0388 143.493 93.3801 143.317 93.7748 143.2C94.1801 143.083 94.6228 143.024 95.1028 143.024C95.9028 143.024 96.5588 143.147 97.0708 143.392C97.5828 143.627 98.0361 143.957 98.4308 144.384L97.3748 145.44C97.1294 145.163 96.8148 144.928 96.4308 144.736C96.0468 144.544 95.6041 144.448 95.1028 144.448C94.5801 144.448 94.1854 144.549 93.9188 144.752C93.6521 144.955 93.5188 145.232 93.5188 145.584C93.5188 145.957 93.6414 146.235 93.8868 146.416C94.1321 146.597 94.4948 146.72 94.9748 146.784L95.7908 146.912C96.2068 146.976 96.5854 147.067 96.9268 147.184C97.2788 147.301 97.5774 147.461 97.8228 147.664C98.0681 147.856 98.2548 148.096 98.3828 148.384C98.5214 148.672 98.5908 149.019 98.5908 149.424C98.5908 149.84 98.5054 150.219 98.3348 150.56C98.1748 150.901 97.9401 151.195 97.6308 151.44C97.3321 151.675 96.9641 151.861 96.5268 152C96.1001 152.128 95.6254 152.192 95.1028 152.192ZM96.0844 157.648C95.295 157.648 94.719 157.461 94.3564 157.088C93.983 156.725 93.7964 156.256 93.7964 155.68V154.976H92.7564V153.744H94.0524C94.4577 153.744 94.751 153.829 94.9324 154C95.1137 154.171 95.2044 154.4 95.2044 154.688V155.376C95.2044 155.717 95.2737 155.979 95.4124 156.16C95.551 156.341 95.775 156.432 96.0844 156.432C96.3937 156.432 96.6177 156.341 96.7564 156.16C96.895 155.979 96.9644 155.717 96.9644 155.376V153.744H98.4844V155.408C98.4844 156.059 98.2924 156.592 97.9084 157.008C97.5137 157.435 96.9057 157.648 96.0844 157.648ZM104.335 152.192C103.748 152.192 103.22 152.112 102.751 151.952C102.292 151.781 101.897 151.547 101.567 151.248C101.247 150.939 100.996 150.571 100.815 150.144C100.644 149.707 100.559 149.221 100.559 148.688V143.216H102.303V148.56C102.303 149.264 102.479 149.808 102.831 150.192C103.193 150.576 103.695 150.768 104.335 150.768C104.975 150.768 105.471 150.576 105.823 150.192C106.185 149.808 106.367 149.264 106.367 148.56V140.272H108.111V148.688C108.111 149.221 108.02 149.707 107.839 150.144C107.668 150.571 107.417 150.939 107.087 151.248C106.767 151.547 106.372 151.781 105.903 151.952C105.444 152.112 104.921 152.192 104.335 152.192Z" fill="white" fill-opacity="0.3"/>
<path opacity="0.3" d="M99.4943 6.85166C68.5632 6.85166 43.4886 31.9952 43.4886 63.0113C43.4886 94.0274 68.5632 119.171 99.4943 119.171C130.425 119.171 155.5 94.0274 155.5 63.0113C155.5 31.9952 130.425 6.85167 99.4943 6.85166Z" stroke="#818181" stroke-width="10" stroke-linecap="round" stroke-linejoin="round"/>
<path d="M90.4125 84.384C88.9832 84.384 87.7458 84.128 86.7005 83.616C85.6552 83.0827 84.7912 82.3253 84.1085 81.344C83.4258 80.3627 82.9138 79.1573 82.5725 77.728C82.2525 76.2987 82.0925 74.6667 82.0925 72.832C82.0925 71.0187 82.2525 69.3973 82.5725 67.968C82.9138 66.5173 83.4258 65.3013 84.1085 64.32C84.7912 63.3387 85.6552 62.592 86.7005 62.08C87.7458 61.5467 88.9832 61.28 90.4125 61.28C93.2498 61.28 95.3405 62.2933 96.6845 64.32C98.0498 66.3467 98.7325 69.184 98.7325 72.832C98.7325 76.48 98.0498 79.3173 96.6845 81.344C95.3405 83.3707 93.2498 84.384 90.4125 84.384ZM90.4125 80.832C91.8418 80.832 92.8338 80.2987 93.3885 79.232C93.9645 78.144 94.2525 76.6827 94.2525 74.848V70.816C94.2525 68.9813 93.9645 67.5307 93.3885 66.464C92.8338 65.376 91.8418 64.832 90.4125 64.832C88.9832 64.832 87.9805 65.376 87.4045 66.464C86.8498 67.5307 86.5725 68.9813 86.5725 70.816V74.848C86.5725 76.6827 86.8498 78.144 87.4045 79.232C87.9805 80.2987 88.9832 80.832 90.4125 80.832ZM108.384 70.688C109.664 70.688 110.603 70.432 111.2 69.92C111.819 69.3867 112.128 68.7147 112.128 67.904V67.68C112.128 66.7627 111.829 66.048 111.232 65.536C110.656 65.0027 109.856 64.736 108.832 64.736C107.851 64.736 106.976 64.9707 106.208 65.44C105.461 65.9093 104.811 66.5707 104.256 67.424L101.568 64.992C101.952 64.48 102.368 64 102.816 63.552C103.285 63.0827 103.819 62.688 104.416 62.368C105.013 62.0267 105.685 61.76 106.432 61.568C107.179 61.376 108.021 61.28 108.96 61.28C110.091 61.28 111.115 61.4187 112.032 61.696C112.971 61.952 113.771 62.336 114.432 62.848C115.115 63.36 115.637 63.9787 116 64.704C116.363 65.408 116.544 66.208 116.544 67.104C116.544 67.8293 116.427 68.48 116.192 69.056C115.979 69.632 115.669 70.1333 115.264 70.56C114.88 70.9867 114.421 71.3387 113.888 71.616C113.376 71.872 112.832 72.064 112.256 72.192V72.384C112.896 72.512 113.504 72.7147 114.08 72.992C114.656 73.2693 115.147 73.6427 115.552 74.112C115.979 74.56 116.309 75.0933 116.544 75.712C116.8 76.3307 116.928 77.0347 116.928 77.824C116.928 78.8053 116.725 79.7013 116.32 80.512C115.936 81.3227 115.381 82.016 114.656 82.592C113.931 83.168 113.067 83.616 112.064 83.936C111.061 84.2347 109.941 84.384 108.704 84.384C107.616 84.384 106.656 84.2667 105.824 84.032C104.992 83.8187 104.256 83.52 103.616 83.136C102.997 82.752 102.453 82.3147 101.984 81.824C101.515 81.312 101.109 80.7787 100.768 80.224L103.872 77.856C104.128 78.304 104.405 78.72 104.704 79.104C105.003 79.4667 105.344 79.7867 105.728 80.064C106.112 80.3413 106.549 80.5547 107.04 80.704C107.531 80.8533 108.085 80.928 108.704 80.928C109.941 80.928 110.891 80.6293 111.552 80.032C112.213 79.4347 112.544 78.6133 112.544 77.568V77.344C112.544 76.32 112.181 75.5413 111.456 75.008C110.752 74.4747 109.728 74.208 108.384 74.208H106.176V70.688H108.384Z" fill="white" fill-opacity="0.3"/>
<path d="M84.6745 52.168C83.8532 52.168 83.1532 52.0187 82.5745 51.72C82.0052 51.4213 81.5152 51.02 81.1045 50.516L82.1965 49.494C82.5418 49.914 82.9198 50.2313 83.3305 50.446C83.7505 50.6607 84.2265 50.768 84.7585 50.768C85.3838 50.768 85.8552 50.628 86.1725 50.348C86.4898 50.068 86.6485 49.69 86.6485 49.214C86.6485 48.8313 86.5365 48.528 86.3125 48.304C86.0885 48.08 85.6918 47.912 85.1225 47.8L84.2545 47.646C83.3025 47.4687 82.5885 47.156 82.1125 46.708C81.6365 46.26 81.3985 45.644 81.3985 44.86C81.3985 44.4307 81.4778 44.0433 81.6365 43.698C81.8045 43.3433 82.0332 43.0493 82.3225 42.816C82.6212 42.5733 82.9805 42.3867 83.4005 42.256C83.8205 42.1253 84.2918 42.06 84.8145 42.06C85.5518 42.06 86.1912 42.1907 86.7325 42.452C87.2738 42.704 87.7358 43.0727 88.1185 43.558L87.0125 44.538C86.7605 44.2113 86.4525 43.95 86.0885 43.754C85.7245 43.558 85.2718 43.46 84.7305 43.46C84.1705 43.46 83.7365 43.572 83.4285 43.796C83.1205 44.02 82.9665 44.3467 82.9665 44.776C82.9665 45.1867 83.0925 45.4947 83.3445 45.7C83.5965 45.896 83.9885 46.0453 84.5205 46.148L85.3885 46.33C86.3685 46.5167 87.0825 46.834 87.5305 47.282C87.9878 47.73 88.2165 48.346 88.2165 49.13C88.2165 49.5873 88.1372 50.0027 87.9785 50.376C87.8198 50.7493 87.5865 51.0713 87.2785 51.342C86.9798 51.6033 86.6112 51.8087 86.1725 51.958C85.7338 52.098 85.2345 52.168 84.6745 52.168ZM95.0493 43.628V52H93.4673V43.628H90.5553V42.228H97.9613V43.628H95.0493ZM101.043 52V42.228H107.301V43.628H102.625V46.344H106.867V47.744H102.625V50.6H107.301V52H101.043ZM110.882 52V42.228H115.082C115.987 42.228 116.687 42.494 117.182 43.026C117.677 43.558 117.924 44.272 117.924 45.168C117.924 46.064 117.677 46.778 117.182 47.31C116.687 47.842 115.987 48.108 115.082 48.108H112.464V52H110.882ZM112.464 46.722H114.984C115.385 46.722 115.698 46.6193 115.922 46.414C116.146 46.1993 116.258 45.896 116.258 45.504V44.832C116.258 44.44 116.146 44.1413 115.922 43.936C115.698 43.7213 115.385 43.614 114.984 43.614H112.464V46.722Z" fill="white" fill-opacity="0.3"/>
</svg>
