<?xml version="1.0" encoding="utf-8"?>
<!-- Generator: Adobe Illustrator 26.2.1, SVG Export Plug-In . SVG Version: 6.00 Build 0)  -->
<svg version="1.1" id="Layer_1" xmlns="http://www.w3.org/2000/svg" xmlns:xlink="http://www.w3.org/1999/xlink" x="0px" y="0px"
	 viewBox="0 0 308 98" style="enable-background:new 0 0 308 98;" xml:space="preserve">
<style type="text/css">
	.st0{clip-path:url(#SVGID_00000114779341092504361840000008657483162555271552_);}
	.st1{fill:url(#SVGID_00000180325170294032393770000012610971521584359098_);}
	.st2{fill:url(#SVGID_00000055700352371348369560000015752771665147320494_);}
</style>
<g>
	<defs>
		<rect id="SVGID_1_" width="308" height="98"/>
	</defs>
	<clipPath id="SVGID_00000030444954945735276100000005072435776981405346_">
		<use xlink:href="#SVGID_1_"  style="overflow:visible;"/>
	</clipPath>
	<g style="clip-path:url(#SVGID_00000030444954945735276100000005072435776981405346_);">
		
			<linearGradient id="SVGID_00000111151246302676735230000006661958717790811531_" gradientUnits="userSpaceOnUse" x1="0" y1="58.9738" x2="308.008" y2="58.9738" gradientTransform="matrix(1 0 0 -1 0 100)">
			<stop  offset="0" style="stop-color:#F24D60"/>
			<stop  offset="1" style="stop-color:#7D0009"/>
		</linearGradient>
		<path style="fill:url(#SVGID_00000111151246302676735230000006661958717790811531_);" d="M206,22.8c-7.7,1.4-15.5,2.4-23.2,3.4
			c-7.8,1-15.5,2-23.3,2.8c-7.8,0.8-15.6,1.7-23.4,2.5s-15.6,1.6-23.4,2.2h-0.1h-0.1l-21-5.8l-2.2-0.6l2.2-0.9c7.3-3,14.6-6,22-8.9
			c3.7-1.4,7.4-2.8,11.2-4.1c3.8-1.3,7.5-2.5,11.4-3.5c3.8-1,7.7-1.9,11.6-2.6c3.9-0.7,7.8-1.3,11.7-1.8c7.9-0.9,15.8-1.3,23.7-1.2
			c7.9,0.1,15.8,0.5,23.7,1.2c3.9,0.4,7.9,0.8,11.8,1.3l1.5,0.2c0.5,0.1,1,0.2,1.5,0.3c1,0.2,1.9,0.5,2.9,0.7
			c1.9,0.5,3.8,1.1,5.7,1.7c3.8,1.2,7.5,2.4,11.3,3.7c1.9,0.7,3.7,1.3,5.6,2c0.9,0.4,1.8,0.7,2.8,1.1c0.5,0.2,0.9,0.4,1.4,0.6
			c0.2,0.1,0.4,0.2,0.7,0.4c0.2,0.1,0.2,0.1,0.3,0.2l0.2,0.1l0.1,0.1c0,0,0,0.1,0,0.1c0,0.1,0,0.1,0,0.2c0,0.2-0.1,0.2-0.1,0.2
			l-0.1,0.1c-0.1,0.1-0.1,0.1-0.2,0.1c-0.1,0.1-0.2,0.1-0.4,0.2c-0.2,0.1-0.5,0.2-0.7,0.3c-0.5,0.2-0.9,0.4-1.4,0.6
			c-0.9,0.4-1.9,0.7-2.8,1c-1.9,0.6-3.7,1.3-5.6,1.9c-3.8,1.2-7.5,2.3-11.3,3.5c3.8-1.2,7.5-2.5,11.2-3.8c1.9-0.6,3.7-1.3,5.6-2
			c0.9-0.3,1.8-0.7,2.8-1.1c0.5-0.2,0.9-0.4,1.3-0.6c0.2-0.1,0.4-0.2,0.6-0.3l0.3-0.2c0,0,0.1-0.1,0.1-0.1c0,0,0-0.1,0,0.1
			c0,0,0,0,0,0.1c0,0-0.1-0.1-0.1-0.1c-0.1-0.1-0.2-0.1-0.3-0.2c-0.2-0.1-0.4-0.2-0.6-0.3c-0.4-0.2-0.9-0.4-1.3-0.6
			c-0.9-0.4-1.8-0.7-2.8-1c-1.9-0.7-3.7-1.3-5.6-1.9c-3.7-1.2-7.5-2.4-11.3-3.5c-1.9-0.6-3.8-1.1-5.7-1.6c-0.9-0.2-1.9-0.5-2.9-0.7
			c-0.5-0.1-0.9-0.2-1.4-0.3l-1.5-0.2c-3.9-0.5-7.8-0.8-11.7-1.2c-3.9-0.3-7.9-0.6-11.8-0.7c-3.9-0.2-7.9-0.3-11.8-0.3
			c-7.9-0.1-15.7,0.4-23.5,1.3c-3.9,0.5-7.8,1.1-11.6,1.8c-3.9,0.7-7.7,1.6-11.5,2.7c-7.6,2.1-15,4.7-22.3,7.6
			c-7.3,2.8-14.7,5.8-22,8.8l-0.1-1.6l21,5.8h-0.3l23.4-2c7.8-0.7,15.6-1.4,23.4-2.2c7.8-0.8,15.6-1.5,23.4-2.4
			C190.4,24.8,198.2,23.9,206,22.8z M293.5,13.6c-4.8-0.7-9.6-1.4-14.4-2.1l-28.8-4.4l-14.4-2.1c-4.8-0.7-9.6-1.3-14.4-2
			c-9.6-1.4-19.4-2.3-29.1-2.7C182.6-0.2,172.9,0,163.2,1c-9.7,1-19.4,2.7-28.8,5.2c-9.5,2.5-18.6,6-27.6,9.5
			c-9.1,3.5-18.1,7.3-27,11.1l0.2,0c-6.9,1.4-13.8,3-20.6,5.1c-3.4,1-6.8,2.1-10.1,3.3c-3.3,1.2-6.6,2.4-9.9,3.8
			c-6.5,2.7-12.9,5.8-19.1,9.3c-3.1,1.8-6.1,3.6-9,5.6c-2.9,2-5.8,4.1-8.4,6.5l-0.1,0.1l0.1,0.2c0.9,1.5,1.9,2.9,2.9,4.3
			c1,1.4,2,2.8,2.9,4.2c2,2.8,4,5.6,6,8.3c-1.9-2.8-3.9-5.7-5.8-8.5l-2.9-4.2c-0.9-1.4-1.9-2.9-2.8-4.3l0,0.3
			c2.7-2.3,5.5-4.4,8.5-6.3c2.9-1.9,6-3.7,9.1-5.4c6.2-3.4,12.6-6.4,19.1-9c3.3-1.3,6.6-2.5,9.9-3.7c3.3-1.2,6.7-2.2,10.1-3.1
			c6.7-1.9,13.6-3.5,20.5-4.9h0.1h0.1c8.9-3.8,17.9-7.5,27-11c9.1-3.5,18.2-6.9,27.5-9.3c9.4-2.5,18.9-4.2,28.5-5.2
			c9.6-1,19.3-1.3,29-1c4.8,0.2,9.7,0.5,14.5,1c4.8,0.4,9.6,1,14.5,1.6s9.7,1.2,14.5,1.8l14.4,2l14.4,2l14.5,2
			c4.8,0.6,9.6,1.3,14.5,1.9c4.8,0.6,9.7,1.2,14.5,1.5C303.2,15,298.4,14.3,293.5,13.6z M26.8,69l4.8,5l0.6,0.6c0,0,0,0-0.1-0.2
			c0-0.2,0-0.4,0.2-0.5h0.1h-0.1L31.9,74l-1.6,0.6l-3.2,1.1c-2.2,0.7-4.4,1.4-6.5,2.1c-2.2,0.7-4.4,1.3-6.6,1.8
			c-0.6,0.1-1.1,0.2-1.6,0.3c-0.3,0-0.5,0-0.8,0c-0.3,0-0.5,0-0.8,0c-1.1,0-2.2-0.1-3.4-0.3c-2.3-0.2-4.6-0.6-6.8-1l0.3,0.5
			c0.2-0.5,0.4-1,0.8-1.4c0.3-0.4,0.7-0.9,1.2-1.2H2.8c2-0.8,3.9-1.6,5.8-2.4c-2,0.6-4,1.2-6,1.9c-0.5,0.4-1,0.8-1.4,1.2
			c-0.4,0.5-0.8,1-1,1.6L0,79.4l0.4,0.1c2.2,0.6,4.5,1.1,6.8,1.4c1.2,0.2,2.3,0.3,3.5,0.4c0.3,0,0.6,0,0.9,0c0.3,0,0.6,0,0.9,0
			c0.6-0.1,1.2-0.2,1.8-0.3c2.3-0.5,4.5-1.1,6.7-1.8c2.2-0.7,4.4-1.4,6.6-2.1c1.1-0.4,2.2-0.8,3.3-1.2c0.5-0.2,1.1-0.4,1.6-0.6
			c0.1-0.1,0.3-0.1,0.4-0.2L33,75l0.1-0.1l0.1-0.1l0,0c0.1-0.1,0.2-0.3,0.2-0.5c0-0.3-0.1-0.3-0.1-0.3L33.3,74l-0.1-0.1
			c-0.1-0.1-0.1-0.1-0.2-0.2l-0.2-0.2l-0.3-0.3c-1.6-1.6-3.3-3.2-4.9-4.8c-3.3-3.2-6.7-6.3-10.1-9.4C20.5,62.3,23.7,65.7,26.8,69z
			 M31.5,81.7l6,0.1c4,0.1,7.9,0.2,11.9,0.2H50l-0.2-0.7c-0.7-2.4-1.1-4.8-1.3-7.3c-0.3-2.5-0.3-5-0.2-7.4l0.1-1.9l0.2-1.8
			c0.1-1.2,0.4-2.4,0.7-3.6c0.6-2.4,1.6-4.6,2.7-6.8c1.2-2.1,2.7-4.1,4.3-5.9c0.4-0.5,0.9-0.8,1.3-1.3l0.7-0.6
			c0.2-0.2,0.5-0.4,0.7-0.6l1.5-1.1l1.5-1c0.3-0.2,0.5-0.3,0.8-0.5l0.8-0.4l1.6-0.8l1.7-0.6l0.9-0.3c0.3-0.1,0.6-0.2,0.9-0.2
			l1.8-0.5c0.6-0.2,1.2-0.2,1.8-0.3c0.6-0.1,1.2-0.2,1.8-0.3l1.8-0.1c4.9-0.3,9.8,0.7,14.2,2.9c4.4,2.3,8.1,5.7,10.7,9.8
			c1.4,2,2.5,4.3,3.3,6.6c0.7,2.4,1.2,4.8,1.4,7.3c0.4,5,0.2,10-0.7,15c1.2-4.9,1.6-10,1.4-15c-0.1-2.6-0.5-5.1-1.2-7.5
			c-2.4-7.4-7.5-13.7-14.3-17.5c-4.6-2.4-9.8-3.5-14.9-3.2L74,36.6c-0.6,0.1-1.3,0.2-1.9,0.3c-0.6,0.1-1.3,0.2-1.9,0.3l-1.9,0.5
			c-0.3,0.1-0.6,0.2-0.9,0.2l-0.9,0.3l-1.8,0.7c-0.6,0.3-1.2,0.6-1.7,0.8L62,40.2c-0.3,0.2-0.5,0.3-0.8,0.5l-1.6,1L58,42.9
			c-0.3,0.2-0.5,0.4-0.8,0.6l-0.7,0.7c-0.5,0.4-1,0.9-1.4,1.4L53.8,47c-0.4,0.5-0.8,1-1.2,1.5l-0.6,0.8c-0.2,0.3-0.3,0.6-0.5,0.8
			c-0.3,0.6-0.7,1.1-1,1.7c-1.2,2.3-2.2,4.7-2.8,7.2c-0.3,1.3-0.5,2.5-0.7,3.8c0,0.6-0.1,1.3-0.2,1.9l-0.1,1.9
			c-0.1,2.5,0.1,5.1,0.4,7.6c0.3,2.5,0.8,5,1.6,7.5l0.5-0.7c-4,0.1-7.9,0.1-11.9,0.2l-6,0.1l-6,0.1L31.5,81.7z M29.9,46.1
			c-2.1,0.9-4.1,1.9-6.1,3c-2,1.1-4,2.2-5.9,3.3c-1,0.6-1.9,1.1-2.9,1.8c-1,0.6-1.9,1.2-2.9,1.9L10,57.5l2.5-0.4l7-1.1
			c2.3-0.4,4.7-0.7,7-1.2c2.3-0.4,4.7-0.8,7-1.2l3.5-0.7c1.2-0.2,2.3-0.5,3.5-0.8c-2.3,0.3-4.7,0.6-7,0.9l-7,0.9l-7,1l-7,1l0.5,1
			c1.8-1.2,3.8-2.4,5.7-3.6c1.9-1.2,3.9-2.3,5.8-3.5c2-1.1,3.9-2.2,5.9-3.3c2-1.1,4-2.1,6.1-3C34.1,44.3,32,45.2,29.9,46.1
			L29.9,46.1z M114,27.2v0.4c1.9-1.5,3.9-2.7,6.1-3.7c0.5-0.2,1-0.3,1.6-0.4c0.3,0,0.6,0,0.9,0c0.3,0,0.6,0,0.9,0
			c1.2,0,2.4,0.1,3.6,0.2l7.3,0.6c2.4,0.2,4.9,0.4,7.3,0.5c-2.4-0.5-4.8-1-7.2-1.3c-1.2-0.2-2.4-0.4-3.6-0.5
			c-1.3-0.1-2.4-0.3-3.7-0.4c-1.2-0.1-2.4-0.2-3.7-0.2c-0.3,0-0.6,0-0.9,0c-0.3,0-0.6,0-1,0c-0.7,0.1-1.3,0.3-1.9,0.5
			c-1.1,0.5-2.2,1.1-3.2,1.9c-1,0.7-2,1.5-2.8,2.4l-0.2,0.2l0.2,0.2c1,0.7,2,1.4,3.1,2C115.8,28.8,114.9,28,114,27.2z M192.5,10.7
			c0.5,1.3,0.9,2.5,1.4,3.8l1.5,3.7c0.2,0.6,0.5,1.2,0.7,1.9c0.2,0.6,0.5,1.3,0.7,1.9c-0.2-1.3-0.5-2.7-1-3.9
			c-0.4-1.3-0.9-2.5-1.4-3.8c-0.5-1.3-1-2.5-1.6-3.7c-0.6-1.2-1.1-2.4-1.8-3.6C191.5,8.1,192,9.4,192.5,10.7z"/>
		
			<linearGradient id="SVGID_00000009580705983274740330000018325060195183420840_" gradientUnits="userSpaceOnUse" x1="0" y1="2.5635" x2="113.416" y2="2.5635" gradientTransform="matrix(1 0 0 -1 0 100)">
			<stop  offset="0" style="stop-color:#F24D60"/>
			<stop  offset="1" style="stop-color:#7D0009"/>
		</linearGradient>
		<path style="fill:url(#SVGID_00000009580705983274740330000018325060195183420840_);" d="M113.4,97.4c-9.5,0.2-18.9,0.3-28.4,0.4
			L56.7,98l-28.4-0.1l-14.2-0.2L0,97.4l14.2-0.3L28.4,97l28.4-0.1L85.1,97C94.5,97.1,104,97.2,113.4,97.4z"/>
	</g>
</g>
</svg>
