<svg width="19" height="19" viewBox="0 0 19 19" fill="none" xmlns="http://www.w3.org/2000/svg">
<g clip-path="url(#clip0_774_5434)">
<path d="M9.5 19C14.7467 19 19 14.7467 19 9.5C19 4.25329 14.7467 0 9.5 0C4.25329 0 0 4.25329 0 9.5C0 14.7467 4.25329 19 9.5 19Z" fill="#31C139"/>
<path d="M9.49952 4.58298C11.0099 4.59783 12.4015 4.99119 13.6112 5.92634C14.4276 6.55349 15.0288 7.34392 15.2997 8.3533C15.6151 9.53708 15.3888 10.6281 14.7134 11.6375C14.231 12.3537 13.5927 12.9177 12.9359 13.4633C11.8782 14.339 10.7427 15.0998 9.53292 15.7492C9.4253 15.8049 9.31398 15.8568 9.19894 15.8902C9.00968 15.9422 8.87609 15.8197 8.90948 15.6267C8.92433 15.534 8.97257 15.4449 8.99484 15.3521C9.05421 15.0664 9.12472 14.7806 9.15812 14.4875C9.18409 14.2648 9.06534 14.1683 8.84269 14.1498C7.46964 14.0236 6.22276 13.5672 5.16886 12.6654C4.25597 11.8861 3.68819 10.9064 3.58429 9.70037C3.49523 8.65388 3.80694 7.71501 4.44151 6.88376C5.30616 5.75564 6.47511 5.10994 7.83331 4.77595C8.37511 4.63865 8.93175 4.57556 9.49952 4.58298ZM9.40304 9.08435C9.44386 9.1363 9.46612 9.15857 9.48097 9.18083C9.84093 9.67068 10.2009 10.1605 10.5646 10.6504C10.6722 10.7951 10.8095 10.8508 10.9468 10.8062C11.0841 10.7617 11.162 10.6504 11.162 10.4722C11.162 9.7115 11.162 8.95076 11.1583 8.1863C11.1583 7.99705 11.021 7.85974 10.8466 7.85974C10.6722 7.85974 10.5386 8.00447 10.5386 8.20115C10.5386 8.61677 10.5386 9.0324 10.5349 9.45173C10.5349 9.48884 10.5275 9.52224 10.52 9.58533C10.4792 9.53708 10.4569 9.5074 10.4384 9.48142C10.0859 9.00271 9.73702 8.524 9.38448 8.049C9.26202 7.88572 9.14698 7.83376 8.99855 7.8783C8.8464 7.92654 8.7796 8.04158 8.7796 8.24939C8.77589 8.98044 8.77589 9.7115 8.77589 10.4426C8.77589 10.6726 8.89835 10.8099 9.08761 10.8136C9.28058 10.8174 9.40304 10.6801 9.40675 10.4537C9.41046 10.1754 9.40304 9.89333 9.40304 9.61501C9.40304 9.45173 9.40304 9.28474 9.40304 9.08435ZM12.2048 8.48689C12.4757 8.48689 12.7355 8.48689 12.9989 8.48689C13.2179 8.48689 13.3589 8.36443 13.3626 8.18259C13.3663 7.98962 13.229 7.85603 13.0064 7.85603C12.6501 7.85232 12.2976 7.85232 11.9413 7.85603C11.689 7.85974 11.5739 7.97478 11.5702 8.23455C11.5665 8.4572 11.5702 8.67986 11.5702 8.90623C11.5702 9.42576 11.5665 9.94158 11.5665 10.4611C11.5665 10.7023 11.6816 10.8174 11.9191 10.8174C12.2939 10.8174 12.6687 10.8174 13.0472 10.8174C13.1993 10.8174 13.2995 10.7431 13.3515 10.6095C13.4294 10.4129 13.2661 10.1976 13.0398 10.1939C12.7614 10.1902 12.4831 10.1939 12.2011 10.1939C12.2011 10.0047 12.2011 9.83767 12.2011 9.65584C12.4831 9.65584 12.7577 9.65584 13.0286 9.65584C13.2216 9.65584 13.3552 9.52966 13.3626 9.35525C13.37 9.17341 13.2364 9.03982 13.0323 9.0324C12.947 9.02869 12.8616 9.0324 12.7726 9.0324C12.5833 9.0324 12.3903 9.0324 12.2011 9.0324C12.2048 8.83572 12.2048 8.67244 12.2048 8.48689ZM6.27101 10.1939C6.27101 10.116 6.27101 10.0566 6.27101 9.99724C6.27101 9.40349 6.27101 8.80974 6.2673 8.21599C6.2673 7.99705 6.13741 7.85974 5.95558 7.85974C5.77374 7.85974 5.64757 8.00076 5.64757 8.2197C5.64386 8.9656 5.64386 9.7115 5.64386 10.4574C5.64386 10.6949 5.76261 10.8099 6.00011 10.8136C6.36007 10.8136 6.72003 10.8136 7.07999 10.8136C7.29894 10.8136 7.43624 10.6949 7.43995 10.5094C7.44366 10.3238 7.29152 10.1976 7.06886 10.1939C6.8128 10.1939 6.55675 10.1939 6.27101 10.1939ZM7.71827 9.32927H7.71456C7.71456 9.70408 7.71456 10.0789 7.71456 10.4574C7.71456 10.6726 7.84073 10.8099 8.02628 10.8136C8.21183 10.8136 8.338 10.6801 8.338 10.4648C8.338 9.70779 8.33429 8.95447 8.33058 8.19744C8.33058 8.13435 8.31573 8.06384 8.28234 8.01189C8.20441 7.88572 8.08194 7.8449 7.94093 7.88201C7.80362 7.91912 7.72198 8.03415 7.71827 8.20857C7.71827 8.57966 7.71827 8.95447 7.71827 9.32927Z" fill="white"/>
</g>
<defs>
<clipPath id="clip0_774_5434">
<rect width="19" height="19" fill="white"/>
</clipPath>
</defs>
</svg>
