<svg width="351" height="65" viewBox="0 0 351 65" fill="none" xmlns="http://www.w3.org/2000/svg">
<g clip-path="url(#clip0_923_6068)">
<path d="M83.8843 3.11315C85.523 3.08944 87.1558 3.314 88.7265 3.77912C89.9829 4.14751 91.1577 4.7492 92.1888 5.55235C93.0711 6.25612 93.7689 7.16187 94.2225 8.19215C94.6717 9.2028 94.9 10.2967 94.8924 11.4016C94.8918 12.3067 94.7862 13.2086 94.5776 14.0896C94.3629 15.0004 93.9678 15.8596 93.4155 16.617C92.7778 17.4821 91.9974 18.2336 91.1073 18.8396C89.9804 19.6031 88.738 20.1828 87.4272 20.5567C88.3353 22.2525 89.1437 23.9992 89.8483 25.7881C90.6554 27.8342 91.4624 29.9685 92.1565 32.2071H85.1917C84.5541 30.3055 83.9004 28.4279 83.2386 26.5905C82.6746 24.9179 81.9447 23.3052 81.0596 21.7763H77.8314L75.2973 32.175H68.8409L75.612 3.84331C77.1132 3.57852 78.582 3.38596 80.0024 3.27362C81.4228 3.16129 82.7221 3.11315 83.8843 3.11315ZM83.6664 8.57729C83.1983 8.57729 82.714 8.57729 82.2056 8.62543C81.6972 8.67357 81.3017 8.67357 80.9628 8.70567L79.0904 16.5849H81.3098C82.4456 16.6086 83.5797 16.4845 84.6832 16.2159C85.4681 16.0271 86.2119 15.6981 86.8784 15.245C87.3968 14.8859 87.8092 14.3956 88.0728 13.8248C88.4935 12.8794 88.5425 11.8115 88.21 10.8319C88.0637 10.3957 87.8082 10.0036 87.4675 9.69258C87.0452 9.32258 86.5467 9.04874 86.0068 8.89021C85.2479 8.66482 84.4582 8.55923 83.6664 8.57729Z" fill="white"/>
<path d="M105.9 32.7608C104.591 32.7885 103.289 32.5623 102.067 32.0948C101.035 31.6922 100.114 31.0514 99.3795 30.2253C98.6532 29.3972 98.104 28.4308 97.7654 27.3849C97.3908 26.2099 97.2082 24.9827 97.2247 23.7502C97.228 22.0653 97.5004 20.3915 98.0318 18.7916C98.5653 17.1657 99.3851 15.6471 100.453 14.3063C101.512 12.9772 102.826 11.87 104.319 11.0487C105.934 10.1843 107.746 9.74775 109.581 9.78094C110.884 9.75676 112.18 9.98288 113.398 10.4469C114.434 10.8501 115.361 11.4906 116.101 12.3164C116.834 13.1434 117.384 14.1137 117.716 15.1648C118.099 16.3354 118.287 17.5605 118.272 18.7916C118.268 20.4764 117.996 22.1499 117.465 23.7502C116.962 25.3713 116.173 26.8901 115.133 28.2354C114.092 29.5759 112.781 30.6855 111.283 31.4931C109.627 32.364 107.774 32.8003 105.9 32.7608ZM108.991 15.0124C108.117 15.0028 107.264 15.2853 106.57 15.8148C105.858 16.3566 105.26 17.0328 104.811 17.8046C104.327 18.6276 103.968 19.5171 103.746 20.4444C103.521 21.3286 103.405 22.2365 103.399 23.1484C103.347 24.2746 103.592 25.3946 104.109 26.398C104.369 26.7897 104.732 27.1025 105.159 27.3021C105.587 27.5017 106.061 27.5804 106.53 27.5294C107.405 27.5402 108.258 27.2575 108.951 26.727C109.661 26.1849 110.256 25.5086 110.702 24.7371C111.18 23.9178 111.536 23.0341 111.76 22.1134C111.987 21.224 112.106 20.3108 112.115 19.3933C112.175 18.2675 111.942 17.1452 111.437 16.1357C111.178 15.7375 110.811 15.4205 110.378 15.2216C109.945 15.0227 109.464 14.9502 108.991 15.0124Z" fill="white"/>
<path d="M128.966 32.7608C127.739 32.794 126.521 32.5555 125.399 32.0627C124.45 31.6128 123.621 30.9477 122.978 30.121C122.331 29.2754 121.862 28.3096 121.597 27.2806C121.3 26.1328 121.153 24.9515 121.162 23.7662C121.15 20.1676 122.521 16.7004 124.995 14.0736C126.241 12.7861 127.738 11.7658 129.395 11.0759C131.053 10.3859 132.835 10.0407 134.631 10.0617C135.098 10.0621 135.564 10.0889 136.027 10.142C136.463 10.2061 136.907 10.2864 137.359 10.3987L139.619 0.986915L146.075 0L140.571 22.7713C140.184 24.3207 140.072 25.9255 140.24 27.5133C140.384 28.965 140.718 30.3919 141.233 31.7578L135.68 32.5602C135.511 32.2392 135.349 31.9263 135.212 31.6294C135.075 31.3326 134.938 30.9635 134.809 30.5703C134.013 31.2224 133.13 31.7624 132.186 32.175C131.165 32.5894 130.068 32.7888 128.966 32.7608ZM136.148 15.2932C136 15.2792 135.851 15.2578 135.705 15.229C135.578 15.1946 135.448 15.1731 135.317 15.1648C135.162 15.1498 135.005 15.1498 134.849 15.1648H134.091C133.145 15.16 132.213 15.3977 131.387 15.8548C130.553 16.3022 129.82 16.9137 129.232 17.6521C128.626 18.4449 128.154 19.3313 127.836 20.2759C127.507 21.2453 127.338 22.2615 127.336 23.2848C127.279 24.3752 127.516 25.461 128.022 26.4301C128.294 26.8271 128.67 27.143 129.109 27.3437C129.549 27.5444 130.035 27.6225 130.515 27.5694C131.117 27.5745 131.712 27.4485 132.259 27.2003C132.893 26.8814 133.471 26.4613 133.969 25.9567C134.018 25.2666 134.107 24.5445 134.236 23.7903C134.373 22.9879 134.502 22.3139 134.639 21.68L136.148 15.2932Z" fill="white"/>
<path d="M159.617 3.11323C161.209 3.09343 162.796 3.28228 164.339 3.67488C165.617 3.98521 166.827 4.52939 167.906 5.27962C168.869 5.96407 169.65 6.87075 170.183 7.92175C170.716 8.97276 170.984 10.1367 170.964 11.3134C171.023 13.1448 170.606 14.9603 169.754 16.585C168.951 18.0063 167.799 19.2017 166.405 20.0593C164.869 20.9942 163.177 21.6465 161.409 21.985C159.348 22.3745 157.253 22.5626 155.154 22.5466H153.54L151.208 32.1751H144.752L151.539 3.84338C153.04 3.5786 154.468 3.38603 155.816 3.2737C157.164 3.16137 158.415 3.11323 159.617 3.11323ZM159.077 8.54527C158.592 8.54527 158.181 8.54527 157.85 8.59341L156.857 8.6576L154.856 17.1146H156.47C157.536 17.123 158.6 17.0344 159.65 16.8498C160.519 16.7047 161.356 16.4058 162.119 15.9672C162.788 15.5798 163.344 15.027 163.733 14.3625C164.135 13.6245 164.332 12.7939 164.306 11.9553C164.35 11.4303 164.245 10.9037 164.004 10.4345C163.763 9.96536 163.396 9.57229 162.942 9.2995C161.742 8.71869 160.409 8.45875 159.077 8.54527Z" fill="#C60D0D"/>
<path d="M187.929 15.6783L186.314 15.2771C185.516 15.1327 184.705 15.0709 183.893 15.0926C183.458 15.0952 183.024 15.13 182.594 15.1969C182.204 15.246 181.818 15.3238 181.44 15.4296L177.405 32.175H171.198L176.194 11.514C177.389 11.1449 178.736 10.7758 180.229 10.4308C181.88 10.0669 183.567 9.89193 185.257 9.90925C186.027 9.91686 186.796 9.97853 187.557 10.0938C188.325 10.1997 189.076 10.4019 189.793 10.6956L187.929 15.6783Z" fill="#C60D0D"/>
<path d="M198.856 32.7608C197.547 32.7893 196.244 32.5631 195.022 32.0948C193.989 31.6903 193.066 31.0499 192.327 30.2253C191.606 29.3932 191.058 28.428 190.713 27.3849C190.341 26.2094 190.161 24.9823 190.18 23.7502C190.183 22.0653 190.456 20.3915 190.987 18.7916C191.521 17.1657 192.341 15.6471 193.408 14.3063C194.472 12.9782 195.788 11.8713 197.282 11.0487C198.898 10.1843 200.71 9.74775 202.544 9.78094C203.848 9.75756 205.144 9.98366 206.361 10.4469C207.383 10.8555 208.295 11.4957 209.025 12.3164C209.754 13.1457 210.303 14.1153 210.639 15.1648C211.022 16.3354 211.21 17.5605 211.196 18.7916C211.187 20.4761 210.915 22.149 210.389 23.7502C209.883 25.3717 209.09 26.8905 208.048 28.2354C207.005 29.5803 205.688 30.6905 204.182 31.4931C202.543 32.356 200.711 32.7922 198.856 32.7608ZM201.947 15.0124C201.072 15.0028 200.22 15.2853 199.526 15.8148C198.799 16.3461 198.187 17.0174 197.726 17.7886C197.248 18.6136 196.892 19.5026 196.669 20.4284C196.442 21.3123 196.323 22.2202 196.314 23.1324C196.251 24.2601 196.482 25.3848 196.984 26.398C197.245 26.7884 197.608 27.1002 198.035 27.2997C198.462 27.4991 198.936 27.5785 199.405 27.5294C200.28 27.5427 201.134 27.2598 201.826 26.727C202.538 26.1871 203.133 25.5104 203.577 24.7371C204.055 23.9178 204.411 23.0341 204.634 22.1134C204.865 21.2247 204.984 20.3111 204.989 19.3933C205.052 18.2682 204.821 17.1461 204.32 16.1357C204.066 15.7501 203.71 15.4413 203.292 15.2431C202.873 15.045 202.408 14.9652 201.947 15.0124Z" fill="#C60D0D"/>
<path d="M217.902 11.3696C218.37 11.2252 218.879 11.0647 219.411 10.8801C219.944 10.6956 220.573 10.5431 221.243 10.3987C222.005 10.2293 222.776 10.1007 223.551 10.0136C224.527 9.90386 225.508 9.85295 226.489 9.86112C227.616 9.82838 228.74 9.99966 229.806 10.3666C230.7 10.7059 231.521 11.2095 232.227 11.851C233.206 11.2958 234.229 10.8208 235.286 10.4308C236.429 10.0315 237.634 9.83859 238.845 9.86112C239.989 9.83594 241.128 10.0125 242.21 10.3827C243.095 10.69 243.892 11.2046 244.535 11.8831C245.156 12.5457 245.614 13.342 245.874 14.21C246.165 15.1698 246.307 16.1683 246.294 17.1707C246.293 17.707 246.26 18.2428 246.197 18.7755C246.123 19.3165 246.015 19.8525 245.874 20.3802L243.017 32.175H236.811L239.571 20.645C239.644 20.2679 239.733 19.8426 239.821 19.3612C239.923 18.8865 239.975 18.4024 239.975 17.9169C239.994 17.2052 239.806 16.5032 239.434 15.8949C239.186 15.5826 238.861 15.3399 238.49 15.1907C238.12 15.0416 237.716 14.9912 237.32 15.0444C236.745 15.0431 236.175 15.1521 235.641 15.3654C235.108 15.574 234.64 15.7906 234.229 15.9993C234.278 16.2072 234.305 16.4196 234.309 16.6331V17.1707C234.309 17.7073 234.274 18.2433 234.204 18.7755C234.137 19.317 234.032 19.8532 233.89 20.3802L231.049 32.175H224.843L227.587 20.645C227.675 20.2679 227.756 19.8426 227.853 19.3612C227.951 18.8858 228.002 18.4021 228.006 17.9169C228.022 17.2057 227.834 16.5046 227.466 15.8949C227.213 15.5819 226.884 15.339 226.509 15.19C226.134 15.041 225.727 14.9908 225.327 15.0444C224.952 15.042 224.577 15.0634 224.205 15.1086L223.132 15.2932L219.097 32.1429H212.898L217.902 11.3696Z" fill="#C60D0D"/>
<path d="M255.454 27.3608C256.027 27.4839 256.611 27.5404 257.197 27.5293C258.217 27.5434 259.227 27.3381 260.159 26.9275C261.031 26.5464 261.806 25.9761 262.427 25.2586C263.08 24.4954 263.581 23.6159 263.904 22.667C264.256 21.5867 264.431 20.4568 264.42 19.3211C264.448 18.2567 264.168 17.2068 263.613 16.2961C263.308 15.8627 262.892 15.5181 262.408 15.298C261.925 15.0779 261.39 14.9904 260.861 15.0444C260.023 15.038 259.187 15.1214 258.367 15.2932L255.454 27.3608ZM270.586 18.8717C270.608 20.7643 270.265 22.6435 269.577 24.4081C268.949 26.0182 268.005 27.4882 266.801 28.7329C265.6 29.9668 264.151 30.9347 262.548 31.5733C260.84 32.2679 259.01 32.6171 257.165 32.6003C256.212 32.5988 255.261 32.5129 254.324 32.3435L252.444 39.8537H246.27L253.202 11.1529C254.456 10.7806 255.73 10.4831 257.02 10.2623C258.556 9.98657 260.115 9.85227 261.676 9.86113C263.043 9.82859 264.403 10.0743 265.671 10.5833C266.734 10.9994 267.684 11.656 268.447 12.5009C269.182 13.3321 269.732 14.3082 270.061 15.3654C270.416 16.5005 270.593 17.6831 270.586 18.8717Z" fill="#C60D0D"/>
<path d="M278.213 4.9346L284.669 3.93164L283.055 10.3506H289.987L288.72 15.4136H281.844L280.045 23.0521C279.884 23.6375 279.779 24.2365 279.73 24.8414C279.671 25.3242 279.74 25.8139 279.932 26.2616C280.123 26.6688 280.447 26.9997 280.852 27.2004C281.429 27.4463 282.056 27.5588 282.684 27.5293C283.339 27.5337 283.994 27.4719 284.637 27.3448C285.283 27.2204 285.92 27.0488 286.541 26.8313L286.993 31.5572C286.108 31.8846 285.202 32.1527 284.282 32.3596C283.144 32.6011 281.983 32.7141 280.819 32.6966C279.282 32.7747 277.748 32.4829 276.348 31.8461C275.357 31.3435 274.564 30.5239 274.097 29.5192C273.644 28.4529 273.448 27.2962 273.524 26.1412C273.591 24.7894 273.783 23.4465 274.097 22.1294L278.213 4.9346Z" fill="#C60D0D"/>
<path d="M299.155 18.2379C300.823 16.9113 302.394 15.558 303.869 14.1779C305.345 12.7978 306.613 11.522 307.67 10.3666H314.675C313.115 12.0837 311.501 13.766 309.833 15.4135C308.165 17.0611 306.239 18.8049 304.054 20.645C304.682 21.4441 305.27 22.2743 305.814 23.1323C306.419 24.0711 306.992 25.05 307.533 26.077C308.073 27.1041 308.582 28.1471 309.042 29.2063C309.475 30.1755 309.858 31.1665 310.188 32.175H303.263C303.013 31.4529 302.698 30.6666 302.319 29.8241C301.94 28.9816 301.52 28.083 301.028 27.2806C300.535 26.4782 300.084 25.6117 299.583 24.8093C299.083 24.0069 298.607 23.2687 298.114 22.6349L295.782 32.175H289.608L297.106 0.986915L303.562 0L299.155 18.2379Z" fill="white"/>
<path d="M333.568 22.7713C333.176 24.3201 333.064 25.9256 333.237 27.5133C333.368 28.9632 333.688 30.39 334.189 31.7578L328.645 32.5602C328.475 32.2392 328.314 31.9263 328.169 31.6294C328.023 31.3326 327.902 30.9635 327.765 30.5703C326.981 31.2187 326.112 31.7585 325.183 32.1751C324.182 32.5966 323.105 32.8069 322.019 32.7929C320.786 32.8234 319.562 32.5794 318.436 32.0788C317.488 31.6203 316.659 30.9503 316.015 30.121C315.379 29.2683 314.923 28.2967 314.675 27.2646C314.384 26.1157 314.24 24.9349 314.247 23.7502C314.237 21.9059 314.588 20.0774 315.28 18.3663C315.932 16.7221 316.896 15.2182 318.121 13.9372C319.333 12.6818 320.785 11.6781 322.39 10.9845C324.067 10.2468 325.883 9.87469 327.717 9.89324C327.975 9.89324 328.411 9.89324 329.032 9.94138C329.654 9.98952 330.372 10.0296 331.179 10.1259C332.035 10.2384 332.884 10.4018 333.721 10.6154C334.604 10.8217 335.462 11.123 336.279 11.514L333.568 22.7713ZM329.274 15.1247C328.911 15.0766 328.58 15.0364 328.282 15.0124C327.93 14.9776 327.577 14.9616 327.224 14.9642C326.289 14.9633 325.37 15.2098 324.561 15.6783C323.739 16.1555 323.011 16.7782 322.414 17.5158C321.788 18.3096 321.305 19.2055 320.986 20.1636C320.611 21.157 320.411 22.2076 320.397 23.2687C320.345 24.3621 320.576 25.4503 321.067 26.4301C321.329 26.8301 321.699 27.1499 322.133 27.3538C322.568 27.5578 323.051 27.638 323.528 27.5855C324.124 27.5908 324.714 27.4647 325.255 27.2164C325.857 26.8847 326.402 26.4595 326.869 25.9567C326.926 25.2666 327.015 24.5445 327.144 23.7903C327.273 23.0361 327.41 22.3139 327.547 21.6801L329.274 15.1247Z" fill="white"/>
<path d="M343.704 32.175H337.53L342.744 10.3666H348.95L343.704 32.175ZM346.69 7.70275C345.855 7.70981 345.04 7.44179 344.374 6.9405C344.019 6.66595 343.739 6.30823 343.557 5.89937C343.375 5.4905 343.298 5.04323 343.333 4.59757C343.333 4.04429 343.452 3.49736 343.68 2.99283C343.9 2.47673 344.215 2.00596 344.608 1.60473C345.001 1.22487 345.464 0.925033 345.972 0.722127C346.481 0.500511 347.031 0.385784 347.586 0.385132C348.434 0.389089 349.257 0.671137 349.927 1.1875C350.28 1.463 350.56 1.82088 350.742 2.2295C350.923 2.63813 351.001 3.08493 350.968 3.53042C350.965 4.08426 350.844 4.63116 350.613 5.13516C350.389 5.63653 350.068 6.08914 349.668 6.4671C349.27 6.83779 348.812 7.13891 348.313 7.35773C347.8 7.57668 347.249 7.69388 346.69 7.70275Z" fill="white"/>
<path d="M70.2129 64.9359C69.4993 64.939 68.7874 64.8636 68.0904 64.7112C67.5358 64.5965 66.9948 64.4244 66.4763 64.1977L66.9848 62.8096C67.4663 63.0011 67.9596 63.1619 68.4616 63.291C69.0548 63.4419 69.6653 63.5147 70.2775 63.5076C70.8638 63.529 71.4463 63.4049 71.9723 63.1466C72.1781 63.0406 72.3494 62.8789 72.4665 62.6801C72.5837 62.4812 72.6417 62.2535 72.6341 62.0233C72.6347 61.8199 72.5868 61.6193 72.4942 61.4379C72.4016 61.2565 72.267 61.0997 72.1014 60.9802C71.577 60.61 70.9889 60.3381 70.3663 60.1778C69.6574 59.9651 68.9665 59.6968 68.3002 59.3754C67.8057 59.1319 67.3747 58.7776 67.0412 58.3404C66.7327 57.8931 66.5796 57.3577 66.6054 56.8159C66.5987 56.4334 66.6838 56.0548 66.8537 55.7116C67.0235 55.3683 67.2732 55.0702 67.582 54.842C68.5161 54.2361 69.6255 53.9541 70.7375 54.0397C71.3253 54.041 71.9117 54.0974 72.4888 54.2082C72.9393 54.2735 73.3726 54.4262 73.7639 54.6575V56.0857C73.3317 55.9008 72.8832 55.7558 72.4242 55.6524C71.8513 55.5109 71.2633 55.4382 70.6729 55.4358C70.0353 55.3792 69.3957 55.5193 68.841 55.837C68.6878 55.9324 68.5601 56.0633 68.4688 56.2183C68.3775 56.3734 68.3252 56.5481 68.3164 56.7276C68.308 56.9806 68.391 57.2283 68.5504 57.4257C68.7802 57.6652 69.0542 57.8586 69.3575 57.9954C69.901 58.217 70.4559 58.4098 71.02 58.5731C71.6019 58.7723 72.1684 59.0136 72.7148 59.2952C73.1944 59.5334 73.6138 59.8762 73.9415 60.2982C74.2615 60.7499 74.4205 61.2949 74.3934 61.8467C74.3975 62.3764 74.2581 62.8975 73.9899 63.3552C73.6931 63.8606 73.2403 64.2574 72.6986 64.4865C71.9129 64.8147 71.0645 64.9681 70.2129 64.9359Z" fill="white"/>
<path d="M78.8644 64.9358C78.5108 64.9321 78.1598 64.8753 77.8233 64.7673C77.4966 64.6576 77.2137 64.4467 77.0163 64.1655C76.8074 63.7882 76.7095 63.36 76.7338 62.9299V61.0523C76.6947 60.4495 76.8784 59.8531 77.2503 59.3754C77.6098 58.9812 78.0789 58.702 78.5981 58.573V58.5249L76.3787 57.7225V57.0967C76.3814 56.5574 76.5661 56.0347 76.9033 55.6123C77.293 55.11 77.8075 54.7173 78.3963 54.4729C79.1424 54.1652 79.9455 54.0175 80.7529 54.0396C81.4997 54.032 82.2413 54.1626 82.94 54.4248C83.5819 54.6495 84.1432 55.0568 84.5541 55.5962C84.9897 56.197 85.2087 56.9264 85.1755 57.6664V64.7513H83.4404V57.8268C83.4721 57.4801 83.4147 57.1311 83.2735 56.8125C83.1324 56.4939 82.9121 56.2162 82.6333 56.0054C82.0659 55.6218 81.3903 55.4278 80.7045 55.4518C80.0344 55.4192 79.3701 55.5899 78.7999 55.9413C78.5887 56.0717 78.4148 56.2537 78.2947 56.4701C78.1746 56.6864 78.1123 56.9298 78.1139 57.1769L80.3171 58.212L80.1638 59.1347C79.7304 59.148 79.3079 59.2724 78.9371 59.4958C78.7471 59.6631 78.6014 59.8743 78.5127 60.1107C78.4241 60.3471 78.3952 60.6016 78.4286 60.8518V62.7293C78.4156 62.8378 78.4276 62.9478 78.4636 63.051C78.4995 63.1542 78.5586 63.248 78.6363 63.3252C78.714 63.4025 78.8083 63.4612 78.9121 63.4969C79.0159 63.5327 79.1266 63.5446 79.2357 63.5317C79.4831 63.5355 79.7292 63.4947 79.962 63.4113L80.196 64.6309C79.9771 64.7477 79.7396 64.8264 79.4939 64.8636C79.2858 64.9006 79.0756 64.9247 78.8644 64.9358Z" fill="white"/>
<path d="M89.4448 64.7513L87.5321 54.2162H89.2995L90.0339 58.7977C90.1066 59.1668 90.1711 59.6482 90.2357 60.234C90.3003 60.8197 90.381 61.5258 90.4697 62.3281H90.5262C90.6957 61.5258 90.8491 60.8117 91.0105 60.2179C91.1719 59.6242 91.3171 59.1347 91.4301 58.7335L92.7295 54.2162H94.1418L95.4492 58.7335C95.5703 59.1347 95.7075 59.6322 95.8527 60.2179C95.998 60.8036 96.1756 61.5178 96.3612 62.3281H96.4419C96.5145 61.5258 96.5871 60.8277 96.6436 60.234C96.7001 59.6402 96.7808 59.1668 96.8454 58.7977L97.6524 54.2162H99.4037L97.4668 64.7513H95.7882L94.0046 59.0304C93.8978 58.7011 93.8089 58.3663 93.7383 58.0274C93.6576 57.6851 93.5769 57.2277 93.4962 56.6554H93.4316C93.3629 57.1229 93.2686 57.5862 93.1491 58.0435C93.0442 58.3885 92.9474 58.7255 92.8586 59.0304L91.1315 64.7513H89.4448Z" fill="white"/>
<path d="M104.698 64.9359C103.987 64.9391 103.278 64.8637 102.583 64.7112C102.029 64.5959 101.488 64.4238 100.969 64.1977L101.478 62.8096C101.959 63.0011 102.453 63.1619 102.955 63.291C103.548 63.4419 104.158 63.5147 104.771 63.5076C105.359 63.5286 105.944 63.4046 106.473 63.1466C106.683 63.0432 106.859 62.8827 106.98 62.6839C107.102 62.485 107.164 62.2559 107.159 62.0233C107.149 61.8112 107.087 61.6049 106.977 61.4229C106.867 61.2408 106.713 61.0887 106.53 60.9802C106.008 60.6099 105.423 60.338 104.803 60.1778C104.093 59.9665 103.402 59.6981 102.737 59.3754C102.239 59.1339 101.805 58.7794 101.47 58.3404C101.164 57.8916 101.012 57.3573 101.034 56.8159C101.027 56.4334 101.112 56.0548 101.282 55.7116C101.452 55.3683 101.702 55.0702 102.01 54.842C102.948 54.2361 104.059 53.9541 105.174 54.0397C105.759 54.0409 106.343 54.0974 106.917 54.2082C107.37 54.2751 107.806 54.4276 108.2 54.6575V56.0857C107.765 55.9023 107.314 55.7573 106.853 55.6524C106.28 55.5109 105.692 55.4382 105.101 55.4358C104.464 55.3792 103.824 55.5193 103.269 55.837C103.117 55.9329 102.991 56.064 102.901 56.2191C102.811 56.3742 102.76 56.5487 102.753 56.7276C102.741 56.9812 102.824 57.2301 102.987 57.4257C103.216 57.6661 103.49 57.8597 103.794 57.9954C104.181 58.1719 104.722 58.3725 105.408 58.5971C105.99 58.7963 106.556 59.0377 107.103 59.3193C107.584 59.5551 108.004 59.8983 108.33 60.3222C108.652 60.7732 108.814 61.3181 108.79 61.8708C108.79 62.4 108.651 62.9201 108.386 63.3793C108.084 63.8831 107.629 64.279 107.087 64.5106C106.329 64.817 105.515 64.9619 104.698 64.9359Z" fill="white"/>
<path d="M103.423 52.5472V51.7449C103.696 51.6874 103.965 51.6151 104.23 51.5282C104.48 51.4361 104.714 51.3062 104.924 51.1431C105.006 51.069 105.073 50.9787 105.119 50.8779C105.164 50.7771 105.189 50.668 105.19 50.5574C105.193 50.4837 105.181 50.4103 105.154 50.3414C105.128 50.2725 105.088 50.2095 105.037 50.1562C104.979 50.0966 104.908 50.0507 104.83 50.0215C104.752 49.9924 104.668 49.9808 104.585 49.9877C104.447 49.9903 104.31 50.0175 104.181 50.0679L103.826 50.2043L103.447 49.1532C103.693 48.9486 103.987 48.8104 104.302 48.752C104.567 48.6866 104.837 48.6516 105.11 48.6477C105.552 48.6239 105.987 48.7737 106.32 49.0649C106.461 49.2059 106.57 49.3741 106.643 49.5591C106.715 49.7441 106.748 49.9419 106.74 50.1401C106.743 50.3507 106.707 50.5601 106.635 50.7579C106.561 50.9327 106.46 51.095 106.336 51.2394H109.459V52.5793L103.423 52.5472Z" fill="white"/>
<path d="M114.891 64.9358C114.324 64.9785 113.754 64.9051 113.217 64.7202C112.68 64.5352 112.187 64.2427 111.768 63.8606C111 62.8958 110.634 61.6757 110.743 60.4506C110.743 60.1938 110.743 59.921 110.743 59.6482C110.743 59.3754 110.791 59.0464 110.823 58.7495H114.859V60.0975H112.438V60.4827C112.41 61.1306 112.503 61.778 112.712 62.3923C112.778 62.5925 112.884 62.7778 113.022 62.9375C113.161 63.0972 113.33 63.2282 113.519 63.323C113.932 63.5185 114.386 63.6121 114.843 63.5958C115.362 63.6105 115.877 63.5004 116.344 63.2749C116.809 63.0052 117.161 62.578 117.336 62.0713C117.602 61.2754 117.72 60.4379 117.683 59.6C117.768 58.5118 117.511 57.4244 116.949 56.4869C116.647 56.13 116.262 55.8521 115.827 55.6773C115.393 55.5024 114.922 55.4361 114.455 55.4839C113.859 55.4824 113.266 55.569 112.696 55.7406C112.132 55.8936 111.589 56.1174 111.082 56.4066V54.8019C111.559 54.5571 112.066 54.3763 112.591 54.2643C113.27 54.1197 113.962 54.0471 114.657 54.0476C115.625 54.0058 116.584 54.2456 117.417 54.7377C118.131 55.1866 118.671 55.8625 118.95 56.6553C119.292 57.5935 119.456 58.5864 119.435 59.584C119.455 60.571 119.303 61.554 118.983 62.4886C118.725 63.2416 118.222 63.888 117.554 64.326C116.741 64.7718 115.818 64.983 114.891 64.9358Z" fill="white"/>
<path d="M127.319 64.9359C126.579 64.9547 125.846 64.7863 125.189 64.4464C124.62 64.1593 124.182 63.6692 123.962 63.0744H123.889L123.793 64.7513H122.38V54.2162H124.107V60.3222C124.066 61.1588 124.33 61.982 124.85 62.6411C125.121 62.9307 125.454 63.1571 125.824 63.3041C126.193 63.4511 126.591 63.5151 126.989 63.4916C128.49 63.4916 129.24 62.6892 129.24 61.1567V54.2162H130.951V61.269C130.997 61.7748 130.937 62.2845 130.773 62.7655C130.609 63.2464 130.345 63.6878 129.999 64.0613C129.252 64.6843 128.292 64.9975 127.319 64.9359Z" fill="white"/>
<path d="M137.811 64.9358C136.793 64.9986 135.788 64.6873 134.986 64.0612C134.633 63.7251 134.359 63.3157 134.183 62.8622C134.008 62.4087 133.935 61.9222 133.969 61.4375V60.266C133.949 59.7527 134.04 59.241 134.236 58.7656C134.41 58.4144 134.618 58.0812 134.857 57.7706C135.075 57.4978 135.269 57.2411 135.43 57.0164C135.59 56.7796 135.672 56.4992 135.664 56.214C135.673 56.1102 135.66 56.0057 135.625 55.9075C135.591 55.8092 135.535 55.7195 135.462 55.6443C135.322 55.5214 135.141 55.4555 134.954 55.4598C134.784 55.4638 134.615 55.4936 134.454 55.5481C134.279 55.5953 134.109 55.657 133.945 55.7326L133.558 54.5611C133.82 54.3919 134.114 54.2772 134.421 54.2241C134.719 54.1645 135.022 54.1323 135.325 54.1279C135.603 54.0994 135.884 54.1337 136.147 54.2282C136.409 54.3227 136.647 54.4749 136.843 54.6735C137.154 55.0746 137.314 55.5714 137.294 56.0776C137.307 56.4824 137.221 56.8844 137.044 57.2491C136.876 57.5618 136.691 57.8645 136.487 58.1558C136.276 58.4445 136.09 58.7505 135.931 59.0705C135.782 59.4371 135.713 59.8309 135.729 60.2259V61.3492C135.702 61.8215 135.802 62.2924 136.019 62.7132C136.194 63.0304 136.482 63.2709 136.826 63.3872C137.154 63.5086 137.501 63.5711 137.851 63.5718C139.175 63.5718 139.837 62.9539 139.837 61.7103V54.2161H141.556V61.7825C141.58 62.2143 141.508 62.6462 141.345 63.0472C141.182 63.4481 140.931 63.8081 140.611 64.1013C139.816 64.7177 138.817 65.0154 137.811 64.9358Z" fill="white"/>
<path d="M147.633 64.7513V57.2732C147.654 57.0285 147.626 56.7821 147.551 56.5481C147.477 56.314 147.356 56.0969 147.197 55.9092C147 55.7399 146.77 55.6121 146.522 55.5334C146.273 55.4548 146.012 55.4271 145.752 55.4518C145.309 55.4507 144.868 55.5184 144.445 55.6524C144.038 55.7802 143.644 55.944 143.267 56.1418V54.6013C143.619 54.4498 143.984 54.3264 144.356 54.2322C144.918 54.0913 145.496 54.0238 146.075 54.0316C146.936 53.978 147.789 54.2156 148.496 54.7056C148.818 54.9952 149.065 55.3562 149.22 55.7592C149.374 56.1622 149.43 56.5957 149.384 57.0244V64.7513H147.633Z" fill="white"/>
<path d="M156.567 64.9118C154.953 64.9118 153.879 64.6309 153.242 64.0452C152.921 63.7343 152.67 63.3586 152.507 62.9434C152.344 62.5282 152.273 62.0831 152.297 61.6381C152.276 61.1574 152.361 60.6779 152.548 60.234C152.689 59.9132 152.915 59.6361 153.201 59.4316C153.449 59.2756 153.722 59.1643 154.008 59.1026V59.0304C153.721 58.9452 153.448 58.8152 153.201 58.6453C152.909 58.458 152.668 58.2016 152.499 57.8991C152.31 57.5267 152.218 57.1126 152.233 56.6955C152.231 56.258 152.333 55.8263 152.531 55.4358C152.762 55.0104 153.112 54.6616 153.54 54.4328C154.11 54.1577 154.739 54.0255 155.372 54.0477C155.699 54.0527 156.025 54.0768 156.349 54.1199C156.631 54.1398 156.906 54.2191 157.156 54.3526L156.833 55.6765C156.66 55.6101 156.482 55.5591 156.3 55.524C156.066 55.4792 155.829 55.455 155.59 55.4518C155.157 55.4192 154.728 55.5575 154.396 55.837C154.266 55.9655 154.164 56.1197 154.097 56.2897C154.03 56.4596 154 56.6416 154.008 56.8239C153.981 57.1948 154.103 57.5612 154.347 57.8429C154.581 58.0783 154.878 58.2426 155.203 58.3163C155.569 58.3946 155.942 58.4322 156.317 58.4286H156.688V59.6883H156.317C155.711 59.642 155.107 59.7942 154.598 60.1216C154.409 60.2891 154.262 60.4983 154.17 60.7325C154.077 60.9666 154.041 61.2191 154.065 61.4696C154.057 61.824 154.132 62.1754 154.283 62.4966C154.457 62.8228 154.744 63.0761 155.09 63.2107C155.58 63.4133 156.109 63.5038 156.639 63.4755C156.995 63.518 157.355 63.4887 157.699 63.3894C158.043 63.2901 158.363 63.1229 158.641 62.8978C159.023 62.4242 159.215 61.827 159.182 61.2209V54.2162H160.892V61.1406C160.937 61.6753 160.862 62.2132 160.672 62.7155C160.482 63.2178 160.183 63.6719 159.795 64.0452C158.856 64.706 157.712 65.0132 156.567 64.9118Z" fill="white"/>
<path d="M166.05 63.7082C166.057 64.0438 165.932 64.369 165.702 64.6149C165.584 64.7449 165.438 64.8469 165.274 64.9136C165.111 64.9802 164.935 65.0097 164.758 65C164.582 65.0081 164.406 64.9777 164.243 64.9112C164.08 64.8447 163.934 64.7436 163.814 64.6149C163.591 64.3664 163.468 64.0451 163.468 63.7122C163.468 63.3793 163.591 63.058 163.814 62.8095C163.934 62.6809 164.08 62.5797 164.243 62.5132C164.406 62.4467 164.582 62.4164 164.758 62.4244C164.935 62.4147 165.111 62.4442 165.274 62.5109C165.438 62.5775 165.584 62.6795 165.702 62.8095C165.93 63.0539 166.054 63.3755 166.05 63.7082Z" fill="white"/>
<path d="M173.055 64.992C172.318 65.0071 171.585 64.8762 170.9 64.6069C170.314 64.3661 169.789 64.002 169.358 63.5397C168.935 63.0572 168.619 62.4912 168.43 61.8788C168.223 61.1975 168.122 60.4884 168.132 59.7766C168.12 59.0596 168.232 58.3459 168.463 57.6664C168.671 57.0617 168.991 56.5011 169.407 56.0135C169.823 55.5463 170.339 55.1764 170.916 54.9303C171.552 54.6544 172.24 54.5176 172.934 54.5291C173.385 54.5307 173.836 54.5682 174.281 54.6414C174.726 54.7109 175.162 54.8293 175.581 54.9945L175.177 56.519C174.874 56.384 174.558 56.2818 174.233 56.2141C173.861 56.1354 173.483 56.0951 173.103 56.0937C172.671 56.0683 172.239 56.1394 171.838 56.3018C171.437 56.4643 171.078 56.714 170.787 57.0325C170.199 57.8232 169.913 58.7957 169.98 59.7766C169.971 60.2776 170.034 60.7773 170.165 61.261C170.27 61.6828 170.466 62.0771 170.738 62.4164C171.011 62.7495 171.363 63.009 171.763 63.1706C172.24 63.349 172.747 63.4334 173.256 63.4194C174.013 63.4333 174.765 63.2855 175.46 62.9861L175.71 64.4865C175.576 64.5721 175.429 64.6345 175.274 64.6711C175.059 64.7347 174.841 64.7856 174.62 64.8235L173.813 64.9439C173.561 64.9744 173.308 64.9905 173.055 64.992Z" fill="white"/>
<path d="M186.524 59.7524C186.533 60.4843 186.413 61.2121 186.169 61.9028C185.959 62.5161 185.627 63.081 185.193 63.5637C184.777 64.0213 184.268 64.3852 183.7 64.6309C183.101 64.8783 182.459 65.0038 181.811 64.9999C181.161 65.0031 180.516 64.8777 179.915 64.6309C179.348 64.3812 178.84 64.0179 178.422 63.5637C177.993 63.0767 177.661 62.5131 177.445 61.9028C176.993 60.5072 176.993 59.0057 177.445 57.6101C177.658 57.0006 177.99 56.4388 178.422 55.9572C178.833 55.4934 179.343 55.1262 179.915 54.8821C180.516 54.6378 181.161 54.515 181.811 54.521C182.459 54.5146 183.101 54.6374 183.7 54.8821C184.274 55.1211 184.785 55.4891 185.193 55.9572C185.63 56.4347 185.963 56.9977 186.169 57.6101C186.411 58.2985 186.531 59.0233 186.524 59.7524ZM184.66 59.7524C184.697 58.7949 184.413 57.8523 183.853 57.0725C183.612 56.7546 183.298 56.499 182.937 56.3272C182.576 56.1554 182.179 56.0726 181.779 56.0856C181.378 56.0739 180.98 56.1574 180.618 56.329C180.256 56.5006 179.94 56.7555 179.697 57.0725C179.2 57.8808 178.938 58.8095 178.938 59.7565C178.938 60.7034 179.2 61.6321 179.697 62.4404C179.939 62.7589 180.254 63.0149 180.617 63.1867C180.979 63.3584 181.378 63.441 181.779 63.4273C182.179 63.4424 182.577 63.3604 182.938 63.1885C183.3 63.0165 183.614 62.7598 183.853 62.4404C184.413 61.6576 184.697 60.7125 184.66 59.7524Z" fill="white"/>
<path d="M189.05 55.0506C189.462 54.9543 190.011 54.85 190.664 54.7376C191.443 54.6077 192.232 54.5459 193.021 54.5531C193.571 54.5379 194.119 54.6278 194.635 54.8179C195.061 54.9782 195.443 55.2367 195.749 55.5721C195.838 55.5079 195.975 55.4197 196.168 55.3073C196.386 55.1635 196.622 55.0501 196.871 54.9703C197.183 54.8517 197.504 54.7551 197.831 54.6815C198.193 54.5966 198.564 54.5535 198.937 54.5531C199.587 54.5323 200.236 54.6443 200.841 54.8821C201.305 55.0891 201.701 55.4196 201.987 55.8369C202.275 56.2841 202.462 56.7876 202.536 57.3133C202.644 57.9144 202.695 58.5241 202.689 59.1346V64.7512H200.89V59.5198C200.891 59.0158 200.864 58.5122 200.809 58.0113C200.766 57.6423 200.651 57.2852 200.47 56.9602C200.325 56.6852 200.096 56.4632 199.816 56.3263C199.486 56.1951 199.13 56.1403 198.775 56.1659C198.263 56.1482 197.753 56.2328 197.274 56.4146C196.987 56.5164 196.716 56.6568 196.467 56.8318C196.575 57.1914 196.653 57.559 196.701 57.9311C196.76 58.343 196.79 58.7586 196.79 59.1747V64.7913H194.99V59.5198C194.997 59.0149 194.962 58.5104 194.885 58.0113C194.836 57.6426 194.718 57.2862 194.538 56.9602C194.393 56.6829 194.161 56.4604 193.876 56.3263C193.55 56.1789 193.193 56.1102 192.835 56.1257H192.246C192.044 56.1257 191.851 56.1257 191.657 56.1739L191.157 56.2381C191.051 56.2473 190.948 56.2717 190.85 56.3103V64.7512H189.05V55.0506Z" fill="white"/>
<mask id="mask0_923_6068" style="mask-type:luminance" maskUnits="userSpaceOnUse" x="0" y="3" width="57" height="57">
<path d="M56.5254 3.47424H0V59.6722H56.5254V3.47424Z" fill="white"/>
</mask>
<g mask="url(#mask0_923_6068)">
<mask id="mask1_923_6068" style="mask-type:luminance" maskUnits="userSpaceOnUse" x="-1" y="3" width="58" height="57">
<path d="M28.2462 3.47424C26.4011 3.47727 24.5606 3.6573 22.7502 4.01183C19.1095 4.73536 15.6466 6.16101 12.5573 8.20823C9.47742 10.2646 6.82952 12.8971 4.7612 15.9591C3.73024 17.5042 2.85443 19.1463 2.14637 20.8616C0.00672367 25.9959 -0.552582 31.6458 0.539262 37.0963C1.63111 42.5467 4.325 47.5526 8.27991 51.48C10.9 54.0921 14.0128 56.1643 17.4399 57.5781C19.153 58.2843 20.9316 58.8217 22.7502 59.1828C26.3896 59.8995 30.1351 59.8995 33.7745 59.1828C37.415 58.4667 40.8766 57.0405 43.9594 54.9864C45.5022 53.9661 46.9379 52.7941 48.2448 51.4881C49.5564 50.1899 50.7351 48.7654 51.7635 47.2355C52.7881 45.7021 53.6611 44.0737 54.3703 42.3731C55.0853 40.6744 55.6261 38.9083 55.9843 37.1016C56.7161 33.4843 56.7161 29.7584 55.9843 26.1412C55.6261 24.3345 55.0853 22.5684 54.3703 20.8696C53.6592 19.17 52.7863 17.5418 51.7635 16.0073C50.7351 14.4774 49.5564 13.0529 48.2448 11.7547C46.9379 10.4487 45.5022 9.27664 43.9594 8.25637C42.4327 7.24003 40.8111 6.37214 39.1171 5.66471C37.4067 4.95867 35.6308 4.42118 33.8148 4.05997C31.9822 3.68503 30.1172 3.48885 28.2462 3.47424Z" fill="white"/>
</mask>
<g mask="url(#mask1_923_6068)">
<path d="M0 3.47424H56.4931V59.6401H0V3.47424Z" fill="#C60D0D"/>
</g>
</g>
</g>
<defs>
<clipPath id="clip0_923_6068">
<rect width="351" height="65" fill="white"/>
</clipPath>
</defs>
</svg>
