<svg width="24" height="25" viewBox="0 0 24 25" fill="none" xmlns="http://www.w3.org/2000/svg">
<path fill-rule="evenodd" clip-rule="evenodd" d="M11.9986 0.0499967C14.7757 0.0496718 17.467 1.01258 19.6135 2.77456C21.7601 4.53654 23.2291 6.98851 23.7701 9.71242C24.3111 12.4363 23.8905 15.2636 22.5802 17.7121C21.2698 20.1606 19.1508 22.0789 16.5843 23.1398C14.0178 24.2007 11.1628 24.3387 8.506 23.5301C5.84921 22.7214 3.55512 21.0164 2.01485 18.7055C0.47458 16.3947 -0.216516 13.6212 0.0593866 10.8578C0.335289 8.09443 1.56111 5.51229 3.52786 3.55161C4.64024 2.43969 5.96099 1.55807 7.41451 0.95722C8.86803 0.356368 10.4258 0.0480777 11.9986 0.0499967ZM4.18838 18.9427C4.9164 17.4931 6.03362 16.2749 7.4149 15.4244C8.79617 14.574 10.387 14.1249 12.009 14.1275C13.6311 14.1301 15.2205 14.5842 16.599 15.4391C17.9776 16.2939 19.0909 17.5157 19.8143 18.9675C21.1464 17.4653 22.0164 15.6105 22.3199 13.6259C22.6235 11.6413 22.3476 9.61119 21.5255 7.77952C20.7034 5.94785 19.3699 4.39247 17.6853 3.30018C16.0008 2.2079 14.0367 1.62517 12.029 1.62197C10.0212 1.61877 8.0553 2.19525 6.36725 3.28217C4.6792 4.36908 3.34082 5.92022 2.51287 7.74926C1.68491 9.5783 1.40259 11.6075 1.69981 13.5931C1.99703 15.5787 2.86115 17.4362 4.18838 18.9427ZM18.6315 20.1172C18.0892 18.8092 17.1717 17.691 15.9947 16.9037C14.8177 16.1165 13.434 15.6954 12.0179 15.6936C10.6019 15.6919 9.21712 16.1095 8.03816 16.8938C6.8592 17.6781 5.9389 18.794 5.39336 20.1007C7.25689 21.6355 9.59524 22.4761 12.0094 22.4791C14.4236 22.4821 16.7641 21.6474 18.6315 20.1172ZM12.0345 3.18956C10.9289 3.18945 9.85748 3.57273 9.0028 4.27408C8.14813 4.97543 7.5631 5.95145 7.34741 7.03581C7.13173 8.12018 7.29874 9.24578 7.81998 10.2208C8.34122 11.1958 9.18444 11.9599 10.2059 12.3829C11.2274 12.8059 12.364 12.8616 13.4219 12.5404C14.4799 12.2193 15.3937 11.5413 16.0078 10.6219C16.6218 9.70244 16.898 8.59854 16.7893 7.49829C16.6807 6.39804 16.1938 5.36951 15.4118 4.588C14.9687 4.14394 14.4422 3.79181 13.8627 3.55182C13.2831 3.31183 12.6618 3.18872 12.0345 3.18956ZM14.3008 5.699C13.7761 5.17469 13.0859 4.8485 12.3478 4.77603C11.6096 4.70356 10.8691 4.88929 10.2526 5.30157C9.63597 5.71385 9.18142 6.32717 8.96636 7.03702C8.75129 7.74687 8.78902 8.50934 9.07311 9.19449C9.3572 9.87965 9.87007 10.4451 10.5243 10.7945C11.1786 11.1439 11.9338 11.2556 12.6612 11.1106C13.3886 10.9657 14.0432 10.5729 14.5135 9.99938C14.9838 9.42584 15.2407 8.70696 15.2404 7.96524C15.2407 7.54423 15.1578 7.12732 14.9966 6.73842C14.8353 6.34952 14.5989 5.99629 14.3008 5.699Z" fill="white"/>
</svg>
