<svg width="24" height="25" viewBox="0 0 24 25" fill="none" xmlns="http://www.w3.org/2000/svg">
<path d="M0.5 10.6598C0.5 16.2345 5.03541 20.7699 10.6101 20.7699C12.9096 20.7699 15.0308 19.9967 16.7314 18.6989L21.7976 23.9864C21.9917 24.1889 22.2515 24.2909 22.5117 24.2909C22.7576 24.2909 23.0038 24.1997 23.1954 24.0164C23.5894 23.6384 23.603 23.0131 23.2253 22.6188L18.179 17.3522C19.7583 15.5679 20.7201 13.2246 20.7201 10.6598C20.7201 5.08515 16.185 0.549988 10.6103 0.549988C5.03566 0.549988 0.5 5.08515 0.5 10.6598ZM2.47665 10.6598C2.47665 6.17494 6.1252 2.52664 10.6101 2.52664C15.0949 2.52664 18.7432 6.17494 18.7432 10.6598C18.7432 15.1447 15.0949 18.7932 10.6101 18.7932C6.1252 18.7932 2.47665 15.1447 2.47665 10.6598Z" fill="white"/>
<path d="M16.4729 10.5902C16.4756 9.44563 16.4384 9.40842 16.3572 9.32695L16.2813 9.25252H16.0364C15.5958 9.03476 13.5646 8.05008 12.6408 7.93995C11.5605 7.81146 10.594 7.83107 9.98948 7.99376C9.36211 8.16273 7.33768 9.20701 7.24263 9.25604C6.71182 9.26836 5.93937 9.31639 5.52623 9.48134C4.45757 9.90881 4.38917 11.148 4.50409 11.7597C4.51942 11.9335 4.66602 12.07 4.84354 12.07H5.76209C5.88027 12.668 6.40757 13.1203 7.03946 13.1203C7.67136 13.1203 8.1989 12.6677 8.31708 12.07H12.6616C12.7798 12.668 13.3071 13.1203 13.939 13.1203C14.5709 13.1203 15.0985 12.6677 15.2166 12.07H16.1782C16.3663 12.07 16.5191 11.9171 16.5189 11.7187L16.4729 10.5902ZM15.581 9.74687H15.9655C15.9717 9.87159 15.977 10.0743 15.9785 10.379H15.8033C15.6808 10.379 15.581 10.2794 15.581 10.1567V9.74687ZM13.6584 9.25277L13.1567 8.56857C13.6838 8.73327 14.3378 9.00886 14.8772 9.25277H13.6584ZM12.4313 8.41519L13.0456 9.25277H11.0285V8.35585C11.4416 8.34076 11.9184 8.36037 12.4313 8.41519ZM10.118 8.47101C10.2394 8.43832 10.3805 8.41343 10.5341 8.39382V9.25252H8.34977C9.01888 8.92387 9.80517 8.55525 10.118 8.47101ZM5.70979 9.94049C5.73091 9.93194 5.75832 9.92414 5.78347 9.9161C5.73594 10.2581 5.45231 10.5228 5.10153 10.5399C5.20966 10.292 5.39523 10.0662 5.70979 9.94049ZM7.03996 12.6262C6.59414 12.6262 6.23105 12.2634 6.23105 11.8171C6.23105 11.3707 6.59389 11.0079 7.03996 11.0079C7.48604 11.0079 7.84913 11.3707 7.84913 11.8171C7.84913 12.2634 7.48604 12.6262 7.03996 12.6262ZM13.9395 12.6262C13.4937 12.6262 13.1306 12.2634 13.1306 11.8171C13.1306 11.3707 13.4934 11.0079 13.9395 11.0079C14.3856 11.0079 14.7487 11.3707 14.7487 11.8171C14.7487 12.2634 14.3856 12.6262 13.9395 12.6262ZM15.2184 11.5759C15.1047 10.9724 14.5754 10.514 13.9395 10.514C13.3036 10.514 12.7745 10.9727 12.6609 11.5759H8.31884C8.20519 10.9724 7.67588 10.514 7.03996 10.514C6.40405 10.514 5.87499 10.9727 5.76134 11.5759H4.97732C4.96399 11.4587 4.95066 11.2558 4.97606 11.0295C5.00648 11.0318 5.03616 11.0376 5.06683 11.0376C5.73997 11.0376 6.28788 10.4899 6.28788 9.81652C6.60395 9.77604 7.00149 9.75089 7.45058 9.74687C7.56348 9.74587 7.63188 9.74662 7.63666 9.74687H15.0871V10.1567C15.0871 10.5518 15.4085 10.8731 15.8035 10.8731H15.9901L16.0193 11.5757L15.2184 11.5759Z" fill="white"/>
<path d="M7.03994 12.1497C7.22353 12.1497 7.37235 12.0009 7.37235 11.8173C7.37235 11.6337 7.22353 11.4849 7.03994 11.4849C6.85635 11.4849 6.70752 11.6337 6.70752 11.8173C6.70752 12.0009 6.85635 12.1497 7.03994 12.1497Z" fill="white"/>
<path d="M13.9395 12.1497C14.1231 12.1497 14.2719 12.0009 14.2719 11.8173C14.2719 11.6337 14.1231 11.4849 13.9395 11.4849C13.7559 11.4849 13.6071 11.6337 13.6071 11.8173C13.6071 12.0009 13.7559 12.1497 13.9395 12.1497Z" fill="white"/>
</svg>
