<svg width="24" height="24" viewBox="0 0 24 24" fill="none" xmlns="http://www.w3.org/2000/svg">
<g clip-path="url(#clip0_120_6303)">
<path d="M12 0.549988C18.3408 0.549988 23.5 4.73599 23.5 9.88224C23.5 11.9422 22.7022 13.7966 21.0347 15.6236C18.6226 18.4009 13.2276 21.7833 12 22.3008C10.8069 22.8039 10.9449 22.0176 10.9995 21.7071L11.0038 21.6812L11.1677 20.6966C11.2065 20.4033 11.2467 19.9476 11.1303 19.6572C11.0009 19.3367 10.4921 19.1699 10.1183 19.0894C4.59113 18.3606 0.5 14.4952 0.5 9.88224C0.5 4.73599 5.66063 0.549988 12 0.549988ZM7.71912 11.5986H5.52694V7.61961C5.52694 7.56039 5.50351 7.50356 5.46177 7.46155C5.42002 7.41954 5.36335 7.39574 5.30412 7.39536H4.49625C4.4668 7.39536 4.43764 7.40116 4.41043 7.41243C4.38323 7.4237 4.3585 7.44022 4.33768 7.46104C4.31686 7.48187 4.30034 7.50659 4.28907 7.5338C4.2778 7.561 4.272 7.59016 4.272 7.61961V12.6307C4.272 12.6897 4.29644 12.7457 4.33525 12.7845V12.786L4.33813 12.7889L4.341 12.7917C4.38269 12.8318 4.43841 12.854 4.49625 12.8535H7.71912C7.84275 12.8535 7.94194 12.7529 7.94194 12.6293V11.8243C7.94213 11.7949 7.93651 11.7657 7.92542 11.7384C7.91432 11.7111 7.89796 11.6863 7.87727 11.6653C7.85658 11.6444 7.83197 11.6277 7.80483 11.6162C7.7777 11.6048 7.74857 11.5988 7.71912 11.5986ZM8.85619 7.39536C8.79671 7.39536 8.73967 7.41899 8.69762 7.46104C8.65556 7.5031 8.63194 7.56014 8.63194 7.61961V12.6307C8.63194 12.7544 8.73256 12.8535 8.85619 12.8535H9.66406C9.78769 12.8535 9.88688 12.7529 9.88688 12.6307V7.61961C9.88688 7.56039 9.86345 7.50356 9.8217 7.46155C9.77996 7.41954 9.72329 7.39574 9.66406 7.39536H8.85619ZM14.4092 7.39536C14.3498 7.39536 14.2927 7.41899 14.2507 7.46104C14.2086 7.5031 14.185 7.56014 14.185 7.61961V10.5952L11.8893 7.49599C11.8835 7.48844 11.8773 7.48124 11.8706 7.47443C11.8661 7.46939 11.8613 7.46316 11.8562 7.45861L11.8519 7.4543C11.847 7.44959 11.8417 7.44526 11.8361 7.44136L11.8275 7.43561L11.8232 7.43274C11.8209 7.43106 11.8185 7.42962 11.816 7.42842L11.8045 7.42124H11.8016L11.7973 7.41836L11.7829 7.41261L11.7772 7.40974C11.7725 7.40803 11.7677 7.40659 11.7628 7.40543H11.7599L11.7556 7.40399L11.7427 7.40111H11.7341L11.7297 7.39967H11.724L11.7211 7.39824H10.896C10.8368 7.39824 10.78 7.42167 10.7379 7.46341C10.6959 7.50515 10.6721 7.56183 10.6718 7.62105V12.6322C10.6718 12.7558 10.7724 12.855 10.896 12.855H11.701C11.8261 12.855 11.9267 12.7544 11.9267 12.6322V9.65655L14.2267 12.7615C14.242 12.7829 14.261 12.8014 14.2828 12.8162L14.2842 12.8176L14.2986 12.8262L14.3043 12.8291C14.308 12.8313 14.3119 12.8332 14.3158 12.8349L14.3259 12.8392L14.3331 12.842C14.3378 12.8436 14.3426 12.8451 14.3474 12.8464H14.3517C14.3705 12.8517 14.3898 12.8546 14.4092 12.855H15.2143C15.3393 12.855 15.4399 12.7544 15.4399 12.6322V7.61961C15.4399 7.56014 15.4163 7.5031 15.3743 7.46104C15.3322 7.41899 15.2752 7.39536 15.2157 7.39536H14.4092ZM19.8933 8.42605V7.62105C19.8935 7.5916 19.8879 7.5624 19.8768 7.53512C19.8657 7.50784 19.8493 7.48302 19.8286 7.46206C19.808 7.4411 19.7833 7.42443 19.7562 7.41298C19.7291 7.40154 19.6999 7.39555 19.6705 7.39536H16.4476C16.3896 7.39543 16.3339 7.41812 16.2924 7.45861H16.2909L16.2895 7.46149L16.2866 7.4658C16.2465 7.50699 16.2238 7.5621 16.2234 7.61961V12.6307C16.2234 12.6897 16.2478 12.7457 16.2866 12.7845L16.2895 12.7889L16.2924 12.7917C16.3341 12.8317 16.3898 12.8539 16.4476 12.8535H19.6705C19.7941 12.8535 19.8933 12.7529 19.8933 12.6293V11.8243C19.8935 11.7949 19.8879 11.7657 19.8768 11.7384C19.8657 11.7111 19.8493 11.6863 19.8286 11.6653C19.808 11.6444 19.7833 11.6277 19.7562 11.6162C19.7291 11.6048 19.6999 11.5988 19.6705 11.5986H17.4769V10.7519H19.6691C19.7927 10.7519 19.8919 10.6513 19.8919 10.5277V9.72268C19.8921 9.69323 19.8865 9.66403 19.8754 9.63675C19.8643 9.60947 19.8479 9.58464 19.8272 9.56368C19.8065 9.54273 19.7819 9.52605 19.7548 9.51461C19.7276 9.50316 19.6985 9.49718 19.6691 9.49699H17.4769V8.6503H19.6691C19.7927 8.6503 19.8919 8.54968 19.8919 8.42605H19.8933Z" fill="white"/>
</g>
<defs>
<clipPath id="clip0_120_6303">
<rect width="23" height="23" fill="white" transform="translate(0.5 0.549988)"/>
</clipPath>
</defs>
</svg>
