<svg width="19" height="19" viewBox="0 0 19 19" fill="none" xmlns="http://www.w3.org/2000/svg">
<g clip-path="url(#clip0_774_5425)">
<path d="M9.5 0C14.7459 0 19 4.2541 19 9.5C19 14.7459 14.7459 19 9.5 19C4.2541 19 0 14.7459 0 9.5C0 4.2541 4.2541 0 9.5 0Z" fill="#1DA1F2"/>
<path d="M7.29611 14.326C11.7763 14.326 14.2292 10.6134 14.2292 7.39288C14.2292 7.28838 14.2292 7.18198 14.2216 7.07748C14.6985 6.73168 15.1108 6.30608 15.4376 5.81588C14.993 6.01348 14.5218 6.14268 14.0392 6.19968C14.5484 5.89568 14.9284 5.41688 15.1108 4.85258C14.632 5.13568 14.1095 5.33708 13.5642 5.44348C12.6408 4.46308 11.098 4.41558 10.1176 5.33708C9.48491 5.93178 9.21701 6.81908 9.41271 7.66458C7.45381 7.56578 5.62791 6.64048 4.39101 5.11858C3.74501 6.23198 4.07371 7.65508 5.14531 8.37138C4.75771 8.35998 4.37771 8.25548 4.03951 8.06738C4.03951 8.07688 4.03951 8.08828 4.03951 8.09778C4.03951 9.25678 4.85651 10.2562 5.99461 10.4861C5.63551 10.583 5.25931 10.5982 4.89451 10.5279C5.21371 11.5197 6.12761 12.1999 7.17071 12.2208C6.30811 12.8991 5.24221 13.2677 4.14591 13.2658C3.95211 13.2658 3.75831 13.2544 3.56641 13.2297C4.67601 13.946 5.97371 14.326 7.29611 14.3241" fill="white"/>
</g>
<defs>
<clipPath id="clip0_774_5425">
<rect width="19" height="19" fill="white"/>
</clipPath>
</defs>
</svg>
