<?xml version="1.0" encoding="utf-8"?>
<!-- Generator: Adobe Illustrator 26.2.1, SVG Export Plug-In . SVG Version: 6.00 Build 0)  -->
<svg version="1.1" id="Layer_1" xmlns="http://www.w3.org/2000/svg" xmlns:xlink="http://www.w3.org/1999/xlink" x="0px" y="0px"
	 viewBox="0 0 467 205" style="enable-background:new 0 0 467 205;" xml:space="preserve">
<style type="text/css">
	.st0{fill:#EDF4FC;}
	.st1{fill:#D9E2EF;}
	.st2{fill:#B8C4D1;}
	.st3{fill:url(#SVGID_1_);}
	.st4{fill:url(#SVGID_00000085935049425676802180000017032411868519559822_);}
	.st5{fill:url(#SVGID_00000138561042852709831140000003304818122103209910_);}
	.st6{fill:url(#SVGID_00000089568098470371362950000017408298883127873723_);}
	.st7{fill:url(#SVGID_00000160174522976133876230000007839723540620136367_);}
	.st8{fill:url(#SVGID_00000005980009502853606300000004573243951671596455_);}
	.st9{fill:url(#SVGID_00000087413486685306533140000005446892923340203655_);}
	.st10{fill:url(#SVGID_00000022556130999066152620000010307354286208304538_);}
	.st11{fill:url(#SVGID_00000076596832174086770020000005570720936991760043_);}
	.st12{fill:url(#SVGID_00000110470814460033750370000000995373218153265317_);}
	.st13{fill:url(#SVGID_00000161618765313753457930000013574881045055094428_);}
	.st14{fill:url(#SVGID_00000100348998443056896390000000787197481876256649_);}
	.st15{fill:url(#SVGID_00000047773180430066961580000005899898196253510812_);}
	.st16{fill:url(#SVGID_00000101799405677516733620000013283120379626874271_);}
	.st17{fill:url(#SVGID_00000055690069997691054360000015858515722556488612_);}
	.st18{fill:url(#SVGID_00000036209292036171451280000001122991923681290632_);}
	.st19{fill:url(#SVGID_00000066513171966709853620000001547196144103991731_);}
	.st20{fill:url(#SVGID_00000056413003283971890400000011500776024096981905_);}
	.st21{fill:url(#SVGID_00000023990865882955702090000014413367812223973784_);}
	.st22{fill:url(#SVGID_00000177448545701648154440000009277323540954986632_);}
	.st23{fill:url(#SVGID_00000029730227185860999480000009554049609992925851_);}
	.st24{fill:url(#SVGID_00000113315447494506184650000017815964048750417050_);}
	.st25{fill:url(#SVGID_00000162340770901706623620000001773960490104019111_);}
	.st26{fill:url(#SVGID_00000097464300060068421200000013910266912856251526_);}
	.st27{fill:url(#SVGID_00000059274408443162874730000013584474982550798478_);}
	.st28{fill:#CCCCCC;}
	.st29{fill:#FF4140;}
	.st30{fill:#CC2221;}
	.st31{opacity:0.3;fill:#FFFFFF;}
	.st32{fill:#E0E0E0;}
</style>
<g>
	<path class="st0" d="M6.6,191.2c1,3.1,2.6,6,4.5,8.7H463c0.3-4.1-0.6-8.3-2.7-12.4c-5.2-10.4-15.3-19.3-18.8-30
		c-4.6-14.5,3-31.4-8.8-43.5c-10.4-10.7-30.9-12.2-46.4-18.8c-27.9-12-36.3-38.9-59.4-55.5c-18.9-13.5-47.7-19-73.1-13.9
		c-23.8,4.8-43.3,17.8-67.1,22.7c-16.8,3.5-34.7,2.7-52.1,4.2c-17.4,1.6-35.7,6.4-44.8,17.3c-10.8,13.2-4.9,30.8-13.9,44.7
		c-9.4,14.6-32.4,21.3-48.6,32.2C11,158.2,1.3,175.4,6.6,191.2z"/>
	<path class="st1" d="M417.9,190.3c-0.8,3.4-2.1,6.6-3.7,9.6H49.1c-0.2-4.5,0.5-9.2,2.2-13.6c4.2-11.4,12.4-21.2,15.2-33
		c3.7-15.9-2.4-34.5,7.1-47.9C82,93.6,98.5,92,111,84.7c22.6-13.2,29.3-42.9,48-61.1c15.2-14.9,38.5-20.9,59.1-15.3
		c19.3,5.2,35,19.6,54.3,25c13.6,3.8,28,3,42.1,4.7c14,1.7,28.9,7,36.2,19.1c8.8,14.5,3.9,33.9,11.2,49.2
		c7.6,16.1,26.2,23.4,39.3,35.5C414.4,154,422.2,172.9,417.9,190.3z"/>
	<g>
		<g>
			<g>
				<rect x="46.2" y="153.2" class="st2" width="31.8" height="3.4"/>
				<rect x="46.2" y="159.4" class="st2" width="31.8" height="3.4"/>
				<rect x="46.2" y="165.6" class="st2" width="31.8" height="3.4"/>
				<rect x="46.2" y="171.8" class="st2" width="31.8" height="3.4"/>
				<rect x="46.2" y="178" class="st2" width="31.8" height="3.4"/>
				<rect x="46.2" y="184.1" class="st2" width="31.8" height="3.4"/>
				<rect x="46.2" y="190.3" class="st2" width="31.8" height="3.4"/>
				<rect x="46.2" y="196.5" class="st2" width="31.8" height="3.4"/>
			</g>
			<rect x="74.2" y="133.1" class="st2" width="13.7" height="66.8"/>
			<polygon class="st2" points="87.9,159.4 92.4,159.4 92.4,150.4 105.1,145.3 105.1,199.9 87.9,199.9 			"/>
			<rect x="181.4" y="133.1" class="st2" width="13.7" height="66.8"/>
			<polygon class="st2" points="195.1,159.4 199.6,159.4 199.6,150.4 212.3,145.3 212.3,199.9 195.1,199.9 			"/>
			<rect x="37.7" y="169" class="st2" width="13.9" height="30.9"/>
			<rect x="224.3" y="169" class="st2" width="13.9" height="30.9"/>
			<rect x="105.1" y="190.3" class="st2" width="19.6" height="9.6"/>
			<rect x="122.6" y="124.8" class="st2" width="15.3" height="75.1"/>
		</g>
		<g>
			<rect x="302.1" y="156.3" class="st2" width="27.6" height="43.6"/>
			<rect x="325.9" y="124.6" class="st2" width="12.7" height="75.3"/>
			<rect x="346.6" y="124.8" class="st2" width="9.6" height="75.1"/>
			<rect x="331.2" y="178.1" class="st2" width="49.3" height="21.8"/>
			<rect x="369.9" y="153.2" class="st2" width="15.8" height="46.7"/>
			<rect x="379" y="154.3" class="st1" width="5.1" height="2.9"/>
			<rect x="379" y="158.8" class="st1" width="5.1" height="2.9"/>
			<rect x="379" y="163.3" class="st1" width="5.1" height="2.9"/>
			<rect x="379" y="167.7" class="st1" width="5.1" height="2.9"/>
			<rect x="379" y="172.2" class="st1" width="5.1" height="2.9"/>
			<rect x="379" y="176.7" class="st1" width="5.1" height="2.9"/>
			<rect x="379" y="181.1" class="st1" width="5.1" height="2.9"/>
			<rect x="379" y="185.6" class="st1" width="5.1" height="2.9"/>
			<rect x="379" y="190.1" class="st1" width="5.1" height="2.9"/>
			<rect x="379" y="194.5" class="st1" width="5.1" height="2.9"/>
			<rect x="362.1" y="174.5" class="st2" width="4" height="4.6"/>
			<rect x="318.5" y="135.2" class="st2" width="3.1" height="23.6"/>
			<rect x="327.5" y="122.5" class="st2" width="9.3" height="3.3"/>
		</g>
	</g>
	<path class="st2" d="M320.3,200.2c0,0.7-43,1.2-96,1.2s-96-0.5-96-1.2c0-0.7,43-1.2,96-1.2S320.3,199.5,320.3,200.2z"/>
	<g>
		<linearGradient id="SVGID_1_" gradientUnits="userSpaceOnUse" x1="222.5504" y1="188.42" x2="222.5504" y2="180.1056">
			<stop  offset="0" style="stop-color:#2C3E63"/>
			<stop  offset="1" style="stop-color:#13192E"/>
		</linearGradient>
		<rect x="154.1" y="173.2" class="st3" width="136.8" height="14.6"/>
		<g>
			
				<linearGradient id="SVGID_00000097476651267277041470000002056493700613049003_" gradientUnits="userSpaceOnUse" x1="150.1052" y1="199.6799" x2="150.1052" y2="180.8998">
				<stop  offset="0" style="stop-color:#2C3E63"/>
				<stop  offset="1" style="stop-color:#13192E"/>
			</linearGradient>
			<path style="fill:url(#SVGID_00000097476651267277041470000002056493700613049003_);" d="M159,200.2h-17.8
				c-1.8,0-3.3-1.5-3.3-3.3v-26h24.4v26C162.3,198.7,160.8,200.2,159,200.2z"/>
			
				<linearGradient id="SVGID_00000182502507021727943660000000183800145219114422_" gradientUnits="userSpaceOnUse" x1="-414.6739" y1="199.6799" x2="-414.6739" y2="180.8998" gradientTransform="matrix(-1 0 0 1 -116.1549 0)">
				<stop  offset="0" style="stop-color:#2C3E63"/>
				<stop  offset="1" style="stop-color:#13192E"/>
			</linearGradient>
			<path style="fill:url(#SVGID_00000182502507021727943660000000183800145219114422_);" d="M289.6,200.2h17.8
				c1.8,0,3.3-1.5,3.3-3.3v-26h-24.4v26C286.3,198.7,287.8,200.2,289.6,200.2z"/>
		</g>
		
			<linearGradient id="SVGID_00000152224293536583565960000007244268946315992711_" gradientUnits="userSpaceOnUse" x1="150.6568" y1="103.3317" x2="150.3815" y2="113.8877">
			<stop  offset="0" style="stop-color:#1966FF"/>
			<stop  offset="1" style="stop-color:#1D41CF"/>
		</linearGradient>
		<path style="fill:url(#SVGID_00000152224293536583565960000007244268946315992711_);" d="M158,114.7l-14.5-0.7
			c-2.8-0.1-5-2.5-5-5.3l0,0c0-2.9,2.4-5.3,5.3-5.3h4.7c2.7,0,5.1,1.6,6.1,4l1.2,2.7h6.8L158,114.7z"/>
		
			<linearGradient id="SVGID_00000115515549519093262640000011719574074228303745_" gradientUnits="userSpaceOnUse" x1="-413.1429" y1="103.3317" x2="-413.4183" y2="113.8877" gradientTransform="matrix(-1 0 0 1 -115.1756 0)">
			<stop  offset="0" style="stop-color:#1966FF"/>
			<stop  offset="1" style="stop-color:#1D41CF"/>
		</linearGradient>
		<path style="fill:url(#SVGID_00000115515549519093262640000011719574074228303745_);" d="M290.7,114.7l14.5-0.7
			c2.8-0.1,5-2.5,5-5.3l0,0c0-2.9-2.4-5.3-5.3-5.3h-4.7c-2.7,0-5.1,1.6-6.1,4l-1.2,2.7h-6.8L290.7,114.7z"/>
		
			<linearGradient id="SVGID_00000016059485923001652940000007290242814169674150_" gradientUnits="userSpaceOnUse" x1="224.3168" y1="78.7244" x2="224.3168" y2="142.6852">
			<stop  offset="0" style="stop-color:#1966FF"/>
			<stop  offset="0.5203" style="stop-color:#1D41CF"/>
			<stop  offset="1" style="stop-color:#1966FF"/>
		</linearGradient>
		<path style="fill:url(#SVGID_00000016059485923001652940000007290242814169674150_);" d="M313.3,141.2v28.3c0,1.8-0.4,3.6-1.2,5.2
			l-1.6,3.4c-2,4.2-6.2,6.8-10.8,6.8h-21.8c-1.5,0-3-0.3-4.3-0.8l-3.4-1.3c-3.3-1.3-6.8-2-10.4-2h-70.9c-3.6,0-7.1,0.7-10.4,2
			l-3.4,1.3c-1.4,0.5-2.8,0.8-4.3,0.8H149c-4.6,0-8.8-2.6-10.8-6.8l-1.6-3.4c-0.8-1.6-1.2-3.4-1.2-5.2v-28.3c0-3.1,1.2-6,3.3-8.3
			l4.5-4.7c0,0,0,0,0,0l0.2-0.2l14.6-15.4c0,0,5-14.5,15.8-30.2c0,0,7.2-3.2,49-3.4v0h3v0c41.8,0.1,49,3.4,49,3.4
			c10.8,15.8,15.8,30.2,15.8,30.2l15.8,16.7h0l3.5,3.7C312.1,135.2,313.3,138.2,313.3,141.2z"/>
		
			<linearGradient id="SVGID_00000090987528229372446320000003985928231826161804_" gradientUnits="userSpaceOnUse" x1="136.3469" y1="156.5836" x2="309.5431" y2="156.5836">
			<stop  offset="0" style="stop-color:#1D41CF"/>
			<stop  offset="7.099050e-02" style="stop-color:#1C4ADB"/>
			<stop  offset="0.2198" style="stop-color:#1A5AEF"/>
			<stop  offset="0.3695" style="stop-color:#1963FB"/>
			<stop  offset="0.5203" style="stop-color:#1966FF"/>
			<stop  offset="0.6563" style="stop-color:#1963FB"/>
			<stop  offset="0.7982" style="stop-color:#1A59EE"/>
			<stop  offset="0.9424" style="stop-color:#1C49DA"/>
			<stop  offset="1" style="stop-color:#1D41CF"/>
		</linearGradient>
		<path style="fill:url(#SVGID_00000090987528229372446320000003985928231826161804_);" d="M313.3,141.2v28.3c0,1.8-0.4,3.6-1.2,5.2
			l-1.6,3.4c-2,4.2-6.2,6.8-10.8,6.8h-21.8c-1.5,0-3-0.3-4.3-0.8l-3.4-1.3c-3.3-1.3-6.8-2-10.4-2h-70.9c-3.6,0-7.1,0.7-10.4,2
			l-3.4,1.3c-1.4,0.5-2.8,0.8-4.3,0.8H149c-4.6,0-8.8-2.6-10.8-6.8l-1.6-3.4c-0.8-1.6-1.2-3.4-1.2-5.2v-28.3c0-3.1,1.2-6,3.3-8.3
			l4.5-4.7c-1.8,3.2,28.2,14.6,42.1,15.5c14.2,1,64.5,0.5,78.3,0c13.8-0.5,39.5-9.1,43-14.5h0l3.5,3.7
			C312.1,135.2,313.3,138.2,313.3,141.2z"/>
		
			<linearGradient id="SVGID_00000041282043404577730300000000060029125062947989_" gradientUnits="userSpaceOnUse" x1="264.4121" y1="78.8332" x2="181.001" y2="129.5135">
			<stop  offset="0" style="stop-color:#2C3E63"/>
			<stop  offset="1" style="stop-color:#13192E"/>
		</linearGradient>
		<path style="fill:url(#SVGID_00000041282043404577730300000000060029125062947989_);" d="M286.5,112.4c-4.6-0.3-12.1-0.5-20.4-0.7
			c-3-0.1-6.1-0.2-9.2-0.2c-10.1-0.2-20.1-0.4-26.6-0.5c-2.8,0-4.9-0.1-6.1-0.1c-7.2,0-48.2,0.7-62.2,1.5
			c2.1-7.5,9.5-19.7,13.3-26.5c2.7-0.9,6.5-1.6,10.9-2c4.3-0.5,9.1-0.8,14.3-0.9c4-0.1,8.2-0.2,12.4-0.3c3.8-0.1,7.6-0.1,11.3-0.1
			c1.9,0,3.8,0,5.8,0c1.4,0,2.8,0,4.2,0c11.5,0.1,23,0.4,31.3,1.6c3.1,0.4,5.7,1,7.7,1.6c1.3,2.3,3.1,5.3,4.9,8.5
			c1.4,2.6,2.9,5.3,4.3,8c1,2.1,2,4.1,2.7,6C285.7,109.8,286.2,111.1,286.5,112.4z"/>
		
			<linearGradient id="SVGID_00000043422685470025487190000016988722162298432168_" gradientUnits="userSpaceOnUse" x1="224.5431" y1="177.4533" x2="224.2504" y2="148.0839">
			<stop  offset="0" style="stop-color:#2C3E63"/>
			<stop  offset="1" style="stop-color:#13192E"/>
		</linearGradient>
		<path style="fill:url(#SVGID_00000043422685470025487190000016988722162298432168_);" d="M263.5,143.8c0,0-24,1.4-39.2,1.4
			c-17.2,0-39.2-1.4-39.2-1.4s-13,4.9-13,10.5c0,4.3,7.5,15.9,11,21c1.1,1.6,2.8,2.5,4.7,2.5h36.5h36.5c1.9,0,3.7-0.9,4.7-2.5
			c3.5-5.1,11-16.7,11-21C276.5,148.7,263.5,143.8,263.5,143.8z"/>
		<g>
			<g>
				
					<linearGradient id="SVGID_00000098899066599396806770000003288018297000738989_" gradientUnits="userSpaceOnUse" x1="148.2435" y1="178.9898" x2="148.1519" y2="169.7936">
					<stop  offset="0" style="stop-color:#2C3E63"/>
					<stop  offset="1" style="stop-color:#13192E"/>
				</linearGradient>
				<path style="fill:url(#SVGID_00000098899066599396806770000003288018297000738989_);" d="M153.6,173.8c0,3-2.4,5.4-5.4,5.4
					c-3,0-5.4-2.4-5.4-5.4c0-3,2.4-5.4,5.4-5.4C151.2,168.3,153.6,170.8,153.6,173.8z"/>
				
					<linearGradient id="SVGID_00000169552259006380433460000016780756041127716499_" gradientUnits="userSpaceOnUse" x1="148.2253" y1="177.1614" x2="148.1657" y2="171.1815">
					<stop  offset="0" style="stop-color:#EBEFF7"/>
					<stop  offset="1" style="stop-color:#B3B6C2"/>
				</linearGradient>
				<circle style="fill:url(#SVGID_00000169552259006380433460000016780756041127716499_);" cx="148.2" cy="173.8" r="3.5"/>
			</g>
			<g>
				
					<linearGradient id="SVGID_00000061466316940140791170000010025140253106493329_" gradientUnits="userSpaceOnUse" x1="-415.5562" y1="178.9898" x2="-415.6478" y2="169.7936" gradientTransform="matrix(-1 0 0 1 -115.1756 0)">
					<stop  offset="0" style="stop-color:#2C3E63"/>
					<stop  offset="1" style="stop-color:#13192E"/>
				</linearGradient>
				<path style="fill:url(#SVGID_00000061466316940140791170000010025140253106493329_);" d="M295,173.8c0,3,2.4,5.4,5.4,5.4
					s5.4-2.4,5.4-5.4c0-3-2.4-5.4-5.4-5.4S295,170.8,295,173.8z"/>
				
					<linearGradient id="SVGID_00000129167764943918927990000010846473387205284233_" gradientUnits="userSpaceOnUse" x1="-415.5745" y1="177.1614" x2="-415.6341" y2="171.1815" gradientTransform="matrix(-1 0 0 1 -115.1756 0)">
					<stop  offset="0" style="stop-color:#EBEFF7"/>
					<stop  offset="1" style="stop-color:#B3B6C2"/>
				</linearGradient>
				<circle style="fill:url(#SVGID_00000129167764943918927990000010846473387205284233_);" cx="300.4" cy="173.8" r="3.5"/>
			</g>
		</g>
		<g>
			<g>
				
					<linearGradient id="SVGID_00000010289608823885510950000000962515523782363807_" gradientUnits="userSpaceOnUse" x1="158.6311" y1="151.0015" x2="158.4622" y2="134.0647">
					<stop  offset="0" style="stop-color:#EBEFF7"/>
					<stop  offset="1" style="stop-color:#B3B6C2"/>
				</linearGradient>
				<path style="fill:url(#SVGID_00000010289608823885510950000000962515523782363807_);" d="M145.7,131.5c-2.6-0.3-5.6,1.6-7,5.3
					c-0.8,2.1-0.8,5.1-0.6,7.8c6.8,6.8,22.5,6.9,26.7,6.5c4.1-0.4,13.5-5.7,14.5-7.9C180.2,141,149.7,132,145.7,131.5z"/>
				
					<radialGradient id="SVGID_00000054973066399535548660000002608015798055796900_" cx="149.0364" cy="140.859" r="5.3596" gradientUnits="userSpaceOnUse">
					<stop  offset="0" style="stop-color:#EBEFF7"/>
					<stop  offset="1" style="stop-color:#B3B6C2"/>
				</radialGradient>
				<circle style="fill:url(#SVGID_00000054973066399535548660000002608015798055796900_);" cx="149" cy="140.9" r="5.4"/>
				
					<radialGradient id="SVGID_00000057136196206180218950000017467276335177261456_" cx="161.2467" cy="143.8067" r="4.4733" gradientUnits="userSpaceOnUse">
					<stop  offset="0" style="stop-color:#EBEFF7"/>
					<stop  offset="1" style="stop-color:#B3B6C2"/>
				</radialGradient>
				<path style="fill:url(#SVGID_00000057136196206180218950000017467276335177261456_);" d="M165.7,143.8c0,2.5-2,4.5-4.5,4.5
					c-2.5,0-4.5-2-4.5-4.5c0-2.5,2-4.5,4.5-4.5C163.7,139.3,165.7,141.3,165.7,143.8z"/>
			</g>
			<g>
				
					<linearGradient id="SVGID_00000135670340190730210210000013386216570404634269_" gradientUnits="userSpaceOnUse" x1="-406.148" y1="151.0015" x2="-406.3168" y2="134.0647" gradientTransform="matrix(-1 0 0 1 -116.1549 0)">
					<stop  offset="0" style="stop-color:#EBEFF7"/>
					<stop  offset="1" style="stop-color:#B3B6C2"/>
				</linearGradient>
				<path style="fill:url(#SVGID_00000135670340190730210210000013386216570404634269_);" d="M303,131.5c2.6-0.3,5.6,1.6,7,5.3
					c0.8,2.1,0.8,5.1,0.6,7.8c-6.8,6.8-22.5,6.9-26.7,6.5c-4.1-0.4-13.5-5.7-14.5-7.9C268.4,141,298.9,132,303,131.5z"/>
				
					<radialGradient id="SVGID_00000029754893475918258160000017572346417362325641_" cx="-415.7427" cy="140.859" r="5.3596" gradientTransform="matrix(-1 0 0 1 -116.1549 0)" gradientUnits="userSpaceOnUse">
					<stop  offset="0" style="stop-color:#EBEFF7"/>
					<stop  offset="1" style="stop-color:#B3B6C2"/>
				</radialGradient>
				<circle style="fill:url(#SVGID_00000029754893475918258160000017572346417362325641_);" cx="299.6" cy="140.9" r="5.4"/>
				
					<radialGradient id="SVGID_00000011008314756714038070000002342171236549068165_" cx="-403.5324" cy="143.8067" r="4.4733" gradientTransform="matrix(-1 0 0 1 -116.1549 0)" gradientUnits="userSpaceOnUse">
					<stop  offset="0" style="stop-color:#EBEFF7"/>
					<stop  offset="1" style="stop-color:#B3B6C2"/>
				</radialGradient>
				<path style="fill:url(#SVGID_00000011008314756714038070000002342171236549068165_);" d="M282.9,143.8c0,2.5,2,4.5,4.5,4.5
					c2.5,0,4.5-2,4.5-4.5c0-2.5-2-4.5-4.5-4.5C284.9,139.3,282.9,141.3,282.9,143.8z"/>
			</g>
		</g>
		
			<linearGradient id="SVGID_00000099635888266783459570000002372994369067062693_" gradientUnits="userSpaceOnUse" x1="249.2538" y1="154.2793" x2="184.7283" y2="191.4875">
			<stop  offset="0" style="stop-color:#EBEFF7"/>
			<stop  offset="1" style="stop-color:#B3B6C2"/>
		</linearGradient>
		<path style="fill:url(#SVGID_00000099635888266783459570000002372994369067062693_);" d="M245.6,173.8h-41.9
			c-0.2,0-0.4-0.2-0.4-0.4v-9.7c0-0.2,0.2-0.4,0.4-0.4h41.9c0.2,0,0.4,0.2,0.4,0.4v9.7C246.1,173.6,245.9,173.8,245.6,173.8z"/>
		
			<linearGradient id="SVGID_00000045620864957200784610000010456274057419649186_" gradientUnits="userSpaceOnUse" x1="224.3169" y1="149.2555" x2="224.3169" y2="152.9849">
			<stop  offset="0" style="stop-color:#EBEFF7"/>
			<stop  offset="1" style="stop-color:#B3B6C2"/>
		</linearGradient>
		<path style="fill:url(#SVGID_00000045620864957200784610000010456274057419649186_);" d="M228.2,155.4h-7.8
			c-1.7,0-3.1-1.4-3.1-3.1l0,0c0-1.7,1.4-3.1,3.1-3.1h7.8c1.7,0,3.1,1.4,3.1,3.1l0,0C231.3,154.1,229.9,155.4,228.2,155.4z"/>
		
			<linearGradient id="SVGID_00000168103170340820785040000015059503096442335918_" gradientUnits="userSpaceOnUse" x1="249.0197" y1="108.967" x2="249.2299" y2="87.8726">
			<stop  offset="0" style="stop-color:#2C3E63"/>
			<stop  offset="1" style="stop-color:#13192E"/>
		</linearGradient>
		<path style="fill:url(#SVGID_00000168103170340820785040000015059503096442335918_);" d="M282.9,108.4c-6.1,0.8-16.6,1.8-28.4,0.7
			c-16.4-1.6-33.3-15.2-39.1-24.7c3.5,0,7.1,0,10.6,0c1.8,0,3.6,0,5.4,0c1.3,0,2.6,0,3.9,0c10.8,0.1,21.5,0.4,29.3,1.5
			c2.9,0.4,5.3,0.9,7.2,1.5c1.2,2.2,2.9,4.9,4.6,7.9c1.4,2.4,2.7,5,4,7.5C281.3,104.7,282.2,106.6,282.9,108.4z"/>
		
			<linearGradient id="SVGID_00000099625396448057624500000010278604587511032997_" gradientUnits="userSpaceOnUse" x1="224.3543" y1="142.7452" x2="224.5893" y2="119.1711">
			<stop  offset="0" style="stop-color:#2C3E63"/>
			<stop  offset="1" style="stop-color:#000000"/>
		</linearGradient>
		<path style="fill:url(#SVGID_00000099625396448057624500000010278604587511032997_);" d="M156.8,116.1
			c-6.2,6.2-11.5,10.1-9.5,12.2c2.1,2.1,31.9,14.1,47.6,14.1c15.7,0,57.9,2.7,69.9-1c12-3.7,35.2-9.8,37.1-11.7
			c1.9-1.9-11-13.7-11-13.7H156.8z"/>
		
			<linearGradient id="SVGID_00000134239922655163975770000011719941585404135042_" gradientUnits="userSpaceOnUse" x1="304.0645" y1="104.4799" x2="304.0645" y2="111.5821">
			<stop  offset="0" style="stop-color:#2C3E63"/>
			<stop  offset="1" style="stop-color:#000000"/>
		</linearGradient>
		<path style="fill:url(#SVGID_00000134239922655163975770000011719941585404135042_);" d="M302.8,112.7h2.5c2.3,0,4.2-1.9,4.2-4.2
			l0,0c0-2.3-1.9-4.2-4.2-4.2h-2.5c-2.3,0-4.2,1.9-4.2,4.2l0,0C298.6,110.8,300.5,112.7,302.8,112.7z"/>
		
			<linearGradient id="SVGID_00000014605248469289827950000001993707322759928743_" gradientUnits="userSpaceOnUse" x1="144.6607" y1="104.4799" x2="144.6607" y2="111.5821">
			<stop  offset="0" style="stop-color:#2C3E63"/>
			<stop  offset="1" style="stop-color:#000000"/>
		</linearGradient>
		<path style="fill:url(#SVGID_00000014605248469289827950000001993707322759928743_);" d="M143.4,112.7h2.5c2.3,0,4.2-1.9,4.2-4.2
			l0,0c0-2.3-1.9-4.2-4.2-4.2h-2.5c-2.3,0-4.2,1.9-4.2,4.2l0,0C139.2,110.8,141.1,112.7,143.4,112.7z"/>
	</g>
</g>
<g>
	<polygon class="st28" points="303.8,115.8 295,123.8 284.7,112.4 293.4,104.4 	"/>
	
		<rect x="297.6" y="116.6" transform="matrix(0.7381 -0.6747 0.6747 0.7381 -4.3722 237.3483)" class="st28" width="11.8" height="15.4"/>
	
		<rect x="307.8" y="127.8" transform="matrix(0.7382 -0.6745 0.6745 0.7382 -9.2557 247.1023)" class="st28" width="11.8" height="15.4"/>
	
		<rect x="293.3" y="112.7" transform="matrix(0.7382 -0.6746 0.6746 0.7382 -2.4927 233.5193)" class="st28" width="12.6" height="14.5"/>
	
		<rect x="290" y="114.1" transform="matrix(0.738 -0.6748 0.6748 0.738 -2.4691 233.586)" class="st29" width="19.2" height="11.7"/>
	<polygon class="st29" points="351,160.6 335.4,174.8 302.7,137.6 316.9,124.7 	"/>
	<polygon class="st30" points="351,160.6 316.9,124.7 313.6,127.6 345,160.6 332.7,171.7 335.4,174.8 	"/>
	<g>
		<path id="_x39__1_" class="st31" d="M224.7,93c-3.8-7.5-5.3-16.1-3.5-24.4c1.8-8.8,5.2-17.1,12.3-22.8c3.2-2.6,6.9-4.6,10.8-6
			c1.9-0.7,3.8-1.2,5.8-1.5c1.5-0.3,4.4,0.1,5.7-0.5c-6.6,3.3-12.8,7.7-16.9,13.8c-5.2,7.7-6.3,17.8-3.5,26.6
			c1.4,4.4,3.8,8.4,7,11.7c3.6,3.6,8.6,4.8,12.1,8.2c2.3,2.2,4.3,4.9,4.7,8.2c1.2,9.6-10.6,7.7-16,5.1
			C235.2,107.6,228.6,100.9,224.7,93z"/>
		<g id="_x38__1_">
			<g>
				<g>
					<path class="st28" d="M266,119.5c24.1-3.8,40.7-26.4,36.9-50.6c-3.8-24.1-26.4-40.7-50.6-36.9c-24.2,3.8-40.7,26.4-36.9,50.6
						C219.2,106.8,241.9,123.3,266,119.5z M265,113.2c-20.7,3.2-40-10.9-43.3-31.6c-3.2-20.7,10.9-40,31.6-43.3
						c20.7-3.2,40,10.9,43.3,31.5C299.8,90.6,285.7,110,265,113.2z"/>
				</g>
			</g>
			<g>
				<g>
					<path class="st32" d="M266.7,123.9c26.6-4.2,44.8-29.1,40.6-55.7c-4.2-26.6-29.1-44.8-55.7-40.6C225,31.8,206.8,56.7,211,83.3
						C215.2,109.9,240.1,128.1,266.7,123.9z M265.6,117c-22.8,3.6-44.1-12-47.7-34.8c-3.6-22.8,12-44.1,34.8-47.7
						c22.8-3.6,44.1,12,47.7,34.8C304,92.1,288.4,113.4,265.6,117z"/>
				</g>
			</g>
		</g>
	</g>
	
		<rect x="334.4" y="167" transform="matrix(0.7379 -0.675 0.675 0.7379 -24.0355 277.2883)" class="st28" width="21.1" height="5.1"/>
</g>
</svg>
