<svg width="18" height="19" viewBox="0 0 18 19" fill="none" xmlns="http://www.w3.org/2000/svg">
<path d="M9 0.619049C4.02975 0.619049 0 4.6488 0 9.61905C0 14.5893 4.02975 18.6191 9 18.6191C13.9703 18.6191 18 14.5893 18 9.61905C18 4.6488 13.9706 0.619049 9 0.619049ZM8.03748 5.20198L11.8593 9.02376C12.0176 9.18197 12.1064 9.39656 12.1064 9.6203C12.1064 9.84405 12.0176 10.0588 11.8593 10.2169L8.04037 14.0358C7.82718 14.249 7.51642 14.3322 7.22527 14.2542C6.9341 14.1761 6.70658 13.9486 6.62863 13.6574C6.55066 13.3661 6.63403 13.0555 6.84723 12.8423L10.0692 9.6187L6.84433 6.39477C6.63415 6.18107 6.55304 5.8718 6.63139 5.58242C6.70986 5.29301 6.93587 5.06701 7.22529 4.98865C7.51471 4.91028 7.82382 4.99128 8.03764 5.20159L8.03748 5.20198Z" fill="white"/>
</svg>
