<svg width="15" height="15" viewBox="0 0 15 15" fill="none" xmlns="http://www.w3.org/2000/svg">
<path d="M7.5 0C3.35812 0 0 3.35812 0 7.5C0 11.6419 3.35812 15 7.5 15C11.6419 15 15 11.6419 15 7.5C15 3.35812 11.6421 0 7.5 0ZM6.6979 3.81911L9.88272 7.00393C10.0147 7.13577 10.0886 7.31459 10.0886 7.50104C10.0886 7.6875 10.0147 7.86643 9.88272 7.99824L6.70031 11.1807C6.52265 11.3583 6.26368 11.4276 6.02105 11.3626C5.77841 11.2975 5.58881 11.1079 5.52386 10.8653C5.45888 10.6226 5.52836 10.3637 5.70602 10.186L8.39102 7.49971L5.70361 4.8131C5.52846 4.63502 5.46087 4.37729 5.52616 4.13614C5.59155 3.89497 5.77989 3.70663 6.02108 3.64133C6.26226 3.57603 6.51985 3.64353 6.69803 3.81879L6.6979 3.81911Z"/>
</svg>
