<svg width="32" height="32" viewBox="0 0 32 32" fill="none" xmlns="http://www.w3.org/2000/svg">
<circle cx="16" cy="16" r="16" fill="white"/>
<rect x="6" y="9" width="20" height="14.5455" rx="2" fill="#11265D"/>
<g clip-path="url(#clip0_1528_9737)">
<path d="M15.5647 12.6306C15.4188 12.6167 15.2719 12.6167 15.1259 12.6306C15.1077 12.6314 15.0898 12.636 15.0734 12.644C15.0569 12.6521 15.0422 12.6634 15.0301 12.6773C15.018 12.6912 15.0087 12.7075 15.0029 12.7251C14.9971 12.7427 14.9949 12.7614 14.9963 12.7799C14.9963 12.8058 14.9908 12.8311 14.9884 12.8521C14.7696 12.575 14.5563 12.2967 14.3356 12.0302C14.2908 11.9799 14.2313 11.9455 14.166 11.932C13.9966 11.8986 13.8256 11.8739 13.6538 11.858C12.8904 11.7835 12.1213 11.7933 11.3599 11.887C11.2637 11.8936 11.1703 11.9222 11.0864 11.9704C11.0025 12.0187 10.9303 12.0855 10.875 12.1659C10.7272 12.3776 10.5587 12.5744 10.3993 12.7768C10.3829 12.7972 10.3653 12.8163 10.3296 12.8595C10.3502 12.7077 10.2944 12.6318 10.1787 12.6232C10.0465 12.6093 9.91328 12.6093 9.7811 12.6232C9.62777 12.6442 9.58716 12.7805 9.69444 12.8959C9.7376 12.945 9.79221 12.9821 9.85322 13.0039C9.96471 13.0328 10.0776 13.0559 10.1914 13.073C10.1375 13.1687 10.0793 13.2693 10.0229 13.3711C9.90513 13.5767 9.84673 13.812 9.85444 14.0499C9.86595 14.372 9.85444 14.6947 9.85444 15.0174C9.85444 15.2026 9.92474 15.2723 10.1011 15.2723H15.2241C15.406 15.2723 15.4726 15.202 15.4732 15.0205C15.4732 14.712 15.4629 14.3967 15.4769 14.0863C15.4866 13.8512 15.4289 13.6184 15.3108 13.4161L15.1053 13.0459C15.1526 13.0459 15.1878 13.0527 15.2223 13.052C15.3817 13.052 15.5314 13.0163 15.6423 12.8885C15.7381 12.7836 15.7035 12.6491 15.5647 12.6306ZM10.6375 12.7127C10.7352 12.6004 10.827 12.483 10.9126 12.3609C11.0635 12.1141 11.2884 12.0425 11.555 12.0172C12.3365 11.9414 13.1235 11.9485 13.9035 12.0382C14.1017 12.0616 14.2532 12.1295 14.3708 12.2992C14.5338 12.5343 14.7138 12.7577 14.9017 13.0058H10.4235C10.5023 12.8978 10.5678 12.804 10.6375 12.7127ZM11.4187 14.343H10.6175C10.4805 14.343 10.3635 14.2584 10.3581 14.1579C10.3526 14.0573 10.449 13.7932 10.5853 13.8061L11.0296 13.8475C11.166 13.861 11.4672 14.0998 11.5387 14.1862C11.6102 14.2726 11.5563 14.343 11.4187 14.343ZM14.9411 14.1579C14.9356 14.2615 14.8199 14.343 14.6817 14.343H13.8781C13.7411 14.343 13.6878 14.272 13.7569 14.1856C13.826 14.0992 14.1296 13.8604 14.266 13.8468L14.7084 13.803C14.8478 13.7901 14.9472 14.0517 14.9417 14.1554L14.9411 14.1579Z" fill="white"/>
<path d="M9.99146 15.458C9.99146 15.5814 9.9854 15.6956 9.99146 15.8079C9.99183 15.8338 9.99734 15.8594 10.0077 15.8831C10.018 15.9068 10.0329 15.9282 10.0515 15.9459C10.0702 15.9635 10.0921 15.9772 10.116 15.9861C10.14 15.9949 10.1654 15.9988 10.1909 15.9973C10.3309 16.001 10.4715 15.9973 10.6121 15.9973C10.6581 16.0001 10.7033 15.9844 10.7381 15.9536C10.7729 15.9228 10.7944 15.8793 10.7981 15.8326C10.8064 15.7081 10.8076 15.5832 10.8018 15.4586H9.99146V15.458Z" fill="white"/>
<path d="M14.5261 15.46C14.5261 15.5834 14.5212 15.692 14.5261 15.8012C14.5262 15.8279 14.5317 15.8544 14.5422 15.8789C14.5527 15.9034 14.568 15.9254 14.5872 15.9437C14.6064 15.962 14.629 15.976 14.6537 15.9851C14.6785 15.9941 14.7047 15.9979 14.7309 15.9962C14.8673 15.9962 15.0043 15.9993 15.1406 15.9962C15.1902 15.9989 15.2388 15.9815 15.2758 15.9479C15.3128 15.9142 15.3352 15.8671 15.3382 15.8166C15.3467 15.7012 15.3382 15.5846 15.3382 15.4606H14.5261V15.46Z" fill="white"/>
</g>
<rect x="17.5161" y="12.0303" width="6.06061" height="1.21212" rx="0.606061" fill="white"/>
<rect x="17.5161" y="14.4541" width="6.06061" height="1.21212" rx="0.606061" fill="white"/>
<rect x="8.42383" y="17.4834" width="15.1515" height="1.21212" rx="0.606061" fill="white"/>
<rect x="8.42383" y="19.9102" width="15.1515" height="1.21212" rx="0.606061" fill="white"/>
<defs>
<clipPath id="clip0_1528_9737">
<rect width="6.06061" height="7.7135" fill="white" transform="translate(9.63574 10.8184)"/>
</clipPath>
</defs>
</svg>
