<svg width="75" height="56" viewBox="0 0 75 56" fill="none" xmlns="http://www.w3.org/2000/svg">
<path d="M67.0352 55.8221H71.0032C72.1016 55.8221 72.9894 54.935 72.9894 53.8387V49.6399H74.9739V44.5557H23.3735V49.6394H25.3581V53.8381C25.3581 54.9344 26.2447 55.8216 27.3437 55.8216H31.3096C32.4075 55.8216 33.2957 54.9344 33.2957 53.8381V49.6394H65.0506V53.8381C65.0512 54.935 65.9384 55.8221 67.0352 55.8221Z" fill="white"/>
<path d="M31.8423 15.0589L25.4602 32.084C24.1213 32.4568 23.3735 32.7048 23.3735 32.7048V42.8134H74.9739V32.7048C74.9739 32.7048 74.2256 32.4568 72.8894 32.084L66.5089 15.0589C66.5089 15.0589 53.2595 12.8545 49.1764 12.8545C45.0906 12.8545 31.8423 15.0589 31.8423 15.0589ZM30.9762 40.6036C29.1273 40.6036 27.6312 39.1064 27.6312 37.2591C27.6312 35.4112 29.1273 33.914 30.9762 33.914C32.8219 33.914 34.3201 35.4112 34.3201 37.2591C34.3201 39.1064 32.8219 40.6036 30.9762 40.6036ZM70.7163 37.2591C70.7163 39.1064 69.2207 40.6036 67.3718 40.6036C65.5261 40.6036 64.0289 39.1064 64.0289 37.2591C64.0289 35.4112 65.5266 33.914 67.3718 33.914C69.2202 33.914 70.7163 35.4118 70.7163 37.2591ZM68.139 30.7143C68.139 30.7143 56.1048 28.7373 49.1743 28.7373C42.2405 28.7373 30.203 30.7143 30.203 30.7143L34.7519 18.6028C37.7895 18.1144 46.1113 16.8263 49.1764 16.8263C52.2389 16.8263 60.5623 18.1138 63.5977 18.599L68.139 30.7143Z" fill="white"/>
<path d="M10.4714 9.35344C13.0016 9.35344 15.0527 7.30234 15.0527 4.77218C15.0527 2.24202 13.0016 0.190918 10.4714 0.190918C7.94124 0.190918 5.89014 2.24202 5.89014 4.77218C5.89014 7.30234 7.94124 9.35344 10.4714 9.35344Z" fill="white"/>
<path d="M19.1436 32.0971C20.1378 32.0971 20.9434 31.2915 20.9434 30.2973V16.553V15.8987V15.5713C20.9434 12.8714 18.7346 10.6626 16.0347 10.6626H15.0529H5.89042H4.90869C2.20877 10.6626 0 12.8714 0 15.5713V15.8987V16.553V30.2968C0 31.291 0.805597 32.0966 1.79976 32.0966C2.79393 32.0966 3.59952 31.291 3.59952 30.2968V16.553H4.58126V26.3704V30.9516V53.2042C4.58126 54.6441 5.75913 55.822 7.19904 55.822C8.63896 55.822 9.81683 54.6441 9.81683 53.2042V32.2603H11.126V53.2036C11.126 54.6436 12.3039 55.8214 13.7438 55.8214C15.1837 55.8214 16.3616 54.6436 16.3616 53.2036V30.9516V26.3704V16.553H17.3438V30.2968C17.3438 31.291 18.1494 32.0971 19.1436 32.0971Z" fill="white"/>
</svg>
