<svg width="56" height="44" viewBox="0 0 56 44" fill="none" xmlns="http://www.w3.org/2000/svg">
<g filter="url(#filter0_d_283_6150)">
<path d="M47.6483 15.4804L41.8101 10.8259C41.6576 10.7097 41.4687 10.6516 41.2726 10.6734C41.0837 10.6951 40.9094 10.7896 40.7861 10.9421L40.5028 11.2978L39.7475 10.6951C41.6426 7.73967 41.0328 3.75311 38.2227 1.51702C36.7703 0.362606 34.955 -0.160243 33.1106 0.0428902C31.2661 0.253536 29.6105 1.16842 28.4561 2.62048C27.3017 4.07292 26.7789 5.88816 26.982 7.73257C27.1927 9.57708 28.1075 11.2251 29.5596 12.3871C30.8377 13.4036 32.3625 13.8976 33.8801 13.8976C35.6953 13.8976 37.4964 13.1858 38.8397 11.8282L39.595 12.4309L39.2393 12.8811C38.9851 13.1933 39.0361 13.651 39.3483 13.9051L45.1936 18.5596C45.3244 18.6612 45.4841 18.7121 45.6437 18.7121C45.8544 18.7121 46.065 18.6252 46.2101 18.4434L47.7641 16.4974C47.8802 16.3448 47.9383 16.1559 47.9166 15.9599C47.8952 15.7781 47.8008 15.6037 47.6483 15.4804ZM32.5232 9.83828C32.3782 10.0197 32.1675 10.1141 31.9569 10.1141C31.7972 10.1141 31.6375 10.0632 31.5067 9.95447C29.8511 8.63291 29.5753 6.21489 30.8969 4.55932C31.1439 4.24709 31.6012 4.19611 31.9209 4.44313C32.2402 4.69013 32.2841 5.1474 32.0371 5.46714C31.2166 6.49825 31.3834 8.00126 32.4145 8.82175C32.7193 9.06838 32.7702 9.52603 32.5232 9.83828Z"/>
<path d="M51.8884 29.5971C51.6489 28.2608 51.3292 26.9249 50.7557 25.705C50.7486 25.6904 50.7411 25.6686 50.734 25.6615C50.0803 24.2964 49.1148 23.091 47.5754 22.2125C46.704 21.7114 45.6874 21.4501 44.6346 21.4501H38.7313C34.2657 17.3039 29.2844 15.3579 23.4028 15.4741C20.5564 15.1618 16.7079 16.5052 13.012 17.9138L11.596 18.4584C9.20693 19.3733 6.95616 20.2372 5.08239 20.6949C4.79903 20.7602 4.58876 20.9926 4.53778 21.2759C4.22555 23.0477 3.94969 24.9064 4.00779 26.6129C4.00029 26.62 4.00029 26.6343 4.00029 26.6418C4.00029 26.6635 4.00741 26.6853 4.00741 26.6999C4.08725 28.8056 4.68284 30.6647 6.33092 31.8192C6.45424 31.899 6.59966 31.95 6.75221 31.95H10.1507C10.4194 34.092 12.2493 35.7622 14.4712 35.7622C16.6859 35.7622 18.523 34.092 18.7845 31.95H34.9555C35.2243 34.092 37.0612 35.7622 39.276 35.7622C41.4979 35.7622 43.3278 34.092 43.5965 31.95H49.9864C50.5527 31.95 51.0827 31.6959 51.453 31.2528C51.8376 30.7952 51.9976 30.1924 51.8885 29.5972L51.8884 29.5971ZM6.34528 26.5179H4.82768C4.8423 25.6611 4.90752 24.739 4.99485 23.7803H6.3453C7.10767 23.7803 7.71752 24.3901 7.71752 25.1525C7.71752 25.9081 7.10767 26.5179 6.34528 26.5179ZM36.5158 21.4497H26.2853L24.4483 16.926C29.0082 17.0347 32.9004 18.4871 36.5163 21.4497H36.5158ZM22.8722 16.9114L24.7167 21.4497H15.7707L14.3329 18.9736C17.3389 17.8481 20.5558 16.7952 22.8722 16.9114ZM14.4707 34.3096C12.8661 34.3096 11.5662 33.0097 11.5662 31.4051C11.5662 29.8005 12.8661 28.5006 14.4707 28.5006C16.0681 28.5006 17.3752 29.8005 17.3752 31.4051C17.3752 33.0097 16.0682 34.3096 14.4707 34.3096ZM19.0382 29.6986L16.5547 23.2214L20.0112 28.6675L32.37 30.4321L19.0382 29.6986ZM39.2757 34.3096C37.6783 34.3096 36.3712 33.0097 36.3712 31.4051C36.3712 29.8005 37.6782 28.5006 39.2757 28.5006C40.8803 28.5006 42.1802 29.8005 42.1802 31.4051C42.1802 33.0097 40.8807 34.3096 39.2757 34.3096ZM44.2641 22.4373C45.9561 21.733 49.8916 23.9186 49.6955 25.8864C46.5662 25.7848 44.983 23.817 44.2641 22.4373Z"/>
</g>
<defs>
<filter id="filter0_d_283_6150" x="0" y="0" width="55.9221" height="43.7622" filterUnits="userSpaceOnUse" color-interpolation-filters="sRGB">
<feFlood flood-opacity="0" result="BackgroundImageFix"/>
<feColorMatrix in="SourceAlpha" type="matrix" values="0 0 0 0 0 0 0 0 0 0 0 0 0 0 0 0 0 0 127 0" result="hardAlpha"/>
<feOffset dy="4"/>
<feGaussianBlur stdDeviation="2"/>
<feComposite in2="hardAlpha" operator="out"/>
<feColorMatrix type="matrix" values="0 0 0 0 0 0 0 0 0 0 0 0 0 0 0 0 0 0 0.25 0"/>
<feBlend mode="normal" in2="BackgroundImageFix" result="effect1_dropShadow_283_6150"/>
<feBlend mode="normal" in="SourceGraphic" in2="effect1_dropShadow_283_6150" result="shape"/>
</filter>
</defs>
</svg>
