<svg width="20" height="20" viewBox="0 0 20 20" fill="none" xmlns="http://www.w3.org/2000/svg">
<circle cx="10" cy="10" r="10" fill="#9A9A9A"/>
<path d="M11.3442 7.35113V5.0334C11.344 5.02707 11.3456 5.02082 11.3488 5.01542C11.352 5.01002 11.3566 5.00571 11.3621 5.00303C11.3676 5.00035 11.3737 4.99942 11.3798 5.00035C11.3858 5.00128 11.3914 5.00402 11.3959 5.00825L15.9885 8.99511C15.9921 8.99814 15.995 9.00197 15.997 9.00632C15.999 9.01067 16 9.01544 16 9.02026C16 9.02508 15.999 9.02984 15.997 9.0342C15.995 9.03855 15.9921 9.04238 15.9885 9.04541L11.3959 13.0305C11.3913 13.0348 11.3855 13.0376 11.3793 13.0385C11.3731 13.0394 11.3668 13.0383 11.3612 13.0354C11.3556 13.0325 11.351 13.0279 11.348 13.0222C11.3449 13.0165 11.3436 13.01 11.3442 13.0035V10.8223C11.3441 10.7743 11.3278 10.7279 11.2982 10.6911C11.2686 10.6543 11.2275 10.6295 11.1822 10.6211C10.5667 10.5061 8.29457 10.3354 6.10173 13.4419C6.09648 13.4496 6.08913 13.4554 6.08063 13.4587C6.07213 13.4619 6.06289 13.4624 6.05412 13.4601C6.04536 13.4578 6.03747 13.4527 6.03151 13.4456C6.02554 13.4385 6.02177 13.4297 6.0207 13.4204C5.9483 12.5202 5.77073 7.35113 11.3442 7.35113Z" fill="white"/>
</svg>
