<svg width="45" height="45" viewBox="0 0 45 45" fill="none" xmlns="http://www.w3.org/2000/svg">
<circle cx="22.5" cy="22.5" r="21.5" fill="#444444" fill-opacity="0.94" stroke="white" stroke-width="2"/>
<g clip-path="url(#clip0_1503_9726)">
<path d="M25.4688 23.0938C25.4688 23.8811 25.156 24.6362 24.5992 25.193C24.0425 25.7497 23.2874 26.0625 22.5 26.0625C21.7126 26.0625 20.9575 25.7497 20.4008 25.193C19.844 24.6362 19.5312 23.8811 19.5312 23.0938C19.5312 22.3064 19.844 21.5513 20.4008 20.9945C20.9575 20.4378 21.7126 20.125 22.5 20.125C23.2874 20.125 24.0425 20.4378 24.5992 20.9945C25.156 21.5513 25.4688 22.3064 25.4688 23.0938Z" fill="white"/>
<path d="M15.375 17.75C14.7451 17.75 14.141 18.0002 13.6956 18.4456C13.2502 18.891 13 19.4951 13 20.125V27.25C13 27.8799 13.2502 28.484 13.6956 28.9294C14.141 29.3748 14.7451 29.625 15.375 29.625H29.625C30.2549 29.625 30.859 29.3748 31.3044 28.9294C31.7498 28.484 32 27.8799 32 27.25V20.125C32 19.4951 31.7498 18.891 31.3044 18.4456C30.859 18.0002 30.2549 17.75 29.625 17.75H28.2332C27.6034 17.7499 26.9994 17.4996 26.5541 17.0541L25.5709 16.0709C25.1256 15.6254 24.5216 15.3751 23.8918 15.375H21.1082C20.4784 15.3751 19.8744 15.6254 19.4291 16.0709L18.4459 17.0541C18.0006 17.4996 17.3966 17.7499 16.7667 17.75H15.375ZM15.9688 20.125C15.8113 20.125 15.6603 20.0624 15.5489 19.9511C15.4376 19.8397 15.375 19.6887 15.375 19.5312C15.375 19.3738 15.4376 19.2228 15.5489 19.1114C15.6603 19.0001 15.8113 18.9375 15.9688 18.9375C16.1262 18.9375 16.2772 19.0001 16.3886 19.1114C16.4999 19.2228 16.5625 19.3738 16.5625 19.5312C16.5625 19.6887 16.4999 19.8397 16.3886 19.9511C16.2772 20.0624 16.1262 20.125 15.9688 20.125ZM26.6562 23.0938C26.6562 24.1961 26.2184 25.2532 25.4389 26.0327C24.6595 26.8121 23.6023 27.25 22.5 27.25C21.3977 27.25 20.3405 26.8121 19.5611 26.0327C18.7816 25.2532 18.3438 24.1961 18.3438 23.0938C18.3438 21.9914 18.7816 20.9343 19.5611 20.1548C20.3405 19.3754 21.3977 18.9375 22.5 18.9375C23.6023 18.9375 24.6595 19.3754 25.4389 20.1548C26.2184 20.9343 26.6562 21.9914 26.6562 23.0938Z" fill="white"/>
</g>
<defs>
<clipPath id="clip0_1503_9726">
<rect width="19" height="19" fill="white" transform="translate(13 13)"/>
</clipPath>
</defs>
</svg>
