<svg width="11" height="16" viewBox="0 0 11 16" fill="none" xmlns="http://www.w3.org/2000/svg">
<path d="M6.25002 8.50001H8.25006C8.97934 8.50001 9.6788 8.21018 10.1945 7.69452C10.7103 7.17885 11 6.47939 11 5.74993V3.50003H9.50005V5.74993C9.50005 6.08144 9.36822 6.39935 9.13384 6.6339C8.89947 6.86827 8.58157 6.99993 8.25005 6.99993H6.25002V3.50004H4.74993V6.99993H1.4999V3.50004H0V12H1.50008L1.49991 8.5001H4.74994V12H6.25002V8.50001Z" fill="#555555"/>
<path d="M1.50009 14.75C1.50009 15.1641 1.1644 15.5 0.750224 15.5C0.335887 15.5 0.000183105 15.1642 0.000183105 14.75C0.000183105 14.3358 0.335873 13.9999 0.750224 13.9999C1.16439 13.9999 1.50009 14.3358 1.50009 14.75Z" fill="#555555"/>
<path d="M6.25002 14.75C6.25002 15.1641 5.91416 15.5 5.49998 15.5C5.0858 15.5 4.74994 15.1642 4.74994 14.75C4.74994 14.3358 5.0858 13.9999 5.49998 13.9999C5.91416 13.9999 6.25002 14.3358 6.25002 14.75Z" fill="#555555"/>
<path d="M1.50009 0.750041C1.50009 1.1642 1.1644 1.50008 0.750224 1.50008C0.335887 1.50008 0.000183105 1.16422 0.000183105 0.750041C0.000183105 0.335878 0.335873 0 0.750224 0C1.16439 0 1.50009 0.335864 1.50009 0.750041Z" fill="#555555"/>
<path d="M6.25002 0.750041C6.25002 1.1642 5.91416 1.50008 5.49998 1.50008C5.0858 1.50008 4.74994 1.16422 4.74994 0.750041C4.74994 0.335878 5.0858 0 5.49998 0C5.91416 0 6.25002 0.335864 6.25002 0.750041Z" fill="#555555"/>
<path d="M11 0.750041C11 1.1642 10.6643 1.50008 10.25 1.50008C9.83582 1.50008 9.50012 1.16422 9.50012 0.750041C9.50012 0.335878 9.83581 0 10.25 0C10.6643 0 11 0.335864 11 0.750041Z" fill="#555555"/>
</svg>
