<svg width="32" height="32" viewBox="0 0 32 32" fill="none" xmlns="http://www.w3.org/2000/svg">
<path d="M17.0667 10.498H15.0176V11.3963H17.0667V10.498Z" fill="white"/>
<path d="M16 0C7.15789 0 0 7.15789 0 16C0 24.8421 7.15789 32 16 32C24.8421 32 32 24.8421 32 16C32 7.15789 24.8421 0 16 0ZM19.2 11.3965H19.3123C20.0982 11.3965 20.6877 12.2386 20.6316 13.2211C20.5193 15.1298 20.6035 16.1684 20.7439 16.7298C20.7439 16.786 20.7719 16.8421 20.8 16.9544C20.8281 17.1509 20.8561 17.3193 20.8842 17.4877C20.9123 17.6842 20.9123 17.8526 20.9404 17.9649C20.9404 17.993 20.9404 18.0211 20.9404 18.0211C20.9684 18.4421 21.3333 19.4526 21.2211 19.8737C20.6316 19.8175 20.014 20.0982 19.593 20.6596H19.2281V11.3965H19.2ZM13.1368 9.65614L13.614 7.46667C13.6982 7.12982 14.0351 6.87719 14.4281 6.87719H17.6561C18.0491 6.87719 18.386 7.12982 18.4702 7.46667L18.9474 9.65614C18.9754 9.85263 18.9474 10.0491 18.807 10.2175C18.6667 10.414 18.414 10.5263 18.1333 10.5263H17.7965V11.4246H18.6105V15.3263H13.4737V11.3965H14.2877V10.4982H13.9509C13.6982 10.4982 13.4456 10.386 13.2772 10.1895C13.1368 10.0491 13.1088 9.82456 13.1368 9.65614ZM18.6105 15.8877V20.6596H13.4737V15.8877H18.6105ZM11.0316 17.8246C11.0596 17.6842 11.1158 17.3193 11.2561 16.8982C11.3123 16.7018 11.3684 16.5614 11.3684 16.4772C11.5649 15.8316 11.7053 14.8211 11.6211 13.2211C11.5649 12.2667 12.1263 11.4526 12.8842 11.4246V20.6877H12.5474C12.1544 20.2105 11.593 19.9298 11.0596 19.9018C11.0035 19.6211 10.8912 18.6105 11.0316 17.8246ZM22.5123 22.4561C22.4281 22.9895 22.1474 23.3544 21.8386 23.7193C21.3895 24.2807 20.8281 24.7298 20.1544 25.0947C20.1263 25.0947 20.0982 25.1228 20.0702 25.1228H20.014H12.014C11.9579 25.1228 11.9298 25.1228 11.8737 25.0947C11.2 24.7579 10.6386 24.2807 10.1895 23.7193C9.8807 23.3544 9.6 22.9895 9.51579 22.4561C9.40351 21.6421 9.74035 20.407 10.7228 20.2105C11.3404 20.0702 12.014 20.3789 12.4351 20.9684H19.7614C20.1544 20.407 20.7719 20.0982 21.3333 20.2105C22.2596 20.3789 22.6246 21.6421 22.5123 22.4561Z" fill="white"/>
</svg>
