<svg width="13" height="11" viewBox="0 0 13 11" fill="none" xmlns="http://www.w3.org/2000/svg">
<path d="M6.94746 3.05647V0.0434262C6.9472 0.0351943 6.94927 0.0270641 6.9534 0.0200451C6.95754 0.0130261 6.96356 0.00742734 6.97072 0.00394431C6.97788 0.00046127 6.98587 -0.000752753 6.99369 0.000452932C7.00151 0.00165862 7.00881 0.00523099 7.0147 0.0107264L12.985 5.19364C12.9897 5.19758 12.9935 5.20256 12.9961 5.20822C12.9987 5.21388 13 5.22007 13 5.22634C13 5.23261 12.9987 5.2388 12.9961 5.24446C12.9935 5.25011 12.9897 5.2551 12.985 5.25904L7.0147 10.4396C7.00867 10.4453 7.00115 10.4489 6.9931 10.4501C6.98505 10.4512 6.97686 10.4498 6.96959 10.446C6.96233 10.4423 6.95633 10.4363 6.95238 10.4289C6.94843 10.4215 6.94672 10.413 6.94746 10.4046V7.56904C6.94734 7.50662 6.92618 7.44622 6.88767 7.39841C6.84917 7.35059 6.79577 7.31839 6.7368 7.30744C5.93672 7.15796 2.98294 6.93607 0.132248 10.9745C0.125426 10.9845 0.115863 10.9921 0.104817 10.9963C0.093771 11.0005 0.0817587 11.0011 0.0703603 10.9981C0.058962 10.9951 0.0487114 10.9885 0.040957 10.9793C0.0332026 10.9701 0.0283074 10.9586 0.0269155 10.9465C-0.0672111 9.77627 -0.298046 3.05647 6.94746 3.05647Z" fill="#666666"/>
</svg>
