<svg width="12" height="12" viewBox="0 0 12 12" fill="none" xmlns="http://www.w3.org/2000/svg">
<path d="M12 5.72573C12 5.14463 10.6737 4.77836 10.5095 4.26044C10.3327 3.71733 11.1916 2.6436 10.8632 2.20147C10.5348 1.74673 9.24636 2.22676 8.79162 1.89829C8.33688 1.56998 8.39997 0.193066 7.85686 0.0162232C7.33894 -0.148015 6.58109 0.988879 6.00001 0.988879C5.41893 0.988879 4.67367 -0.14792 4.14317 0.0162232C3.60005 0.193061 3.66314 1.56998 3.22108 1.89835C2.76634 2.22675 1.4779 1.7468 1.1495 2.20154C0.821099 2.65627 1.66742 3.71731 1.50318 4.26051C1.32635 4.77834 0 5.14461 0 5.72571C0 6.30681 1.32634 6.67308 1.49048 7.191C1.66732 7.73411 0.808423 8.80784 1.1368 9.24997C1.4652 9.70471 2.75364 9.22468 3.20838 9.55315C3.66312 9.88155 3.59994 11.2585 4.14314 11.4226C4.66106 11.5868 5.41891 10.4499 5.99999 10.4499C6.58106 10.4499 7.32633 11.5867 7.85683 11.4226C8.39995 11.2458 8.33686 9.88155 8.79159 9.55315C9.24633 9.22475 10.5348 9.7047 10.8632 9.24997C11.1916 8.79523 10.3453 7.7342 10.5095 7.191C10.6736 6.67308 12 6.30681 12 5.72571L12 5.72573Z" fill="white"/>
</svg>
