<svg width="17" height="17" viewBox="0 0 17 17" fill="none" xmlns="http://www.w3.org/2000/svg">
<path fill-rule="evenodd" clip-rule="evenodd" d="M6.98067 9.20833C6.67589 10.2324 5.72724 10.9792 4.60417 10.9792C3.4811 10.9792 2.53244 10.2324 2.22767 9.20833H0.708825C0.317352 9.20833 0 8.89393 0 8.5C0 8.1088 0.316957 7.79167 0.708825 7.79167H2.22767C2.53244 6.7676 3.4811 6.02083 4.60417 6.02083C5.72724 6.02083 6.67589 6.7676 6.98067 7.79167H16.2912C16.6826 7.79167 17 8.10607 17 8.5C17 8.8912 16.683 9.20833 16.2912 9.20833H6.98067ZM10.0193 13.8125C10.3241 12.7884 11.2728 12.0417 12.3958 12.0417C13.5189 12.0417 14.4676 12.7884 14.7723 13.8125H16.2912C16.6826 13.8125 17 14.1269 17 14.5208C17 14.912 16.683 15.2292 16.2912 15.2292H14.7723C14.4676 16.2532 13.5189 17 12.3958 17C11.2728 17 10.3241 16.2532 10.0193 15.2292H0.708825C0.317352 15.2292 0 14.9148 0 14.5208C0 14.1296 0.316957 13.8125 0.708825 13.8125H10.0193ZM10.0193 1.77083C10.3241 0.746764 11.2728 0 12.3958 0C13.5189 0 14.4676 0.746764 14.7723 1.77083H16.2912C16.6826 1.77083 17 2.08524 17 2.47917C17 2.87037 16.683 3.1875 16.2912 3.1875H14.7723C14.4676 4.21157 13.5189 4.95833 12.3958 4.95833C11.2728 4.95833 10.3241 4.21157 10.0193 3.1875H0.708825C0.317352 3.1875 0 2.8731 0 2.47917C0 2.08796 0.316957 1.77083 0.708825 1.77083H10.0193ZM12.3958 3.54167C12.9826 3.54167 13.4583 3.06597 13.4583 2.47917C13.4583 1.89236 12.9826 1.41667 12.3958 1.41667C11.809 1.41667 11.3333 1.89236 11.3333 2.47917C11.3333 3.06597 11.809 3.54167 12.3958 3.54167ZM12.3958 15.5833C12.9826 15.5833 13.4583 15.1076 13.4583 14.5208C13.4583 13.934 12.9826 13.4583 12.3958 13.4583C11.809 13.4583 11.3333 13.934 11.3333 14.5208C11.3333 15.1076 11.809 15.5833 12.3958 15.5833ZM4.60417 7.4375C4.01736 7.4375 3.54167 7.9132 3.54167 8.5C3.54167 9.0868 4.01736 9.5625 4.60417 9.5625C5.19097 9.5625 5.66667 9.0868 5.66667 8.5C5.66667 7.9132 5.19097 7.4375 4.60417 7.4375Z" fill="black"/>
</svg>
