<svg width="78" height="78" viewBox="0 0 78 78" fill="none" xmlns="http://www.w3.org/2000/svg">
<g clip-path="url(#clip0_832_6253)">
<path d="M78 39C78 49.3434 73.8911 59.2632 66.5772 66.5772C59.2632 73.8911 49.3434 78 39 78C28.6566 78 18.7368 73.8911 11.4228 66.5772C4.10892 59.2632 0 49.3434 0 39C0 28.6566 4.10892 18.7368 11.4228 11.4228C18.7368 4.10892 28.6566 0 39 0C49.3434 0 59.2632 4.10892 66.5772 11.4228C73.8911 18.7368 78 28.6566 78 39ZM58.6462 24.2287C58.298 23.8817 57.8834 23.6085 57.4272 23.4254C56.9709 23.2423 56.4825 23.1531 55.9909 23.1631C55.4994 23.1731 55.015 23.2822 54.5666 23.4837C54.1182 23.6852 53.7151 23.9751 53.3812 24.336L36.4504 45.9079L26.247 35.6996C25.5539 35.0538 24.6372 34.7022 23.69 34.7189C22.7427 34.7356 21.839 35.1193 21.1691 35.7892C20.4992 36.4591 20.1155 37.3629 20.0988 38.3101C20.0821 39.2573 20.4337 40.174 21.0795 40.8671L33.9787 53.7712C34.3262 54.1181 34.7401 54.3914 35.1955 54.5749C35.6509 54.7584 36.1386 54.8483 36.6295 54.8392C37.1204 54.8301 37.6045 54.7222 38.0528 54.522C38.5011 54.3217 38.9045 54.0333 39.2389 53.6738L58.6999 29.3475C59.3633 28.6577 59.7298 27.7352 59.7207 26.7782C59.7116 25.8211 59.3276 24.9058 58.6511 24.2287H58.6462Z" fill="#51BC18"/>
</g>
<defs>
<clipPath id="clip0_832_6253">
<rect width="78" height="78" fill="white"/>
</clipPath>
</defs>
</svg>
