<svg width="22" height="23" viewBox="0 0 22 23" fill="none" xmlns="http://www.w3.org/2000/svg">
<path d="M2.19006 22.4487H6.19006C6.7868 22.4487 7.3591 22.2116 7.78105 21.7897C8.20301 21.3677 8.44006 20.7954 8.44006 20.1987V17.8687C8.42798 17.281 8.63378 16.7097 9.01782 16.2647C9.40185 15.8198 9.93696 15.5327 10.5201 15.4587C10.8287 15.4353 11.1388 15.4759 11.431 15.5778C11.7233 15.6797 11.9913 15.8408 12.2185 16.0511C12.4456 16.2613 12.6269 16.5161 12.7511 16.7996C12.8752 17.0831 12.9396 17.3892 12.9401 17.6987V20.1987C12.9401 20.7954 13.1771 21.3677 13.5991 21.7897C14.021 22.2116 14.5933 22.4487 15.1901 22.4487H19.1901C19.7868 22.4487 20.3591 22.2116 20.7811 21.7897C21.203 21.3677 21.4401 20.7954 21.4401 20.1987V9.6987C21.4436 9.28854 21.3557 8.88275 21.1827 8.51084C21.0097 8.13892 20.756 7.81024 20.4401 7.5487L12.4401 1.1487C11.9506 0.760967 11.3445 0.549988 10.7201 0.549988C10.0956 0.549988 9.48953 0.760967 9.00006 1.1487L1.00006 7.5587C0.684867 7.81871 0.431571 8.14568 0.258592 8.51586C0.0856118 8.88604 -0.00270462 9.29011 6.30981e-05 9.6987V20.1987C-0.000145466 20.7852 0.228654 21.3486 0.63772 21.7688C1.04679 22.1891 1.60379 22.4331 2.19006 22.4487ZM1.44006 9.6987C1.43499 9.50691 1.47484 9.31659 1.55645 9.14295C1.63806 8.96931 1.75916 8.81718 1.91006 8.6987L9.91006 2.2987C10.1323 2.12351 10.4071 2.02824 10.6901 2.02824C10.9731 2.02824 11.2478 2.12351 11.4701 2.2987L19.4701 8.6887C19.6187 8.80921 19.7381 8.96174 19.8195 9.1349C19.9009 9.30807 19.9421 9.49738 19.9401 9.6887V20.1987C19.9375 20.3968 19.8576 20.5861 19.7175 20.7262C19.5774 20.8663 19.3882 20.9461 19.1901 20.9487H15.1901C14.992 20.9461 14.8027 20.8663 14.6626 20.7262C14.5225 20.5861 14.4427 20.3968 14.4401 20.1987V17.6987C14.4374 16.7049 14.0415 15.7527 13.3388 15.05C12.6361 14.3473 11.6838 13.9513 10.6901 13.9487H10.4201C9.45485 14.044 8.56091 14.4992 7.91608 15.2237C7.27125 15.9482 6.9228 16.8889 6.94006 17.8587V20.1987C6.93747 20.3968 6.85762 20.5861 6.71753 20.7262C6.57743 20.8663 6.38817 20.9461 6.19006 20.9487H2.19006C1.99196 20.9461 1.80269 20.8663 1.6626 20.7262C1.5225 20.5861 1.44265 20.3968 1.44006 20.1987V9.6987Z" fill="white"/>
</svg>
