<svg width="24" height="24" viewBox="0 0 24 24" fill="none" xmlns="http://www.w3.org/2000/svg">
<path d="M12 24C18.623 24 24 18.623 24 12C24 5.37705 18.623 0 12 0C5.37705 0 0 5.37705 0 12C0 18.623 5.37705 24 12 24ZM12 1.96721C17.541 1.96721 22.0328 6.45902 22.0328 12C22.0328 17.541 17.541 22.0328 12 22.0328C6.45902 22.0328 1.96721 17.541 1.96721 12C1.96721 6.45902 6.45902 1.96721 12 1.96721Z" fill="white"/>
<path d="M6.55746 12.9836H11.1476V17.5738C11.1476 18.1312 11.5739 18.5574 12.1312 18.5574C12.6886 18.5574 13.1148 18.1312 13.1148 17.5738V12.9836H17.705C18.2624 12.9836 18.6886 12.5574 18.6886 12C18.6886 11.4426 18.2624 11.0164 17.705 11.0164H13.1148V6.42623C13.1148 5.86886 12.6886 5.44263 12.1312 5.44263C11.5739 5.44263 11.1476 5.86886 11.1476 6.42623V11.0164H6.55746C6.00008 11.0164 5.57385 11.4426 5.57385 12C5.57385 12.5574 6.03287 12.9836 6.55746 12.9836Z" fill="white"/>
</svg>
