<svg width="18" height="18" viewBox="0 0 18 18" fill="none" xmlns="http://www.w3.org/2000/svg">
<path d="M4.10275 12.1891C3.28142 12.1891 2.58275 12.0504 2.00675 11.7731C1.44142 11.4851 0.945417 11.0851 0.51875 10.5731L1.62275 9.53307C1.94275 9.9384 2.31608 10.2477 2.74275 10.4611C3.16942 10.6744 3.65475 10.7811 4.19875 10.7811C4.77475 10.7811 5.20142 10.6797 5.47875 10.4771C5.76675 10.2637 5.91075 9.96507 5.91075 9.58107C5.91075 9.23974 5.79875 8.9784 5.57475 8.79707C5.36142 8.60507 5.02008 8.47707 4.55075 8.41307L3.73475 8.30107C3.34008 8.24774 2.96675 8.1624 2.61475 8.04507C2.26275 7.92774 1.95342 7.76774 1.68675 7.56507C1.43075 7.3624 1.22275 7.11174 1.06275 6.81307C0.913417 6.5144 0.83875 6.1464 0.83875 5.70907C0.83875 5.2824 0.91875 4.90374 1.07875 4.57307C1.23875 4.23174 1.46275 3.94907 1.75075 3.72507C2.03875 3.4904 2.38008 3.3144 2.77475 3.19707C3.18008 3.07974 3.62275 3.02107 4.10275 3.02107C4.90275 3.02107 5.55875 3.14374 6.07075 3.38907C6.58275 3.62374 7.03608 3.9544 7.43075 4.38107L6.37475 5.43707C6.12942 5.15974 5.81475 4.92507 5.43075 4.73307C5.04675 4.54107 4.60408 4.44507 4.10275 4.44507C3.58008 4.44507 3.18542 4.5464 2.91875 4.74907C2.65208 4.95174 2.51875 5.22907 2.51875 5.58107C2.51875 5.9544 2.64142 6.23174 2.88675 6.41307C3.13208 6.5944 3.49475 6.71707 3.97475 6.78107L4.79075 6.90907C5.20675 6.97307 5.58542 7.06374 5.92675 7.18107C6.27875 7.2984 6.57742 7.4584 6.82275 7.66107C7.06808 7.85307 7.25475 8.09307 7.38275 8.38107C7.52142 8.66907 7.59075 9.01574 7.59075 9.42107C7.59075 9.83707 7.50542 10.2157 7.33475 10.5571C7.17475 10.8984 6.94008 11.1917 6.63075 11.4371C6.33208 11.6717 5.96408 11.8584 5.52675 11.9971C5.10008 12.1251 4.62542 12.1891 4.10275 12.1891ZM5.08437 17.6451C4.29504 17.6451 3.71904 17.4584 3.35637 17.0851C2.98304 16.7224 2.79637 16.2531 2.79637 15.6771V14.9731H1.75637V13.7411H3.05237C3.45771 13.7411 3.75104 13.8264 3.93237 13.9971C4.11371 14.1677 4.20437 14.3971 4.20437 14.6851V15.3731C4.20437 15.7144 4.27371 15.9757 4.41237 16.1571C4.55104 16.3384 4.77504 16.4291 5.08437 16.4291C5.39371 16.4291 5.61771 16.3384 5.75637 16.1571C5.89504 15.9757 5.96437 15.7144 5.96437 15.3731V13.7411H7.48438V15.4051C7.48438 16.0557 7.29237 16.5891 6.90837 17.0051C6.51371 17.4317 5.90571 17.6451 5.08437 17.6451ZM13.3346 12.1891C12.748 12.1891 12.22 12.1091 11.7506 11.9491C11.292 11.7784 10.8973 11.5437 10.5666 11.2451C10.2466 10.9357 9.99596 10.5677 9.81463 10.1411C9.64396 9.70374 9.55863 9.2184 9.55863 8.68507V3.21307H11.3026V8.55707C11.3026 9.26107 11.4786 9.80507 11.8306 10.1891C12.1933 10.5731 12.6946 10.7651 13.3346 10.7651C13.9746 10.7651 14.4706 10.5731 14.8226 10.1891C15.1853 9.80507 15.3666 9.26107 15.3666 8.55707V0.26907H17.1106V8.68507C17.1106 9.2184 17.02 9.70374 16.8386 10.1411C16.668 10.5677 16.4173 10.9357 16.0866 11.2451C15.7666 11.5437 15.372 11.7784 14.9026 11.9491C14.444 12.1091 13.9213 12.1891 13.3346 12.1891Z" fill="#5CA8EF"/>
</svg>
