<svg width="14" height="134" viewBox="0 0 14 134" fill="none" xmlns="http://www.w3.org/2000/svg">
<path d="M14 134H0V127.269C1.83822 127.269 3.60116 126.542 4.90098 125.248C6.2008 123.954 6.93103 122.198 6.93103 120.368C6.93103 118.538 6.2008 116.783 4.90098 115.489C3.60116 114.195 1.83822 113.468 0 113.468V105.802C1.83822 105.802 3.60116 105.075 4.90098 103.781C6.2008 102.487 6.93103 100.731 6.93103 98.9015C6.93103 97.0715 6.2008 95.3164 4.90098 94.0224C3.60116 92.7283 1.83822 92.0014 0 92.0014V84.3346C1.83822 84.3346 3.60116 83.6076 4.90098 82.3136C6.2008 81.0196 6.93103 79.2645 6.93103 77.4345C6.93103 75.6045 6.2008 73.8494 4.90098 72.5554C3.60116 71.2614 1.83822 70.5344 0 70.5344V62.8676C1.83822 62.8676 3.60116 62.1406 4.90098 60.8466C6.2008 59.5526 6.93103 57.7975 6.93103 55.9675C6.93103 54.1375 6.2008 52.3824 4.90098 51.0884C3.60116 49.7944 1.83822 49.0674 0 49.0674V41.4006C1.83822 41.4006 3.60116 40.6736 4.90098 39.3796C6.2008 38.0856 6.93103 36.3305 6.93103 34.5005C6.93103 32.6705 6.2008 30.9154 4.90098 29.6214C3.60116 28.3274 1.83822 27.6004 0 27.6004V19.9336C1.83822 19.9336 3.60116 19.2067 4.90098 17.9126C6.2008 16.6186 6.93103 14.8635 6.93103 13.0335C6.93103 11.2035 6.2008 9.44844 4.90098 8.15442C3.60116 6.8604 1.83822 6.13342 0 6.13342V0H14V134Z" fill="white"/>
</svg>
