<svg width="187" height="178" viewBox="0 0 187 178" fill="none" xmlns="http://www.w3.org/2000/svg">
<path d="M153.73 130.27L113.88 153.99L104.83 120.81L153.73 130.27Z" fill="url(#paint0_linear_2744_3552)"/>
<path d="M93.25 0L91.41 4.25L66.72 61.54L4.61 67.38L0 67.81L3.48 70.87L50.33 112.06L36.69 172.93L35.68 177.45L39.66 175.08L93.31 143.26L146.99 175.04L150.98 177.4L149.96 172.88L136.26 112.02L183.08 70.79L186.56 67.73L181.94 67.3L119.83 61.51L95.09 4.25L93.25 0Z" fill="url(#paint1_linear_2744_3552)"/>
<path d="M148.01 173.32L93.3098 140.93L38.6398 173.36L52.5398 111.34L4.7998 69.37L68.0898 63.42L93.2498 5.04004L118.47 63.4L181.76 69.29L134.05 111.3L148.01 173.32Z" fill="url(#paint2_linear_2744_3552)"/>
<path d="M148.01 173.32L93.3098 140.93L38.6398 173.36L52.5398 111.34L4.7998 69.37L68.0898 63.42L93.2498 5.04004L118.47 63.4L181.76 69.29L134.05 111.3L148.01 173.32Z" fill="url(#paint3_linear_2744_3552)"/>
<path d="M93.2596 22.71L90.5096 29.09L72.8696 70L28.5196 74.17L21.5996 74.82L26.8196 79.41L60.2796 108.82L50.5396 152.29L49.0196 159.07L54.9996 155.52L93.3096 132.79L131.64 155.49L137.62 159.03L136.09 152.25L126.31 108.79L159.74 79.35L164.96 74.76L158.04 74.11L113.69 69.98L96.0096 29.09L93.2596 22.71Z" fill="url(#paint4_radial_2744_3552)"/>
<path d="M63.5898 107.74L28.7998 77.1498L74.9198 72.8198L93.2598 30.2798L111.64 72.7998L157.76 77.0998L122.99 107.72L133.17 152.91L93.2998 129.3L53.4698 152.94L63.5898 107.74Z" fill="url(#paint5_radial_2744_3552)"/>
<path style="mix-blend-mode:screen" d="M40.9198 163.22C54.1838 121.028 82.9743 85.4464 121.47 63.67L118.47 63.39L93.2498 5.04004L68.0898 63.42L4.7998 69.42L52.5398 111.42L40.9198 163.22Z" fill="url(#paint6_radial_2744_3552)"/>
<path d="M153.73 108.19V130.27H23.71L33.57 119.23L23.71 108.19H153.73Z" fill="url(#paint7_linear_2744_3552)"/>
<path style="mix-blend-mode:screen" opacity="0.5" d="M153.23 108.69V129.77H24.83L33.95 119.57L34.24 119.23L33.95 118.9L24.83 108.69H153.23ZM153.73 108.19H23.71L33.57 119.19L23.71 130.19H153.71V108.19H153.73Z" fill="url(#paint8_linear_2744_3552)"/>
<path d="M97.7298 71.8902L94.4898 69.9802L91.2598 71.9002L92.0798 68.2202L89.2598 65.7402L92.9998 65.3902L94.4898 61.9302L95.9798 65.3902L99.7298 65.7302L96.8998 68.2202L97.7298 71.8902Z" fill="url(#paint9_linear_2744_3552)"/>
<path d="M106.57 71.1L104.42 69.82L102.26 71.1L102.81 68.66L100.93 67.01L103.42 66.78L104.41 64.48L105.4 66.78L107.89 67.01L106.02 68.66L106.57 71.1Z" fill="url(#paint10_linear_2744_3552)"/>
<path d="M86.2804 71.1L84.1304 69.82L81.9804 71.1L82.5304 68.66L80.6504 67.01L83.1404 66.78L84.1304 64.48L85.1204 66.78L87.6104 67.01L85.7404 68.66L86.2804 71.1Z" fill="url(#paint11_linear_2744_3552)"/>
<path d="M59.6002 120.26C60.1193 120.26 60.5402 119.839 60.5402 119.32C60.5402 118.801 60.1193 118.38 59.6002 118.38C59.081 118.38 58.6602 118.801 58.6602 119.32C58.6602 119.839 59.081 120.26 59.6002 120.26Z" fill="url(#paint12_radial_2744_3552)"/>
<path style="mix-blend-mode:screen" d="M100.5 32C108.426 49.9065 124.807 59.9571 113.5 65C102.193 70.0429 97.9455 79.3767 90.0109 61.4802C82.0763 43.5837 79.6745 18.5441 91.0002 13.5001C102.326 8.45608 92.5659 14.113 100.5 32Z" fill="url(#paint13_radial_2744_3552)"/>
<path d="M122.23 120.26C122.749 120.26 123.17 119.839 123.17 119.32C123.17 118.801 122.749 118.38 122.23 118.38C121.711 118.38 121.29 118.801 121.29 119.32C121.29 119.839 121.711 120.26 122.23 120.26Z" fill="url(#paint14_radial_2744_3552)"/>
<path d="M72.6489 84.6523V84.9723C72.2862 84.983 72.0142 85.0257 71.8329 85.1003C71.6515 85.1643 71.5289 85.2923 71.4649 85.4843C71.4115 85.6657 71.3849 85.9537 71.3849 86.3483V94.2843C71.3849 94.6683 71.4115 94.9563 71.4649 95.1483C71.5289 95.3403 71.6515 95.4683 71.8329 95.5323C72.0142 95.5963 72.2862 95.639 72.6489 95.6603V95.9803C72.3822 95.959 72.0515 95.9483 71.6569 95.9483C71.2622 95.9377 70.8622 95.9323 70.4569 95.9323C70.0089 95.9323 69.5875 95.9377 69.1929 95.9483C68.7982 95.9483 68.4835 95.959 68.2489 95.9803V95.6603C68.6115 95.639 68.8835 95.5963 69.0649 95.5323C69.2569 95.4683 69.3849 95.3403 69.4489 95.1483C69.5129 94.9563 69.5449 94.6683 69.5449 94.2843V85.5323L69.6249 85.5643L65.6889 96.0443H65.4329L61.3049 85.6763V93.8683C61.3049 94.3163 61.3369 94.6683 61.4009 94.9243C61.4649 95.1697 61.6035 95.3457 61.8169 95.4523C62.0302 95.559 62.3555 95.6283 62.7929 95.6603V95.9803C62.5902 95.959 62.3289 95.9483 62.0089 95.9483C61.6995 95.9377 61.4062 95.9323 61.1289 95.9323C60.8622 95.9323 60.5955 95.9377 60.3289 95.9483C60.0622 95.9483 59.8435 95.959 59.6729 95.9803V95.6603C60.0249 95.6283 60.2915 95.5643 60.4729 95.4683C60.6542 95.3617 60.7769 95.1857 60.8409 94.9403C60.9049 94.695 60.9369 94.359 60.9369 93.9323V86.3483C60.9369 85.9537 60.9049 85.6657 60.8409 85.4843C60.7769 85.2923 60.6542 85.1643 60.4729 85.1003C60.2915 85.0257 60.0249 84.983 59.6729 84.9723V84.6523C59.8435 84.663 60.0622 84.6737 60.3289 84.6843C60.5955 84.695 60.8622 84.7003 61.1289 84.7003C61.4382 84.7003 61.7475 84.695 62.0569 84.6843C62.3769 84.6737 62.6489 84.663 62.8729 84.6523L66.4089 93.7403L66.1049 93.9483L69.5769 84.7003C69.7155 84.7003 69.8595 84.7003 70.0089 84.7003C70.1582 84.7003 70.3075 84.7003 70.4569 84.7003C70.8622 84.7003 71.2622 84.695 71.6569 84.6843C72.0515 84.6737 72.3822 84.663 72.6489 84.6523Z" fill="url(#paint15_linear_2744_3552)"/>
<path d="M82.0672 84.6523C82.0246 85.0577 81.9926 85.4523 81.9712 85.8363C81.9606 86.2097 81.9552 86.4977 81.9552 86.7003C81.9552 86.903 81.9606 87.095 81.9712 87.2763C81.9819 87.4577 81.9926 87.607 82.0032 87.7243H81.6352C81.5606 87.0417 81.4432 86.503 81.2832 86.1083C81.1339 85.7137 80.9046 85.4363 80.5952 85.2763C80.2966 85.1057 79.8752 85.0203 79.3312 85.0203H78.2272C77.8859 85.0203 77.6246 85.0523 77.4432 85.1163C77.2726 85.1697 77.1552 85.287 77.0912 85.4683C77.0272 85.639 76.9952 85.911 76.9952 86.2843V94.3483C76.9952 94.711 77.0272 94.983 77.0912 95.1643C77.1552 95.3457 77.2726 95.4683 77.4432 95.5323C77.6246 95.5857 77.8859 95.6123 78.2272 95.6123H79.2672C79.8752 95.6123 80.3552 95.5163 80.7072 95.3243C81.0699 95.1323 81.3419 94.8177 81.5232 94.3803C81.7152 93.943 81.8592 93.3457 81.9552 92.5883H82.3232C82.2912 92.8977 82.2752 93.303 82.2752 93.8043C82.2752 94.0177 82.2806 94.327 82.2912 94.7323C82.3126 95.1377 82.3446 95.5537 82.3872 95.9803C81.8432 95.959 81.2299 95.9483 80.5472 95.9483C79.8646 95.9377 79.2566 95.9323 78.7232 95.9323C78.4779 95.9323 78.1632 95.9323 77.7792 95.9323C77.3952 95.9323 76.9792 95.9377 76.5312 95.9483C76.0939 95.9483 75.6459 95.9537 75.1872 95.9643C74.7392 95.9643 74.3072 95.9697 73.8912 95.9803V95.6603C74.2539 95.639 74.5259 95.5963 74.7072 95.5323C74.8886 95.4683 75.0059 95.3403 75.0592 95.1483C75.1232 94.9563 75.1552 94.6683 75.1552 94.2843V86.3483C75.1552 85.9537 75.1232 85.6657 75.0592 85.4843C75.0059 85.2923 74.8832 85.1643 74.6912 85.1003C74.5099 85.0257 74.2432 84.983 73.8912 84.9723V84.6523C74.3072 84.663 74.7392 84.6737 75.1872 84.6843C75.6459 84.6843 76.0939 84.6897 76.5312 84.7003C76.9792 84.7003 77.3952 84.7003 77.7792 84.7003C78.1632 84.7003 78.4779 84.7003 78.7232 84.7003C79.2139 84.7003 79.7686 84.7003 80.3872 84.7003C81.0166 84.6897 81.5766 84.6737 82.0672 84.6523ZM79.4112 90.1243C79.4112 90.1243 79.4112 90.1777 79.4112 90.2843C79.4112 90.391 79.4112 90.4443 79.4112 90.4443H76.5152C76.5152 90.4443 76.5152 90.391 76.5152 90.2843C76.5152 90.1777 76.5152 90.1243 76.5152 90.1243H79.4112ZM79.8752 88.0123C79.8326 88.6203 79.8112 89.0843 79.8112 89.4043C79.8219 89.7243 79.8272 90.0177 79.8272 90.2843C79.8272 90.551 79.8326 90.8443 79.8432 91.1643C79.8539 91.4843 79.8806 91.9483 79.9232 92.5563H79.5552C79.5019 92.2043 79.4326 91.8683 79.3472 91.5483C79.2619 91.2177 79.1072 90.951 78.8832 90.7483C78.6699 90.5457 78.3339 90.4443 77.8752 90.4443V90.1243C78.2166 90.1243 78.4832 90.055 78.6752 89.9163C78.8779 89.7777 79.0326 89.5963 79.1392 89.3723C79.2459 89.1483 79.3206 88.919 79.3632 88.6843C79.4166 88.439 79.4646 88.215 79.5072 88.0123H79.8752Z" fill="url(#paint16_linear_2744_3552)"/>
<path d="M96.7582 84.6523V84.9723C96.3956 84.983 96.1236 85.0257 95.9422 85.1003C95.7609 85.1643 95.6382 85.2923 95.5742 85.4843C95.5209 85.6657 95.4942 85.9537 95.4942 86.3483V94.2843C95.4942 94.6683 95.5209 94.9563 95.5742 95.1483C95.6382 95.3403 95.7609 95.4683 95.9422 95.5323C96.1236 95.5963 96.3956 95.639 96.7582 95.6603V95.9803C96.4916 95.959 96.1609 95.9483 95.7662 95.9483C95.3716 95.9377 94.9716 95.9323 94.5662 95.9323C94.1182 95.9323 93.6969 95.9377 93.3022 95.9483C92.9076 95.9483 92.5929 95.959 92.3582 95.9803V95.6603C92.7209 95.639 92.9929 95.5963 93.1742 95.5323C93.3662 95.4683 93.4942 95.3403 93.5582 95.1483C93.6222 94.9563 93.6542 94.6683 93.6542 94.2843V85.5323L93.7342 85.5643L89.7982 96.0443H89.5422L85.4142 85.6763V93.8683C85.4142 94.3163 85.4462 94.6683 85.5102 94.9243C85.5742 95.1697 85.7129 95.3457 85.9262 95.4523C86.1396 95.559 86.4649 95.6283 86.9022 95.6603V95.9803C86.6996 95.959 86.4382 95.9483 86.1182 95.9483C85.8089 95.9377 85.5156 95.9323 85.2382 95.9323C84.9716 95.9323 84.7049 95.9377 84.4382 95.9483C84.1716 95.9483 83.9529 95.959 83.7822 95.9803V95.6603C84.1342 95.6283 84.4009 95.5643 84.5822 95.4683C84.7636 95.3617 84.8862 95.1857 84.9502 94.9403C85.0142 94.695 85.0462 94.359 85.0462 93.9323V86.3483C85.0462 85.9537 85.0142 85.6657 84.9502 85.4843C84.8862 85.2923 84.7636 85.1643 84.5822 85.1003C84.4009 85.0257 84.1342 84.983 83.7822 84.9723V84.6523C83.9529 84.663 84.1716 84.6737 84.4382 84.6843C84.7049 84.695 84.9716 84.7003 85.2382 84.7003C85.5476 84.7003 85.8569 84.695 86.1662 84.6843C86.4862 84.6737 86.7582 84.663 86.9822 84.6523L90.5182 93.7403L90.2142 93.9483L93.6862 84.7003C93.8249 84.7003 93.9689 84.7003 94.1182 84.7003C94.2676 84.7003 94.4169 84.7003 94.5662 84.7003C94.9716 84.7003 95.3716 84.695 95.7662 84.6843C96.1609 84.6737 96.4916 84.663 96.7582 84.6523Z" fill="url(#paint17_linear_2744_3552)"/>
<path d="M98.0006 84.6523C98.2459 84.663 98.5606 84.6737 98.9446 84.6843C99.3393 84.695 99.7286 84.7003 100.113 84.7003C100.625 84.7003 101.11 84.695 101.569 84.6843C102.038 84.6737 102.369 84.6683 102.561 84.6683C103.755 84.6683 104.646 84.903 105.233 85.3723C105.83 85.8417 106.129 86.4443 106.129 87.1803C106.129 87.5537 106.038 87.927 105.857 88.3003C105.686 88.663 105.403 88.9937 105.009 89.2923C104.614 89.5803 104.091 89.8097 103.441 89.9803V90.0123C104.337 90.1083 105.041 90.3003 105.553 90.5883C106.065 90.8763 106.427 91.223 106.641 91.6283C106.854 92.023 106.961 92.439 106.961 92.8763C106.961 93.5057 106.801 94.055 106.481 94.5243C106.161 94.983 105.697 95.3403 105.089 95.5963C104.491 95.8523 103.771 95.9803 102.929 95.9803C102.694 95.9803 102.337 95.975 101.857 95.9643C101.387 95.943 100.817 95.9323 100.145 95.9323C99.7393 95.9323 99.3393 95.9377 98.9446 95.9483C98.5606 95.9483 98.2459 95.959 98.0006 95.9803V95.6603C98.3633 95.639 98.6353 95.5963 98.8166 95.5323C98.9979 95.4683 99.1153 95.3403 99.1686 95.1483C99.2326 94.9563 99.2646 94.6683 99.2646 94.2843V86.3483C99.2646 85.9537 99.2326 85.6657 99.1686 85.4843C99.1153 85.2923 98.9926 85.1643 98.8006 85.1003C98.6193 85.0257 98.3526 84.983 98.0006 84.9723V84.6523ZM102.225 84.9723C101.766 84.9723 101.462 85.063 101.313 85.2443C101.174 85.4257 101.105 85.7937 101.105 86.3483V94.2843C101.105 94.6577 101.137 94.9403 101.201 95.1323C101.265 95.3243 101.377 95.4523 101.537 95.5163C101.707 95.5803 101.953 95.6123 102.273 95.6123C103.233 95.6123 103.926 95.3723 104.353 94.8923C104.79 94.4017 105.009 93.7083 105.009 92.8123C105.009 91.991 104.79 91.3563 104.353 90.9083C103.926 90.4603 103.217 90.2363 102.225 90.2363H100.673C100.673 90.2363 100.673 90.1937 100.673 90.1083C100.673 90.0123 100.673 89.9643 100.673 89.9643H102.049C102.635 89.9643 103.089 89.847 103.409 89.6123C103.729 89.367 103.947 89.047 104.065 88.6523C104.182 88.247 104.241 87.815 104.241 87.3563C104.241 86.567 104.086 85.975 103.777 85.5803C103.467 85.175 102.95 84.9723 102.225 84.9723Z" fill="url(#paint18_linear_2744_3552)"/>
<path d="M116.302 84.6523C116.259 85.0577 116.227 85.4523 116.206 85.8363C116.195 86.2097 116.19 86.4977 116.19 86.7003C116.19 86.903 116.195 87.095 116.206 87.2763C116.216 87.4577 116.227 87.607 116.238 87.7243H115.87C115.795 87.0417 115.678 86.503 115.518 86.1083C115.368 85.7137 115.139 85.4363 114.83 85.2763C114.531 85.1057 114.11 85.0203 113.566 85.0203H112.462C112.12 85.0203 111.859 85.0523 111.678 85.1163C111.507 85.1697 111.39 85.287 111.326 85.4683C111.262 85.639 111.23 85.911 111.23 86.2843V94.3483C111.23 94.711 111.262 94.983 111.326 95.1643C111.39 95.3457 111.507 95.4683 111.678 95.5323C111.859 95.5857 112.12 95.6123 112.462 95.6123H113.502C114.11 95.6123 114.59 95.5163 114.942 95.3243C115.304 95.1323 115.576 94.8177 115.758 94.3803C115.95 93.943 116.094 93.3457 116.19 92.5883H116.558C116.526 92.8977 116.51 93.303 116.51 93.8043C116.51 94.0177 116.515 94.327 116.526 94.7323C116.547 95.1377 116.579 95.5537 116.622 95.9803C116.078 95.959 115.464 95.9483 114.782 95.9483C114.099 95.9377 113.491 95.9323 112.958 95.9323C112.712 95.9323 112.398 95.9323 112.014 95.9323C111.63 95.9323 111.214 95.9377 110.766 95.9483C110.328 95.9483 109.88 95.9537 109.422 95.9643C108.974 95.9643 108.542 95.9697 108.126 95.9803V95.6603C108.488 95.639 108.76 95.5963 108.942 95.5323C109.123 95.4683 109.24 95.3403 109.294 95.1483C109.358 94.9563 109.39 94.6683 109.39 94.2843V86.3483C109.39 85.9537 109.358 85.6657 109.294 85.4843C109.24 85.2923 109.118 85.1643 108.926 85.1003C108.744 85.0257 108.478 84.983 108.126 84.9723V84.6523C108.542 84.663 108.974 84.6737 109.422 84.6843C109.88 84.6843 110.328 84.6897 110.766 84.7003C111.214 84.7003 111.63 84.7003 112.014 84.7003C112.398 84.7003 112.712 84.7003 112.958 84.7003C113.448 84.7003 114.003 84.7003 114.622 84.7003C115.251 84.6897 115.811 84.6737 116.302 84.6523ZM113.646 90.1243C113.646 90.1243 113.646 90.1777 113.646 90.2843C113.646 90.391 113.646 90.4443 113.646 90.4443H110.75C110.75 90.4443 110.75 90.391 110.75 90.2843C110.75 90.1777 110.75 90.1243 110.75 90.1243H113.646ZM114.11 88.0123C114.067 88.6203 114.046 89.0843 114.046 89.4043C114.056 89.7243 114.062 90.0177 114.062 90.2843C114.062 90.551 114.067 90.8443 114.078 91.1643C114.088 91.4843 114.115 91.9483 114.158 92.5563H113.79C113.736 92.2043 113.667 91.8683 113.582 91.5483C113.496 91.2177 113.342 90.951 113.118 90.7483C112.904 90.5457 112.568 90.4443 112.11 90.4443V90.1243C112.451 90.1243 112.718 90.055 112.91 89.9163C113.112 89.7777 113.267 89.5963 113.374 89.3723C113.48 89.1483 113.555 88.919 113.598 88.6843C113.651 88.439 113.699 88.215 113.742 88.0123H114.11Z" fill="url(#paint19_linear_2744_3552)"/>
<path d="M118.001 84.6523C118.246 84.663 118.561 84.6737 118.945 84.6843C119.339 84.695 119.729 84.7003 120.113 84.7003C120.625 84.7003 121.11 84.695 121.569 84.6843C122.038 84.6737 122.369 84.6683 122.561 84.6683C123.467 84.6683 124.219 84.7857 124.817 85.0203C125.425 85.255 125.873 85.5857 126.161 86.0123C126.459 86.4283 126.609 86.9083 126.609 87.4523C126.609 87.783 126.539 88.135 126.401 88.5083C126.273 88.871 126.043 89.2123 125.713 89.5323C125.382 89.8417 124.934 90.0977 124.369 90.3003C123.803 90.503 123.083 90.6043 122.209 90.6043H120.673V90.2843H122.049C122.763 90.2843 123.307 90.167 123.681 89.9323C124.065 89.687 124.321 89.367 124.449 88.9723C124.587 88.567 124.657 88.119 124.657 87.6283C124.657 86.7857 124.475 86.135 124.113 85.6763C123.75 85.207 123.121 84.9723 122.225 84.9723C121.766 84.9723 121.462 85.063 121.313 85.2443C121.174 85.4257 121.105 85.7937 121.105 86.3483V94.2843C121.105 94.6683 121.137 94.9563 121.201 95.1483C121.265 95.3403 121.387 95.4683 121.569 95.5323C121.75 95.5963 122.017 95.639 122.369 95.6603V95.9803C122.113 95.959 121.787 95.9483 121.393 95.9483C121.009 95.9377 120.614 95.9323 120.209 95.9323C119.761 95.9323 119.339 95.9377 118.945 95.9483C118.561 95.9483 118.246 95.959 118.001 95.9803V95.6603C118.363 95.639 118.635 95.5963 118.817 95.5323C118.998 95.4683 119.115 95.3403 119.169 95.1483C119.233 94.9563 119.265 94.6683 119.265 94.2843V86.3483C119.265 85.9537 119.233 85.6657 119.169 85.4843C119.115 85.2923 118.993 85.1643 118.801 85.1003C118.619 85.0257 118.353 84.983 118.001 84.9723V84.6523ZM120.705 90.3323C121.249 90.3537 121.686 90.3803 122.017 90.4123C122.347 90.4337 122.625 90.455 122.849 90.4763C123.073 90.4977 123.281 90.5243 123.473 90.5563C124.273 90.663 124.854 90.8763 125.217 91.1963C125.59 91.5163 125.846 92.007 125.985 92.6683L126.385 94.3003C126.481 94.759 126.582 95.0843 126.689 95.2763C126.806 95.4683 126.977 95.5643 127.201 95.5643C127.371 95.5537 127.51 95.5057 127.617 95.4203C127.734 95.3243 127.857 95.1963 127.985 95.0363L128.209 95.2123C127.963 95.543 127.707 95.7937 127.441 95.9643C127.174 96.1243 126.817 96.2043 126.369 96.2043C125.91 96.2043 125.515 96.087 125.185 95.8523C124.865 95.607 124.635 95.1483 124.497 94.4763L124.177 92.8763C124.081 92.4177 123.974 92.023 123.857 91.6923C123.739 91.351 123.574 91.0843 123.361 90.8923C123.158 90.7003 122.859 90.6043 122.465 90.6043H120.737L120.705 90.3323Z" fill="url(#paint20_linear_2744_3552)"/>
<path d="M74.6537 115.192C74.8224 115.2 75.0387 115.207 75.3027 115.214C75.5741 115.222 75.8417 115.225 76.1057 115.225C76.4577 115.225 76.7914 115.222 77.1067 115.214C77.4294 115.207 77.6567 115.203 77.7887 115.203C78.7201 115.203 79.4167 115.405 79.8787 115.808C80.3407 116.212 80.5717 116.732 80.5717 117.37C80.5717 117.634 80.5241 117.913 80.4287 118.206C80.3407 118.492 80.1831 118.76 79.9557 119.009C79.7284 119.251 79.4204 119.449 79.0317 119.603C78.6431 119.757 78.1481 119.834 77.5467 119.834H76.4687V119.614H77.4367C77.9281 119.614 78.3021 119.515 78.5587 119.317C78.8227 119.119 78.9987 118.859 79.0867 118.536C79.1821 118.214 79.2297 117.865 79.2297 117.491C79.2297 116.795 79.1051 116.274 78.8557 115.929C78.6064 115.585 78.1737 115.412 77.5577 115.412C77.2424 115.412 77.0334 115.475 76.9307 115.599C76.8354 115.724 76.7877 115.977 76.7877 116.358V121.792C76.7877 122.064 76.8171 122.269 76.8757 122.408C76.9344 122.54 77.0444 122.628 77.2057 122.672C77.3671 122.716 77.6054 122.742 77.9207 122.749V122.98C77.7227 122.966 77.4661 122.958 77.1507 122.958C76.8354 122.951 76.5091 122.947 76.1717 122.947C75.8784 122.947 75.5961 122.951 75.3247 122.958C75.0607 122.958 74.8371 122.966 74.6537 122.98V122.76C74.9031 122.746 75.0901 122.716 75.2147 122.672C75.3394 122.628 75.4201 122.54 75.4567 122.408C75.5007 122.276 75.5227 122.078 75.5227 121.814V116.358C75.5227 116.087 75.5007 115.889 75.4567 115.764C75.4201 115.632 75.3357 115.544 75.2037 115.5C75.0791 115.449 74.8957 115.42 74.6537 115.412V115.192Z" fill="#0C1A2F"/>
<path d="M85.0434 115.038C85.7621 115.038 86.3928 115.196 86.9354 115.511C87.4854 115.827 87.9108 116.281 88.2114 116.875C88.5121 117.462 88.6624 118.177 88.6624 119.02C88.6624 119.842 88.5084 120.56 88.2004 121.176C87.8924 121.792 87.4634 122.273 86.9134 122.617C86.3634 122.962 85.7364 123.134 85.0324 123.134C84.3064 123.134 83.6721 122.977 83.1294 122.661C82.5868 122.346 82.1651 121.891 81.8644 121.297C81.5638 120.703 81.4134 119.988 81.4134 119.152C81.4134 118.331 81.5674 117.612 81.8754 116.996C82.1908 116.38 82.6198 115.9 83.1624 115.555C83.7051 115.211 84.3321 115.038 85.0434 115.038ZM84.9994 115.236C84.5448 115.236 84.1488 115.401 83.8114 115.731C83.4741 116.061 83.2138 116.516 83.0304 117.095C82.8471 117.675 82.7554 118.346 82.7554 119.108C82.7554 119.886 82.8581 120.564 83.0634 121.143C83.2688 121.715 83.5474 122.159 83.8994 122.474C84.2514 122.782 84.6438 122.936 85.0764 122.936C85.5311 122.936 85.9234 122.771 86.2534 122.441C86.5908 122.111 86.8511 121.657 87.0344 121.077C87.2251 120.491 87.3204 119.82 87.3204 119.064C87.3204 118.28 87.2141 117.601 87.0014 117.029C86.7961 116.457 86.5174 116.017 86.1654 115.709C85.8208 115.394 85.4321 115.236 84.9994 115.236Z" fill="#0C1A2F"/>
<path d="M92.5454 115.192V115.412C92.3034 115.42 92.1201 115.449 91.9954 115.5C91.8708 115.544 91.7864 115.632 91.7424 115.764C91.6984 115.889 91.6764 116.087 91.6764 116.358V121.814C91.6764 122.078 91.6984 122.276 91.7424 122.408C91.7864 122.54 91.8708 122.628 91.9954 122.672C92.1201 122.716 92.3034 122.746 92.5454 122.76V122.98C92.3694 122.966 92.1457 122.958 91.8744 122.958C91.6104 122.951 91.3391 122.947 91.0604 122.947C90.7524 122.947 90.4628 122.951 90.1914 122.958C89.9274 122.958 89.7111 122.966 89.5424 122.98V122.76C89.7918 122.746 89.9788 122.716 90.1034 122.672C90.2281 122.628 90.3088 122.54 90.3454 122.408C90.3894 122.276 90.4114 122.078 90.4114 121.814V116.358C90.4114 116.087 90.3894 115.889 90.3454 115.764C90.3088 115.632 90.2244 115.544 90.0924 115.5C89.9678 115.449 89.7844 115.42 89.5424 115.412V115.192C89.7111 115.2 89.9274 115.207 90.1914 115.214C90.4628 115.222 90.7524 115.225 91.0604 115.225C91.3391 115.225 91.6104 115.222 91.8744 115.214C92.1457 115.207 92.3694 115.2 92.5454 115.192Z" fill="#0C1A2F"/>
<path d="M100.428 115.192V115.412C100.179 115.427 99.9915 115.471 99.8669 115.544C99.7422 115.618 99.6579 115.739 99.6139 115.907C99.5772 116.069 99.5589 116.3 99.5589 116.6V123.024C99.5002 123.024 99.4415 123.024 99.3829 123.024C99.3242 123.024 99.2619 123.024 99.1959 123.024L94.5319 116.248V121.528C94.5319 121.836 94.5539 122.078 94.5979 122.254C94.6419 122.423 94.7372 122.544 94.8839 122.617C95.0305 122.691 95.2542 122.738 95.5549 122.76V122.98C95.4155 122.966 95.2359 122.958 95.0159 122.958C94.8032 122.951 94.6015 122.947 94.4109 122.947C94.2275 122.947 94.0442 122.951 93.8609 122.958C93.6775 122.958 93.5272 122.966 93.4099 122.98V122.76C93.6519 122.738 93.8352 122.694 93.9599 122.628C94.0845 122.555 94.1689 122.434 94.2129 122.265C94.2569 122.097 94.2789 121.866 94.2789 121.572V116.358C94.2789 116.087 94.2569 115.889 94.2129 115.764C94.1689 115.632 94.0845 115.544 93.9599 115.5C93.8352 115.449 93.6519 115.42 93.4099 115.412V115.192C93.5272 115.2 93.6775 115.207 93.8609 115.214C94.0442 115.222 94.2275 115.225 94.4109 115.225C94.5722 115.225 94.7299 115.222 94.8839 115.214C95.0379 115.207 95.1735 115.2 95.2909 115.192L99.3059 120.934V116.644C99.3059 116.329 99.2802 116.087 99.2289 115.918C99.1849 115.75 99.0895 115.629 98.9429 115.555C98.7962 115.475 98.5762 115.427 98.2829 115.412V115.192C98.4149 115.2 98.5909 115.207 98.8109 115.214C99.0309 115.222 99.2362 115.225 99.4269 115.225C99.6102 115.225 99.7935 115.222 99.9769 115.214C100.16 115.207 100.311 115.2 100.428 115.192Z" fill="#0C1A2F"/>
<path d="M107.489 115.192C107.46 115.5 107.438 115.801 107.423 116.094C107.416 116.38 107.412 116.6 107.412 116.754C107.412 116.923 107.416 117.084 107.423 117.238C107.431 117.392 107.438 117.524 107.445 117.634H107.192C107.119 117.084 107.02 116.652 106.895 116.336C106.778 116.021 106.606 115.794 106.378 115.654C106.151 115.515 105.825 115.445 105.399 115.445H104.926V121.715C104.926 122.009 104.952 122.229 105.003 122.375C105.062 122.522 105.172 122.621 105.333 122.672C105.502 122.716 105.744 122.746 106.059 122.76V122.98C105.854 122.966 105.59 122.958 105.267 122.958C104.945 122.951 104.615 122.947 104.277 122.947C103.925 122.947 103.592 122.951 103.276 122.958C102.968 122.958 102.719 122.966 102.528 122.98V122.76C102.844 122.746 103.082 122.716 103.243 122.672C103.405 122.621 103.515 122.522 103.573 122.375C103.632 122.229 103.661 122.009 103.661 121.715V115.445H103.177C102.767 115.445 102.444 115.515 102.209 115.654C101.975 115.794 101.799 116.021 101.681 116.336C101.564 116.652 101.469 117.084 101.395 117.634H101.142C101.157 117.524 101.164 117.392 101.164 117.238C101.172 117.084 101.175 116.923 101.175 116.754C101.175 116.6 101.168 116.38 101.153 116.094C101.146 115.801 101.128 115.5 101.098 115.192C101.414 115.2 101.758 115.207 102.132 115.214C102.506 115.222 102.884 115.225 103.265 115.225C103.647 115.225 103.991 115.225 104.299 115.225C104.607 115.225 104.948 115.225 105.322 115.225C105.696 115.225 106.074 115.222 106.455 115.214C106.837 115.207 107.181 115.2 107.489 115.192Z" fill="#0C1A2F"/>
<defs>
<linearGradient id="paint0_linear_2744_3552" x1="99.9001" y1="142.02" x2="161.24" y2="112.02" gradientUnits="userSpaceOnUse">
<stop stop-color="#79380C"/>
<stop offset="0.05" stop-color="#794016"/>
<stop offset="0.21" stop-color="#795A35"/>
<stop offset="0.45" stop-color="#531200"/>
<stop offset="0.67" stop-color="#782A0F"/>
<stop offset="1" stop-color="#79380C"/>
</linearGradient>
<linearGradient id="paint1_linear_2744_3552" x1="154.45" y1="165.92" x2="5.14" y2="16.61" gradientUnits="userSpaceOnUse">
<stop stop-color="#EEBE47"/>
<stop offset="0.12" stop-color="#F8DB77"/>
<stop offset="0.21" stop-color="#FFEE96"/>
<stop offset="0.45" stop-color="#A2621E"/>
<stop offset="0.67" stop-color="#EEA54C"/>
<stop offset="1" stop-color="#EEBE47"/>
</linearGradient>
<linearGradient id="paint2_linear_2744_3552" x1="33.8698" y1="44.99" x2="151.15" y2="162.27" gradientUnits="userSpaceOnUse">
<stop stop-color="#EEBE47"/>
<stop offset="0.12" stop-color="#F8DB77"/>
<stop offset="0.21" stop-color="#FFEE96"/>
<stop offset="0.45" stop-color="#A2621E"/>
<stop offset="0.67" stop-color="#EEA54C"/>
<stop offset="1" stop-color="#EEBE47"/>
</linearGradient>
<linearGradient id="paint3_linear_2744_3552" x1="33.8698" y1="44.99" x2="151.15" y2="162.27" gradientUnits="userSpaceOnUse">
<stop stop-color="#EEBE47"/>
<stop offset="0.12" stop-color="#F8DB77"/>
<stop offset="0.21" stop-color="#FFEE96"/>
<stop offset="0.45" stop-color="#A2621E"/>
<stop offset="0.67" stop-color="#EEA54C"/>
<stop offset="1" stop-color="#EEBE47"/>
</linearGradient>
<radialGradient id="paint4_radial_2744_3552" cx="0" cy="0" r="1" gradientUnits="userSpaceOnUse" gradientTransform="translate(50.2296 31.64) scale(142.59 142.59)">
<stop stop-color="#2C3C4F"/>
<stop offset="0.52" stop-color="#0D1D30"/>
<stop offset="1" stop-color="#060D29"/>
</radialGradient>
<radialGradient id="paint5_radial_2744_3552" cx="0" cy="0" r="1" gradientUnits="userSpaceOnUse" gradientTransform="translate(44.7298 42.7998) scale(162.9 162.9)">
<stop stop-color="#2C3C4F"/>
<stop offset="0.52" stop-color="#0D1D30"/>
<stop offset="1" stop-color="#060D29"/>
</radialGradient>
<radialGradient id="paint6_radial_2744_3552" cx="0" cy="0" r="1" gradientUnits="userSpaceOnUse" gradientTransform="translate(94.7298 -5.85996) scale(215.46 215.46)">
<stop stop-color="#FFF1D1"/>
<stop offset="0.05" stop-color="#FFC94C"/>
<stop offset="0.14" stop-color="#A2621E"/>
<stop offset="0.16" stop-color="#965B1C"/>
<stop offset="0.25" stop-color="#6E4314"/>
<stop offset="0.34" stop-color="#4C2E0E"/>
<stop offset="0.44" stop-color="#301D09"/>
<stop offset="0.55" stop-color="#1B1005"/>
<stop offset="0.66" stop-color="#0C0702"/>
<stop offset="0.8" stop-color="#030201"/>
<stop offset="1"/>
</radialGradient>
<linearGradient id="paint7_linear_2744_3552" x1="23.06" y1="119.23" x2="158.06" y2="119.23" gradientUnits="userSpaceOnUse">
<stop stop-color="#EEBE47"/>
<stop offset="0.12" stop-color="#F8DB77"/>
<stop offset="0.21" stop-color="#FFEE96"/>
<stop offset="0.45" stop-color="#A2621E"/>
<stop offset="0.67" stop-color="#EEA54C"/>
<stop offset="1" stop-color="#EEBE47"/>
</linearGradient>
<linearGradient id="paint8_linear_2744_3552" x1="23.71" y1="119.23" x2="153.73" y2="119.23" gradientUnits="userSpaceOnUse">
<stop stop-color="#EEBE47"/>
<stop offset="0.12" stop-color="#F8DB77"/>
<stop offset="0.21" stop-color="#FFEE96"/>
<stop offset="0.45" stop-color="#A2621E"/>
<stop offset="0.67" stop-color="#EEA54C"/>
<stop offset="1" stop-color="#EEBE47"/>
</linearGradient>
<linearGradient id="paint9_linear_2744_3552" x1="67.4998" y1="37.1602" x2="240.58" y2="232.88" gradientUnits="userSpaceOnUse">
<stop stop-color="#EEBE47"/>
<stop offset="0.12" stop-color="#F8DB77"/>
<stop offset="0.21" stop-color="#FFEE96"/>
<stop offset="0.45" stop-color="#A2621E"/>
<stop offset="0.67" stop-color="#EEA54C"/>
<stop offset="1" stop-color="#EEBE47"/>
</linearGradient>
<linearGradient id="paint10_linear_2744_3552" x1="72.7497" y1="32.5" x2="245.88" y2="228.27" gradientUnits="userSpaceOnUse">
<stop stop-color="#EEBE47"/>
<stop offset="0.12" stop-color="#F8DB77"/>
<stop offset="0.21" stop-color="#FFEE96"/>
<stop offset="0.45" stop-color="#A2621E"/>
<stop offset="0.67" stop-color="#EEA54C"/>
<stop offset="1" stop-color="#EEBE47"/>
</linearGradient>
<linearGradient id="paint11_linear_2744_3552" x1="61.3704" y1="42.57" x2="234.47" y2="238.3" gradientUnits="userSpaceOnUse">
<stop stop-color="#EEBE47"/>
<stop offset="0.12" stop-color="#F8DB77"/>
<stop offset="0.21" stop-color="#FFEE96"/>
<stop offset="0.45" stop-color="#A2621E"/>
<stop offset="0.67" stop-color="#EEA54C"/>
<stop offset="1" stop-color="#EEBE47"/>
</linearGradient>
<radialGradient id="paint12_radial_2744_3552" cx="0" cy="0" r="1" gradientUnits="userSpaceOnUse" gradientTransform="translate(58.5502 115.6) scale(4.64999)">
<stop stop-color="#2C3C4F"/>
<stop offset="0.52" stop-color="#0D1D30"/>
<stop offset="1" stop-color="#060D29"/>
</radialGradient>
<radialGradient id="paint13_radial_2744_3552" cx="0" cy="0" r="1" gradientUnits="userSpaceOnUse" gradientTransform="translate(99.9417 33.8794) rotate(-23.8277) scale(22.2457 35.5519)">
<stop stop-color="#FFC94C"/>
<stop offset="0.14" stop-color="#A2621E"/>
<stop offset="0.16" stop-color="#965B1C"/>
<stop offset="0.25" stop-color="#6E4314"/>
<stop offset="0.34" stop-color="#4C2E0E"/>
<stop offset="0.44" stop-color="#301D09"/>
<stop offset="0.55" stop-color="#1B1005"/>
<stop offset="0.66" stop-color="#0C0702"/>
<stop offset="0.8" stop-color="#030201"/>
<stop offset="1"/>
</radialGradient>
<radialGradient id="paint14_radial_2744_3552" cx="0" cy="0" r="1" gradientUnits="userSpaceOnUse" gradientTransform="translate(121.18 115.6) scale(4.65001 4.64999)">
<stop stop-color="#2C3C4F"/>
<stop offset="0.52" stop-color="#0D1D30"/>
<stop offset="1" stop-color="#060D29"/>
</radialGradient>
<linearGradient id="paint15_linear_2744_3552" x1="59.6729" y1="103.893" x2="128.209" y2="103.893" gradientUnits="userSpaceOnUse">
<stop stop-color="#FFE6BB"/>
<stop offset="1" stop-color="#B08335"/>
</linearGradient>
<linearGradient id="paint16_linear_2744_3552" x1="59.6729" y1="103.893" x2="128.209" y2="103.893" gradientUnits="userSpaceOnUse">
<stop stop-color="#FFE6BB"/>
<stop offset="1" stop-color="#B08335"/>
</linearGradient>
<linearGradient id="paint17_linear_2744_3552" x1="59.6729" y1="103.893" x2="128.209" y2="103.893" gradientUnits="userSpaceOnUse">
<stop stop-color="#FFE6BB"/>
<stop offset="1" stop-color="#B08335"/>
</linearGradient>
<linearGradient id="paint18_linear_2744_3552" x1="59.6729" y1="103.893" x2="128.209" y2="103.893" gradientUnits="userSpaceOnUse">
<stop stop-color="#FFE6BB"/>
<stop offset="1" stop-color="#B08335"/>
</linearGradient>
<linearGradient id="paint19_linear_2744_3552" x1="59.6729" y1="103.893" x2="128.209" y2="103.893" gradientUnits="userSpaceOnUse">
<stop stop-color="#FFE6BB"/>
<stop offset="1" stop-color="#B08335"/>
</linearGradient>
<linearGradient id="paint20_linear_2744_3552" x1="59.6729" y1="103.893" x2="128.209" y2="103.893" gradientUnits="userSpaceOnUse">
<stop stop-color="#FFE6BB"/>
<stop offset="1" stop-color="#B08335"/>
</linearGradient>
</defs>
</svg>
