<svg width="145" height="125" viewBox="0 0 145 125" fill="none" xmlns="http://www.w3.org/2000/svg">
<g clip-path="url(#clip0_2161_2490)">
<g filter="url(#filter0_d_2161_2490)">
<path d="M119.61 34.3299L119.719 86.7444C119.71 87.8217 119.276 88.852 118.511 89.6102C117.745 90.3685 116.711 90.793 115.633 90.7913L26.8446 90.9745C25.7709 90.9797 24.7384 90.5612 23.9712 89.8099C23.2041 89.0586 22.7641 88.0351 22.7469 86.9614L22.6315 34.5428C22.6405 33.4659 23.075 32.4364 23.8402 31.6787C24.6055 30.921 25.6393 30.4967 26.7162 30.4983L115.505 30.3151C116.58 30.3073 117.615 30.725 118.384 31.477C119.153 32.229 119.594 33.2545 119.61 34.3299Z" fill="url(#paint0_linear_2161_2490)"/>
</g>
<path d="M120.304 33.7759L120.417 86.194C120.41 87.2709 119.976 88.3011 119.211 89.0591C118.446 89.8171 117.412 90.2414 116.335 90.2391L27.5461 90.4223C26.4731 90.4296 25.4406 90.0135 24.6725 89.2644C23.9043 88.5153 23.4625 87.4935 23.4429 86.4207L23.3305 33.99C23.3389 32.9129 23.7732 31.883 24.5385 31.1252C25.3039 30.3673 26.3381 29.9432 27.4152 29.9455L116.204 29.7623C117.278 29.7558 118.312 30.1739 119.08 30.9255C119.848 31.6771 120.288 32.7016 120.304 33.7759Z" fill="url(#paint1_linear_2161_2490)"/>
<path style="mix-blend-mode:soft-light" d="M27.6735 90.4354L106.768 90.3336L36.7174 30.0302L27.5892 29.8725C25.2357 29.8766 23.3303 31.8732 23.3338 34.3342L23.4056 85.9837C23.4086 88.4471 25.32 90.4395 27.6735 90.4354Z" fill="url(#paint2_radial_2161_2490)"/>
<g clip-path="url(#clip1_2161_2490)">
<path d="M41.4269 36.4788C41.6697 36.4751 41.9116 36.5097 42.1443 36.5812C42.3304 36.6379 42.5044 36.7305 42.6572 36.854C42.7879 36.9623 42.8913 37.1017 42.9585 37.2602C43.025 37.4156 43.0588 37.5839 43.0577 37.7539C43.0576 37.8932 43.042 38.0319 43.0111 38.1675C42.9793 38.3076 42.9207 38.4398 42.8389 38.5563C42.7444 38.6894 42.6288 38.805 42.497 38.8982C42.33 39.0157 42.146 39.1049 41.9518 39.1624C42.0863 39.4233 42.2061 39.692 42.3104 39.9672C42.43 40.282 42.5496 40.6104 42.6524 40.9548L41.6206 40.9548C41.5261 40.6622 41.4293 40.3734 41.3312 40.0907C41.2477 39.8334 41.1395 39.5853 41.0084 39.35L40.5302 39.35L40.1547 40.9498L39.1982 40.9498L40.2014 36.5911C40.4238 36.5504 40.6414 36.5207 40.8518 36.5035C41.0622 36.4862 41.2547 36.4788 41.4269 36.4788ZM41.3946 37.3194C41.3253 37.3194 41.2535 37.3194 41.1782 37.3268C41.1029 37.3342 41.0443 37.3342 40.9941 37.3392L40.7167 38.5514L41.0455 38.5514C41.2138 38.555 41.3818 38.5359 41.5452 38.4946C41.6615 38.4655 41.7717 38.4149 41.8705 38.3452C41.9473 38.29 42.0083 38.2145 42.0474 38.1267C42.1097 37.9813 42.117 37.817 42.0677 37.6663C42.0461 37.5992 42.0082 37.5389 41.9577 37.491C41.8952 37.4341 41.8213 37.3919 41.7413 37.3676C41.6289 37.3329 41.5119 37.3166 41.3946 37.3194Z" fill="white" fill-opacity="0.37"/>
<path d="M44.6888 41.04C44.4948 41.0443 44.3019 41.0095 44.1208 40.9376C43.9679 40.8756 43.8315 40.777 43.7227 40.65C43.6151 40.5226 43.5337 40.3739 43.4836 40.213C43.4281 40.0322 43.401 39.8434 43.4035 39.6538C43.404 39.3946 43.4443 39.1371 43.523 38.8909C43.6021 38.6408 43.7235 38.4071 43.8817 38.2009C44.0387 37.9964 44.2333 37.8261 44.4544 37.6997C44.6938 37.5667 44.9622 37.4996 45.234 37.5047C45.4271 37.5009 45.6191 37.5357 45.7995 37.6071C45.9531 37.6691 46.0903 37.7677 46.2 37.8947C46.3085 38.022 46.39 38.1712 46.4392 38.333C46.496 38.5131 46.5238 38.7015 46.5217 38.8909C46.521 39.1501 46.4806 39.4076 46.4021 39.6538C46.3276 39.9032 46.2106 40.1368 46.0566 40.3438C45.9023 40.55 45.7081 40.7207 45.4862 40.845C45.2408 40.979 44.9663 41.0461 44.6888 41.04ZM45.1467 38.3095C45.0171 38.308 44.8908 38.3515 44.788 38.4329C44.6825 38.5163 44.5939 38.6203 44.5274 38.7391C44.4557 38.8657 44.4025 39.0025 44.3695 39.1452C44.3363 39.2812 44.319 39.4209 44.3181 39.5612C44.3105 39.7345 44.3468 39.9068 44.4233 40.0611C44.4618 40.1214 44.5157 40.1695 44.579 40.2002C44.6423 40.2309 44.7125 40.243 44.782 40.2352C44.9116 40.2369 45.038 40.1934 45.1407 40.1118C45.2459 40.0283 45.3341 39.9243 45.4002 39.8056C45.471 39.6796 45.5237 39.5436 45.5568 39.402C45.5904 39.2651 45.6081 39.1247 45.6094 38.9835C45.6184 38.8103 45.5838 38.6376 45.509 38.4823C45.4706 38.4211 45.4162 38.3723 45.3521 38.3417C45.288 38.3111 45.2167 38.2999 45.1467 38.3095Z" fill="white" fill-opacity="0.37"/>
<path d="M48.1064 41.0401C47.9247 41.0452 47.7442 41.0085 47.5779 40.9327C47.4374 40.8635 47.3145 40.7612 47.2193 40.634C47.1235 40.5039 47.054 40.3553 47.0148 40.197C46.9707 40.0204 46.949 39.8387 46.9502 39.6563C46.9485 39.1027 47.1516 38.5693 47.5182 38.1652C47.7027 37.9671 47.9245 37.8101 48.1701 37.704C48.4156 37.5978 48.6796 37.5447 48.9457 37.548C49.0149 37.548 49.0839 37.5521 49.1526 37.5603C49.2171 37.5702 49.2829 37.5825 49.3499 37.5998L49.6846 36.1518L50.6411 36L49.8257 39.5033C49.7683 39.7416 49.7517 39.9885 49.7767 40.2328C49.798 40.4562 49.8474 40.6757 49.9238 40.8858L49.1012 41.0093C49.0761 40.9599 49.0521 40.9117 49.0318 40.8661C49.0115 40.8204 48.9912 40.7636 48.972 40.7031C48.8541 40.8034 48.7234 40.8865 48.5835 40.95C48.4322 41.0137 48.2698 41.0444 48.1064 41.0401ZM49.1705 38.3528C49.1484 38.3506 49.1265 38.3473 49.1048 38.3429C49.086 38.3376 49.0668 38.3343 49.0474 38.333C49.0243 38.3307 49.0011 38.3307 48.978 38.333L48.8656 38.333C48.7255 38.3323 48.5876 38.3689 48.4651 38.4392C48.3416 38.508 48.233 38.6021 48.1459 38.7157C48.056 38.8377 47.9861 38.974 47.939 39.1194C47.8902 39.2685 47.8652 39.4248 47.8649 39.5823C47.8565 39.75 47.8916 39.9171 47.9665 40.0662C48.0069 40.1273 48.0626 40.1758 48.1277 40.2067C48.1928 40.2376 48.2648 40.2496 48.336 40.2415C48.425 40.2422 48.5132 40.2228 48.5942 40.1847C48.6883 40.1356 48.7739 40.071 48.8477 39.9933C48.8549 39.8872 48.868 39.7761 48.8872 39.66C48.9075 39.5366 48.9266 39.4329 48.9469 39.3354L49.1705 38.3528Z" fill="white" fill-opacity="0.37"/>
<path d="M52.6467 36.4787C52.8825 36.4757 53.1177 36.5047 53.3461 36.5651C53.5356 36.6129 53.7148 36.6966 53.8746 36.812C54.0172 36.9173 54.133 37.0568 54.212 37.2185C54.2909 37.3802 54.3306 37.5593 54.3277 37.7403C54.3364 38.0221 54.2746 38.3014 54.1484 38.5513C54.0295 38.77 53.8587 38.9539 53.6522 39.0858C53.4247 39.2296 53.174 39.33 52.9121 39.3821C52.6067 39.442 52.2964 39.4709 51.9855 39.4685L51.7464 39.4685L51.4008 40.9498L50.4443 40.9498L51.4499 36.5911C51.6722 36.5503 51.8839 36.5207 52.0835 36.5034C52.2832 36.4861 52.4685 36.4787 52.6467 36.4787ZM52.5666 37.3144C52.4948 37.3144 52.4339 37.3144 52.3848 37.3218L52.2378 37.3317L51.9413 38.6328L52.1804 38.6328C52.3383 38.6341 52.496 38.6204 52.6515 38.5921C52.7803 38.5697 52.9042 38.5237 53.0173 38.4563C53.1163 38.3967 53.1987 38.3116 53.2564 38.2094C53.3159 38.0958 53.3452 37.9681 53.3413 37.8391C53.3478 37.7583 53.3323 37.6773 53.2966 37.6051C53.2609 37.5329 53.2064 37.4724 53.1393 37.4305C52.9614 37.3411 52.764 37.3011 52.5666 37.3144Z" fill="white" fill-opacity="0.37"/>
<path d="M56.8408 38.4121L56.6017 38.3504C56.4834 38.3282 56.3632 38.3187 56.243 38.322C56.1786 38.3224 56.1142 38.3278 56.0505 38.3381C55.9928 38.3456 55.9356 38.3576 55.8795 38.3739L55.2817 40.9501L54.3623 40.9501L55.1024 37.7715C55.2793 37.7147 55.479 37.6579 55.7002 37.6048C55.9447 37.5489 56.1946 37.5219 56.4451 37.5246C56.5592 37.5258 56.673 37.5353 56.7858 37.553C56.8996 37.5693 57.0109 37.6004 57.117 37.6456L56.8408 38.4121Z" fill="white" fill-opacity="0.37"/>
<path d="M58.4603 41.04C58.2663 41.0444 58.0734 41.0096 57.8924 40.9376C57.7393 40.8753 57.6025 40.7768 57.493 40.65C57.3863 40.5219 57.305 40.3734 57.2539 40.213C57.1988 40.0321 57.1722 39.8433 57.175 39.6538C57.1755 39.3946 57.2158 39.1371 57.2946 38.8909C57.3736 38.6408 57.4951 38.4071 57.6533 38.2009C57.8108 37.9966 58.0058 37.8263 58.2272 37.6997C58.4665 37.5667 58.7349 37.4996 59.0067 37.5047C59.1998 37.5011 59.3918 37.5359 59.5722 37.6071C59.7236 37.67 59.8587 37.7685 59.9668 37.8947C60.0748 38.0223 60.1562 38.1715 60.2059 38.333C60.2627 38.5131 60.2906 38.7015 60.2884 38.8909C60.2872 39.1501 60.2468 39.4074 60.1688 39.6538C60.0939 39.9032 59.9765 40.1369 59.8221 40.3438C59.6676 40.5507 59.4724 40.7215 59.2494 40.845C59.0065 40.9778 58.7351 41.0449 58.4603 41.04ZM58.9182 38.3095C58.7886 38.308 58.6623 38.3515 58.5595 38.4329C58.4518 38.5147 58.3612 38.618 58.2929 38.7366C58.2221 38.8635 58.1694 39.0003 58.1363 39.1427C58.1027 39.2787 58.085 39.4184 58.0837 39.5587C58.0744 39.7322 58.1086 39.9053 58.1829 40.0611C58.2216 40.1212 58.2755 40.1692 58.3387 40.1999C58.402 40.2305 58.4721 40.2428 58.5416 40.2352C58.6713 40.2373 58.7978 40.1937 58.9003 40.1118C59.0058 40.0287 59.094 39.9246 59.1597 39.8056C59.2305 39.6796 59.2833 39.5436 59.3164 39.402C59.3506 39.2653 59.3682 39.1247 59.369 38.9835C59.3783 38.8104 59.3441 38.6378 59.2697 38.4823C59.2321 38.423 59.1795 38.3755 59.1175 38.345C59.0555 38.3145 58.9865 38.3022 58.9182 38.3095Z" fill="white" fill-opacity="0.37"/>
<path d="M61.2813 37.7493C61.3507 37.7271 61.426 37.7024 61.5049 37.674C61.5838 37.6456 61.6771 37.6221 61.7763 37.5999C61.8892 37.5739 62.0033 37.5541 62.1183 37.5407C62.2627 37.5238 62.4081 37.516 62.5535 37.5172C62.7205 37.5122 62.887 37.5385 63.0449 37.595C63.1773 37.6472 63.2989 37.7246 63.4036 37.8233C63.5486 37.7379 63.7002 37.6649 63.8567 37.6049C64.026 37.5434 64.2046 37.5137 64.384 37.5172C64.5534 37.5133 64.7222 37.5405 64.8825 37.5974C65.0136 37.6447 65.1317 37.7239 65.2269 37.8283C65.3189 37.9302 65.3868 38.0527 65.4254 38.1863C65.4685 38.3339 65.4895 38.4875 65.4875 38.6418C65.4873 38.7243 65.4825 38.8067 65.4732 38.8886C65.4622 38.9719 65.4463 39.0543 65.4254 39.1355L65.0021 40.9501L64.0827 40.9501L64.4916 39.1763C64.5023 39.1182 64.5155 39.0528 64.5286 38.9788C64.5437 38.9057 64.5514 38.8312 64.5514 38.7566C64.5542 38.6471 64.5264 38.5391 64.4712 38.4455C64.4346 38.3974 64.3864 38.3601 64.3314 38.3372C64.2765 38.3142 64.2167 38.3064 64.158 38.3146C64.0728 38.3144 63.9884 38.3312 63.9093 38.364C63.8304 38.3961 63.761 38.4294 63.7001 38.4615C63.7074 38.4935 63.7114 38.5262 63.712 38.5591L63.712 38.6418C63.712 38.7243 63.7068 38.8068 63.6965 38.8886C63.6865 38.972 63.6709 39.0544 63.6499 39.1355L63.229 40.9501L62.3096 40.9501L62.7161 39.1763C62.7292 39.1182 62.7412 39.0528 62.7555 38.9788C62.77 38.9056 62.7777 38.8312 62.7782 38.7566C62.7806 38.6471 62.7528 38.5393 62.6981 38.4455C62.6607 38.3973 62.6119 38.36 62.5564 38.337C62.5009 38.3141 62.4406 38.3064 62.3813 38.3146C62.3258 38.3143 62.2702 38.3176 62.2151 38.3245L62.0561 38.3529L61.4583 40.9452L60.54 40.9452L61.2813 37.7493Z" fill="white" fill-opacity="0.37"/>
<path d="M66.845 40.2093C66.9298 40.2282 67.0165 40.2369 67.1032 40.2352C67.2543 40.2374 67.404 40.2058 67.542 40.1426C67.6712 40.084 67.786 39.9963 67.878 39.8859C67.9747 39.7685 68.049 39.6332 68.0968 39.4872C68.149 39.321 68.1749 39.1471 68.1733 38.9724C68.1775 38.8087 68.136 38.6471 68.0538 38.507C68.0086 38.4404 67.947 38.3873 67.8753 38.3535C67.8036 38.3196 67.7245 38.3062 67.6461 38.3145C67.5219 38.3135 67.3981 38.3263 67.2766 38.3527L66.845 40.2093ZM69.0868 38.9033C69.09 39.1944 69.0393 39.4836 68.9373 39.755C68.8442 40.0027 68.7044 40.2289 68.526 40.4204C68.3481 40.6102 68.1334 40.7591 67.8959 40.8574C67.6429 40.9642 67.3718 41.018 67.0985 41.0154C66.9573 41.0151 66.8165 41.0019 66.6776 40.9759L66.399 42.1313L65.4844 42.1313L66.5114 37.7158C66.6971 37.6585 66.886 37.6127 67.0769 37.5788C67.3046 37.5363 67.5355 37.5157 67.7668 37.517C67.9694 37.512 68.1708 37.5498 68.3587 37.6281C68.5161 37.6922 68.6569 37.7932 68.7699 37.9232C68.8788 38.051 68.9603 38.2012 69.0091 38.3639C69.0616 38.5385 69.0879 38.7204 69.0868 38.9033Z" fill="white" fill-opacity="0.37"/>
<path d="M70.2165 36.7593L71.173 36.605L70.9339 37.5925L71.961 37.5925L71.7732 38.3714L70.7546 38.3714L70.488 39.5466C70.4642 39.6367 70.4485 39.7288 70.4413 39.8219C70.4326 39.8961 70.4429 39.9715 70.4712 40.0404C70.4995 40.103 70.5476 40.1539 70.6075 40.1848C70.6931 40.2226 70.7859 40.2399 70.8789 40.2354C70.9761 40.2361 71.073 40.2266 71.1683 40.207C71.2641 40.1879 71.3584 40.1615 71.4504 40.128L71.5174 40.8551C71.3863 40.9054 71.2521 40.9467 71.1157 40.9785C70.9471 41.0157 70.7751 41.0331 70.6027 41.0304C70.375 41.0424 70.1477 40.9975 69.9404 40.8995C69.7934 40.8222 69.6759 40.6961 69.6068 40.5415C69.5397 40.3775 69.5106 40.1995 69.5219 40.0218C69.5319 39.8139 69.5603 39.6073 69.6068 39.4046L70.2165 36.7593Z" fill="white" fill-opacity="0.37"/>
<path d="M73.3197 38.8058C73.5668 38.6017 73.7995 38.3935 74.0179 38.1812C74.2367 37.9689 74.4244 37.7726 74.5811 37.5949L75.6189 37.5949C75.3877 37.859 75.1486 38.1178 74.9015 38.3713C74.6544 38.6248 74.3691 38.8931 74.0454 39.1762C74.1385 39.2991 74.2255 39.4268 74.3061 39.5588C74.3958 39.7032 74.4806 39.8538 74.5607 40.0119C74.6409 40.1699 74.7162 40.3303 74.7843 40.4933C74.8485 40.6424 74.9052 40.7948 74.9541 40.95L73.9283 40.95C73.8912 40.8389 73.8446 40.7179 73.7884 40.5883C73.7322 40.4587 73.67 40.3205 73.5971 40.197C73.5241 40.0736 73.4572 39.9403 73.3831 39.8168C73.3089 39.6934 73.2384 39.5798 73.1655 39.4823L72.8199 40.95L71.9053 40.95L73.016 36.1518L73.9725 36L73.3197 38.8058Z" fill="white" fill-opacity="0.37"/>
<path d="M78.417 39.5033C78.3591 39.7416 78.3425 39.9886 78.368 40.2329C78.3874 40.4559 78.4348 40.6754 78.5091 40.8859L77.6877 41.0093C77.6626 40.9599 77.6387 40.9118 77.6172 40.8661C77.5957 40.8204 77.5777 40.7636 77.5574 40.7032C77.4412 40.8029 77.3125 40.886 77.1748 40.95C77.0266 41.0149 76.867 41.0473 76.7061 41.0451C76.5234 41.0498 76.3421 41.0123 76.1753 40.9352C76.0348 40.8647 75.9121 40.7616 75.8166 40.634C75.7224 40.5028 75.6549 40.3534 75.6181 40.1946C75.575 40.0178 75.5537 39.8362 75.5547 39.6539C75.5533 39.3702 75.6052 39.0889 75.7078 38.8256C75.8043 38.5727 75.9472 38.3413 76.1286 38.1442C76.3083 37.9511 76.5232 37.7967 76.7611 37.69C77.0095 37.5765 77.2786 37.5192 77.5502 37.5221C77.5885 37.5221 77.653 37.5221 77.7451 37.5295C77.8372 37.5369 77.9436 37.5431 78.0631 37.5579C78.19 37.5752 78.3158 37.6003 78.4398 37.6332C78.5706 37.6649 78.6977 37.7113 78.8188 37.7714L78.417 39.5033ZM77.781 38.3269C77.7272 38.3195 77.6781 38.3133 77.6339 38.3096C77.5819 38.3043 77.5296 38.3018 77.4773 38.3022C77.3387 38.3021 77.2025 38.34 77.0827 38.4121C76.9609 38.4855 76.8531 38.5813 76.7647 38.6948C76.6719 38.8169 76.6003 38.9547 76.5531 39.1021C76.4974 39.255 76.4679 39.4166 76.4658 39.5798C76.4582 39.748 76.4923 39.9155 76.565 40.0662C76.6039 40.1277 76.6586 40.1769 76.723 40.2083C76.7874 40.2397 76.8589 40.252 76.9297 40.244C77.018 40.2448 77.1054 40.2254 77.1855 40.1872C77.2748 40.1362 77.3555 40.0707 77.4247 39.9934C77.433 39.8872 77.4462 39.7761 77.4653 39.6601C77.4845 39.544 77.5048 39.4329 77.5251 39.3354L77.781 38.3269Z" fill="white" fill-opacity="0.37"/>
<path d="M79.9195 40.9498L79.0049 40.9498L79.7773 37.5947L80.6967 37.5947L79.9195 40.9498ZM80.3619 37.1849C80.2381 37.186 80.1175 37.1447 80.0188 37.0676C79.9662 37.0254 79.9246 36.9703 79.8977 36.9074C79.8708 36.8445 79.8594 36.7757 79.8645 36.7072C79.8646 36.622 79.8821 36.5379 79.9159 36.4603C79.9485 36.3809 79.9951 36.3084 80.0534 36.2467C80.1116 36.1883 80.1802 36.1421 80.2555 36.1109C80.3309 36.0768 80.4123 36.0592 80.4946 36.0591C80.6202 36.0597 80.7421 36.1031 80.8414 36.1825C80.8938 36.2249 80.9352 36.28 80.9621 36.3428C80.989 36.4057 81.0005 36.4744 80.9956 36.543C80.9951 36.6282 80.9772 36.7123 80.943 36.7899C80.9099 36.867 80.8623 36.9366 80.8031 36.9948C80.7441 37.0518 80.6762 37.0981 80.6022 37.1318C80.5262 37.1655 80.4446 37.1835 80.3619 37.1849Z" fill="white" fill-opacity="0.37"/>
<path d="M39.4022 45.9902C39.2965 45.9906 39.191 45.9791 39.0878 45.9556C39.0056 45.938 38.9255 45.9115 38.8486 45.8766L38.924 45.6631C38.9953 45.6925 39.0684 45.7172 39.1428 45.7371C39.2306 45.7603 39.3211 45.7715 39.4118 45.7704C39.4986 45.7737 39.5849 45.7546 39.6629 45.7149C39.6933 45.6986 39.7187 45.6737 39.7361 45.6431C39.7534 45.6125 39.762 45.5775 39.7609 45.5421C39.761 45.5108 39.7539 45.4799 39.7402 45.452C39.7264 45.4241 39.7065 45.4 39.682 45.3816C39.6043 45.3247 39.5172 45.2828 39.4249 45.2582C39.3199 45.2254 39.2175 45.1842 39.1188 45.1347C39.0456 45.0973 38.9817 45.0427 38.9323 44.9755C38.8866 44.9067 38.8639 44.8243 38.8678 44.7409C38.8668 44.6821 38.8794 44.6239 38.9045 44.571C38.9297 44.5182 38.9667 44.4724 39.0124 44.4373C39.1508 44.3441 39.3152 44.3007 39.4799 44.3138C39.567 44.314 39.6539 44.3227 39.7394 44.3398C39.8061 44.3498 39.8703 44.3733 39.9283 44.4089L39.9283 44.6286C39.8642 44.6002 39.7978 44.5778 39.7298 44.562C39.6449 44.5402 39.5578 44.529 39.4704 44.5286C39.3759 44.5199 39.2811 44.5415 39.199 44.5903C39.1763 44.605 39.1573 44.6252 39.1438 44.649C39.1303 44.6729 39.1225 44.6997 39.1212 44.7274C39.12 44.7663 39.1323 44.8044 39.1559 44.8348C39.19 44.8716 39.2305 44.9014 39.2755 44.9224C39.356 44.9565 39.4382 44.9862 39.5218 45.0113C39.608 45.0419 39.6919 45.0791 39.7728 45.1224C39.8439 45.159 39.906 45.2118 39.9546 45.2767C40.002 45.3462 40.0256 45.43 40.0215 45.5149C40.0221 45.5964 40.0015 45.6766 39.9618 45.747C39.9178 45.8247 39.8507 45.8858 39.7705 45.921C39.6541 45.9715 39.5284 45.9951 39.4022 45.9902Z" fill="white" fill-opacity="0.37"/>
<path d="M40.6837 45.9901C40.6313 45.9896 40.5793 45.9808 40.5294 45.9642C40.481 45.9473 40.4391 45.9149 40.4099 45.8716C40.3789 45.8136 40.3644 45.7477 40.368 45.6815L40.368 45.3927C40.3622 45.2999 40.3895 45.2082 40.4446 45.1347C40.4978 45.0741 40.5673 45.0311 40.6442 45.0113L40.6442 45.0038L40.3154 44.8804L40.3154 44.7841C40.3158 44.7012 40.3432 44.6207 40.3931 44.5558C40.4509 44.4785 40.5271 44.4181 40.6143 44.3805C40.7249 44.3331 40.8438 44.3104 40.9635 44.3138C41.0741 44.3126 41.184 44.3327 41.2875 44.3731C41.3826 44.4076 41.4657 44.4703 41.5266 44.5533C41.5911 44.6457 41.6236 44.7579 41.6187 44.8718L41.6187 45.9618L41.3616 45.9618L41.3616 44.8965C41.3663 44.8431 41.3578 44.7894 41.3369 44.7404C41.316 44.6914 41.2833 44.6487 41.242 44.6162C41.158 44.5572 41.0579 44.5274 40.9563 44.5311C40.857 44.5261 40.7586 44.5523 40.6741 44.6064C40.6428 44.6264 40.6171 44.6544 40.5993 44.6877C40.5815 44.721 40.5723 44.7584 40.5725 44.7965L40.8989 44.9557L40.8762 45.0977C40.812 45.0997 40.7494 45.1189 40.6944 45.1532C40.6663 45.179 40.6447 45.2114 40.6316 45.2478C40.6184 45.2842 40.6142 45.3233 40.6191 45.3618L40.6191 45.6507C40.6172 45.6674 40.619 45.6843 40.6243 45.7002C40.6296 45.7161 40.6384 45.7305 40.6499 45.7424C40.6614 45.7542 40.6754 45.7633 40.6907 45.7688C40.7061 45.7743 40.7225 45.7761 40.7387 45.7741C40.7753 45.7747 40.8118 45.7684 40.8463 45.7556L40.881 45.9432C40.8485 45.9612 40.8133 45.9733 40.7769 45.979C40.7461 45.9847 40.715 45.9884 40.6837 45.9901Z" fill="white" fill-opacity="0.37"/>
<path d="M42.2511 45.9616L41.9678 44.3408L42.2296 44.3408L42.3384 45.0457C42.3492 45.1025 42.3587 45.1765 42.3683 45.2666C42.3779 45.3567 42.3898 45.4654 42.403 45.5888L42.4113 45.5888C42.4365 45.4654 42.4592 45.3555 42.4831 45.2642C42.507 45.1728 42.5285 45.0975 42.5453 45.0358L42.7378 44.3408L42.947 44.3408L43.1407 45.0358C43.1586 45.0975 43.1789 45.1741 43.2005 45.2642C43.222 45.3543 43.2483 45.4641 43.2758 45.5888L43.2877 45.5888C43.2985 45.4654 43.3093 45.358 43.3176 45.2666C43.326 45.1753 43.338 45.1025 43.3475 45.0457L43.4671 44.3408L43.7265 44.3408L43.4396 45.9616L43.1909 45.9616L42.9267 45.0815C42.9108 45.0308 42.8977 44.9793 42.8872 44.9272C42.8753 44.8745 42.8633 44.8041 42.8513 44.7161L42.8418 44.7161C42.8316 44.788 42.8176 44.8593 42.7999 44.9296C42.7844 44.9827 42.77 45.0346 42.7569 45.0815L42.501 45.9616L42.2511 45.9616Z" fill="white" fill-opacity="0.37"/>
<path d="M44.5104 45.9902C44.405 45.9907 44.3 45.9791 44.1971 45.9556C44.115 45.9379 44.0349 45.9114 43.958 45.8766L44.0333 45.663C44.1047 45.6925 44.1777 45.7172 44.2521 45.7371C44.34 45.7603 44.4304 45.7715 44.5211 45.7704C44.6084 45.7737 44.695 45.7546 44.7734 45.7149C44.8045 45.699 44.8305 45.6743 44.8485 45.6437C44.8665 45.6131 44.8757 45.5779 44.875 45.5421C44.8736 45.5095 44.8643 45.4777 44.848 45.4497C44.8317 45.4217 44.809 45.3983 44.7818 45.3816C44.7045 45.3246 44.6178 45.2828 44.5259 45.2582C44.4208 45.2256 44.3185 45.1844 44.2198 45.1347C44.1461 45.0976 44.0818 45.043 44.0321 44.9755C43.9869 44.9064 43.9643 44.8242 43.9676 44.7409C43.9666 44.6821 43.9792 44.6239 44.0043 44.571C44.0295 44.5182 44.0665 44.4724 44.1122 44.4373C44.2511 44.3441 44.4158 44.3007 44.5809 44.3138C44.6676 44.314 44.7541 44.3227 44.8392 44.3398C44.9062 44.3501 44.9708 44.3735 45.0293 44.4089L45.0293 44.6286C44.9648 44.6004 44.8979 44.5781 44.8296 44.562C44.7447 44.5402 44.6576 44.529 44.5702 44.5286C44.4757 44.5199 44.3809 44.5415 44.2988 44.5903C44.2762 44.6051 44.2575 44.6253 44.2442 44.6491C44.2308 44.673 44.2233 44.6998 44.2222 44.7274C44.2204 44.7664 44.2328 44.8047 44.2569 44.8348C44.2908 44.8718 44.3315 44.9015 44.3765 44.9224C44.4339 44.9496 44.514 44.9804 44.6156 45.015C44.7018 45.0456 44.7857 45.0828 44.8667 45.1261C44.938 45.1624 45.0002 45.2152 45.0484 45.2804C45.0962 45.3498 45.1201 45.4336 45.1166 45.5186C45.1166 45.6 45.096 45.68 45.0568 45.7507C45.012 45.8282 44.9446 45.8891 44.8643 45.9247C44.7521 45.9719 44.6315 45.9942 44.5104 45.9902Z" fill="white" fill-opacity="0.37"/>
<path d="M44.3223 44.0842L44.3223 43.9607C44.3627 43.9519 44.4026 43.9408 44.4418 43.9274C44.4789 43.9132 44.5135 43.8933 44.5447 43.8682C44.5569 43.8568 44.5667 43.8429 44.5735 43.8274C44.5803 43.8119 44.5839 43.7951 44.5841 43.7781C44.5845 43.7667 44.5827 43.7554 44.5788 43.7448C44.5749 43.7342 44.569 43.7245 44.5614 43.7163C44.5528 43.7072 44.5423 43.7001 44.5307 43.6956C44.5192 43.6911 44.5068 43.6894 44.4944 43.6904C44.474 43.6908 44.4537 43.695 44.4347 43.7028L44.382 43.7237L44.3259 43.562C44.3623 43.5306 44.4059 43.5093 44.4526 43.5003C44.4917 43.4902 44.5318 43.4849 44.5722 43.4843C44.6378 43.4806 44.7022 43.5037 44.7515 43.5485C44.7723 43.5701 44.7886 43.596 44.7993 43.6245C44.81 43.6529 44.8149 43.6834 44.8137 43.7139C44.8141 43.7463 44.8089 43.7785 44.7981 43.8089C44.7871 43.8358 44.7722 43.8608 44.7539 43.883L45.2166 43.883L45.2166 44.0891L44.3223 44.0842Z" fill="white" fill-opacity="0.37"/>
<path d="M46.0207 45.9903C45.9367 45.9968 45.8523 45.9855 45.7727 45.9571C45.6931 45.9286 45.62 45.8836 45.558 45.8249C45.4443 45.6764 45.39 45.4887 45.4061 45.3002C45.4061 45.2607 45.4061 45.2188 45.4061 45.1768C45.4061 45.1348 45.4133 45.0842 45.4181 45.0385L46.0159 45.0385L46.0159 45.2459L45.6572 45.2459L45.6572 45.3052C45.6531 45.4049 45.6669 45.5045 45.6978 45.599C45.7077 45.6298 45.7233 45.6583 45.7438 45.6828C45.7643 45.7074 45.7893 45.7276 45.8174 45.7422C45.8785 45.7722 45.9458 45.7866 46.0135 45.7841C46.0904 45.7864 46.1667 45.7694 46.2359 45.7348C46.3048 45.6933 46.357 45.6275 46.3829 45.5496C46.4223 45.4271 46.4398 45.2983 46.4343 45.1694C46.4468 45.002 46.4088 44.8347 46.3255 44.6904C46.2808 44.6355 46.2238 44.5928 46.1594 44.5659C46.095 44.539 46.0252 44.5288 45.9561 44.5361C45.8678 44.5359 45.78 44.5492 45.6955 44.5756C45.6119 44.5992 45.5315 44.6336 45.4563 44.6781L45.4563 44.4312C45.527 44.3936 45.6022 44.3657 45.6799 44.3485C45.7805 44.3263 45.8831 44.3151 45.986 44.3152C46.1294 44.3087 46.2715 44.3456 46.3949 44.4213C46.5007 44.4904 46.5807 44.5944 46.6221 44.7164C46.6727 44.8607 46.697 45.0134 46.6938 45.1669C46.6969 45.3188 46.6742 45.47 46.6268 45.6138C46.5886 45.7296 46.5142 45.8291 46.4152 45.8965C46.2947 45.965 46.1581 45.9975 46.0207 45.9903Z" fill="white" fill-opacity="0.37"/>
<path d="M47.8626 45.99C47.7529 45.9929 47.6443 45.967 47.5469 45.9147C47.4627 45.8705 47.3978 45.7951 47.3652 45.7036L47.3544 45.7036L47.3401 45.9616L47.1309 45.9616L47.1309 44.3408L47.3867 44.3408L47.3867 45.2802C47.3806 45.4089 47.4197 45.5356 47.4967 45.637C47.5369 45.6815 47.5862 45.7163 47.641 45.739C47.6957 45.7616 47.7547 45.7714 47.8136 45.7678C48.0359 45.7678 48.1471 45.6444 48.1471 45.4086L48.1471 44.3408L48.4006 44.3408L48.4006 45.4259C48.4075 45.5037 48.3985 45.5821 48.3742 45.6561C48.3499 45.7301 48.3108 45.798 48.2595 45.8554C48.1489 45.9513 48.0067 45.9995 47.8626 45.99Z" fill="white" fill-opacity="0.37"/>
<path d="M49.4162 45.9899C49.2655 45.9996 49.1165 45.9517 48.9978 45.8554C48.9455 45.8037 48.9048 45.7407 48.8788 45.6709C48.8528 45.6011 48.8419 45.5263 48.8471 45.4517L48.8471 45.2715C48.8441 45.1925 48.8576 45.1138 48.8866 45.0407C48.9123 44.9866 48.9431 44.9354 48.9786 44.8876C49.0109 44.8456 49.0396 44.8061 49.0635 44.7716C49.0872 44.7351 49.0993 44.692 49.0982 44.6481C49.0996 44.6322 49.0976 44.6161 49.0924 44.601C49.0873 44.5858 49.079 44.572 49.0683 44.5605C49.0475 44.5416 49.0206 44.5314 48.993 44.5321C48.9677 44.5327 48.9427 44.5373 48.9188 44.5457C48.893 44.5529 48.8678 44.5624 48.8435 44.5741L48.7861 44.3938C48.8249 44.3678 48.8685 44.3502 48.9141 44.342C48.9582 44.3328 49.003 44.3279 49.048 44.3272C49.0891 44.3228 49.1307 44.3281 49.1697 44.3426C49.2086 44.3571 49.2438 44.3806 49.2728 44.4111C49.3188 44.4728 49.3425 44.5493 49.3397 44.6271C49.3416 44.6894 49.3289 44.7513 49.3026 44.8074C49.2778 44.8555 49.2502 44.902 49.2201 44.9469C49.1888 44.9913 49.1612 45.0383 49.1376 45.0876C49.1156 45.144 49.1054 45.2046 49.1078 45.2653L49.1078 45.4381C49.1037 45.5108 49.1186 45.5833 49.1508 45.648C49.1767 45.6968 49.2193 45.7338 49.2704 45.7517C49.3189 45.7704 49.3704 45.78 49.4222 45.7801C49.6183 45.7801 49.7163 45.685 49.7163 45.4937L49.7163 44.3408L49.971 44.3408L49.971 45.5048C49.9746 45.5712 49.964 45.6377 49.9398 45.6994C49.9156 45.7611 49.8785 45.8164 49.8311 45.8616C49.7132 45.9564 49.5652 46.0022 49.4162 45.9899Z" fill="white" fill-opacity="0.37"/>
<path d="M50.8714 45.9618L50.8714 44.8114C50.8746 44.7737 50.8705 44.7358 50.8594 44.6998C50.8483 44.6638 50.8305 44.6304 50.8069 44.6015C50.7777 44.5755 50.7436 44.5558 50.7068 44.5437C50.6701 44.5316 50.6313 44.5274 50.5929 44.5312C50.5271 44.531 50.4618 44.5414 50.3992 44.562C50.3389 44.5817 50.2805 44.6069 50.2246 44.6373L50.2246 44.4003C50.2769 44.377 50.3308 44.358 50.386 44.3435C50.4692 44.3218 50.5549 44.3115 50.6407 44.3127C50.7682 44.3044 50.8946 44.341 50.9994 44.4164C51.047 44.4609 51.0837 44.5165 51.1066 44.5785C51.1294 44.6405 51.1377 44.7071 51.1309 44.7731L51.1309 45.9618L50.8714 45.9618Z" fill="white" fill-opacity="0.37"/>
<path d="M52.195 45.9862C51.9559 45.9862 51.7969 45.943 51.7024 45.8529C51.6548 45.8051 51.6177 45.7473 51.5936 45.6834C51.5695 45.6195 51.5589 45.551 51.5625 45.4826C51.5593 45.4086 51.5719 45.3349 51.5996 45.2666C51.6206 45.2172 51.654 45.1746 51.6964 45.1431C51.7331 45.1191 51.7736 45.102 51.816 45.0925L51.816 45.0814C51.7734 45.0683 51.733 45.0483 51.6964 45.0221C51.6531 44.9933 51.6174 44.9539 51.5924 44.9073C51.5643 44.8501 51.5508 44.7863 51.553 44.7222C51.5527 44.6549 51.5678 44.5885 51.5972 44.5284C51.6313 44.4629 51.6833 44.4093 51.7467 44.3741C51.8311 44.3318 51.9243 44.3114 52.0181 44.3148C52.0665 44.3156 52.1148 44.3193 52.1627 44.3259C52.2046 44.329 52.2453 44.3412 52.2823 44.3617L52.2345 44.5654C52.2089 44.5552 52.1825 44.5473 52.1556 44.542C52.1209 44.535 52.0857 44.5313 52.0503 44.5308C51.9861 44.5258 51.9225 44.5471 51.8734 44.5901C51.8541 44.6099 51.839 44.6336 51.8291 44.6597C51.8193 44.6859 51.8148 44.7139 51.816 44.7419C51.812 44.799 51.83 44.8554 51.8662 44.8987C51.9009 44.9349 51.9449 44.9602 51.993 44.9715C52.0472 44.9836 52.1025 44.9894 52.158 44.9888L52.2129 44.9888L52.2129 45.1826L52.158 45.1826C52.0683 45.1755 51.9788 45.1989 51.9033 45.2493C51.8753 45.275 51.8536 45.3072 51.8399 45.3433C51.8262 45.3793 51.8209 45.4181 51.8244 45.4567C51.8232 45.5112 51.8343 45.5652 51.8567 45.6147C51.8825 45.6648 51.9249 45.7038 51.9762 45.7245C52.0488 45.7557 52.1273 45.7696 52.2058 45.7653C52.2584 45.7718 52.3119 45.7673 52.3628 45.752C52.4137 45.7367 52.4612 45.711 52.5023 45.6764C52.5589 45.6035 52.5874 45.5116 52.5824 45.4184L52.5824 44.3407L52.8359 44.3407L52.8359 45.406C52.8425 45.4883 52.8313 45.5711 52.8032 45.6483C52.7751 45.7256 52.7307 45.7955 52.6733 45.8529C52.5342 45.9546 52.3647 46.0018 52.195 45.9862Z" fill="white" fill-opacity="0.37"/>
<path d="M53.6002 45.8013C53.6013 45.8529 53.5829 45.903 53.5488 45.9408C53.5312 45.9608 53.5096 45.9765 53.4854 45.9867C53.4612 45.997 53.4351 46.0015 53.4089 46C53.3828 46.0013 53.3568 45.9966 53.3326 45.9864C53.3085 45.9761 53.2868 45.9606 53.269 45.9408C53.236 45.9026 53.2178 45.8531 53.2178 45.8019C53.2178 45.7507 53.236 45.7013 53.269 45.663C53.2868 45.6432 53.3085 45.6277 53.3326 45.6175C53.3568 45.6072 53.3828 45.6026 53.4089 45.6038C53.4351 45.6023 53.4612 45.6068 53.4854 45.6171C53.5096 45.6273 53.5312 45.643 53.5488 45.663C53.5825 45.7006 53.6009 45.7501 53.6002 45.8013Z" fill="white" fill-opacity="0.37"/>
<path d="M54.6376 45.9989C54.5285 46.0013 54.42 45.9811 54.3184 45.9397C54.2317 45.9026 54.1538 45.8466 54.0901 45.7755C54.0273 45.7013 53.9805 45.6142 53.9526 45.52C53.9218 45.4152 53.9069 45.3061 53.9083 45.1966C53.9066 45.0863 53.9232 44.9765 53.9573 44.8719C53.9882 44.7789 54.0357 44.6926 54.0972 44.6176C54.1589 44.5457 54.2353 44.4888 54.3208 44.451C54.415 44.4085 54.5169 44.3875 54.6197 44.3893C54.6866 44.3895 54.7534 44.3953 54.8194 44.4065C54.8853 44.4172 54.9499 44.4354 55.0119 44.4609L54.9521 44.6954C54.9072 44.6746 54.8603 44.6589 54.8122 44.6485C54.7572 44.6364 54.7011 44.6302 54.6448 44.63C54.5808 44.6261 54.5168 44.637 54.4574 44.662C54.398 44.687 54.3448 44.7254 54.3017 44.7744C54.2146 44.8961 54.1723 45.0457 54.1821 45.1966C54.1809 45.2736 54.1901 45.3505 54.2096 45.4249C54.2251 45.4898 54.2541 45.5505 54.2945 45.6027C54.3349 45.6539 54.3871 45.6939 54.4463 45.7187C54.517 45.7462 54.5921 45.7592 54.6675 45.757C54.7797 45.7591 54.891 45.7364 54.9939 45.6903L55.031 45.9212C55.0112 45.9343 54.9894 45.9439 54.9664 45.9496C54.9346 45.9594 54.9023 45.9672 54.8696 45.973L54.75 45.9915C54.7127 45.9962 54.6752 45.9987 54.6376 45.9989Z" fill="white" fill-opacity="0.37"/>
<path d="M56.6336 45.1926C56.6349 45.3052 56.6171 45.4171 56.581 45.5234C56.5499 45.6178 56.5007 45.7047 56.4363 45.7789C56.3748 45.8493 56.2993 45.9053 56.2151 45.9431C56.1265 45.9812 56.0313 46.0005 55.9353 45.9999C55.8389 46.0004 55.7434 45.9811 55.6543 45.9431C55.5704 45.9047 55.4951 45.8488 55.4332 45.7789C55.3697 45.704 55.3206 45.6173 55.2885 45.5234C55.2215 45.3087 55.2215 45.0777 55.2885 44.863C55.32 44.7692 55.3692 44.6828 55.4332 44.6087C55.4941 44.5373 55.5697 44.4808 55.6543 44.4433C55.7435 44.4057 55.839 44.3868 55.9353 44.3877C56.0312 44.3867 56.1264 44.4056 56.2151 44.4433C56.3002 44.4801 56.3759 44.5367 56.4363 44.6087C56.5011 44.6822 56.5504 44.7688 56.581 44.863C56.6168 44.9689 56.6346 45.0804 56.6336 45.1926ZM56.3574 45.1926C56.3629 45.0453 56.3208 44.9002 56.2378 44.7803C56.2022 44.7314 56.1556 44.692 56.1021 44.6656C56.0487 44.6392 55.9898 44.6264 55.9305 44.6284C55.8711 44.6266 55.8122 44.6395 55.7585 44.6659C55.7049 44.6923 55.6581 44.7315 55.6221 44.7803C55.5485 44.9046 55.5096 45.0475 55.5096 45.1932C55.5096 45.3389 55.5485 45.4817 55.6221 45.6061C55.6579 45.6551 55.7047 45.6945 55.7583 45.7209C55.812 45.7473 55.8711 45.76 55.9305 45.7579C55.9898 45.7603 56.0488 45.7476 56.1023 45.7212C56.1559 45.6947 56.2024 45.6552 56.2378 45.6061C56.3208 45.4857 56.3629 45.3403 56.3574 45.1926Z" fill="white" fill-opacity="0.37"/>
<path d="M57.0078 44.4695C57.0688 44.4547 57.1501 44.4386 57.2469 44.4213C57.3623 44.4013 57.4791 44.3918 57.5961 44.393C57.6776 44.3906 57.7587 44.4044 57.8352 44.4337C57.8983 44.4584 57.9548 44.4981 58.0002 44.5497C58.0133 44.5398 58.0337 44.5263 58.0624 44.509C58.0946 44.4869 58.1296 44.4694 58.1664 44.4571C58.2127 44.4389 58.2603 44.424 58.3087 44.4127C58.3623 44.3996 58.4173 44.393 58.4724 44.393C58.5689 44.3898 58.6649 44.407 58.7546 44.4436C58.8233 44.4754 58.882 44.5263 58.9244 44.5905C58.967 44.6593 58.9947 44.7367 59.0057 44.8176C59.0216 44.9101 59.0292 45.0039 59.0284 45.0978L59.0284 45.9619L58.7618 45.9619L58.7618 45.1571C58.762 45.0795 58.758 45.0021 58.7498 44.925C58.7435 44.8682 58.7264 44.8133 58.6996 44.7633C58.6782 44.721 58.6443 44.6868 58.6028 44.6658C58.5538 44.6456 58.5011 44.6371 58.4485 44.6411C58.3727 44.6384 58.2971 44.6514 58.2262 44.6793C58.1836 44.695 58.1434 44.7166 58.1066 44.7435C58.1225 44.7988 58.1341 44.8554 58.1413 44.9126C58.1501 44.976 58.1545 45.04 58.1544 45.104L58.1544 45.9681L57.8878 45.9681L57.8878 45.1571C57.8888 45.0794 57.8836 45.0018 57.8722 44.925C57.865 44.8683 57.8475 44.8134 57.8208 44.7633C57.7993 44.7206 57.7649 44.6864 57.7228 44.6658C57.6745 44.6431 57.6216 44.6325 57.5686 44.6349L57.4813 44.6349C57.4514 44.6349 57.4227 44.6349 57.394 44.6423L57.3199 44.6522C57.3043 44.6536 57.289 44.6573 57.2744 44.6633L57.2744 45.9619L57.0078 45.9619L57.0078 44.4695Z" fill="white" fill-opacity="0.37"/>
<mask id="mask0_2161_2490" style="mask-type:luminance" maskUnits="userSpaceOnUse" x="29" y="36" width="9" height="10">
<path d="M37.3741 36.5347L29 36.5347L29 45.1805L37.3741 45.1805L37.3741 36.5347Z" fill="white"/>
</mask>
<g mask="url(#mask0_2161_2490)">
<mask id="mask1_2161_2490" style="mask-type:luminance" maskUnits="userSpaceOnUse" x="28" y="36" width="10" height="10">
<path d="M33.1844 36.5347C32.911 36.5351 32.6383 36.5628 32.3701 36.6174C31.8308 36.7287 31.3178 36.948 30.8601 37.263C30.4038 37.5793 30.0115 37.9843 29.7051 38.4554C29.5524 38.6931 29.4226 38.9457 29.3177 39.2096C29.0007 39.9995 28.9179 40.8688 29.0796 41.7073C29.2414 42.5458 29.6405 43.3159 30.2264 43.9202C30.6145 44.322 31.0757 44.6408 31.5834 44.8583C31.8372 44.967 32.1007 45.0497 32.3701 45.1052C32.9093 45.2155 33.4642 45.2155 34.0034 45.1052C34.5427 44.9951 35.0555 44.7756 35.5122 44.4596C35.7408 44.3027 35.9535 44.1223 36.1471 43.9214C36.3414 43.7217 36.5161 43.5025 36.6684 43.2672C36.8202 43.0313 36.9495 42.7807 37.0546 42.5191C37.1605 42.2578 37.2406 41.9861 37.2937 41.7081C37.4021 41.1516 37.4021 40.5784 37.2937 40.0219C37.2406 39.7439 37.1605 39.4722 37.0546 39.2109C36.9492 38.9494 36.8199 38.6989 36.6684 38.4628C36.5161 38.2275 36.3414 38.0083 36.1471 37.8086C35.9535 37.6077 35.7408 37.4273 35.5122 37.2704C35.2861 37.114 35.0458 36.9805 34.7949 36.8717C34.5415 36.763 34.2784 36.6804 34.0093 36.6248C33.7378 36.5671 33.4615 36.5369 33.1844 36.5347Z" fill="white"/>
</mask>
<g mask="url(#mask1_2161_2490)">
<path d="M29 36.5347L37.3694 36.5347L37.3694 45.1756L29 45.1756L29 36.5347Z" fill="white" fill-opacity="0.37"/>
</g>
</g>
</g>
<path d="M85.9063 80.752C85.9983 80.756 86.1163 80.76 86.2603 80.764C86.4083 80.768 86.5543 80.77 86.6982 80.77C86.8903 80.77 87.0723 80.768 87.2443 80.764C87.4203 80.76 87.5443 80.758 87.6163 80.758C88.1243 80.758 88.5043 80.868 88.7562 81.088C89.0082 81.308 89.1343 81.592 89.1343 81.94C89.1343 82.084 89.1083 82.236 89.0563 82.396C89.0083 82.552 88.9223 82.698 88.7983 82.834C88.6743 82.966 88.5063 83.074 88.2943 83.158C88.0823 83.242 87.8123 83.284 87.4843 83.284L86.8963 83.284L86.8963 83.164L87.4243 83.164C87.6923 83.164 87.8963 83.11 88.0363 83.002C88.1803 82.894 88.2763 82.752 88.3243 82.576C88.3763 82.4 88.4023 82.21 88.4023 82.006C88.4023 81.626 88.3343 81.342 88.1983 81.154C88.0623 80.966 87.8263 80.872 87.4902 80.872C87.3183 80.872 87.2043 80.906 87.1483 80.974C87.0963 81.042 87.0703 81.18 87.0703 81.388L87.0703 84.352C87.0703 84.5 87.0863 84.612 87.1183 84.688C87.1503 84.76 87.2103 84.808 87.2983 84.832C87.3863 84.856 87.5163 84.87 87.6883 84.874L87.6883 85C87.5803 84.992 87.4403 84.988 87.2682 84.988C87.0962 84.984 86.9183 84.982 86.7343 84.982C86.5743 84.982 86.4203 84.984 86.2722 84.988C86.1283 84.988 86.0063 84.992 85.9063 85L85.9063 84.88C86.0423 84.872 86.1443 84.856 86.2123 84.832C86.2803 84.808 86.3243 84.76 86.3443 84.688C86.3683 84.616 86.3803 84.508 86.3803 84.364L86.3803 81.388C86.3803 81.24 86.3683 81.132 86.3443 81.064C86.3243 80.992 86.2783 80.944 86.2063 80.92C86.1383 80.892 86.0383 80.876 85.9063 80.872L85.9063 80.752Z" fill="#737373"/>
<path d="M91.1656 80.752L91.1656 80.872C91.0296 80.876 90.9256 80.892 90.8536 80.92C90.7856 80.944 90.7396 80.992 90.7156 81.064C90.6916 81.132 90.6796 81.24 90.6796 81.388L90.6796 84.388C90.6796 84.524 90.6896 84.626 90.7096 84.694C90.7336 84.762 90.7776 84.808 90.8416 84.832C90.9096 84.852 91.0056 84.862 91.1296 84.862L91.5196 84.862C91.6916 84.862 91.8356 84.838 91.9516 84.79C92.0716 84.742 92.1716 84.67 92.2516 84.574C92.3316 84.478 92.3936 84.354 92.4376 84.202C92.4816 84.05 92.5156 83.872 92.5396 83.668L92.6776 83.668C92.6656 83.796 92.6596 83.964 92.6596 84.172C92.6596 84.252 92.6616 84.37 92.6656 84.526C92.6736 84.678 92.6856 84.836 92.7016 85C92.4976 84.992 92.2676 84.988 92.0116 84.988C91.7556 84.984 91.5276 84.982 91.3276 84.982C91.2356 84.982 91.1176 84.982 90.9736 84.982C90.8296 84.982 90.6736 84.984 90.5056 84.988C90.3416 84.988 90.1736 84.99 90.0016 84.994C89.8336 84.994 89.6716 84.996 89.5156 85L89.5156 84.88C89.6516 84.872 89.7536 84.856 89.8216 84.832C89.8896 84.808 89.9336 84.76 89.9536 84.688C89.9776 84.616 89.9896 84.508 89.9896 84.364L89.9896 81.388C89.9896 81.24 89.9776 81.132 89.9536 81.064C89.9336 80.992 89.8876 80.944 89.8156 80.92C89.7476 80.892 89.6476 80.876 89.5156 80.872L89.5156 80.752C89.6076 80.756 89.7256 80.76 89.8696 80.764C90.0176 80.768 90.1756 80.77 90.3436 80.77C90.4956 80.77 90.6456 80.768 90.7936 80.764C90.9456 80.76 91.0696 80.756 91.1656 80.752Z" fill="#737373"/>
<path d="M94.8838 80.728L96.3478 84.496C96.4038 84.644 96.4678 84.744 96.5398 84.796C96.6158 84.848 96.6858 84.876 96.7498 84.88L96.7498 85C96.6538 84.992 96.5398 84.988 96.4078 84.988C96.2798 84.984 96.1498 84.982 96.0178 84.982C95.8498 84.982 95.6938 84.984 95.5498 84.988C95.4058 84.988 95.2898 84.992 95.2018 85L95.2018 84.88C95.4058 84.872 95.5338 84.838 95.5858 84.778C95.6418 84.714 95.6298 84.58 95.5498 84.376L94.4698 81.46L94.5658 81.352L93.5698 83.956C93.4978 84.136 93.4538 84.286 93.4378 84.406C93.4258 84.526 93.4358 84.62 93.4678 84.688C93.5038 84.756 93.5638 84.804 93.6478 84.832C93.7318 84.86 93.8358 84.876 93.9598 84.88L93.9598 85C93.8398 84.992 93.7178 84.988 93.5938 84.988C93.4738 84.984 93.3598 84.982 93.2518 84.982C93.1558 84.982 93.0698 84.984 92.9938 84.988C92.9218 84.988 92.8558 84.992 92.7958 85L92.7958 84.88C92.8798 84.86 92.9638 84.81 93.0478 84.73C93.1318 84.65 93.2118 84.514 93.2878 84.322L94.6798 80.728C94.7118 80.728 94.7458 80.728 94.7818 80.728C94.8178 80.728 94.8518 80.728 94.8838 80.728ZM95.5138 83.272L95.5138 83.392L93.7258 83.392L93.7858 83.272L95.5138 83.272Z" fill="#737373"/>
<path d="M100.025 80.752C100.009 80.92 99.9975 81.084 99.9895 81.244C99.9855 81.4 99.9835 81.52 99.9835 81.604C99.9835 81.696 99.9855 81.784 99.9895 81.868C99.9935 81.952 99.9975 82.024 100.001 82.084L99.8635 82.084C99.8235 81.784 99.7695 81.548 99.7015 81.376C99.6375 81.204 99.5435 81.08 99.4195 81.004C99.2955 80.928 99.1175 80.89 98.8855 80.89L98.6275 80.89L98.6275 84.31C98.6275 84.47 98.6415 84.59 98.6695 84.67C98.7015 84.75 98.7615 84.804 98.8495 84.832C98.9415 84.856 99.0735 84.872 99.2455 84.88L99.2455 85C99.1335 84.992 98.9895 84.988 98.8135 84.988C98.6375 84.984 98.4575 84.982 98.2735 84.982C98.0815 84.982 97.8995 84.984 97.7275 84.988C97.5595 84.988 97.4235 84.992 97.3195 85L97.3195 84.88C97.4915 84.872 97.6215 84.856 97.7095 84.832C97.7975 84.804 97.8575 84.75 97.8895 84.67C97.9215 84.59 97.9375 84.47 97.9375 84.31L97.9375 80.89L97.6735 80.89C97.4495 80.89 97.2735 80.928 97.1455 81.004C97.0175 81.08 96.9215 81.204 96.8575 81.376C96.7935 81.548 96.7415 81.784 96.7015 82.084L96.5635 82.084C96.5715 82.024 96.5755 81.952 96.5755 81.868C96.5795 81.784 96.5815 81.696 96.5815 81.604C96.5815 81.52 96.5775 81.4 96.5695 81.244C96.5655 81.084 96.5555 80.92 96.5395 80.752C96.7115 80.756 96.8995 80.76 97.1035 80.764C97.3075 80.768 97.5135 80.77 97.7215 80.77C97.9295 80.77 98.1175 80.77 98.2855 80.77C98.4535 80.77 98.6395 80.77 98.8435 80.77C99.0475 80.77 99.2535 80.768 99.4615 80.764C99.6695 80.76 99.8575 80.756 100.025 80.752Z" fill="#737373"/>
<path d="M102.064 80.752L102.064 80.872C101.932 80.876 101.832 80.892 101.764 80.92C101.696 80.944 101.65 80.992 101.626 81.064C101.602 81.132 101.59 81.24 101.59 81.388L101.59 84.364C101.59 84.508 101.602 84.616 101.626 84.688C101.65 84.76 101.696 84.808 101.764 84.832C101.832 84.856 101.932 84.872 102.064 84.88L102.064 85C101.968 84.992 101.846 84.988 101.698 84.988C101.554 84.984 101.406 84.982 101.254 84.982C101.086 84.982 100.928 84.984 100.78 84.988C100.636 84.988 100.518 84.992 100.426 85L100.426 84.88C100.562 84.872 100.664 84.856 100.732 84.832C100.8 84.808 100.844 84.76 100.864 84.688C100.888 84.616 100.9 84.508 100.9 84.364L100.9 81.388C100.9 81.24 100.888 81.132 100.864 81.064C100.844 80.992 100.798 80.944 100.726 80.92C100.658 80.892 100.558 80.876 100.426 80.872L100.426 80.752C100.518 80.756 100.636 80.76 100.78 80.764C100.928 80.768 101.086 80.77 101.254 80.77C101.406 80.77 101.554 80.768 101.698 80.764C101.846 80.76 101.968 80.756 102.064 80.752Z" fill="#737373"/>
<path d="M106.363 80.752L106.363 80.872C106.227 80.88 106.125 80.904 106.057 80.944C105.989 80.984 105.943 81.05 105.919 81.142C105.899 81.23 105.889 81.356 105.889 81.52L105.889 85.024C105.857 85.024 105.825 85.024 105.793 85.024C105.761 85.024 105.727 85.024 105.691 85.024L103.147 81.328L103.147 84.208C103.147 84.376 103.159 84.508 103.183 84.604C103.207 84.696 103.259 84.762 103.339 84.802C103.419 84.842 103.541 84.868 103.705 84.88L103.705 85C103.629 84.992 103.531 84.988 103.411 84.988C103.295 84.984 103.185 84.982 103.081 84.982C102.981 84.982 102.881 84.984 102.781 84.988C102.681 84.988 102.599 84.992 102.535 85L102.535 84.88C102.667 84.868 102.767 84.844 102.835 84.808C102.903 84.768 102.949 84.702 102.973 84.61C102.997 84.518 103.009 84.392 103.009 84.232L103.009 81.388C103.009 81.24 102.997 81.132 102.973 81.064C102.949 80.992 102.903 80.944 102.835 80.92C102.767 80.892 102.667 80.876 102.535 80.872L102.535 80.752C102.599 80.756 102.681 80.76 102.781 80.764C102.881 80.768 102.981 80.77 103.081 80.77C103.169 80.77 103.255 80.768 103.339 80.764C103.423 80.76 103.497 80.756 103.561 80.752L105.751 83.884L105.751 81.544C105.751 81.372 105.737 81.24 105.709 81.148C105.685 81.056 105.633 80.99 105.553 80.95C105.473 80.906 105.353 80.88 105.193 80.872L105.193 80.752C105.265 80.756 105.361 80.76 105.481 80.764C105.601 80.768 105.713 80.77 105.817 80.77C105.917 80.77 106.017 80.768 106.117 80.764C106.217 80.76 106.299 80.756 106.363 80.752Z" fill="#737373"/>
<path d="M110.521 80.752L110.521 80.872C110.389 80.88 110.289 80.904 110.221 80.944C110.153 80.984 110.107 81.05 110.083 81.142C110.059 81.23 110.047 81.356 110.047 81.52L110.047 83.254C110.047 83.526 110.029 83.768 109.993 83.98C109.957 84.192 109.893 84.374 109.801 84.526C109.701 84.694 109.553 84.83 109.357 84.934C109.165 85.034 108.935 85.084 108.667 85.084C108.475 85.084 108.289 85.062 108.109 85.018C107.929 84.974 107.771 84.89 107.635 84.766C107.515 84.658 107.421 84.54 107.353 84.412C107.285 84.284 107.239 84.13 107.215 83.95C107.191 83.766 107.179 83.54 107.179 83.272L107.179 81.388C107.179 81.24 107.167 81.132 107.143 81.064C107.123 80.992 107.079 80.944 107.011 80.92C106.943 80.892 106.841 80.876 106.705 80.872L106.705 80.752C106.797 80.756 106.915 80.76 107.059 80.764C107.207 80.768 107.365 80.77 107.533 80.77C107.685 80.77 107.835 80.768 107.983 80.764C108.135 80.76 108.259 80.756 108.355 80.752L108.355 80.872C108.219 80.876 108.115 80.892 108.043 80.92C107.975 80.944 107.929 80.992 107.905 81.064C107.881 81.132 107.869 81.24 107.869 81.388L107.869 83.464C107.869 83.668 107.879 83.856 107.899 84.028C107.923 84.2 107.965 84.35 108.025 84.478C108.089 84.602 108.181 84.7 108.301 84.772C108.425 84.84 108.585 84.874 108.781 84.874C109.077 84.874 109.305 84.808 109.465 84.676C109.629 84.54 109.743 84.356 109.807 84.124C109.875 83.888 109.909 83.62 109.909 83.32L109.909 81.544C109.909 81.372 109.893 81.24 109.861 81.148C109.829 81.056 109.773 80.99 109.693 80.95C109.613 80.906 109.499 80.88 109.351 80.872L109.351 80.752C109.427 80.756 109.525 80.76 109.645 80.764C109.765 80.768 109.875 80.77 109.975 80.77C110.079 80.77 110.179 80.768 110.275 80.764C110.375 80.76 110.457 80.756 110.521 80.752Z" fill="#737373"/>
<path d="M115.768 80.752L115.768 80.872C115.632 80.876 115.53 80.892 115.462 80.92C115.394 80.944 115.348 80.992 115.324 81.064C115.304 81.132 115.294 81.24 115.294 81.388L115.294 84.364C115.294 84.508 115.304 84.616 115.324 84.688C115.348 84.76 115.394 84.808 115.462 84.832C115.53 84.856 115.632 84.872 115.768 84.88L115.768 85C115.668 84.992 115.544 84.988 115.396 84.988C115.248 84.984 115.098 84.982 114.946 84.982C114.778 84.982 114.62 84.984 114.472 84.988C114.324 84.988 114.206 84.992 114.118 85L114.118 84.88C114.254 84.872 114.356 84.856 114.424 84.832C114.496 84.808 114.544 84.76 114.568 84.688C114.592 84.616 114.604 84.508 114.604 84.364L114.604 81.082L114.634 81.094L113.158 85.024L113.062 85.024L111.514 81.136L111.514 84.208C111.514 84.376 111.526 84.508 111.55 84.604C111.574 84.696 111.626 84.762 111.706 84.802C111.786 84.842 111.908 84.868 112.072 84.88L112.072 85C111.996 84.992 111.898 84.988 111.778 84.988C111.662 84.984 111.552 84.982 111.448 84.982C111.348 84.982 111.248 84.984 111.148 84.988C111.048 84.988 110.966 84.992 110.902 85L110.902 84.88C111.034 84.868 111.134 84.844 111.202 84.808C111.27 84.768 111.316 84.702 111.34 84.61C111.364 84.518 111.376 84.392 111.376 84.232L111.376 81.388C111.376 81.24 111.364 81.132 111.34 81.064C111.316 80.992 111.27 80.944 111.202 80.92C111.134 80.892 111.034 80.876 110.902 80.872L110.902 80.752C110.966 80.756 111.048 80.76 111.148 80.764C111.248 80.768 111.348 80.77 111.448 80.77C111.564 80.77 111.68 80.768 111.796 80.764C111.916 80.76 112.018 80.756 112.102 80.752L113.428 84.16L113.314 84.238L114.616 80.77C114.668 80.77 114.722 80.77 114.778 80.77C114.834 80.77 114.89 80.77 114.946 80.77C115.098 80.77 115.248 80.768 115.396 80.764C115.544 80.76 115.668 80.756 115.768 80.752Z" fill="#737373"/>
</g>
<defs>
<filter id="filter0_d_2161_2490" x="4.63184" y="12.3149" width="145.087" height="108.66" filterUnits="userSpaceOnUse" color-interpolation-filters="sRGB">
<feFlood flood-opacity="0" result="BackgroundImageFix"/>
<feColorMatrix in="SourceAlpha" type="matrix" values="0 0 0 0 0 0 0 0 0 0 0 0 0 0 0 0 0 0 127 0" result="hardAlpha"/>
<feOffset dx="6" dy="6"/>
<feGaussianBlur stdDeviation="12"/>
<feColorMatrix type="matrix" values="0 0 0 0 0 0 0 0 0 0 0 0 0 0 0 0 0 0 0.25 0"/>
<feBlend mode="normal" in2="BackgroundImageFix" result="effect1_dropShadow_2161_2490"/>
<feBlend mode="normal" in="SourceGraphic" in2="effect1_dropShadow_2161_2490" result="shape"/>
</filter>
<linearGradient id="paint0_linear_2161_2490" x1="22.9245" y1="60.5871" x2="119.835" y2="60.207" gradientUnits="userSpaceOnUse">
<stop stop-color="#2D2D2D"/>
<stop offset="0.35" stop-color="#535353"/>
<stop offset="1" stop-color="#969696"/>
</linearGradient>
<linearGradient id="paint1_linear_2161_2490" x1="23.6223" y1="60.0345" x2="120.53" y2="59.6544" gradientUnits="userSpaceOnUse">
<stop stop-color="#101010"/>
<stop offset="1" stop-color="#424242"/>
</linearGradient>
<radialGradient id="paint2_radial_2161_2490" cx="0" cy="0" r="1" gradientUnits="userSpaceOnUse" gradientTransform="translate(15.9992 61.7671) rotate(-0.218701) scale(61.858 64.5203)">
<stop stop-color="white"/>
<stop offset="1" stop-color="white" stop-opacity="0"/>
</radialGradient>
<clipPath id="clip0_2161_2490">
<rect width="124.899" height="98.1267" fill="white" transform="translate(23.1953) rotate(13.6725)"/>
</clipPath>
<clipPath id="clip1_2161_2490">
<rect width="52" height="10" fill="white" transform="translate(29 36)"/>
</clipPath>
</defs>
</svg>
