<svg width="78" height="64" viewBox="0 0 78 64" fill="none" xmlns="http://www.w3.org/2000/svg">
<g opacity="0.8" clip-path="url(#clip0_2499_10704)">
<path d="M30.1443 22.772C30.2088 22.5475 30.3021 22.3303 30.3917 22.0841C30.5548 22.2457 30.6574 22.4594 30.6822 22.6888L32.927 21.9646C32.8622 21.8991 32.8206 21.8138 32.8087 21.722C32.8087 21.6495 32.9629 21.5409 33.1207 21.3599C33.153 21.588 33.1745 21.722 33.196 21.8632L70.4908 9.85978L69.8382 7.78861L62.2465 10.2472C60.933 8.81635 59.4925 7.50979 57.9433 6.34386C57.9442 6.40826 57.9602 6.47153 57.9899 6.52853C58.1338 6.70707 58.2961 6.86972 58.474 7.01373C58.9258 7.4229 58.9187 7.9081 58.4023 8.22674C58.2481 8.32451 57.9863 8.24485 57.6851 8.24485C57.85 8.08915 57.9504 8.00587 58.0437 7.91172C58.3306 7.5967 58.2839 7.36134 57.9074 7.18754C57.6743 7.07529 57.4376 6.97028 57.1902 6.85441C57.1147 6.82674 57.0478 6.77924 56.9966 6.71681C56.9248 6.61181 56.8244 6.47421 56.8495 6.38007C56.8746 6.28592 57.0503 6.25695 57.1615 6.20264C57.1866 6.20264 57.2261 6.20264 57.2583 6.20264C57.3659 6.17729 57.4807 6.13022 57.5882 6.1085C53.5691 3.16586 48.9221 1.2168 44.021 0.418101C39.1199 -0.380597 34.1016 -0.00663272 29.3697 1.50991L29.0971 1.60406C29.1813 1.6874 29.2592 1.77697 29.3302 1.872C29.4629 2.06029 29.6135 2.19065 29.8681 2.08564C29.8992 2.07768 29.9315 2.07646 29.9631 2.08208C29.9946 2.0877 30.0246 2.10002 30.051 2.11823C30.0941 2.15082 30.1443 2.24858 30.1263 2.27755C30.1084 2.30652 30.0008 2.41514 29.9542 2.40428C29.7642 2.34273 29.5633 2.25582 29.3697 2.17254C29.2592 2.10319 29.138 2.05301 29.0111 2.02408C28.7811 2.03006 28.5543 1.96841 28.3584 1.84666C27.0254 2.32715 25.7266 2.89939 24.4712 3.55936C24.5895 3.75851 24.715 3.96128 24.8584 4.19664L24.3851 4.04456C24.3995 4.61764 24.5212 5.18279 24.7437 5.71019C24.4747 5.7283 24.2488 5.82968 24.1699 5.46759C24.1699 5.39155 23.9691 5.31913 23.8508 5.30103C23.2806 5.21413 23.1658 4.97877 23.4599 4.5008C23.5192 4.36501 23.5579 4.22097 23.5746 4.07353C23.7073 4.0337 23.8221 4.32338 23.9691 4.1025C24.0688 3.98883 24.1599 3.86779 24.2416 3.74041C24.2416 3.70782 24.2632 3.67523 24.2739 3.64264C20.5454 5.61153 17.2438 8.31246 14.5629 11.587C14.6064 11.649 14.666 11.6979 14.735 11.7282C14.735 11.7282 14.735 11.8187 14.735 11.8658C14.6954 12.1654 14.5709 12.4471 14.3764 12.6769C14.3098 12.4883 14.2307 12.3044 14.1398 12.1265C10.5763 16.6691 8.30404 22.1052 7.56655 27.8522L0 30.2891L0.65266 32.3603L30.1479 22.8626C30.1397 22.8331 30.1384 22.8021 30.1443 22.772ZM70.0211 8.90386C70.0774 8.94837 70.1227 9.00536 70.1537 9.07042C70.1537 9.07042 70.082 9.1537 70.0569 9.14646C69.9732 9.10669 69.8939 9.05814 69.8202 9.00162C69.9278 8.94731 69.9924 8.88937 70.0211 8.90386ZM4.5722 29.6301C4.64034 29.6772 4.70489 29.7315 4.76585 29.7822L4.68337 29.8654L4.51124 29.6916C4.53276 29.6627 4.56862 29.6228 4.5722 29.6301ZM4.43952 29.3295C4.40432 29.304 4.37078 29.2762 4.33911 29.2463L4.418 29.1775C4.45022 29.2057 4.47803 29.2386 4.50048 29.2752C4.50048 29.2752 4.45028 29.3295 4.43952 29.3295ZM4.8806 30.5969C4.77302 30.5969 4.60089 30.6476 4.56503 30.5969C4.51609 30.4825 4.49047 30.3594 4.48973 30.2348L4.58296 30.2022L4.89853 30.4738C4.89136 30.51 4.88778 30.557 4.8806 30.6005V30.5969ZM32.0162 21.0485C32.3748 20.929 32.3748 20.929 32.6688 21.3309L32.0162 21.0485ZM41.7236 17.8729C42.2149 17.681 42.3404 17.7969 42.4408 18.4305L41.7236 17.8729ZM53.5217 15.3129L53.4428 15.2622C53.4428 15.2369 53.4679 15.2115 53.4822 15.1898C53.5093 15.2016 53.5337 15.2188 53.554 15.2405C53.554 15.2405 53.5324 15.2876 53.5217 15.3129ZM55.1856 14.6394C55.1462 14.6394 55.0888 14.5742 55.0924 14.5417C55.0935 14.512 55.1011 14.4829 55.1147 14.4566C55.1284 14.4303 55.1477 14.4074 55.1713 14.3896C55.306 14.3399 55.4438 14.2987 55.5837 14.2665C55.5335 14.5561 55.3721 14.6974 55.1856 14.6394ZM60.8767 12.4922H60.9161C60.9197 12.5186 60.9197 12.5454 60.9161 12.5719L60.8336 12.5465C60.8456 12.5266 60.8601 12.5084 60.8767 12.4922ZM56.0821 5.81158C56.2541 5.85132 56.4231 5.90335 56.5877 5.96728V6.10488C56.4028 6.13484 56.2155 6.14696 56.0283 6.14109C55.9602 6.14109 55.91 5.98539 55.8526 5.89848C55.9423 5.86952 56.0104 5.79348 56.0821 5.81158ZM53.2958 4.47183C53.3176 4.50672 53.3345 4.5445 53.346 4.58408C53.346 4.58408 53.3065 4.61667 53.2707 4.64926C53.2541 4.61 53.2432 4.56853 53.2384 4.52615C53.2384 4.50804 53.2742 4.48994 53.2958 4.47183ZM51.0939 2.93294L51.6067 4.38131C51.578 4.40666 51.5314 4.45373 51.4812 4.49356C51.431 4.53339 51.3952 4.54063 51.327 4.57684L50.5632 3.68971C50.9218 3.58471 51.0545 3.34935 51.0939 2.93294ZM46.2205 1.20937L46.2528 1.2492L46.6437 1.6113C46.6549 1.6429 46.6549 1.67746 46.6437 1.70906C46.5791 1.94442 46.511 2.1834 46.4428 2.43325L45.8189 2.17254C45.9193 1.71268 45.8189 1.50267 45.3598 1.2492C45.0658 1.08264 45.0658 1.08264 45.0407 0.666233C45.4799 0.720474 45.8919 0.910135 46.2205 1.20937ZM20.4835 8.27744C20.5269 8.31818 20.5676 8.36172 20.6054 8.40779C20.6054 8.40779 20.5695 8.48383 20.566 8.48021C20.5056 8.46074 20.4468 8.43653 20.3902 8.40779L20.4835 8.27744ZM19.4077 7.78499C19.257 8.02759 19.11 8.17605 18.7658 8.06018C18.8209 7.94644 18.9143 7.85625 19.0293 7.80582C19.1443 7.75538 19.2734 7.748 19.3933 7.78499H19.4077ZM13.1715 14.1216C13.2085 14.1037 13.2488 14.0937 13.2898 14.0921C13.3308 14.0905 13.3717 14.0973 13.41 14.1123C13.4482 14.1272 13.4831 14.1498 13.5124 14.1788C13.5417 14.2078 13.5648 14.2426 13.5803 14.2809C13.6096 14.3399 13.6512 14.3918 13.7023 14.433C14.1182 14.7951 14.1182 14.7951 13.8852 15.1826C13.67 15.0269 13.4548 14.8784 13.2433 14.7227C13.2055 14.6918 13.1729 14.6552 13.1464 14.6141C13.0388 14.4439 13.046 14.1651 13.1715 14.1216ZM9.84727 27.1172C10.1834 25.0682 10.729 23.0599 11.4753 21.1245C11.0378 20.9471 10.6398 20.719 10.5609 20.1396C10.8442 20.1143 11.1418 20.2845 11.4 20.0672C11.4287 20.0418 11.5435 20.1106 11.6116 20.1469C11.6879 20.1868 11.7532 20.2453 11.8017 20.317C13.7009 15.8181 16.6658 11.8593 20.4357 8.78882C24.2057 5.71836 28.6651 3.63032 33.4217 2.70836C38.1783 1.78641 43.0865 2.05877 47.7144 3.50151C52.3423 4.94425 56.5482 7.51315 59.9622 10.9823L59.6323 11.0873C59.661 11.1199 59.6861 11.1525 59.6825 11.1633C59.629 11.2367 59.5635 11.3004 59.4889 11.3516C59.4889 11.3516 59.4064 11.2792 59.3347 11.214L59.4064 11.1597L55.2251 12.5031C52.3894 10.1066 49.0669 8.36864 45.4925 7.41203C45.5582 7.54616 45.5686 7.70113 45.5212 7.84292C45.5027 7.88582 45.4746 7.92382 45.4392 7.95397C45.4037 7.98411 45.3618 8.00559 45.3168 8.01673C45.1678 8.05137 45.0124 8.04694 44.8655 8.00384C44.7187 7.96074 44.5851 7.88042 44.4777 7.7705C44.5745 7.56773 44.6462 7.39031 44.743 7.22737C40.7156 6.25932 36.5133 6.31492 32.5123 7.38918C28.5114 8.46344 24.8368 10.5228 21.8175 13.383C21.9341 13.4784 22.0399 13.5864 22.1331 13.7052C22.1582 13.7306 22.1653 13.8211 22.1331 13.8392C21.9071 14.042 21.9609 14.3244 21.9251 14.5634C21.9221 14.6012 21.9114 14.638 21.8936 14.6714C21.8757 14.7047 21.8511 14.734 21.8214 14.7572C21.7916 14.7804 21.7574 14.797 21.7209 14.8061C21.6844 14.8151 21.6465 14.8163 21.6095 14.8096C21.3549 14.7879 21.1039 14.7444 20.8457 14.7118C20.9532 14.223 20.9568 14.2266 21.2581 14.2556C21.3728 14.2556 21.5557 14.2773 21.5951 14.2158C21.6163 14.1797 21.63 14.1398 21.6357 14.0983C21.6414 14.0568 21.6388 14.0146 21.6281 13.9742C21.6174 13.9337 21.5988 13.8958 21.5735 13.8627C21.5481 13.8296 21.5165 13.8019 21.4804 13.7813L21.4445 13.7595C18.1323 16.9988 15.7601 21.0907 14.5844 25.5927L9.84727 27.1172ZM28.7708 10.2002C28.7614 10.2346 28.7437 10.2662 28.7193 10.2921C28.6949 10.318 28.6646 10.3374 28.631 10.3486C28.5664 10.3486 28.4875 10.3088 28.3584 10.2617L28.6812 10.0046C28.7134 10.0698 28.778 10.1386 28.7708 10.2002ZM26.404 11.6811C25.8912 11.6485 25.3892 11.5978 25.0808 11.138L26.404 11.6811ZM23.1264 13.8319C23.0914 13.8591 23.0528 13.881 23.0116 13.8971C22.9522 13.8864 22.8944 13.8682 22.8395 13.8428C22.9049 13.8087 22.9733 13.7808 23.0439 13.7595C23.069 13.7595 23.0977 13.8066 23.1264 13.8319ZM15.9758 22.5222L16.0655 22.4136C16.2233 22.4389 16.3416 22.5041 16.3954 22.8119L15.9758 22.5222ZM22.7893 15.4505L22.5634 15.3093C22.4917 15.2622 22.4809 15.1246 22.4415 15.0305C22.5419 15.0305 22.6817 14.9762 22.7355 15.0305C22.8277 15.1066 22.9304 15.1688 23.0403 15.2151C26.2991 12.0319 30.4186 9.8946 34.8791 9.07296C39.3396 8.25132 43.9412 8.78214 48.1032 10.5985C48.1039 10.59 48.1039 10.5815 48.1032 10.5731C48.0745 10.5007 48.1713 10.3848 48.2108 10.2871C48.2753 10.3196 48.3649 10.3305 48.4044 10.3848C48.5018 10.5333 48.5916 10.6868 48.6734 10.8447C50.1238 11.5176 51.5021 12.339 52.7865 13.2961L36.6493 18.4921C36.6533 18.5012 36.6553 18.5111 36.6553 18.5211C36.6553 18.531 36.6533 18.5409 36.6493 18.55C36.5812 18.7274 36.4485 18.7311 36.2262 18.6623L36.3481 18.5862L17.0588 24.7961C18.2063 21.27 20.1667 18.0694 22.7785 15.4577L22.7893 15.4505ZM22.298 25.3175C22.1438 25.2488 22.004 25.1618 22.0506 24.9555C22.0506 24.9337 22.1044 24.8975 22.1223 24.9048C22.2055 24.9255 22.2778 24.9775 22.3245 25.0501C22.3711 25.1228 22.3886 25.2106 22.3733 25.2958C22.3267 25.3103 22.3088 25.3212 22.298 25.3175ZM26.4435 23.8981C25.902 23.8475 25.7263 23.536 25.9916 23.1486L25.7729 23.0255L25.9952 22.6634C26.196 22.8445 26.0813 22.9893 25.9952 23.1377C26.4506 23.221 26.4506 23.2247 26.4435 23.8981Z" fill="white"/>
<path d="M77.3469 31.6361L57.4695 38.0379C57.6488 38.0777 57.6488 38.2371 57.6524 38.4C57.4265 38.3167 57.4157 38.3095 57.4014 38.0633L50.5879 40.2576C50.6237 40.406 50.6596 40.5689 50.7062 40.7717C50.4695 40.5508 50.4337 40.511 50.509 40.2829L46.0946 41.7059C46.1371 41.7809 46.1754 41.8583 46.2093 41.9377C46.1484 41.9377 46.0766 42.0101 46.0336 41.992L45.675 41.8399L32.9912 45.9134C32.9852 46.1062 33.0183 46.2982 33.0886 46.4776C33.159 46.657 33.2649 46.8199 33.4 46.9563C33.5089 47.0972 33.5749 47.267 33.59 47.4451C33.6116 47.6479 33.4789 47.7167 33.2709 47.6768C33.0629 47.637 32.9338 47.6406 32.733 47.6189C32.6397 47.2822 32.5357 46.9164 32.4246 46.5326H31.7432L31.8938 46.2792L20.1245 50.063C20.1845 50.3254 20.2146 50.5939 20.2141 50.8633C20.2141 51.0986 20.2428 51.2254 20.4759 51.3195C20.5826 51.3744 20.6805 51.4452 20.7664 51.5295C20.648 51.8192 20.3324 51.4788 20.2643 51.7431C20.2253 51.9327 20.2025 52.1254 20.1962 52.3189L22.7674 51.4933C23.1009 51.7721 23.438 52.0401 23.7822 52.3044C23.8934 52.3044 24.0261 52.3044 24.0548 52.3696C24.2125 52.652 24.4923 52.6122 24.7253 52.6955C24.9584 52.7787 25.1736 52.8548 25.2633 52.5072C25.2848 52.4311 25.6219 52.5072 25.6219 52.5723C25.7545 52.9598 25.7115 53.025 25.2633 53.1843C25.3314 53.2821 25.4031 53.3798 25.4712 53.4848C26.7386 54.2926 28.0742 54.9857 29.4625 55.556L29.7566 55.0563C30.0183 55.3098 30.3483 55.451 30.255 55.8638C30.6782 56.0231 31.1085 56.1716 31.5388 56.3055C31.5388 56.2585 31.5388 56.2078 31.5388 56.1571C31.9978 55.9181 31.9584 55.9615 32.3134 56.3055C32.3897 56.3851 32.4506 56.4784 32.4927 56.5807C34.6388 57.1619 36.8511 57.4565 39.0731 57.457C39.5178 57.457 39.9624 57.4389 40.4035 57.4172C40.5685 57.0949 40.8697 57.0551 41.1494 56.8994C41.0901 57.0194 41.0075 57.1261 40.9064 57.2132C40.8054 57.3003 40.688 57.366 40.5613 57.4063C41.9117 57.3308 43.2537 57.1443 44.5741 56.8487L44.6243 56.8306C45.3056 56.6712 45.9834 56.4902 46.654 56.2729C47.6006 55.9659 48.5286 55.6032 49.4332 55.1867C49.42 55.1443 49.4116 55.1006 49.4081 55.0563C49.4751 55.0635 49.5406 55.0819 49.6017 55.1106C50.3691 54.7485 51.115 54.3466 51.8394 53.9121L51.6493 53.7673C51.739 53.6622 51.8466 53.4595 51.9147 53.474C52.0557 53.4993 52.1914 53.5482 52.3163 53.6188C56.1365 51.1995 59.2534 47.8012 61.3496 43.7699C61.3069 43.7777 61.2632 43.7777 61.2205 43.7699C61.0986 43.7228 60.9336 43.7228 60.9121 43.5091C60.899 43.4274 60.9116 43.3435 60.9483 43.2694C60.985 43.1954 61.0438 43.1348 61.1165 43.0964C61.1631 43.0638 61.2743 43.0384 61.2886 43.0602C61.3729 43.1606 61.4721 43.2474 61.5827 43.3172C61.7261 43.0276 61.866 42.7343 61.9987 42.4374L61.7835 42.3939C61.7225 42.3939 61.6221 42.3649 61.6114 42.3287C61.5074 42.0209 61.2133 42.0789 60.9515 41.9666C61.0131 41.834 61.0363 41.6865 61.0186 41.5411C61.0008 41.3957 60.9428 41.2583 60.8511 41.1447C60.8301 41.1058 60.8191 41.0622 60.8191 41.0179C60.8191 40.9737 60.8301 40.9301 60.8511 40.8912C60.892 40.8713 60.9367 40.861 60.982 40.861C61.0273 40.861 61.0721 40.8713 61.1129 40.8912C61.2245 40.9555 61.327 41.0347 61.4177 41.1266C61.5431 41.2752 61.6837 41.4099 61.8373 41.5285C61.99 41.6066 62.1273 41.7121 62.2425 41.8399C62.708 40.7274 63.0939 39.5827 63.3972 38.4145L68.1308 36.8901C67.8707 38.4887 67.4809 40.0631 66.9653 41.5973C67.0034 41.6472 67.0248 41.7081 67.0263 41.7711C67.0048 41.9196 66.8613 42.0499 66.8255 42.1984C66.8053 42.3679 66.8053 42.5393 66.8255 42.7089C66.7465 42.7124 66.6675 42.7014 66.5924 42.6763C65.0112 46.8618 62.5153 50.6332 59.2904 53.7096C56.0655 56.7859 52.1947 59.088 47.9665 60.4443C47.0795 60.7267 46.1878 60.9681 45.2913 61.1684L45.3487 61.2843L45.1981 61.1865C39.6086 62.3996 33.7905 61.9468 28.4512 59.883L28.5409 59.9554C28.609 60.0206 28.6987 60.0749 28.7381 60.1546C28.7424 60.1908 28.7391 60.2275 28.7286 60.2624C28.7182 60.2973 28.7006 60.3296 28.6772 60.3574C28.6556 60.3827 28.5194 60.3574 28.5122 60.3392C28.3903 59.9772 28.2935 60.2487 28.211 60.3392C28.1285 60.4298 28.1823 60.4841 28.1644 60.5782C27.9863 60.4105 27.8242 60.2262 27.6802 60.0278C27.5699 59.844 27.4797 59.6485 27.4113 59.4449C23.9019 57.9401 20.7148 55.7623 18.0266 53.0322L20.1316 52.3551L19.8663 52.2827C19.7787 52.2628 19.6976 52.2208 19.6305 52.1606C19.5634 52.1005 19.5125 52.0241 19.4826 51.9387C19.375 51.7069 19.5794 51.6635 19.669 51.544C19.7013 51.4885 19.7289 51.4304 19.7515 51.3702C19.6852 51.3713 19.6192 51.3786 19.5543 51.3919C19.5044 51.4197 19.449 51.4359 19.3921 51.4392C19.3352 51.4425 19.2784 51.4328 19.2257 51.4109C19.173 51.389 19.1259 51.3554 19.0878 51.3126C19.0497 51.2699 19.0216 51.219 19.0056 51.1638C18.9836 51.105 18.9743 51.0421 18.9784 50.9794C18.9826 50.9167 19 50.8556 19.0296 50.8003C19.0592 50.745 19.1003 50.6968 19.15 50.6589C19.1996 50.6211 19.2568 50.5944 19.3176 50.5808C19.4402 50.5512 19.5602 50.5112 19.6762 50.4613C19.7838 50.4143 19.8806 50.3418 19.9846 50.2839C19.9523 50.2332 19.9165 50.1862 19.8806 50.1391L15.5128 51.5476L15.6993 51.6852C15.6562 51.8626 15.6311 52.0002 15.5881 52.1342C15.5881 52.1885 15.5128 52.2284 15.4769 52.2754C15.2963 52.1584 15.1342 52.0143 14.9964 51.8482C14.9964 51.8192 14.9964 51.7649 15.0215 51.7033L7.53027 54.1185L8.18293 56.1897L15.7495 53.7528C18.7393 57.0054 22.3663 59.5949 26.4 61.3567C26.4 61.335 26.4215 61.3097 26.4359 61.2843L26.5112 61.3241L26.4753 61.3893C27.2105 61.708 27.96 61.9976 28.7166 62.262V62.1895H28.7632V62.2801C32.0627 63.4182 35.5254 63.9993 39.0121 64C39.8405 64 40.6725 63.9638 41.5044 63.8986C41.4688 63.8724 41.4363 63.842 41.4076 63.8081C41.2882 63.6998 41.1811 63.5784 41.0885 63.446C41.0452 63.3131 41.0452 63.1697 41.0885 63.0368C41.0885 63.0043 41.3108 62.9753 41.3933 63.0151C41.6981 63.1708 41.985 63.3591 42.3149 63.5583C42.2588 63.6584 42.1953 63.754 42.1248 63.8443C43.6392 63.6924 45.1408 63.4311 46.6181 63.0622C46.5003 63.0004 46.4008 62.9082 46.3296 62.795C46.2584 62.6818 46.2182 62.5516 46.2129 62.4177C46.1995 62.1562 46.2565 61.8959 46.3779 61.6645C46.4675 61.5052 46.7114 61.4364 46.9803 61.2698C46.9809 61.3737 46.9676 61.4773 46.9409 61.5776C46.8319 61.7072 46.7688 61.8698 46.7617 62.0397C46.7546 62.2095 46.8037 62.377 46.9014 62.5154C46.9582 62.6633 46.9669 62.8256 46.9265 62.9789C47.5003 62.8304 48.0741 62.6711 48.6442 62.4865C49.4798 62.2185 50.2974 61.9144 51.0971 61.5812C51.0629 61.5029 51.0399 61.4199 51.029 61.335C51.0312 61.2951 51.0436 61.2565 51.0649 61.2229C51.0863 61.1892 51.1159 61.1618 51.1509 61.1431C51.1879 61.1391 51.2253 61.145 51.2593 61.1603C51.2933 61.1756 51.3227 61.1996 51.3445 61.23C51.3817 61.2978 51.4249 61.362 51.4736 61.4219C54.7186 60.0257 57.7099 58.0921 60.324 55.7008C60.2917 55.6574 60.2379 55.6067 60.2451 55.5705C60.281 55.4885 60.3294 55.4128 60.3885 55.346C60.428 55.4365 60.4674 55.4981 60.4854 55.5488C65.9609 50.4634 69.4879 43.5934 70.4474 36.1442L78.0139 33.7073L77.3469 31.6361ZM20.5189 50.407L20.4615 50.3346L20.5153 50.2803C20.5323 50.304 20.5468 50.3295 20.5584 50.3563C20.5584 50.3563 20.5333 50.3925 20.5189 50.407ZM54.4465 40.2684C54.6652 40.75 54.6437 40.7934 54.1488 40.9274C54.2421 40.7319 54.3245 40.5545 54.4465 40.2829V40.2684ZM46.2918 43.4766C46.3436 43.4988 46.3883 43.5352 46.4209 43.5816C46.4209 43.5816 46.3671 43.683 46.3492 43.6793C46.2868 43.6543 46.2278 43.6214 46.1735 43.5816C46.2308 43.5417 46.2595 43.4838 46.2918 43.491V43.4766ZM40.5541 43.9219C40.7729 43.9219 40.9701 43.9219 41.1673 43.9219C41.2049 43.9276 41.2408 43.9416 41.2724 43.9629C41.304 43.9841 41.3306 44.0122 41.3502 44.045C41.3563 44.0805 41.3536 44.1169 41.3424 44.151C41.3311 44.1852 41.3116 44.2159 41.2857 44.2406C41.0167 44.447 40.737 44.6389 40.4537 44.8308C40.3987 44.8517 40.3404 44.8627 40.2816 44.8634L40.2421 44.7946L40.7729 44.3528L40.5541 43.9219ZM36.8318 45.2037C36.9035 45.2037 37.0291 45.24 37.0326 45.2689C37.0331 45.4165 37.0247 45.5641 37.0075 45.7107H36.9215C36.8652 45.5936 36.8173 45.4726 36.778 45.3486C36.7751 45.3023 36.7878 45.2564 36.8139 45.2182L36.8318 45.2037ZM32.4461 47.8325L32.6003 48.0788L32.5322 48.1258C32.4946 48.0874 32.4598 48.0463 32.4282 48.0027C32.4054 47.9622 32.3862 47.9198 32.3708 47.876L32.4461 47.8325ZM29.0035 47.2061L29.0931 47.2496L28.9246 47.6117L28.8457 47.5755C28.8995 47.4342 28.9533 47.3256 29.0035 47.2061ZM28.8063 48.8392C28.8529 48.9587 28.9067 49.0274 28.8923 49.0781C28.8672 49.1433 28.8185 49.1964 28.7561 49.2266C28.7274 49.2266 28.6198 49.1542 28.6234 49.1433C28.676 49.0371 28.7372 48.9353 28.8063 48.8392ZM28.9748 55.2482C28.7238 55.1867 28.5266 55.1541 28.566 54.9078C28.566 54.8354 28.7525 54.7159 28.8134 54.7377C29.0465 54.8137 28.9748 55.0165 28.9748 55.2482ZM29.0286 54.3828L28.9856 54.2814L29.0967 54.1837C29.0967 54.209 29.1398 54.2452 29.1326 54.2597C29.1085 54.3038 29.0797 54.3451 29.0465 54.3828H29.0286ZM36.129 55.7153C36.1094 55.6792 36.096 55.6401 36.0895 55.5994C36.0895 55.5813 36.1433 55.5415 36.1576 55.5451C36.1962 55.5718 36.2311 55.6035 36.2616 55.6393L36.129 55.7153ZM37.2442 56.5699C37.1761 56.5336 37.1331 56.4504 37.0793 56.3852C37.1725 56.3635 37.2837 56.3019 37.359 56.3309C37.4343 56.3598 37.5024 56.483 37.6459 56.6459C37.5096 56.6357 37.3749 56.6102 37.2442 56.5699ZM39.3564 57.3592C39.3134 57.3266 39.2488 57.2868 39.2524 57.2759C39.2772 57.2269 39.3073 57.1807 39.3421 57.1383C39.3743 57.1709 39.4281 57.1999 39.4317 57.2325C39.4353 57.2651 39.3923 57.3085 39.3564 57.3592ZM55.2928 50.3056C55.2605 50.4324 54.823 50.3889 54.7226 50.2296C54.5361 49.9399 54.9808 49.9979 54.9306 49.748C55.2461 49.8965 55.3501 50.0739 55.2928 50.3056ZM59.6821 43.5598C59.657 43.5273 59.6068 43.4947 59.6068 43.4621C59.6068 43.4295 59.6534 43.3969 59.7251 43.3136C59.7538 43.3752 59.7968 43.4222 59.7897 43.4548C59.7825 43.4874 59.7215 43.5236 59.6821 43.5598ZM60.6288 44.6135C60.6288 44.7403 60.5571 44.8417 60.4029 44.791C60.2487 44.7403 60.1805 44.6353 60.2523 44.4904C60.3527 44.2913 60.4818 44.1066 60.6109 43.9183L60.6826 43.94C60.6575 44.1754 60.6539 44.3927 60.6288 44.6135ZM54.5325 49.1904C54.5899 49.3425 54.6401 49.4764 54.4249 49.5525C54.3392 49.576 54.2489 49.576 54.1632 49.5525C51.7916 51.6569 49.0155 53.2446 46.0085 54.2162C44.8128 54.5925 43.5881 54.8674 42.3472 55.0382C42.426 55.2374 42.3794 55.2989 42.2216 55.48C42.1714 55.3424 42.1248 55.2084 42.0782 55.0744C40.002 55.3521 37.8981 55.3435 35.8241 55.0491C35.8432 55.0581 35.8601 55.0712 35.8737 55.0875C35.8873 55.1037 35.8973 55.1227 35.903 55.1432C35.903 55.1686 35.86 55.2084 35.8098 55.2736L35.7058 55.1034C35.736 55.0787 35.7699 55.0591 35.8062 55.0454C31.9803 54.5078 28.3478 53.0143 25.2381 50.7003L25.6577 50.5663C25.3959 50.3962 25.1628 50.2549 24.9405 50.0956C24.9117 50.0669 24.8912 50.0307 24.8813 49.991C24.8713 49.9513 24.8723 49.9097 24.8841 49.8705C24.896 49.8314 24.9181 49.7962 24.9483 49.7689C24.9785 49.7416 25.0154 49.7231 25.0553 49.7154C25.2146 49.7122 25.3729 49.7405 25.5214 49.7987C25.6369 49.8623 25.7441 49.9402 25.8406 50.0304C25.8047 50.168 25.7725 50.3129 25.7151 50.541L52.7072 41.8508C52.7489 41.7981 52.8 41.7539 52.8578 41.7204C52.9654 41.6516 53.0766 41.5901 53.2164 41.5104C53.2487 41.5647 53.2738 41.6154 53.2989 41.6625L56.5479 40.616C56.7171 40.4991 56.9166 40.4349 57.1216 40.4314L60.93 39.2039C59.6832 43.0327 57.4798 46.4722 54.5325 49.1904ZM61.7261 38.6897C61.7261 38.5231 61.7046 38.4109 61.6903 38.2479C61.8552 38.4217 61.8552 38.4217 61.7261 38.6716V38.6897ZM62.5186 40.1127C62.4684 40.1634 62.3501 40.1417 62.2604 40.1525C62.2604 40.0656 62.221 39.9606 62.2604 39.9027C62.2805 39.8557 62.3102 39.8135 62.3475 39.7789C62.3849 39.7443 62.4291 39.7181 62.4772 39.702C62.5253 39.686 62.5762 39.6804 62.6267 39.6856C62.6771 39.6909 62.7258 39.7069 62.7697 39.7325C62.6989 39.8618 62.6147 39.9832 62.5186 40.0946V40.1127ZM63.0422 37.5056L62.827 37.3065C62.8737 37.2667 62.9346 37.1798 62.9597 37.1906C63.0357 37.2261 63.1031 37.278 63.157 37.3427C63.157 37.3427 63.1139 37.4115 63.0422 37.4875V37.5056ZM14.1035 54.028C14.0676 54.028 14.0282 53.9881 13.9887 53.9664C14.0174 53.9338 14.0425 53.8867 14.0784 53.8795C14.1142 53.8723 14.1573 53.9048 14.2254 53.9266C14.168 53.9773 14.1393 54.0243 14.1035 54.028ZM18.4067 54.3901C18.3673 54.0787 17.8079 54.1837 17.9298 53.7564C18.3386 53.7455 18.5107 53.9519 18.4139 54.3756L18.4067 54.3901ZM35.401 63.6669C35.2934 63.6271 35.1607 63.5945 35.236 63.4315C35.3113 63.2686 35.3795 63.2034 35.5408 63.2758C35.6011 63.3011 35.6598 63.3302 35.7166 63.3627L36.2079 63.6271C36.084 63.6886 35.9486 63.7227 35.8107 63.727C35.6728 63.7314 35.5355 63.706 35.4082 63.6524L35.401 63.6669ZM38.797 62.8486C38.4922 62.5842 38.7073 62.0447 38.2017 61.9433C38.675 61.8999 38.8149 62.0302 38.797 62.3959C38.8006 62.5191 38.8041 62.6422 38.8041 62.8341L38.797 62.8486ZM40.3963 63.4098L40.3103 63.3193C40.339 63.2903 40.3677 63.2505 40.3748 63.2541C40.4106 63.2762 40.4442 63.3017 40.4752 63.3301L40.3963 63.4098ZM43.1576 62.0592C43.1064 62.1591 43.0609 62.2618 43.0213 62.367L42.86 62.4647C42.7758 62.3424 42.7003 62.2141 42.634 62.0809C42.6011 61.9779 42.583 61.8705 42.5802 61.7623C42.7326 61.7424 42.8869 61.7424 43.0393 61.7623C43.0681 61.7693 43.0949 61.7828 43.1177 61.8019C43.1405 61.821 43.1586 61.8451 43.1707 61.8724C43.1829 61.8996 43.1886 61.9294 43.1876 61.9592C43.1866 61.9891 43.1787 62.0184 43.1648 62.0447L43.1576 62.0592ZM43.6059 62.758C43.4732 62.6566 43.3477 62.606 43.2903 62.5118C43.2329 62.4177 43.5019 62.2547 43.7099 62.2873C43.7923 62.2873 43.8569 62.4177 43.9322 62.4901L43.6059 62.758ZM48.2677 61.9469C48.1709 61.9832 48.1601 61.8419 48.2677 61.7478C48.3027 61.7217 48.3414 61.7009 48.3825 61.6862L48.447 61.7478C48.3896 61.8021 48.343 61.918 48.2677 61.918V61.9469ZM49.9173 61.1322L49.7667 60.991L49.9173 60.8498C49.9496 60.8969 50.0141 60.9403 50.0105 60.9838C50.0069 61.0272 49.9496 61.0671 49.9173 61.1177V61.1322ZM51.2477 60.0097C50.9429 59.9663 50.9465 59.7708 50.9537 59.5064C51.1545 59.6295 51.28 59.7454 51.2477 59.9953V60.0097ZM65.7461 48.564C65.6995 48.564 65.6457 48.5241 65.5488 48.4807C65.6421 48.4191 65.6995 48.354 65.7353 48.3612C65.7712 48.3684 65.8429 48.4409 65.8967 48.4843C65.8465 48.4988 65.7999 48.5459 65.7461 48.5495V48.564Z" fill="white"/>
<g clip-path="url(#clip1_2499_10704)">
<path d="M32.6667 17.5146C32.5834 17.6058 32.4329 17.556 32.4103 17.4295L32.1675 16.0794L30.9018 15.5277C30.7835 15.476 30.7727 15.3052 30.8839 15.245L32.1184 14.5746L32.2753 13.1989C32.2894 13.0749 32.4312 13.0222 32.5218 13.1073L33.5266 14.0516L34.8975 13.7545C35.0208 13.7275 35.1225 13.8645 35.0655 13.9813L34.4577 15.2289L35.1419 16.415C35.206 16.5261 35.1235 16.6624 35.0015 16.6474L33.6126 16.4763L32.6667 17.5146Z" fill="white"/>
</g>
<g clip-path="url(#clip2_2499_10704)">
<path d="M45.0565 46.2178C45.1392 46.1261 45.29 46.175 45.3134 46.3014L45.5639 47.65L46.8328 48.1943C46.9514 48.2453 46.9631 48.4161 46.8523 48.4769L45.6217 49.1545L45.4728 50.5312C45.4593 50.6553 45.3178 50.7087 45.2267 50.6242L44.2165 49.6857L42.8474 49.9909C42.7242 50.0186 42.6217 49.8822 42.678 49.7651L43.2787 48.5139L42.5876 47.3318C42.5229 47.2212 42.6046 47.0844 42.7267 47.0986L44.1165 47.2616L45.0565 46.2178Z" fill="white"/>
</g>
<path d="M0.742024 43.4393C0.611745 43.0169 0.564633 42.6143 0.600687 42.2313C0.642468 41.8375 0.762966 41.4783 0.962181 41.1539C1.15884 40.8211 1.42849 40.5339 1.77113 40.2922C2.11949 40.0396 2.53384 39.8392 3.01418 39.6911C3.49452 39.5429 3.9456 39.4763 4.36743 39.4913C4.79498 39.4955 5.18372 39.5797 5.53365 39.7438C5.88103 39.8997 6.17875 40.1298 6.42683 40.4342C6.68063 40.7278 6.87267 41.0857 7.00295 41.5081L8.29424 45.6945L6.94019 46.1121L5.67572 42.0127C5.49946 41.4413 5.208 41.055 4.80134 40.854C4.39212 40.6446 3.91007 40.6255 3.3552 40.7967C2.80033 40.9678 2.4128 41.2551 2.19262 41.6586C1.96988 42.0538 1.94664 42.5372 2.1229 43.1086L2.60569 44.6738L2.66781 44.6547C2.66641 44.4737 2.68699 44.2905 2.72955 44.1051C2.77211 43.9196 2.84591 43.7472 2.95093 43.5878C3.0534 43.4202 3.19252 43.2684 3.36829 43.1326C3.54406 42.9967 3.76445 42.888 4.02947 42.8062L4.40214 42.6913L4.80447 43.9956L4.28273 44.1566C3.74442 44.3226 3.35844 44.5414 3.12478 44.813C2.88856 45.0763 2.82793 45.3943 2.94289 45.767L3.38737 47.208L2.03332 47.6257L0.742024 43.4393ZM7.78531 50.6538C7.17247 50.8428 6.68056 50.8359 6.30958 50.6329C5.93287 50.4407 5.67554 50.121 5.5376 49.6738L5.369 49.1272L4.56154 49.3763L4.2665 48.4197L5.27272 48.1094C5.58742 48.0123 5.8356 48.0083 6.01726 48.0974C6.19892 48.1865 6.32424 48.3428 6.39321 48.5664L6.55797 49.1006C6.63972 49.3656 6.75613 49.5519 6.90722 49.6595C7.05831 49.767 7.25394 49.7838 7.4941 49.7097C7.73427 49.6356 7.88647 49.5116 7.95071 49.3376C8.01494 49.1636 8.00619 48.9441 7.92445 48.6791L7.53361 47.412L8.71374 47.048L9.11224 48.3399C9.26807 48.8451 9.24672 49.3051 9.04821 49.7201C8.84397 50.1459 8.423 50.4571 7.78531 50.6538ZM13.0905 44.3783C12.635 44.5188 12.2059 44.5832 11.8032 44.5713C11.4062 44.5487 11.0436 44.461 10.7153 44.3083C10.3928 44.1448 10.11 43.9191 9.86706 43.6312C9.62982 43.3326 9.44733 42.9762 9.31961 42.5621L8.00916 38.3136L9.36321 37.896L10.643 42.0451C10.8116 42.5917 11.0785 42.9719 11.4438 43.1857C11.8173 43.397 12.2525 43.426 12.7494 43.2727C13.2463 43.1195 13.5855 42.8516 13.7668 42.4692C13.9564 42.0842 13.9669 41.6184 13.7983 41.0718L11.8135 34.637L13.1675 34.2193L15.183 40.7535C15.3107 41.1676 15.3566 41.5661 15.3205 41.9491C15.2902 42.3213 15.1837 42.667 15.0011 42.9864C14.8241 43.2949 14.5739 43.5716 14.2504 43.8165C13.9326 44.0506 13.546 44.2378 13.0905 44.3783ZM20.5708 42.071C20.1567 42.1987 19.7496 42.2608 19.3495 42.2573C18.955 42.2429 18.5934 42.1731 18.2645 42.0478C17.9414 41.9116 17.6593 41.7175 17.4182 41.4653C17.1772 41.2132 17.0005 40.9049 16.8881 40.5405L16.6965 39.9194C16.6071 39.6295 16.6044 39.3855 16.6884 39.1872C16.7698 38.9807 16.9844 38.8238 17.3322 38.7166L18.7236 38.2874L19.0531 39.3557L18.022 39.6738L18.137 40.0464C18.2902 40.5433 18.5558 40.8605 18.9338 40.9979C19.3175 41.1244 19.7702 41.1072 20.2919 40.9463C20.8302 40.7802 21.1932 40.4869 21.3809 40.0662C21.5769 39.643 21.5816 39.1291 21.3951 38.5245L21.0656 37.4562C20.8766 36.8433 20.564 36.4182 20.128 36.1809C19.7003 35.9409 19.1883 35.9129 18.592 36.0969C18.0951 36.2501 17.7006 36.4852 17.4083 36.8021C17.1244 37.1164 16.936 37.4466 16.8432 37.7927L15.7647 37.2954C15.8823 36.8238 16.1486 36.3789 16.5638 35.9606C16.9764 35.5341 17.5595 35.2045 18.3131 34.9721C19.3401 34.6553 20.2363 34.7235 21.0019 35.1767C21.7649 35.6215 22.3188 36.403 22.6637 37.521C22.8323 38.0676 22.9152 38.5862 22.9123 39.0768C22.9069 39.5592 22.8148 39.9957 22.6361 40.3865C22.4573 40.7772 22.1947 41.1167 21.8482 41.4049C21.5018 41.6932 21.076 41.9152 20.5708 42.071ZM23.118 35.7483L24.4969 35.323L27.3503 38.6194L27.3875 38.6079C27.8182 38.4751 28.1022 38.2197 28.2396 37.8418C28.3744 37.4556 28.3537 36.9767 28.1774 36.4053L27.8479 35.337C27.6767 34.7821 27.4238 34.3885 27.0891 34.1561C26.7519 33.9155 26.3721 33.8603 25.9497 33.9906L25.5274 34.1209L25.1863 33.0153L25.6335 32.8774C26.5362 32.5989 27.3156 32.685 27.9716 33.1357C28.6275 33.5864 29.1216 34.35 29.4536 35.4266C29.7857 36.5033 29.8007 37.4192 29.4986 38.1745C29.2022 38.9189 28.6192 39.4252 27.7496 39.6935L26.7931 39.9885L23.118 35.7483ZM30.0047 31.5291L31.3588 31.1114L31.9948 33.1735L33.6573 32.3886C33.9567 32.2419 34.1729 32.0754 34.306 31.8893C34.4447 31.6923 34.4825 31.4176 34.4191 31.0653L34.2532 30.2186L35.6569 29.7856L35.8219 30.6734C35.9006 31.0754 35.8511 31.4444 35.6736 31.7803C35.5018 32.1054 35.2124 32.3579 34.8053 32.5379L34.8245 32.6C35.0883 32.5731 35.3275 32.599 35.5423 32.6779C35.7571 32.7568 35.9464 32.8707 36.1103 33.0197C36.2824 33.1661 36.432 33.3422 36.5589 33.5479C36.6859 33.7536 36.7975 33.9686 36.8939 34.1928L37.8848 36.5673L36.481 37.0002L35.4843 34.5188C35.3956 34.3194 35.2913 34.143 35.1714 33.9895C35.0598 33.8335 34.9282 33.7153 34.7765 33.6352C34.6222 33.5467 34.4504 33.5044 34.2612 33.5084C34.0694 33.5041 33.8585 33.5555 33.6286 33.6627L32.332 34.2667L33.4624 37.9313L32.1083 38.349L30.0047 31.5291ZM43.0552 35.1357C42.7654 35.2251 42.4971 35.267 42.2505 35.2614C42.0148 35.2616 41.8003 35.228 41.6072 35.1606C41.4116 35.0849 41.2369 34.9891 41.0833 34.8732C40.9271 34.7491 40.7944 34.6132 40.6854 34.4654L40.6233 34.4846L40.9719 35.615L39.6179 36.0327L37.5143 29.2127L38.8683 28.7951L40.2861 33.3914C40.3499 33.5984 40.4517 33.7666 40.5913 33.8958C40.7284 34.0168 40.8827 34.1053 41.0541 34.1612C41.2255 34.2172 41.41 34.2419 41.6075 34.2354C41.8025 34.2206 41.9952 34.1838 42.1857 34.1251C42.7075 33.9641 43.0326 33.7097 43.161 33.3617C43.2952 33.0028 43.2831 32.5667 43.1248 32.0532L41.8373 27.8793L43.1914 27.4616L44.5248 31.7847C44.7879 32.6377 44.7909 33.3532 44.5339 33.9313C44.2769 34.5094 43.784 34.9109 43.0552 35.1357ZM49.8553 33.0382C48.9112 33.3294 48.0812 33.2408 47.3653 32.7723C46.6468 32.2955 46.1165 31.5023 45.7742 30.3926C45.6081 29.8543 45.5319 29.3426 45.5456 28.8577C45.5676 28.3703 45.6721 27.9299 45.8592 27.5366C46.0519 27.1325 46.3257 26.7851 46.6804 26.4943C47.0351 26.2035 47.4651 25.9801 47.9702 25.8243C48.434 25.6813 48.8781 25.6214 49.3025 25.6447C49.7243 25.6597 50.106 25.7505 50.4477 25.9172C50.7976 26.0814 51.0979 26.3198 51.3485 26.6325C51.6049 26.9343 51.7995 27.3006 51.9323 27.7312L53.2006 31.8431L51.8466 32.2607L50.6127 28.2607C50.4314 27.6727 50.1335 27.2657 49.7192 27.0398C49.3023 26.8056 48.8206 26.7728 48.274 26.9414C47.7026 27.1177 47.3103 27.4337 47.0971 27.8894C46.8923 28.3426 46.8844 28.8756 47.0734 29.4884L47.3531 30.3953C47.5549 31.0495 47.8502 31.5072 48.2391 31.7681C48.6337 32.0183 49.125 32.0527 49.713 31.8713C49.8952 31.8151 50.0599 31.7462 50.207 31.6645L50.698 32.683C50.584 32.7545 50.4413 32.8211 50.27 32.8831C50.1094 32.9507 49.9712 33.0024 49.8553 33.0382ZM60.0792 29.7214C59.6071 29.867 59.2222 29.8542 58.9246 29.683C58.6269 29.5118 58.4116 29.2109 58.2788 28.7802L56.5967 23.3267L57.9507 22.9091L59.7133 28.6234L60.6823 28.3246L61.0233 29.4302L60.0792 29.7214ZM56.7499 30.7483C56.2779 30.8939 55.893 30.8811 55.5953 30.7099C55.2977 30.5387 55.0824 30.2378 54.9496 29.8071L53.2674 24.3537L54.6215 23.936L56.3841 29.6503L57.353 29.3515L57.6941 30.4571L56.7499 30.7483ZM64.377 28.5317C63.7062 28.7386 63.1168 28.739 62.6088 28.533C62.1091 28.3243 61.7558 27.8846 61.5489 27.2138C61.3522 26.5761 61.3907 26.0246 61.6644 25.5592C61.9463 25.0913 62.4393 24.7488 63.1432 24.5317L65.255 23.8803L65.0941 23.3586C64.9459 22.8782 64.701 22.5547 64.3594 22.388C64.026 22.2187 63.5861 22.2184 63.0395 22.387C62.5508 22.5377 62.1811 22.7651 61.9303 23.0692C61.6877 23.3708 61.5156 23.7096 61.4139 24.0856L60.3106 23.596C60.4453 23.0919 60.6996 22.6371 61.0733 22.2316C61.4528 21.8153 62.0235 21.4896 62.7854 21.2546C63.7212 20.9659 64.5011 20.9657 65.1251 21.2539C65.7466 21.5338 66.1825 22.0796 66.4328 22.8912L67.8046 27.3384L66.4505 27.7561L65.5348 24.7871L63.8329 25.3121C63.4354 25.4347 63.1545 25.612 62.9903 25.8441C62.8343 26.0736 62.8049 26.3457 62.9019 26.6604L62.9786 26.9088C63.0756 27.2235 63.2475 27.4426 63.4942 27.566C63.7409 27.6895 64.0298 27.7001 64.3611 27.5979C64.5267 27.5469 64.6554 27.4936 64.7471 27.4381L65.1118 28.2235C65.0424 28.263 64.9316 28.3153 64.7793 28.3804C64.6271 28.4455 64.493 28.496 64.377 28.5317ZM62.7555 18.9238L63.6375 18.6518L63.5034 18.217C63.4472 18.0348 63.3703 17.9179 63.2728 17.8664C63.1645 17.8091 63.0068 17.8124 62.7997 17.8763L62.4643 17.9797L62.1654 17.0108L62.9977 16.754C63.3953 16.6314 63.7244 16.6252 63.985 16.7352C64.2349 16.8395 64.4045 17.0366 64.4939 17.3265C64.5476 17.5004 64.5557 17.6884 64.5182 17.8904C64.4699 18.0867 64.3646 18.2597 64.2022 18.4096L64.2214 18.4717L66.4574 17.782L66.7563 18.7509L63.0544 19.8928L62.7555 18.9238ZM71.812 26.2656C71.4642 26.3729 71.1201 26.4337 70.7799 26.4479C70.4396 26.4622 70.1239 26.4235 69.8326 26.332L70.0431 25.2059C70.2393 25.2542 70.4484 25.285 70.6701 25.2982C70.8976 25.3006 71.1438 25.2609 71.4088 25.1792C71.9057 25.0259 72.2356 24.7428 72.3984 24.3298C72.567 23.9059 72.5606 23.4 72.3792 22.812L72.0305 21.6815C71.8517 21.1018 71.5775 20.6831 71.2077 20.4253C70.8462 20.1649 70.4129 20.1126 69.9077 20.2685C69.5019 20.3936 69.2 20.5911 69.0021 20.8607C68.8015 21.1221 68.6918 21.428 68.673 21.7785L67.4064 21.5978C67.4602 21.037 67.6701 20.5415 68.0362 20.1111C68.4023 19.6807 68.929 19.3596 69.6164 19.1475C70.0885 19.0019 70.5322 18.9557 70.9477 19.009C71.3632 19.0622 71.7424 19.2037 72.0854 19.4335C72.4283 19.6633 72.7296 19.9785 72.9892 20.3791C73.2571 20.7772 73.4754 21.2495 73.644 21.7961C73.8126 22.3427 73.8996 22.86 73.905 23.3481C73.9079 23.8279 73.8324 24.2593 73.6784 24.6424C73.5245 25.0254 73.2909 25.356 72.9776 25.634C72.6643 25.912 72.2758 26.1226 71.812 26.2656Z" fill="white"/>
</g>
<defs>
<clipPath id="clip0_2499_10704">
<rect width="78" height="64" fill="white"/>
</clipPath>
<clipPath id="clip1_2499_10704">
<rect width="4.53927" height="4.56708" fill="white" transform="matrix(0.937437 -0.348155 0.343269 0.939237 30.1934 13.7311)"/>
</clipPath>
<clipPath id="clip2_2499_10704">
<rect width="4.53941" height="4.56694" fill="white" transform="matrix(-0.935387 0.353627 -0.348685 -0.93724 47.5518 49.9868)"/>
</clipPath>
</defs>
</svg>
