<svg width="54" height="35" viewBox="0 0 54 35" fill="none" xmlns="http://www.w3.org/2000/svg">
<path d="M35.3244 13.1466L30.259 3.0157C29.9555 2.40989 29.4897 1.90051 28.9135 1.54452C28.3373 1.18854 27.6735 1 26.9963 1C26.3192 1 25.6554 1.18854 25.0792 1.54452C24.503 1.90051 24.0371 2.40989 23.7337 3.0157L18.6683 13.1466C18.4855 13.5101 18.2289 13.8314 17.9149 14.0899C17.6009 14.3484 17.2364 14.5384 16.8447 14.6477C16.453 14.7571 16.0428 14.7833 15.6404 14.7248C15.238 14.6663 14.8523 14.5243 14.5079 14.308L6.59591 9.32652C5.95602 8.92275 5.20656 8.72795 4.4512 8.76907C3.69583 8.8102 2.97193 9.0852 2.37958 9.55605C1.78723 10.0269 1.35573 10.6703 1.14477 11.3973C0.933817 12.1243 0.95383 12.8989 1.20204 13.6141L6.55212 29.0843C7.04841 30.5196 7.97946 31.7644 9.2157 32.6454C10.4519 33.5265 11.9319 34 13.4496 34H40.5431C42.0608 34 43.5407 33.5265 44.777 32.6454C46.0132 31.7644 46.9443 30.5196 47.4406 29.0843L52.798 13.6141C53.0462 12.8989 53.0662 12.1243 52.8552 11.3973C52.6443 10.6703 52.2128 10.0269 51.6204 9.55605C51.0281 9.0852 50.3041 8.8102 49.5488 8.76907C48.7934 8.72795 48.044 8.92275 47.4041 9.32652L39.4921 14.308C39.1474 14.5256 38.7611 14.6685 38.3579 14.7277C37.9547 14.7869 37.5436 14.7609 37.151 14.6516C36.7585 14.5422 36.3931 14.3517 36.0785 14.0925C35.7639 13.8334 35.5071 13.5111 35.3244 13.1466Z" fill="#576265"/>
<path style="mix-blend-mode:soft-light" d="M35.3244 13.1466L30.259 3.0157C29.9555 2.40989 29.4897 1.90051 28.9135 1.54452C28.3373 1.18854 27.6735 1 26.9963 1C26.3192 1 25.6554 1.18854 25.0792 1.54452C24.503 1.90051 24.0371 2.40989 23.7337 3.0157L18.6683 13.1466C18.4855 13.5101 18.2289 13.8314 17.9149 14.0899C17.6009 14.3484 17.2364 14.5384 16.8447 14.6477C16.453 14.7571 16.0428 14.7833 15.6404 14.7248C15.238 14.6663 14.8523 14.5243 14.5079 14.308L6.59591 9.32652C5.95602 8.92275 5.20656 8.72795 4.4512 8.76907C3.69583 8.8102 2.97193 9.0852 2.37958 9.55605C1.78723 10.0269 1.35573 10.6703 1.14477 11.3973C0.933817 12.1243 0.95383 12.8989 1.20204 13.6141L6.55212 29.0843C7.04841 30.5196 7.97946 31.7644 9.2157 32.6454C10.4519 33.5265 11.9319 34 13.4496 34H40.5431C42.0608 34 43.5407 33.5265 44.777 32.6454C46.0132 31.7644 46.9443 30.5196 47.4406 29.0843L52.798 13.6141C53.0462 12.8989 53.0662 12.1243 52.8552 11.3973C52.6443 10.6703 52.2128 10.0269 51.6204 9.55605C51.0281 9.0852 50.3041 8.8102 49.5488 8.76907C48.7934 8.72795 48.044 8.92275 47.4041 9.32652L39.4921 14.308C39.1474 14.5256 38.7611 14.6685 38.3579 14.7277C37.9547 14.7869 37.5436 14.7609 37.151 14.6516C36.7585 14.5422 36.3931 14.3517 36.0785 14.0925C35.7639 13.8334 35.5071 13.5111 35.3244 13.1466Z" fill="url(#paint0_linear_2714_3617)"/>
<path style="mix-blend-mode:soft-light" d="M35.3244 13.1466L30.259 3.0157C29.9555 2.40989 29.4897 1.90051 28.9135 1.54452C28.3373 1.18854 27.6735 1 26.9963 1C26.3192 1 25.6554 1.18854 25.0792 1.54452C24.503 1.90051 24.0371 2.40989 23.7337 3.0157L18.6683 13.1466C18.4856 13.5101 18.2289 13.8314 17.9149 14.0899C17.6009 14.3484 17.2364 14.5384 16.8447 14.6477C16.453 14.7571 16.0428 14.7833 15.6404 14.7248C15.238 14.6663 14.8523 14.5243 14.5079 14.308L6.59591 9.32652C5.95602 8.92275 5.20656 8.72795 4.4512 8.76907C3.69583 8.8102 2.97193 9.0852 2.37958 9.55605C1.78723 10.0269 1.35573 10.6703 1.14477 11.3973C0.933817 12.1243 0.95383 12.8989 1.20204 13.6141L6.55212 29.0843C7.04841 30.5196 7.97946 31.7644 9.2157 32.6454C10.4519 33.5265 11.9319 34 13.4496 34H40.5431C42.0608 34 43.5407 33.5265 44.777 32.6454C46.0132 31.7644 46.9443 30.5196 47.4406 29.0843L52.798 13.6141C53.0462 12.8989 53.0662 12.1243 52.8552 11.3973C52.6443 10.6703 52.2128 10.0269 51.6204 9.55605C51.0281 9.0852 50.3041 8.8102 49.5488 8.76907C48.7934 8.72795 48.044 8.92275 47.4041 9.32652L39.4921 14.308C39.1474 14.5256 38.7611 14.6685 38.3579 14.7277C37.9547 14.7869 37.5436 14.7609 37.151 14.6516C36.7585 14.5422 36.3931 14.3517 36.0785 14.0925C35.7639 13.8334 35.5071 13.5111 35.3244 13.1466Z" stroke="url(#paint1_linear_2714_3617)" stroke-miterlimit="10"/>
<defs>
<linearGradient id="paint0_linear_2714_3617" x1="10.5884" y1="1.30653" x2="43.4353" y2="34.137" gradientUnits="userSpaceOnUse">
<stop stop-color="#231F20" stop-opacity="0"/>
<stop offset="0.37" stop-color="#231F20" stop-opacity="0.09"/>
<stop offset="0.67" stop-color="#231F20" stop-opacity="0.38"/>
<stop offset="0.94" stop-color="#231F20" stop-opacity="0.86"/>
<stop offset="1" stop-color="#231F20"/>
</linearGradient>
<linearGradient id="paint1_linear_2714_3617" x1="10.3257" y1="1.05088" x2="43.6911" y2="34.3923" gradientUnits="userSpaceOnUse">
<stop stop-color="#FDFDFE"/>
<stop offset="0.1" stop-color="#F4F4F5"/>
<stop offset="0.26" stop-color="#DDDDDE"/>
<stop offset="0.46" stop-color="#B6B6B7"/>
<stop offset="0.7" stop-color="#818181"/>
<stop offset="0.96" stop-color="#3E3E3E"/>
<stop offset="1" stop-color="#333333"/>
</linearGradient>
</defs>
</svg>
