<svg width="54" height="35" viewBox="0 0 54 35" fill="none" xmlns="http://www.w3.org/2000/svg">
<path d="M35.3244 13.1451L30.2662 3.02155C29.9636 2.41426 29.4976 1.90338 28.9206 1.54628C28.3436 1.18918 27.6786 1 27 1C26.3215 1 25.6563 1.18918 25.0794 1.54628C24.5024 1.90338 24.0364 2.41426 23.7337 3.02155L18.6756 13.1451C18.4929 13.5094 18.2361 13.8314 17.9215 14.0904C17.6069 14.3494 17.2415 14.5397 16.849 14.649C16.4564 14.7583 16.0453 14.7843 15.6421 14.7251C15.2389 14.666 14.8526 14.5231 14.508 14.3057L6.59592 9.32781C5.95603 8.92434 5.20657 8.72968 4.4512 8.77077C3.69584 8.81187 2.97194 9.08667 2.37959 9.55718C1.78724 10.0277 1.35574 10.6707 1.14478 11.3971C0.933826 12.1236 0.953818 12.8977 1.20203 13.6123L6.55213 29.0713C7.04842 30.5056 7.97947 31.7495 9.21571 32.6299C10.452 33.5103 11.9319 33.9835 13.4496 33.9835H40.5431C42.0608 33.9835 43.5408 33.5103 44.777 32.6299C46.0132 31.7495 46.9443 30.5056 47.4406 29.0713L52.798 13.6123C53.0462 12.8977 53.0662 12.1236 52.8552 11.3971C52.6443 10.6707 52.2128 10.0277 51.6204 9.55718C51.0281 9.08667 50.3041 8.81187 49.5488 8.77077C48.7934 8.72968 48.0439 8.92434 47.4041 9.32781L39.4921 14.3057C39.1474 14.5231 38.7611 14.666 38.3579 14.7251C37.9547 14.7843 37.5436 14.7583 37.151 14.649C36.7585 14.5397 36.3931 14.3494 36.0785 14.0904C35.764 13.8314 35.507 13.5094 35.3244 13.1451Z" fill="white"/>
<path d="M35.3244 13.1451L30.2662 3.02155C29.9636 2.41426 29.4976 1.90338 28.9206 1.54628C28.3436 1.18918 27.6786 1 27 1C26.3215 1 25.6563 1.18918 25.0794 1.54628C24.5024 1.90338 24.0364 2.41426 23.7337 3.02155L18.6756 13.1451C18.4929 13.5094 18.2361 13.8314 17.9215 14.0904C17.6069 14.3494 17.2415 14.5397 16.849 14.649C16.4564 14.7583 16.0453 14.7843 15.6421 14.7251C15.2389 14.666 14.8526 14.5231 14.508 14.3057L6.59592 9.32781C5.95603 8.92434 5.20657 8.72968 4.4512 8.77077C3.69584 8.81187 2.97194 9.08667 2.37959 9.55718C1.78724 10.0277 1.35574 10.6707 1.14478 11.3971C0.933826 12.1236 0.953818 12.8977 1.20203 13.6123L6.55213 29.0713C7.04842 30.5056 7.97947 31.7495 9.21571 32.6299C10.452 33.5103 11.9319 33.9835 13.4496 33.9835H40.5431C42.0608 33.9835 43.5408 33.5103 44.777 32.6299C46.0132 31.7495 46.9443 30.5056 47.4406 29.0713L52.798 13.6123C53.0462 12.8977 53.0662 12.1236 52.8552 11.3971C52.6443 10.6707 52.2128 10.0277 51.6204 9.55718C51.0281 9.08667 50.3041 8.81187 49.5488 8.77077C48.7934 8.72968 48.0439 8.92434 47.4041 9.32781L39.4921 14.3057C39.1474 14.5231 38.7611 14.666 38.3579 14.7251C37.9547 14.7843 37.5436 14.7583 37.151 14.649C36.7585 14.5397 36.3931 14.3494 36.0785 14.0904C35.764 13.8314 35.507 13.5094 35.3244 13.1451Z" fill="url(#paint0_linear_2716_3649)" style="mix-blend-mode:soft-light"/>
<path d="M35.3244 13.1451L30.2662 3.02155C29.9636 2.41426 29.4976 1.90338 28.9206 1.54628C28.3436 1.18918 27.6786 1 27 1C26.3215 1 25.6563 1.18918 25.0794 1.54628C24.5024 1.90338 24.0364 2.41426 23.7337 3.02155L18.6756 13.1451C18.4929 13.5094 18.2361 13.8314 17.9215 14.0904C17.6069 14.3494 17.2415 14.5397 16.849 14.649C16.4564 14.7583 16.0453 14.7843 15.6421 14.7251C15.2389 14.666 14.8526 14.5231 14.508 14.3057L6.59592 9.32781C5.95603 8.92434 5.20657 8.72968 4.4512 8.77077C3.69584 8.81187 2.97194 9.08667 2.37959 9.55718C1.78724 10.0277 1.35574 10.6707 1.14478 11.3971C0.933826 12.1236 0.953818 12.8977 1.20203 13.6123L6.55213 29.0713C7.04842 30.5056 7.97947 31.7495 9.21571 32.6299C10.452 33.5103 11.9319 33.9835 13.4496 33.9835H40.5431C42.0608 33.9835 43.5408 33.5103 44.777 32.6299C46.0132 31.7495 46.9443 30.5056 47.4406 29.0713L52.798 13.6123C53.0462 12.8977 53.0662 12.1236 52.8552 11.3971C52.6443 10.6707 52.2128 10.0277 51.6204 9.55718C51.0281 9.08667 50.3041 8.81187 49.5488 8.77077C48.7934 8.72968 48.0439 8.92434 47.4041 9.32781L39.4921 14.3057C39.1474 14.5231 38.7611 14.666 38.3579 14.7251C37.9547 14.7843 37.5436 14.7583 37.151 14.649C36.7585 14.5397 36.3931 14.3494 36.0785 14.0904C35.764 13.8314 35.507 13.5094 35.3244 13.1451Z" stroke="url(#paint1_linear_2716_3649)" stroke-miterlimit="10" style="mix-blend-mode:soft-light"/>
<defs>
<linearGradient id="paint0_linear_2716_3649" x1="8" y1="13" x2="27" y2="33.9835" gradientUnits="userSpaceOnUse">
<stop stop-color="#CAC9CA"/>
<stop offset="1" stop-color="#B2B2B2"/>
</linearGradient>
<linearGradient id="paint1_linear_2716_3649" x1="10.333" y1="1.05815" x2="43.667" y2="34.3995" gradientUnits="userSpaceOnUse">
<stop stop-color="#FDFDFE"/>
<stop offset="0.1" stop-color="#F4F4F5"/>
<stop offset="0.26" stop-color="#DDDDDE"/>
<stop offset="0.46" stop-color="#B6B6B7"/>
<stop offset="0.725" stop-color="#818181"/>
<stop offset="0.94" stop-color="#3E3E3E"/>
<stop offset="1" stop-color="#333333"/>
</linearGradient>
</defs>
</svg>
