<svg width="25" height="23" viewBox="0 0 25 23" fill="none" xmlns="http://www.w3.org/2000/svg">
<path d="M19.7485 0.625C20.0396 0.625 20.3103 0.764514 20.4794 0.995342L20.5455 1.09973L24.4889 8.38394L24.5347 8.49618L24.5493 8.5443L24.5736 8.66776L24.5806 8.78125C24.5806 8.86467 24.5694 8.94545 24.5483 9.02217L24.491 9.17444L24.4457 9.25733C24.419 9.30035 24.3886 9.34143 24.3544 9.38022L24.4267 9.2867L24.3971 9.32802L13.2202 22.0223C13.1235 22.1507 12.9986 22.2441 12.861 22.3025L12.7423 22.3424L12.6491 22.3634L12.499 22.3754L12.3778 22.3674L12.2353 22.3366C12.1626 22.3157 12.0918 22.2849 12.0256 22.2447L12.0145 22.2357C11.9575 22.2015 11.9044 22.1597 11.856 22.111L0.631696 9.36753L0.599989 9.32802L0.551571 9.25733C0.484533 9.14907 0.439716 9.0257 0.423379 8.89346L0.416504 8.78125L0.419948 8.70167L0.43591 8.59443C0.443389 8.55828 0.452935 8.52353 0.464426 8.48968L0.492001 8.419L0.525834 8.34973L4.45165 1.09973C4.59024 0.843793 4.84177 0.672282 5.12532 0.633398L5.24857 0.625H19.7485ZM16.1212 9.6875H8.87242L12.4985 18.976L16.1212 9.6875ZM6.92821 9.6875H3.32738L9.79317 17.0269L6.92821 9.6875ZM21.6675 9.6875H18.0678L15.2065 17.0221L21.6675 9.6875ZM8.8398 2.4375H5.78749L2.84163 7.875H7.0998L8.8398 2.4375ZM14.253 2.4375H10.7428L9.00171 7.875H15.9919L14.253 2.4375ZM19.2084 2.4375H16.1563L17.8963 7.875H22.152L19.2084 2.4375Z" fill="url(#paint0_linear_2246_36146)"/>
<defs>
<linearGradient id="paint0_linear_2246_36146" x1="12.4986" y1="0.625" x2="12.4986" y2="22.3754" gradientUnits="userSpaceOnUse">
<stop stop-color="#E2E2E2"/>
<stop offset="1" stop-color="#8C8C8C"/>
</linearGradient>
</defs>
</svg>
