<svg width="31" height="27" viewBox="0 0 31 27" fill="none" xmlns="http://www.w3.org/2000/svg">
<path d="M24.2487 0.375C24.6 0.375 24.9267 0.543379 25.1309 0.821964L25.2106 0.94795L29.9699 9.73923L30.0252 9.8747L30.0428 9.93277L30.0721 10.0818L30.0806 10.2187C30.0806 10.3194 30.067 10.4169 30.0415 10.5095L29.9724 10.6933L29.9177 10.7933C29.8855 10.8452 29.8489 10.8948 29.8076 10.9416L29.8948 10.8288L29.8591 10.8786L16.3698 26.1993C16.253 26.3543 16.1023 26.4671 15.9362 26.5375L15.793 26.5856L15.6804 26.611L15.4993 26.6254L15.353 26.6158L15.1811 26.5786C15.0933 26.5534 15.0078 26.5162 14.9279 26.4678L14.9145 26.4569C14.8458 26.4156 14.7817 26.3651 14.7233 26.3064L1.17671 10.9263L1.13844 10.8786L1.08 10.7933C0.999096 10.6627 0.945007 10.5138 0.92529 10.3542L0.916992 10.2187L0.921149 10.1227L0.940413 9.99328C0.94944 9.94964 0.960961 9.9077 0.97483 9.86685L1.00811 9.78156L1.04894 9.69795L5.78699 0.94795C5.95426 0.63906 6.25783 0.432064 6.60004 0.385135L6.74879 0.375H24.2487ZM19.8709 11.3125H11.1224L15.4987 22.5227L19.8709 11.3125ZM8.77595 11.3125H4.43012L12.2337 20.1704L8.77595 11.3125ZM26.5647 11.3125H22.2203L18.767 20.1646L26.5647 11.3125ZM11.083 2.5625H7.39921L3.84387 9.125H8.98303L11.083 2.5625ZM17.6162 2.5625H13.3798L11.2784 9.125H19.7149L17.6162 2.5625ZM23.5968 2.5625H19.9132L22.0132 9.125H27.1495L23.5968 2.5625Z" fill="url(#paint0_linear_2245_36142)"/>
<defs>
<linearGradient id="paint0_linear_2245_36142" x1="15.4988" y1="0.375" x2="15.4988" y2="26.6254" gradientUnits="userSpaceOnUse">
<stop stop-color="#FFE6CB"/>
<stop offset="1" stop-color="#D09556"/>
</linearGradient>
</defs>
</svg>
