<svg width="25" height="23" viewBox="0 0 25 23" fill="none" xmlns="http://www.w3.org/2000/svg">
<path d="M19.749 0.625C20.0401 0.625 20.3108 0.764514 20.4799 0.995342L20.546 1.09973L24.4894 8.38394L24.5352 8.49618L24.5498 8.5443L24.5741 8.66776L24.5811 8.78125C24.5811 8.86467 24.5699 8.94545 24.5487 9.02217L24.4915 9.17444L24.4462 9.25733C24.4194 9.30035 24.3891 9.34143 24.3549 9.38022L24.4272 9.2867L24.3976 9.32802L13.2207 22.0223C13.1239 22.1507 12.9991 22.2441 12.8615 22.3025L12.7428 22.3424L12.6496 22.3634L12.4995 22.3754L12.3783 22.3674L12.2358 22.3366C12.1631 22.3157 12.0923 22.2849 12.0261 22.2447L12.0149 22.2357C11.958 22.2015 11.9049 22.1597 11.8565 22.111L0.632184 9.36753L0.600478 9.32802L0.55206 9.25733C0.485021 9.14907 0.440204 9.0257 0.423868 8.89346L0.416992 8.78125L0.420436 8.70167L0.436398 8.59443C0.443878 8.55828 0.453423 8.52353 0.464915 8.48968L0.492489 8.419L0.526322 8.34973L4.45214 1.09973C4.59073 0.843793 4.84226 0.672282 5.12581 0.633398L5.24906 0.625H19.749ZM16.1217 9.6875H8.87291L12.499 18.976L16.1217 9.6875ZM6.9287 9.6875H3.32787L9.79366 17.0269L6.9287 9.6875ZM21.668 9.6875H18.0683L15.207 17.0221L21.668 9.6875ZM8.84028 2.4375H5.78797L2.84212 7.875H7.10028L8.84028 2.4375ZM14.2535 2.4375H10.7433L9.0022 7.875H15.9924L14.2535 2.4375ZM19.2089 2.4375H16.1567L17.8967 7.875H22.1525L19.2089 2.4375Z" fill="url(#paint0_linear_2246_36166)"/>
<defs>
<linearGradient id="paint0_linear_2246_36166" x1="12.4991" y1="0.625" x2="12.4991" y2="22.3754" gradientUnits="userSpaceOnUse">
<stop stop-color="#FFE6A5"/>
<stop offset="1" stop-color="#E3A544"/>
</linearGradient>
</defs>
</svg>
