<svg width="20" height="14" viewBox="0 0 20 14" fill="none" xmlns="http://www.w3.org/2000/svg">
<path fill-rule="evenodd" clip-rule="evenodd" d="M12.25 1.75C12.25 2.23325 11.8582 2.625 11.375 2.625C10.8918 2.625 10.5 2.23325 10.5 1.75H1.75V3.49953C2.83588 4.31409 3.5 5.59956 3.5 7C3.5 8.40044 2.83588 9.68591 1.75 10.5005V12.25H10.5C10.5 11.7668 10.8918 11.375 11.375 11.375C11.8582 11.375 12.25 11.7668 12.25 12.25H17.5V10.5005C16.4141 9.68591 15.75 8.40044 15.75 7C15.75 5.59956 16.4141 4.31409 17.5 3.49953V1.75H12.25ZM19.25 12.25C19.25 13.2165 18.4665 14 17.5 14H1.75C0.783502 14 0 13.2165 0 12.25V9.52707L0.436865 9.27436C1.24349 8.80775 1.75 7.94847 1.75 7C1.75 6.05153 1.24349 5.19225 0.436865 4.72564L0 4.47293V1.75C0 0.783502 0.783502 0 1.75 0H17.5C18.4665 0 19.25 0.783502 19.25 1.75V4.47293L18.8131 4.72564C18.0065 5.19225 17.5 6.05153 17.5 7C17.5 7.94847 18.0065 8.80775 18.8131 9.27436L19.25 9.52707V12.25ZM11.375 10.5C10.8918 10.5 10.5 10.1082 10.5 9.625C10.5 9.14175 10.8918 8.75 11.375 8.75C11.8582 8.75 12.25 9.14175 12.25 9.625C12.25 10.1082 11.8582 10.5 11.375 10.5ZM11.375 7.875C10.8918 7.875 10.5 7.48325 10.5 7C10.5 6.51675 10.8918 6.125 11.375 6.125C11.8582 6.125 12.25 6.51675 12.25 7C12.25 7.48325 11.8582 7.875 11.375 7.875ZM11.375 5.25C10.8918 5.25 10.5 4.85825 10.5 4.375C10.5 3.89175 10.8918 3.5 11.375 3.5C11.8582 3.5 12.25 3.89175 12.25 4.375C12.25 4.85825 11.8582 5.25 11.375 5.25Z" fill="#C60D0D"/>
</svg>
