<svg width="19" height="19" viewBox="0 0 19 19" fill="none" xmlns="http://www.w3.org/2000/svg">
<path fill-rule="evenodd" clip-rule="evenodd" d="M9.95042 16.645C10.0948 16.2884 10.4445 16.0368 10.8529 16.0368H16.2058C16.6142 16.0368 16.9639 16.2884 17.1083 16.645H18.0914C18.5953 16.645 19.0038 17.0535 19.0038 17.5574C19.0038 18.0614 18.5953 18.4699 18.0914 18.4699H8.96726C8.46334 18.4699 8.05484 18.0614 8.05484 17.5574C8.05484 17.0535 8.46334 16.645 8.96726 16.645H9.95042ZM9.31335 3.27144L12.8481 6.80623C13.0382 6.99626 13.0382 7.30438 12.8481 7.49442L10.0954 10.2472C9.90535 10.4372 9.59723 10.4372 9.4072 10.2472L8.34363 9.1836L2.49403 15.0332C2.304 15.2232 1.99588 15.2232 1.80585 15.0332L1.08638 14.3137C0.896338 14.1237 0.896338 13.8156 1.08638 13.6255L6.93598 7.77595L5.87241 6.71238C5.68237 6.52235 5.68237 6.21423 5.87241 6.02419L8.62516 3.27144C8.8152 3.0814 9.12331 3.0814 9.31335 3.27144ZM8.24197 0.823681L8.96144 1.54315C9.15148 1.73319 9.15148 2.0413 8.96144 2.23134L4.83231 6.36047C4.64227 6.55051 4.33416 6.55051 4.14412 6.36047L3.42465 5.641C3.23461 5.45096 3.23461 5.14285 3.42465 4.95281L7.55378 0.823681C7.74382 0.633643 8.05193 0.633643 8.24197 0.823681ZM14.5764 7.15814L15.2959 7.87761C15.4859 8.06765 15.4859 8.37576 15.2959 8.5658L11.1668 12.6949C10.9767 12.885 10.6686 12.885 10.4786 12.6949L9.75911 11.9755C9.56907 11.7854 9.56907 11.4773 9.75911 11.2873L13.8882 7.15814C14.0783 6.9681 14.3864 6.9681 14.5764 7.15814Z"/>
</svg>
