<svg width="11" height="16" viewBox="0 0 11 16" fill="none" xmlns="http://www.w3.org/2000/svg">
<path d="M6.25002 8.50004H8.25006C8.97934 8.50004 9.6788 8.21021 10.1945 7.69455C10.7103 7.17888 11 6.47942 11 5.74996V3.50006H9.50005V5.74996C9.50005 6.08147 9.36822 6.39938 9.13384 6.63393C8.89947 6.8683 8.58157 6.99997 8.25005 6.99997H6.25002V3.50007H4.74993V6.99997H1.4999V3.50007H0V12H1.50008L1.49991 8.50014H4.74994V12H6.25002V8.50004Z" fill="currentColor"/>
<path d="M1.50006 14.75C1.50006 15.1641 1.16437 15.5 0.750196 15.5C0.335858 15.5 0.000154935 15.1642 0.000154935 14.75C0.000154935 14.3358 0.335845 13.9999 0.750196 13.9999C1.16436 13.9999 1.50006 14.3358 1.50006 14.75Z" fill="currentColor"/>
<path d="M6.25004 14.75C6.25004 15.1641 5.91418 15.5 5.5 15.5C5.08582 15.5 4.74996 15.1642 4.74996 14.75C4.74996 14.3358 5.08582 13.9999 5.5 13.9999C5.91418 13.9999 6.25004 14.3358 6.25004 14.75Z" fill="currentColor"/>
<path d="M1.50008 0.750041C1.50008 1.1642 1.16439 1.50008 0.750217 1.50008C0.33588 1.50008 0.00017627 1.16422 0.00017627 0.750041C0.00017627 0.335878 0.335866 0 0.750217 0C1.16438 0 1.50008 0.335864 1.50008 0.750041Z" fill="currentColor"/>
<path d="M6.25004 0.750041C6.25004 1.1642 5.91418 1.50008 5.5 1.50008C5.08582 1.50008 4.74996 1.16422 4.74996 0.750041C4.74996 0.335878 5.08582 0 5.5 0C5.91418 0 6.25004 0.335864 6.25004 0.750041Z" fill="currentColor"/>
<path d="M11 0.750041C11 1.1642 10.6643 1.50008 10.25 1.50008C9.8358 1.50008 9.5001 1.16422 9.5001 0.750041C9.5001 0.335878 9.83579 0 10.25 0C10.6643 0 11 0.335864 11 0.750041Z" fill="currentColor"/>
</svg>
