<svg width="14" height="14" viewBox="0 0 14 14" fill="none" xmlns="http://www.w3.org/2000/svg">
<path d="M10.75 0.25H6.25C4.6 0.25 3.25 1.6 3.25 3.25C1.6 3.25 0.25 4.6 0.25 6.25V10.75C0.25 12.4 1.6 13.75 3.25 13.75H7.75C9.4 13.75 10.75 12.4 10.75 10.75C12.4 10.75 13.75 9.4 13.75 7.75V3.25C13.75 1.6 12.4 0.25 10.75 0.25ZM9.25 10.75C9.25 11.575 8.575 12.25 7.75 12.25H3.25C2.425 12.25 1.75 11.575 1.75 10.75V6.25C1.75 5.425 2.425 4.75 3.25 4.75H4H7.75C8.575 4.75 9.25 5.425 9.25 6.25V10V10.75ZM12.25 7.75C12.25 8.575 11.575 9.25 10.75 9.25V6.25C10.75 4.6 9.4 3.25 7.75 3.25H4.75C4.75 2.425 5.425 1.75 6.25 1.75H10.75C11.575 1.75 12.25 2.425 12.25 3.25V7.75Z" fill="#B4B4B4"/>
</svg>
