<svg width="21" height="21" viewBox="0 0 21 21" fill="none" xmlns="http://www.w3.org/2000/svg">
<g clip-path="url(#clip0_2141_2131)">
<path d="M18.7106 7.23457V4.31865L15.7774 2.85204L12.9254 0L10.06 0.716005L7.19465 0L4.34261 2.85204L1.40938 4.31865V7.23457L0 10.0533L1.40938 12.8721V15.788L4.34261 17.2546L7.19465 20.1067L10.06 19.3907L12.9254 20.1067L15.7774 17.2546L18.7106 15.788V12.8721L20.12 10.0533L18.7106 7.23457ZM17.3798 12.558V14.9656L15.0853 16.1128L12.5181 18.6321L10.06 18.0172L7.60189 18.6321L5.20634 16.2365L2.73892 14.9642V12.558L1.48791 10.0533L2.74025 7.54866V5.14113L5.03466 3.99392L7.60323 1.47327L10.0613 2.08812L12.5194 1.47327L14.915 3.86882L17.3824 5.14113V7.54866L18.6321 10.0533L17.3798 12.558Z" fill="#fff"/>
<path d="M13.5815 5.59084L5.59668 13.5757L6.53773 14.5167L14.5226 6.5319L13.5815 5.59084Z" fill="#fff"/>
<path d="M7.39815 9.38785C8.49878 9.38785 9.39445 8.49218 9.39445 7.39156C9.39445 6.29093 8.49878 5.39526 7.39815 5.39526C6.29753 5.39526 5.40186 6.29093 5.40186 7.39156C5.40186 8.49218 6.29753 9.38785 7.39815 9.38785ZM7.39815 6.72613C7.76547 6.72613 8.06358 7.02424 8.06358 7.39156C8.06358 7.75888 7.76547 8.05699 7.39815 8.05699C7.03083 8.05699 6.73272 7.75888 6.73272 7.39156C6.73272 7.02424 7.03083 6.72613 7.39815 6.72613Z" fill="#fff"/>
<path d="M12.7219 10.7188C11.6213 10.7188 10.7256 11.6144 10.7256 12.715C10.7256 13.8157 11.6213 14.7113 12.7219 14.7113C13.8225 14.7113 14.7182 13.8157 14.7182 12.715C14.7182 11.6144 13.8225 10.7188 12.7219 10.7188ZM12.7219 13.3805C12.3546 13.3805 12.0564 13.0824 12.0564 12.715C12.0564 12.3477 12.3546 12.0496 12.7219 12.0496C13.0892 12.0496 13.3873 12.3477 13.3873 12.715C13.3873 13.0824 13.0892 13.3805 12.7219 13.3805Z" fill="#fff"/>
</g>
<defs>
<clipPath id="clip0_2141_2131">
<rect width="20.12" height="20.1054" fill="white"/>
</clipPath>
</defs>
</svg>
