<svg width="21" height="15" viewBox="0 0 21 15" fill="none" xmlns="http://www.w3.org/2000/svg">
<path fill-rule="evenodd" clip-rule="evenodd" d="M13.125 2.25C13.125 2.73325 12.7332 3.125 12.25 3.125C11.7668 3.125 11.375 2.73325 11.375 2.25H2.625V3.99953C3.71088 4.81409 4.375 6.09956 4.375 7.5C4.375 8.90044 3.71088 10.1859 2.625 11.0005V12.75H11.375C11.375 12.2668 11.7668 11.875 12.25 11.875C12.7332 11.875 13.125 12.2668 13.125 12.75H18.375V11.0005C17.2891 10.1859 16.625 8.90044 16.625 7.5C16.625 6.09956 17.2891 4.81409 18.375 3.99953V2.25H13.125ZM20.125 12.75C20.125 13.7165 19.3415 14.5 18.375 14.5H2.625C1.6585 14.5 0.875 13.7165 0.875 12.75V10.0271L1.31186 9.77436C2.11849 9.30775 2.625 8.44847 2.625 7.5C2.625 6.55153 2.11849 5.69225 1.31186 5.22564L0.875 4.97293V2.25C0.875 1.2835 1.6585 0.5 2.625 0.5H18.375C19.3415 0.5 20.125 1.2835 20.125 2.25V4.97293L19.6881 5.22564C18.8815 5.69225 18.375 6.55153 18.375 7.5C18.375 8.44847 18.8815 9.30775 19.6881 9.77436L20.125 10.0271V12.75ZM12.25 11C11.7668 11 11.375 10.6082 11.375 10.125C11.375 9.64175 11.7668 9.25 12.25 9.25C12.7332 9.25 13.125 9.64175 13.125 10.125C13.125 10.6082 12.7332 11 12.25 11ZM12.25 8.375C11.7668 8.375 11.375 7.98325 11.375 7.5C11.375 7.01675 11.7668 6.625 12.25 6.625C12.7332 6.625 13.125 7.01675 13.125 7.5C13.125 7.98325 12.7332 8.375 12.25 8.375ZM12.25 5.75C11.7668 5.75 11.375 5.35825 11.375 4.875C11.375 4.39175 11.7668 4 12.25 4C12.7332 4 13.125 4.39175 13.125 4.875C13.125 5.35825 12.7332 5.75 12.25 5.75Z" fill="white"/>
</svg>
