<svg width="24" height="11" viewBox="0 0 24 11" fill="none" xmlns="http://www.w3.org/2000/svg">
<path d="M18.502 10.4216C17.1237 10.4216 16.002 9.30005 16.002 7.92148C16.002 6.54311 17.1235 5.42139 18.502 5.42139C19.8804 5.42139 21.0021 6.54292 21.0021 7.92148C21.0021 9.3 19.8806 10.4216 18.502 10.4216ZM18.502 6.42165C17.6749 6.42165 17.002 7.09449 17.002 7.92172C17.002 8.74894 17.6748 9.42178 18.502 9.42178C19.3292 9.42178 20.0021 8.74894 20.0021 7.92172C20.0021 7.09449 19.3293 6.42165 18.502 6.42165Z" fill="white"/>
<path d="M4.70371 10.4216C3.32533 10.4216 2.20361 9.30005 2.20361 7.92148C2.20361 6.54311 3.32515 5.42139 4.70371 5.42139C6.08209 5.42139 7.20381 6.54292 7.20381 7.92148C7.20381 9.3 6.08227 10.4216 4.70371 10.4216ZM4.70371 6.42165C3.87653 6.42165 3.20364 7.09449 3.20364 7.92172C3.20364 8.74894 3.87649 9.42178 4.70371 9.42178C5.53088 9.42178 6.20378 8.74894 6.20378 7.92172C6.20378 7.09449 5.53093 6.42165 4.70371 6.42165Z" fill="white"/>
<path d="M23.5001 9.00428H20.4152C20.2565 9.00428 20.1027 8.92901 20.0084 8.80115C19.9141 8.67365 19.8814 8.50861 19.9278 8.35736C19.9786 8.19177 20.0026 8.05357 20.0026 7.92172C20.0026 7.09455 19.3297 6.42166 18.5025 6.42166C17.6753 6.42166 17.0024 7.0945 17.0024 7.92172C17.0024 8.05303 17.0258 8.19177 17.0766 8.35826C17.123 8.5097 17.0947 8.6742 17.0004 8.80169C16.9061 8.92919 16.7572 9.00428 16.5985 9.00428H6.6066C6.44791 9.00428 6.29847 8.92901 6.20434 8.80115C6.11003 8.67365 6.08228 8.50861 6.12871 8.35736C6.17949 8.19322 6.20289 8.05466 6.20289 7.92172C6.20289 7.09455 5.53005 6.42166 4.70282 6.42166C3.8756 6.42166 3.20276 7.0945 3.20276 7.92172C3.20276 8.05212 3.2267 8.19069 3.27748 8.35826C3.32391 8.5097 3.29562 8.6742 3.20131 8.80169C3.107 8.92919 2.9581 9.00428 2.79941 9.00428H1.82042C1.75784 9.00428 1.69582 8.99249 1.63778 8.96964L0.592765 8.55994C0.42428 8.4941 0.304763 8.34176 0.279733 8.16203L0.00442443 6.14201C-0.0146188 5.99946 0.0283648 5.85545 0.122674 5.747L0.660226 5.12727V3.56429C0.660226 3.44078 0.706111 3.32163 0.788629 3.22932L2.56889 1.25429C2.61768 1.20061 2.67735 1.15762 2.74427 1.12933C2.95429 1.03955 7.974 -1.04595 14.7986 0.684447C14.8439 0.696236 14.8874 0.714191 14.9279 0.737585L18.3888 2.76304L23.1626 4.02079C23.3398 4.06722 23.4771 4.20723 23.521 4.38552L23.7559 5.34548C23.7622 5.37177 23.7666 5.39916 23.7686 5.42655L23.9985 8.46656C24.0092 8.6053 23.9613 8.74187 23.8667 8.84398C23.772 8.94626 23.6392 9.0043 23.5 9.0043L23.5001 9.00428ZM21.0011 8.00443H22.9611L22.7747 5.54296L22.6203 4.91218L18.0681 3.71302C18.0243 3.70178 17.9822 3.68419 17.9432 3.66133L14.4846 1.63695C8.53848 0.151598 3.9504 1.73905 3.23354 2.01146L1.6602 3.75616V5.31426C1.6602 5.43487 1.61668 5.55112 1.5376 5.64198L1.02582 6.2314L1.23094 7.73634L1.91502 8.00439H2.20412C2.20321 7.97701 2.20267 7.94926 2.20267 7.92187C2.20267 6.5435 3.3242 5.42178 4.70276 5.42178C6.08114 5.42178 7.20286 6.54331 7.20286 7.92187C7.20286 7.94926 7.20231 7.97664 7.20141 8.00439H16.0043C16.0034 7.97664 16.0028 7.94926 16.0028 7.92187C16.0028 6.5435 17.1244 5.42178 18.5029 5.42178C19.8813 5.42178 21.003 6.54331 21.003 7.92187C21.0027 7.94908 21.0021 7.97646 21.0012 8.00439L21.0011 8.00443Z" fill="white"/>
<path d="M20.5044 4.42158H1.16215C0.885752 4.42158 0.662109 4.19796 0.662109 3.92155C0.662109 3.64513 0.885729 3.42151 1.16215 3.42151H20.5044C20.7808 3.42151 21.0044 3.64513 21.0044 3.92155C21.0044 4.19796 20.7808 4.42158 20.5044 4.42158Z" fill="white"/>
<path d="M11.5025 4.42148C11.2261 4.42148 11.0024 4.19786 11.0024 3.92144V0.610512C11.0024 0.334117 11.2261 0.110474 11.5025 0.110474C11.7789 0.110474 12.0025 0.334093 12.0025 0.610512V3.92162C12.0023 4.19784 11.7787 4.42148 11.5025 4.42148Z" fill="white"/>
</svg>
