<svg width="20" height="20" viewBox="0 0 20 20" fill="none" xmlns="http://www.w3.org/2000/svg">
<path d="M2.66636 4.66675C2.66636 2.82578 4.15879 1.33336 5.99976 1.33336H15.3333C17.1742 1.33336 18.6666 2.82575 18.6666 4.66675V14.0002C18.6666 15.8412 17.1743 17.3336 15.3333 17.3336H12.9999C12.6317 17.3336 12.3332 17.6321 12.3332 18.0003C12.3332 18.3685 12.6317 18.667 12.9999 18.667H15.3333C17.9106 18.667 20 16.5776 20 14.0002V4.66675C20 2.08937 17.9106 0 15.3333 0H5.99976C3.42238 0 1.33301 2.08937 1.33301 4.66675V9.66684C1.33301 10.035 1.63149 10.3335 1.99969 10.3335C2.36788 10.3335 2.66636 10.035 2.66636 9.66684V4.66675Z" fill="#C60D0D"/>
<path d="M10.3332 4.66675C9.96498 4.66675 9.6665 4.96522 9.6665 5.33343C9.6665 5.70163 9.96498 6.0001 10.3332 6.0001H15.6666C16.0348 6.0001 16.3333 5.70163 16.3333 5.33343C16.3333 4.96522 16.0348 4.66675 15.6666 4.66675H10.3332Z" fill="#C60D0D"/>
<path d="M9.6665 8.66668C9.6665 8.29847 9.96498 8 10.3332 8H15.6666C16.0348 8 16.3333 8.29847 16.3333 8.66668C16.3333 9.03488 16.0348 9.33336 15.6666 9.33336H10.3332C9.96498 9.33336 9.6665 9.03488 9.6665 8.66668Z" fill="#C60D0D"/>
<path fill-rule="evenodd" clip-rule="evenodd" d="M1.75591 12.1659C1.99669 11.4611 2.66559 10.9999 3.40326 10.9999H7.93027C8.66795 10.9999 9.33683 11.4611 9.57763 12.1659L9.985 13.3584C10.2918 13.2322 10.6517 13.3516 10.8188 13.6481C10.9995 13.9689 10.886 14.3754 10.5651 14.5562L10.5309 14.5754C11.0173 14.9501 11.3335 15.5327 11.3335 16.1969V18.2879C11.3335 19.2488 10.5398 20 9.5954 20C8.81992 20 8.14604 19.4935 7.92977 18.7803H3.40376C3.18749 19.4935 2.51361 20 1.73813 20C0.793704 20 0 19.2488 0 18.2879V16.1969C0 15.5396 0.309739 14.9622 0.787504 14.5871L0.732496 14.5562C0.411704 14.3754 0.298152 13.9689 0.478872 13.6481C0.651584 13.3415 1.03057 13.2242 1.34383 13.3722L1.75591 12.1659ZM2.4918 14.1363L3.01769 12.5969C3.06855 12.448 3.21856 12.3332 3.40326 12.3332H7.93027C8.11497 12.3332 8.26497 12.448 8.31584 12.5969L8.84172 14.1363H2.4918ZM2.63099 15.8788C2.26279 15.8788 1.96431 16.1772 1.96431 16.5454C1.96431 16.9136 2.26279 17.2121 2.63099 17.2121H3.34529C3.71346 17.2121 4.01197 16.9136 4.01197 16.5454C4.01197 16.1772 3.71346 15.8788 3.34529 15.8788H2.63099ZM7.80963 15.8788C7.44146 15.8788 7.14296 16.1772 7.14296 16.5454C7.14296 16.9136 7.44146 17.2121 7.80963 17.2121H8.52395C8.89215 17.2121 9.19062 16.9136 9.19062 16.5454C9.19062 16.1772 8.89215 15.8788 8.52395 15.8788H7.80963Z" fill="#C60D0D"/>
<path d="M4.85035 4.82548C4.59618 5.09188 4.60608 5.51389 4.87248 5.76806L5.62116 6.48234C5.74923 6.60454 5.92063 6.67077 6.0976 6.66647C6.27457 6.66217 6.44254 6.58767 6.56451 6.45937L8.14921 4.79268C8.40291 4.52584 8.39228 4.10386 8.12544 3.85016C7.8586 3.59645 7.43663 3.60709 7.18292 3.87393L6.0584 5.05665L5.7929 4.80334C5.52649 4.54917 5.10449 4.5591 4.85035 4.82548Z" fill="#C60D0D"/>
<path d="M4.87248 9.43468C4.60608 9.18051 4.59618 8.75851 4.85035 8.4921C5.10449 8.22573 5.52649 8.2158 5.7929 8.46997L6.0584 8.72327L7.18292 7.54055C7.43663 7.27371 7.8586 7.26308 8.12544 7.51678C8.39228 7.77049 8.40291 8.19246 8.14921 8.4593L6.56451 10.126C6.44254 10.2543 6.27457 10.3288 6.0976 10.3331C5.92063 10.3374 5.74923 10.2712 5.62116 10.149L4.87248 9.43468Z" fill="#C60D0D"/>
</svg>
