<svg width="20" height="18" viewBox="0 0 20 18" fill="none" xmlns="http://www.w3.org/2000/svg">
<path d="M18.3506 5.82541L13.2673 5.10224L10.9954 0.604959C10.7951 0.202819 10.3958 -6.79177e-05 9.96867 1.70548e-08C9.60409 1.70548e-08 9.20478 0.200374 9.00339 0.604619L6.72909 5.1019L1.64819 5.82541C0.736032 5.95448 0.370754 7.05163 1.03187 7.68002L4.70895 11.1481L3.8402 16.1209C3.7152 16.824 4.29159 17.3913 4.93742 17.3913C5.10867 17.3913 5.28499 17.3515 5.45409 17.2639L9.99992 14.9321L14.5451 17.2656C14.714 17.3523 14.8897 17.3917 15.0607 17.3917C15.7069 17.3917 16.2833 16.8275 16.1596 16.121L15.2899 11.1788L18.9669 7.7107C19.6284 7.05163 19.2638 5.95448 18.3506 5.82541ZM13.5485 10.8899L14.3263 15.3091L10.2569 13.2208C10.0952 13.1378 9.90235 13.1378 9.74055 13.2208L5.67353 15.3091L6.45131 10.8899C6.48256 10.7133 6.39228 10.5333 6.29159 10.4076L3.00339 7.27955L7.54853 6.63281C7.72909 6.60666 7.88534 6.49456 7.9652 6.33492L9.99992 2.30944L12.0343 6.33458C12.1152 6.4948 12.2716 6.60584 12.4524 6.63159L16.9975 7.27833L13.7093 10.4064C13.5763 10.5333 13.5173 10.7133 13.5485 10.8899Z" fill="white"/>
</svg>
