<svg width="24" height="24" viewBox="0 0 24 24" fill="none" xmlns="http://www.w3.org/2000/svg">
<path d="M23.2772 10.5439L21.0563 8.32304V5.17054C21.0563 4.5959 20.8281 4.0448 20.4217 3.63847C20.0154 3.23214 19.4643 3.00387 18.8897 3.00387H15.748L13.5272 0.837204C13.1212 0.43366 12.5721 0.207153 11.9997 0.207153C11.4273 0.207153 10.8781 0.43366 10.4722 0.837204L8.25134 3.0147H5.09884C4.52421 3.0147 3.97311 3.24298 3.56678 3.64931C3.16045 4.05563 2.93218 4.60673 2.93218 5.18137V8.32304L0.765509 10.5439C0.556181 10.7405 0.388044 10.9769 0.270875 11.2391C0.153707 11.5013 0.089847 11.7842 0.0830085 12.0714C0.0825519 12.6435 0.308428 13.1926 0.711342 13.5989L2.94301 15.8197V18.9722C2.94301 19.5468 3.17128 20.0979 3.57761 20.5043C3.98394 20.9106 4.53504 21.1389 5.10967 21.1389H8.25134L10.4722 23.3597C10.8784 23.7626 11.4275 23.9885 11.9997 23.988C12.5718 23.9885 13.1209 23.7626 13.5272 23.3597L15.748 21.128H18.9005C19.4751 21.128 20.0262 20.8998 20.4326 20.4934C20.8389 20.0871 21.0672 19.536 21.0672 18.9614V15.8197L23.288 13.5989C23.6916 13.1929 23.9181 12.6438 23.9181 12.0714C23.9181 11.499 23.6916 10.9498 23.288 10.5439H23.2772ZM18.8897 14.9314V18.9614H14.8597L11.9997 21.8214L9.13968 18.9614H5.10967V14.9314L2.24968 12.0714L5.10967 9.21137V5.18137H9.13968L11.9997 2.32137L14.8597 5.18137H18.8897V9.21137L21.7497 12.0714L18.8897 14.9314Z" fill="#C60D0D"/>
<path d="M10.9166 12.8622L8.43579 10.3814L6.89746 11.9089L10.9166 15.9281L17.1025 9.74222L15.5641 8.21472L10.9166 12.8622Z" fill="#C60D0D"/>
</svg>
