<svg width="15" height="14" viewBox="0 0 15 14" fill="none" xmlns="http://www.w3.org/2000/svg">
<path d="M1.0992 5.06861L7.1277 12.8878C7.17151 12.9449 7.22788 12.9912 7.29244 13.023C7.357 13.0549 7.42802 13.0714 7.5 13.0714C7.57198 13.0714 7.643 13.0549 7.70756 13.023C7.77212 12.9912 7.82849 12.9449 7.8723 12.8878L13.9008 5.06861C13.9601 4.99144 13.9945 4.89805 13.9994 4.80086C14.0043 4.70368 13.9795 4.60729 13.9284 4.52452L11.8835 1.22373C11.8414 1.15542 11.7825 1.09901 11.7125 1.05985C11.6424 1.02069 11.5635 1.00009 11.4833 1H3.51669C3.43645 1.00009 3.35757 1.02069 3.28753 1.05985C3.2175 1.09901 3.15863 1.15542 3.11653 1.22373L1.07163 4.52452C1.02046 4.60729 0.99569 4.70368 1.00061 4.80086C1.00554 4.89805 1.03992 4.99144 1.0992 5.06861Z" stroke="#FCFCFC" stroke-linecap="round" stroke-linejoin="round"/>
<path d="M1 4.71436H13.0714" stroke="#FCFCFC" stroke-linecap="round" stroke-linejoin="round"/>
<path d="M11.2143 1.46429L9.97619 4.71429L7.5 1" stroke="#FCFCFC" stroke-linecap="round" stroke-linejoin="round"/>
<path d="M2.85742 1.46429L4.40504 4.71429L7.50028 1" stroke="#FCFCFC" stroke-linecap="round" stroke-linejoin="round"/>
<path d="M7.50007 12.1429L4.71436 4.71436" stroke="#FCFCFC" stroke-linecap="round" stroke-linejoin="round"/>
<path d="M7.5 12.1429L10.2857 4.71436" stroke="#FCFCFC" stroke-linecap="round" stroke-linejoin="round"/>
</svg>
