<svg width="22" height="17" viewBox="0 0 22 17" fill="none" xmlns="http://www.w3.org/2000/svg">
<path d="M21.5054 0H3.8777C3.6763 0 3.51318 0.16312 3.51318 0.364513C3.51318 0.565906 3.6763 0.729026 3.8777 0.729026H21.141V2.91611H9.27249C9.0711 2.91611 8.90798 3.07923 8.90798 3.28062C8.90798 3.48201 9.0711 3.64513 9.27249 3.64513H21.141V12.3934H14.9444C14.4678 12.3998 14.4633 13.1152 14.9444 13.1225H21.5057C21.7071 13.1225 21.8702 12.9594 21.8702 12.758V0.364513C21.8702 0.16312 21.7071 0 21.5057 0H21.5054Z" fill="white"/>
<path d="M10.5703 1.82239C10.5621 1.34306 9.84952 1.34306 9.84131 1.82239C9.84951 2.30173 10.5621 2.30173 10.5703 1.82239Z" fill="white"/>
<path d="M8.38284 1.82239C8.37463 1.34306 7.66202 1.34306 7.65381 1.82239C7.66201 2.30173 8.37462 2.30173 8.38284 1.82239Z" fill="white"/>
<path d="M6.19582 1.82239C6.18762 1.34306 5.47501 1.34306 5.4668 1.82239C5.475 2.30173 6.18761 2.30173 6.19582 1.82239Z" fill="white"/>
<path d="M5.79845 4.52355C5.85677 4.39597 5.8349 4.24288 5.74013 4.13352L3.18842 1.21741C3.04991 1.06067 2.78017 1.06067 2.64164 1.21741L0.0899295 4.13352C-0.117842 4.3586 0.0598563 4.74772 0.36332 4.73862H1.45686V16.0386C1.45686 16.2391 1.62089 16.4032 1.82137 16.4032H4.00845C4.20894 16.4032 4.37297 16.2391 4.37297 16.0386V4.73862H5.46651C5.60867 4.73862 5.74013 4.65478 5.79845 4.52355Z" fill="white"/>
<path d="M10.5372 6.71056C10.5955 6.58298 10.5737 6.42989 10.4789 6.32053L7.92719 3.40442C7.78868 3.24768 7.51894 3.24768 7.38041 3.40442L4.8287 6.32053C4.62093 6.54561 4.79863 6.93473 5.10209 6.92563H6.19563V16.0383C6.19563 16.2388 6.35966 16.4029 6.56014 16.4029H8.74722C8.94771 16.4029 9.11174 16.2388 9.11174 16.0383V6.92563H10.2053C10.3474 6.92563 10.4789 6.84179 10.5372 6.71056Z" fill="white"/>
<path d="M15.276 9.6267C15.3343 9.49912 15.3124 9.34603 15.2177 9.23667L12.666 6.32056C12.5274 6.16382 12.2577 6.16382 12.1192 6.32056L9.56747 9.23667C9.3597 9.46175 9.5374 9.85087 9.84086 9.84177H10.9344V16.0384C10.9344 16.2389 11.0984 16.4029 11.2989 16.4029H13.486C13.6865 16.4029 13.8505 16.2389 13.8505 16.0384V9.84177H14.944C15.0862 9.84177 15.2177 9.75793 15.276 9.6267Z" fill="white"/>
</svg>
