<svg width="28" height="28" viewBox="0 0 28 28" fill="none" xmlns="http://www.w3.org/2000/svg">
<path d="M20.125 3.5L15.75 6.78125V12.4688L13.125 10.5L8.75 13.7812V19.4688L6.125 17.5L1.75 20.7812V26.25H3.5V21.6562L6.125 19.6875L8.75 21.6562V26.25H10.5V14.6562L13.125 12.6875L15.75 14.6562V26.25H17.5V7.65625L20.125 5.6875L22.75 7.65625V26.25H24.5V6.78125L20.125 3.5Z"/>
<g clip-path="url(#clip0_2706_3494)">
<path d="M3.7383 3.02026C3.76404 3.71213 3.64674 4.40187 3.39373 5.04633C3.14072 5.6908 2.75744 6.27612 2.26788 6.76568C1.77831 7.25524 1.19299 7.63852 0.548531 7.89153C-0.0959311 8.14454 -0.78567 8.26185 -1.47754 8.2361C-0.78567 8.21036 -0.0959311 8.32767 0.548531 8.58068C1.19299 8.83369 1.77831 9.21696 2.26788 9.70653C2.75744 10.1961 3.14072 10.7814 3.39373 11.4259C3.64674 12.0703 3.76404 12.7601 3.7383 13.4519C3.71256 12.7601 3.82986 12.0703 4.08287 11.4259C4.33588 10.7814 4.71916 10.1961 5.20872 9.70653C5.69828 9.21697 6.2836 8.83369 6.92807 8.58068C7.57253 8.32767 8.26227 8.21036 8.95413 8.2361C8.26227 8.26185 7.57253 8.14454 6.92807 7.89153C6.2836 7.63852 5.69828 7.25524 5.20872 6.76568C4.71916 6.27612 4.33588 5.6908 4.08287 5.04633C3.82986 4.40187 3.71256 3.71213 3.7383 3.02026Z"/>
<path d="M9.03462 0.645508C9.04809 1.00776 8.98668 1.36889 8.85421 1.70632C8.72173 2.04374 8.52106 2.3502 8.26473 2.60653C8.00841 2.86286 7.70195 3.06353 7.36452 3.196C7.02709 3.32847 6.66596 3.38989 6.30371 3.37641C6.66596 3.36293 7.02709 3.42435 7.36452 3.55682C7.70195 3.68929 8.00841 3.88997 8.26473 4.14629C8.52106 4.40262 8.72173 4.70908 8.85421 5.04651C8.98668 5.38393 9.04809 5.74507 9.03462 6.10731C9.02114 5.74507 9.08256 5.38393 9.21503 5.04651C9.3475 4.70908 9.54817 4.40262 9.8045 4.1463C10.0608 3.88997 10.3673 3.6893 10.7047 3.55682C11.0421 3.42435 11.4033 3.36294 11.7655 3.37641C11.4033 3.38989 11.0421 3.32847 10.7047 3.196C10.3673 3.06353 10.0608 2.86285 9.8045 2.60653C9.54817 2.3502 9.3475 2.04374 9.21503 1.70632C9.08256 1.36889 9.02114 1.00776 9.03462 0.645508Z"/>
</g>
<defs>
<clipPath id="clip0_2706_3494">
<rect width="14" height="14" fill="white" transform="translate(-2)"/>
</clipPath>
</defs>
</svg>
