<svg width="97" height="90" viewBox="0 0 97 90" fill="none" xmlns="http://www.w3.org/2000/svg">
<path d="M91.4941 1.08694e-06C89.5098 -0.00103399 87.5774 0.737219 85.9805 2.10644H97.0078C95.4109 0.737219 93.4785 -0.00103399 91.4941 1.08694e-06Z" fill="url(#paint0_linear_2730_3712)"/>
<path d="M4.63825e-09 81.3308C0.000529038 83.0173 0.341334 84.6801 0.995037 86.1858C1.64874 87.6914 2.59712 88.9978 3.76399 90.0001V72.6572C2.59662 73.6599 1.64794 74.967 0.99421 76.4735C0.340483 77.9799 -4.5889e-05 79.6436 4.63825e-09 81.3308Z" fill="url(#paint1_linear_2730_3712)"/>
<path d="M1.91293e-07 81.3307C-4.57024e-05 79.6435 0.340483 77.9798 0.99421 76.4734C1.64794 74.967 2.59662 73.6598 3.76399 72.6571L85.9874 2.10644C87.5843 0.73722 89.5167 -0.00103361 91.501 1.46364e-06H49.0532C47.1257 -0.00116618 45.246 0.696322 43.6755 1.99535L3.89632 34.9036C2.69133 35.8997 1.70888 37.2165 1.03106 38.7439C0.35323 40.2714 -0.000300218 41.9653 1.91293e-07 43.684V81.3307Z" fill="#B00B00"/>
<path d="M1.91293e-07 81.3307C-4.57024e-05 79.6435 0.340483 77.9798 0.99421 76.4734C1.64794 74.967 2.59662 73.6598 3.76399 72.6571L85.9874 2.10644C87.5843 0.73722 89.5167 -0.00103361 91.501 1.46364e-06H49.0532C47.1257 -0.00116618 45.246 0.696322 43.6755 1.99535L3.89632 34.9036C2.69133 35.8997 1.70888 37.2165 1.03106 38.7439C0.35323 40.2714 -0.000300218 41.9653 1.91293e-07 43.684V81.3307Z" fill="url(#paint2_linear_2730_3712)"/>
<path d="M1.91293e-07 81.3307C-4.57024e-05 79.6435 0.340483 77.9798 0.99421 76.4734C1.64794 74.967 2.59662 73.6598 3.76399 72.6571L85.9874 2.10644C87.5843 0.73722 89.5167 -0.00103361 91.501 1.46364e-06H49.0532C47.1257 -0.00116618 45.246 0.696322 43.6755 1.99535L3.89632 34.9036C2.69133 35.8997 1.70888 37.2165 1.03106 38.7439C0.35323 40.2714 -0.000300218 41.9653 1.91293e-07 43.684V81.3307Z" fill="url(#paint3_linear_2730_3712)"/>
<path d="M14.3468 50.472C13.797 50.9348 13.2512 51.2357 12.7094 51.3747C12.1687 51.5005 11.6113 51.5122 11.0371 51.41L11.19 50.0917C11.6327 50.1827 12.0569 50.1793 12.4627 50.0817C12.8685 49.9841 13.2535 49.782 13.6176 49.4754C14.0032 49.1508 14.2317 48.8425 14.3031 48.5506C14.3757 48.2455 14.3038 47.9644 14.0874 47.7074C13.895 47.4789 13.6728 47.3671 13.4206 47.3719C13.1697 47.3636 12.869 47.4703 12.5188 47.692L11.9095 48.0768C11.6153 48.2635 11.3173 48.4168 11.0155 48.5366C10.7138 48.6564 10.4166 48.7237 10.1239 48.7383C9.83829 48.7469 9.5578 48.6963 9.2824 48.5865C9.01413 48.4708 8.75677 48.2665 8.51032 47.9738C8.26988 47.6882 8.11004 47.3896 8.0308 47.0781C7.94555 46.7595 7.9362 46.4441 8.00275 46.1318C8.06328 45.8124 8.19258 45.5023 8.39064 45.2013C8.59584 44.8944 8.85909 44.6057 9.18039 44.3352C9.71589 43.8843 10.2241 43.5968 10.7051 43.4725C11.1801 43.341 11.6698 43.3069 12.1745 43.3701L12.0627 44.672C11.7422 44.6246 11.3993 44.6449 11.0341 44.7328C10.6688 44.8206 10.3184 45.0058 9.98285 45.2883C9.63299 45.5829 9.42592 45.8731 9.36163 46.1591C9.29734 46.445 9.36437 46.7058 9.56273 46.9414C9.77312 47.1913 10.0115 47.3078 10.2779 47.2909C10.5443 47.2741 10.8562 47.1518 11.2136 46.9241L11.8319 46.55C12.1464 46.3584 12.451 46.2057 12.7456 46.0919C13.0473 45.9721 13.3374 45.9108 13.6159 45.9082C13.8883 45.8985 14.1485 45.954 14.3964 46.0746C14.6516 46.1893 14.8933 46.3822 15.1217 46.6536C15.3562 46.932 15.5124 47.2336 15.5906 47.5582C15.6758 47.8769 15.684 48.2055 15.6152 48.544C15.5475 48.8694 15.4064 49.2017 15.1918 49.541C14.9783 49.8671 14.6967 50.1774 14.3468 50.472Z" fill="white"/>
<path d="M19.6685 45.7722C19.2615 46.1148 18.8709 46.2667 18.4967 46.228C18.1296 46.1832 17.7897 45.9752 17.4772 45.6039L15.737 43.5369L14.4913 43.9268C14.2254 43.5529 14.0405 43.1594 13.9369 42.7465C13.8404 42.3275 13.8264 41.9123 13.8948 41.5009C13.9644 41.0763 14.1153 40.6686 14.3475 40.2779C14.5798 39.8871 14.8887 39.5295 15.2743 39.2049C16.1239 38.4896 16.9641 38.1543 17.7949 38.1991C18.6268 38.2308 19.3523 38.6144 19.9715 39.3498L23.01 42.959L21.8426 43.9418L18.9303 40.4825C18.4975 39.9684 18.0277 39.6929 17.5208 39.6561C17.0151 39.606 16.5194 39.7854 16.0339 40.1941C15.6341 40.5307 15.3593 40.9145 15.2097 41.3455C15.0613 41.7633 15.0567 42.1636 15.196 42.5465L15.8099 42.3409C16.0759 42.2511 16.2933 42.2267 16.462 42.2677C16.6247 42.3016 16.7902 42.4184 16.9585 42.6184L18.8339 44.846L19.4551 44.3231L20.2575 45.2763L19.6685 45.7722Z" fill="white"/>
<path d="M27.6702 39.2553C27.4203 39.4657 27.1719 39.6199 26.925 39.718C26.6913 39.8171 26.4645 39.8739 26.2447 39.8881C26.0189 39.8952 25.8055 39.8736 25.6044 39.8232C25.3974 39.7657 25.2088 39.6866 25.0386 39.5858L24.9851 39.6309L25.8056 40.6055L24.6382 41.5883L19.6881 35.7086L20.8555 34.7258L24.1916 38.6884C24.3419 38.8669 24.5134 38.991 24.7061 39.0605C24.8929 39.1229 25.083 39.1458 25.2765 39.1293C25.47 39.1128 25.6634 39.0599 25.8565 38.9705C26.0436 38.8739 26.2193 38.7565 26.3835 38.6183C26.8333 38.2396 27.0489 37.8507 27.0302 37.4517C27.0126 37.0395 26.8174 36.612 26.4447 36.1694L23.4152 32.5708L24.5826 31.588L27.7203 35.3151C28.3394 36.0505 28.643 36.7588 28.6308 37.4401C28.6187 38.1213 28.2985 38.7264 27.6702 39.2553Z" fill="white"/>
<path d="M18.2985 33.5111L20.1942 31.9152L19.4819 31.0691L20.4458 30.2576L21.2302 31.1894L22.0228 30.5222L21.2383 29.5904L22.2022 28.7789L23.6899 30.5461L19.0739 34.4322L18.2985 33.5111Z" fill="white"/>
<path d="M33.4496 34.3898C33.0926 34.6903 32.715 34.9229 32.3167 35.0874C31.9195 35.2387 31.5315 35.3214 31.1528 35.3352C30.7751 35.3359 30.4139 35.2618 30.069 35.113C29.724 34.9642 29.4193 34.7327 29.1549 34.4185L28.704 33.883C28.4936 33.6331 28.3885 33.3922 28.3885 33.1604C28.3825 32.9214 28.5295 32.6757 28.8294 32.4232L30.0289 31.4134L30.8043 32.3345L29.9154 33.0828L30.1859 33.4041C30.5465 33.8325 30.9431 34.0355 31.3756 34.013C31.8092 33.9774 32.2509 33.7702 32.7007 33.3915C33.1648 33.0008 33.4016 32.5574 33.4111 32.0615C33.4277 31.5595 33.2166 31.0479 32.7778 30.5266L32.0023 29.6056C31.5575 29.0772 31.0691 28.7869 30.537 28.7346C30.0121 28.6763 29.4926 28.8635 28.9786 29.2963C28.5502 29.657 28.2576 30.0558 28.1009 30.4928C27.9512 30.9237 27.9031 31.3303 27.9564 31.7124L26.6781 31.6722C26.5967 31.1552 26.6739 30.6021 26.91 30.013C27.14 29.4167 27.5799 28.845 28.2297 28.298C29.115 27.5527 30.0324 27.2439 30.9819 27.3718C31.9254 27.4926 32.8029 28.0349 33.6144 28.9988C34.0111 29.47 34.3111 29.9495 34.5143 30.4373C34.7115 30.9179 34.8035 31.3894 34.7903 31.852C34.777 32.3145 34.6592 32.7614 34.4367 33.1928C34.2142 33.6241 33.8852 34.0231 33.4496 34.3898Z" fill="white"/>
<path d="M38.9169 29.5674C38.5099 29.91 38.1229 30.059 37.7558 30.0142C37.3887 29.9694 37.0488 29.7614 36.7363 29.3901L32.778 24.6885L33.9454 23.7057L38.093 28.6322L38.9284 27.929L39.7309 28.8822L38.9169 29.5674Z" fill="white"/>
<path d="M43.291 26.1046C42.477 26.7898 41.6167 27.0505 40.7101 26.8865C39.7974 26.7154 38.9384 26.1515 38.1329 25.1947C37.7422 24.7306 37.4518 24.2553 37.2617 23.7687C37.0788 23.276 36.9975 22.7955 37.0179 22.3269C37.0394 21.8452 37.1649 21.3857 37.3946 20.9483C37.6242 20.511 37.9568 20.109 38.3923 19.7423C38.7922 19.4057 39.2074 19.1598 39.638 19.0047C40.0626 18.8425 40.4793 18.7722 40.8882 18.7941C41.3041 18.8099 41.702 18.9203 42.0819 19.1251C42.4628 19.3168 42.8096 19.5983 43.1222 19.9695L46.1066 23.5145L44.9392 24.4973L42.0359 21.0487C41.6092 20.5418 41.1429 20.2633 40.6371 20.2133C40.1254 20.1561 39.6339 20.3258 39.1627 20.7226C38.67 21.1373 38.4137 21.6154 38.3937 22.1569C38.3808 22.6923 38.5968 23.2242 39.0416 23.7526L39.6998 24.5344C40.1747 25.0984 40.6597 25.4282 41.155 25.5237C41.6513 25.6061 42.153 25.4339 42.6599 25.0071C42.817 24.8749 42.9513 24.7374 43.0629 24.5946L43.9776 25.3984C43.8945 25.5172 43.781 25.6432 43.6371 25.7766C43.5063 25.9111 43.391 26.0204 43.291 26.1046Z" fill="white"/>
<path d="M34.8864 19.5461L38.41 16.5797L37.6977 15.7336L38.7901 14.814L40.2778 16.5811L35.6618 20.4672L34.8864 19.5461Z" fill="white"/>
<path d="M50.0031 20.4538C49.2606 21.0789 48.553 21.4123 47.8804 21.4539C47.2078 21.4955 46.6371 21.2379 46.1683 20.681C45.8797 20.3382 45.7332 19.9613 45.7288 19.5503C45.7315 19.1332 45.8544 18.743 46.0975 18.3797L46.0525 18.3261C45.6233 18.541 45.2036 18.6076 44.7933 18.5261C44.383 18.4445 44.0246 18.2216 43.718 17.8575C43.3333 17.4005 43.1701 16.9096 43.2284 16.3847C43.2939 15.8537 43.5836 15.3719 44.0977 14.9391C44.2548 14.8068 44.4346 14.6799 44.6372 14.5582C44.8468 14.4304 45.0597 14.3427 45.2758 14.295L45.7508 15.3592C45.5204 15.4189 45.3053 15.5329 45.1054 15.7012C44.8555 15.9116 44.7127 16.1478 44.6769 16.4096C44.6483 16.6655 44.7302 16.9077 44.9226 17.1362C45.0127 17.2433 45.1142 17.3348 45.2269 17.4107C45.3336 17.4795 45.4557 17.5231 45.5932 17.5415C45.7247 17.5528 45.8692 17.5288 46.0266 17.4694C46.1841 17.4101 46.3556 17.3023 46.5413 17.146L47.1303 16.6501L47.7975 17.4426L47.2942 17.8664C47.0586 18.0648 46.9122 18.3039 46.855 18.5838C46.7979 18.8637 46.8715 19.1251 47.0759 19.3678L47.2832 19.6142C47.5237 19.8998 47.7998 20.0394 48.1117 20.0331C48.4236 20.0267 48.7937 19.8432 49.2221 19.4825C49.6719 19.1039 49.9262 18.6885 49.9848 18.2365C50.0446 17.7713 49.8852 17.3138 49.5065 16.864L46.4229 13.2012L47.5903 12.2184L50.8091 16.0419C51.0917 16.3774 51.2829 16.735 51.3828 17.1145C51.4838 17.4809 51.4976 17.8596 51.4243 18.2508C51.3521 18.6288 51.1969 19.0096 50.9586 19.3932C50.7215 19.7636 50.403 20.1171 50.0031 20.4538Z" fill="white"/>
<path d="M56.0605 15.3542C55.7607 15.6066 55.445 15.8114 55.1136 15.9684C54.7822 16.1254 54.4528 16.2197 54.1255 16.2512L53.8613 15.0461C54.0763 15.0116 54.2965 14.9543 54.5219 14.8743C54.7485 14.7812 54.9761 14.6384 55.2045 14.4461C55.6329 14.0854 55.8411 13.6661 55.8292 13.1882C55.8184 12.6971 55.5996 12.198 55.1728 11.6911L54.3523 10.7165C53.9315 10.2167 53.4837 9.9166 53.0087 9.81621C52.5409 9.70982 52.0893 9.83995 51.6537 10.2066C51.3039 10.5012 51.0874 10.8237 51.0043 11.1743C50.9152 11.5177 50.9349 11.8671 51.0634 12.2226L49.7315 12.5753C49.5493 11.9966 49.5494 11.417 49.7317 10.8365C49.914 10.256 50.3015 9.71628 50.8941 9.21737C51.3011 8.87474 51.7218 8.64259 52.1562 8.5209C52.5905 8.39922 53.026 8.3803 53.4626 8.46415C53.8992 8.548 54.3304 8.73406 54.7561 9.02231C55.1889 9.30455 55.6036 9.68129 56.0004 10.1525C56.3971 10.6238 56.7006 11.1003 56.911 11.582C57.1153 12.0566 57.2216 12.5161 57.2298 12.9606C57.238 13.4052 57.1452 13.831 56.9512 14.2383C56.7573 14.6456 56.4604 15.0176 56.0605 15.3542Z" fill="white"/>
<defs>
<linearGradient id="paint0_linear_2730_3712" x1="85.9878" y1="1.05108" x2="97.0004" y2="1.05108" gradientUnits="userSpaceOnUse">
<stop stop-color="#9C0000"/>
<stop offset="0.47" stop-color="#AD0800"/>
<stop offset="1" stop-color="#BC0E00"/>
</linearGradient>
<linearGradient id="paint1_linear_2730_3712" x1="1.882" y1="90.0001" x2="1.882" y2="72.6572" gradientUnits="userSpaceOnUse">
<stop stop-color="#BC0E00"/>
<stop offset="0.53" stop-color="#AD0800"/>
<stop offset="1" stop-color="#9C0000"/>
</linearGradient>
<linearGradient id="paint2_linear_2730_3712" x1="45.745" y1="81.3307" x2="45.745" y2="0" gradientUnits="userSpaceOnUse">
<stop offset="0.54" stop-color="#F93C29" stop-opacity="0"/>
<stop offset="0.58" stop-color="#F93C29" stop-opacity="0.03"/>
<stop offset="0.65" stop-color="#F93C29" stop-opacity="0.11"/>
<stop offset="0.73" stop-color="#F93C29" stop-opacity="0.24"/>
<stop offset="0.82" stop-color="#F93C29" stop-opacity="0.42"/>
<stop offset="0.86" stop-color="#F93C29" stop-opacity="0.5"/>
<stop offset="0.88" stop-color="#F94633" stop-opacity="0.56"/>
<stop offset="0.91" stop-color="#FA614E" stop-opacity="0.71"/>
<stop offset="0.95" stop-color="#FB8C78" stop-opacity="0.96"/>
<stop offset="0.96" stop-color="#FB937F"/>
<stop offset="0.97" stop-color="#FB8874"/>
<stop offset="0.98" stop-color="#FA6B57"/>
<stop offset="1" stop-color="#F93C29"/>
</linearGradient>
<linearGradient id="paint3_linear_2730_3712" x1="1.91293e-07" y1="40.6632" x2="91.4937" y2="40.6632" gradientUnits="userSpaceOnUse">
<stop stop-color="#F93C29"/>
<stop offset="0.02" stop-color="#FA6B57"/>
<stop offset="0.03" stop-color="#FB8874"/>
<stop offset="0.04" stop-color="#FB937F"/>
<stop offset="0.05" stop-color="#FB8C78" stop-opacity="0.96"/>
<stop offset="0.09" stop-color="#FA614E" stop-opacity="0.71"/>
<stop offset="0.12" stop-color="#F94633" stop-opacity="0.56"/>
<stop offset="0.14" stop-color="#F93C29" stop-opacity="0.5"/>
<stop offset="0.18" stop-color="#F93C29" stop-opacity="0.42"/>
<stop offset="0.27" stop-color="#F93C29" stop-opacity="0.24"/>
<stop offset="0.35" stop-color="#F93C29" stop-opacity="0.11"/>
<stop offset="0.42" stop-color="#F93C29" stop-opacity="0.03"/>
<stop offset="0.46" stop-color="#F93C29" stop-opacity="0"/>
</linearGradient>
</defs>
</svg>
