<svg width="20" height="20" viewBox="0 0 20 20" fill="none" xmlns="http://www.w3.org/2000/svg">
<path d="M19.4889 14.3432C19.1932 14.3432 18.9271 14.5797 18.9271 14.9051C18.9271 17.0639 17.1526 18.8383 14.9938 18.8383C12.8349 18.8383 11.0605 17.0935 11.0605 14.9051C11.0605 12.7462 12.8349 10.9718 14.9938 10.9718C15.2895 10.9718 15.5557 10.7352 15.5557 10.4099V3.43053C15.5557 2.18844 14.5206 1.15337 13.2785 1.15337H12.7758V0.414027C12.7758 0.177439 12.5983 0 12.3617 0H11.4745C11.2379 0 11.0605 0.177439 11.0605 0.414027V1.15337H4.64304V0.502749C4.64304 0.266161 4.4656 0.0887214 4.22901 0.0887214H3.34181C3.10522 0.0887214 2.92778 0.266161 2.92778 0.502749V1.12379H2.27716C1.03507 1.12379 0 2.15887 0 3.40095V13.1602C0 14.4023 1.03507 15.4374 2.27716 15.4374H9.9367C10.2029 17.9511 12.3617 19.9326 14.9346 19.9326C17.7145 19.9326 19.9917 17.685 19.9917 14.8755C20.0508 14.5797 19.7847 14.3432 19.4889 14.3432ZM2.33631 2.24758H13.2785C13.9291 2.24758 14.4319 2.77991 14.4319 3.40095V4.73176H1.18294V3.40095C1.18294 2.77991 1.71526 2.24758 2.33631 2.24758ZM1.18294 13.1602V5.85556H14.4319V9.87756C12.0956 10.1437 10.2324 12.0068 9.99585 14.3136H2.33631C1.71526 14.3432 1.18294 13.8108 1.18294 13.1602ZM8.6059 8.25101V9.04949C8.6059 9.25651 8.42845 9.43395 8.22144 9.43395H7.42296C7.21594 9.43395 7.0385 9.25651 7.0385 9.04949V8.25101C7.0385 8.04399 7.21594 7.86655 7.42296 7.86655H8.22144C8.42845 7.86655 8.6059 8.04399 8.6059 8.25101ZM10.1733 9.04949V8.25101C10.1733 8.04399 10.3507 7.86655 10.5577 7.86655H11.3562C11.5632 7.86655 11.7407 8.04399 11.7407 8.25101V9.04949C11.7407 9.25651 11.5632 9.43395 11.3562 9.43395H10.5577C10.3507 9.43395 10.1733 9.25651 10.1733 9.04949ZM8.6059 11.3858V12.1843C8.6059 12.3913 8.42845 12.5687 8.22144 12.5687H7.42296C7.21594 12.5687 7.0385 12.3913 7.0385 12.1843V11.3858C7.0385 11.1788 7.21594 11.0013 7.42296 11.0013H8.22144C8.42845 11.0013 8.6059 11.1788 8.6059 11.3858ZM5.4711 11.3858V12.1843C5.4711 12.3913 5.29366 12.5687 5.08664 12.5687H4.28816C4.08115 12.5687 3.9037 12.3913 3.9037 12.1843V11.3858C3.9037 11.1788 4.08115 11.0013 4.28816 11.0013H5.08664C5.29366 11.0013 5.4711 11.1788 5.4711 11.3858ZM16.7682 10.7352C16.9161 10.469 17.2709 10.3803 17.5371 10.5282C17.8033 10.676 17.892 11.0309 17.7441 11.2971C17.6258 11.4745 17.4484 11.5632 17.2709 11.5632C17.1822 11.5632 17.0935 11.5337 17.0048 11.4745C16.709 11.3267 16.6203 11.0013 16.7682 10.7352ZM18.3947 12.9236C18.2469 12.6575 18.3356 12.3026 18.6017 12.1547C18.8679 12.0068 19.2228 12.0956 19.3707 12.3617C19.5185 12.6279 19.4298 12.9828 19.1636 13.1306C19.0749 13.1898 18.9862 13.2194 18.8975 13.2194C18.6905 13.1898 18.513 13.1011 18.3947 12.9236ZM14.6093 14.491L16.2063 12.894C16.4133 12.687 16.7682 12.687 17.0048 12.894C17.2118 13.1011 17.2118 13.4559 17.0048 13.6925L15.4078 15.2895C15.2895 15.4078 15.1416 15.4669 15.0233 15.4669C14.9051 15.4669 14.7276 15.4078 14.6389 15.2895C14.4023 15.0529 14.4023 14.698 14.6093 14.491Z" fill="white"/>
</svg>
