<svg width="12" height="12" viewBox="0 0 12 12" fill="none" xmlns="http://www.w3.org/2000/svg">
<g clip-path="url(#clip0_2144_10466)">
<path d="M11.7805 0.220101C11.6824 0.121061 11.5584 0.0515877 11.4227 0.0196011C11.287 -0.0123855 11.145 -0.00559832 11.013 0.0391889L0.51295 3.53943C0.374814 3.58536 0.253047 3.67053 0.162523 3.78453C0.0719982 3.89853 0.0166362 4.03643 0.00319965 4.18138C-0.0102369 4.32633 0.0188337 4.47206 0.0868601 4.60076C0.154887 4.72946 0.258924 4.83556 0.386262 4.9061L4.69876 7.30184L7.09451 11.6143C7.15943 11.7313 7.25445 11.8287 7.3697 11.8966C7.48496 11.9645 7.61627 12.0003 7.75003 12.0003C7.77274 12.0003 7.79618 11.9996 7.81961 11.9974C7.96447 11.9838 8.10225 11.9284 8.21616 11.8379C8.33008 11.7473 8.41522 11.6257 8.46121 11.4876L11.9614 0.987627C12.0055 0.855514 12.012 0.713727 11.98 0.578161C11.9481 0.442595 11.879 0.318608 11.7805 0.220101ZM7.5779 9.39585L6.1804 6.88073L7.78078 5.28039C7.92141 5.13975 8.00042 4.94901 8.00042 4.75012C8.00042 4.55123 7.92141 4.36049 7.78078 4.21985C7.64014 4.07922 7.4494 4.00021 7.25051 4.00021C7.05162 4.00021 6.86087 4.07922 6.72024 4.21985L5.1199 5.82019L2.60476 4.42273L10.0645 1.93616L7.5779 9.39585Z" fill="white"/>
</g>
<defs>
<clipPath id="clip0_2144_10466">
<rect width="12" height="12" fill="white"/>
</clipPath>
</defs>
</svg>
