<svg width="17" height="17" viewBox="0 0 17 17" fill="none" xmlns="http://www.w3.org/2000/svg">
<g clip-path="url(#clip0_2169_4185)">
<path d="M14.1667 1.41667H13.4583V0.708333C13.4583 0.520472 13.3837 0.340304 13.2509 0.207466C13.118 0.0746278 12.9379 0 12.75 0C12.5621 0 12.382 0.0746278 12.2491 0.207466C12.1163 0.340304 12.0417 0.520472 12.0417 0.708333V1.41667H4.95833V0.708333C4.95833 0.520472 4.88371 0.340304 4.75087 0.207466C4.61803 0.0746278 4.43786 0 4.25 0C4.06214 0 3.88197 0.0746278 3.74913 0.207466C3.61629 0.340304 3.54167 0.520472 3.54167 0.708333V1.41667H2.83333C2.08189 1.41667 1.36122 1.71518 0.829864 2.24653C0.298511 2.77788 0 3.49855 0 4.25L0 14.1667C0 14.9181 0.298511 15.6388 0.829864 16.1701C1.36122 16.7015 2.08189 17 2.83333 17H14.1667C14.9181 17 15.6388 16.7015 16.1701 16.1701C16.7015 15.6388 17 14.9181 17 14.1667V4.25C17 3.49855 16.7015 2.77788 16.1701 2.24653C15.6388 1.71518 14.9181 1.41667 14.1667 1.41667ZM15.5833 14.1667C15.5833 14.5424 15.4341 14.9027 15.1684 15.1684C14.9027 15.4341 14.5424 15.5833 14.1667 15.5833H2.83333C2.45761 15.5833 2.09728 15.4341 1.8316 15.1684C1.56592 14.9027 1.41667 14.5424 1.41667 14.1667V4.25C1.41667 3.87428 1.56592 3.51394 1.8316 3.24827C2.09728 2.98259 2.45761 2.83333 2.83333 2.83333H3.54167V3.54167C3.54167 3.72953 3.61629 3.9097 3.74913 4.04253C3.88197 4.17537 4.06214 4.25 4.25 4.25C4.43786 4.25 4.61803 4.17537 4.75087 4.04253C4.88371 3.9097 4.95833 3.72953 4.95833 3.54167V2.83333H12.0417V3.54167C12.0417 3.72953 12.1163 3.9097 12.2491 4.04253C12.382 4.17537 12.5621 4.25 12.75 4.25C12.9379 4.25 13.118 4.17537 13.2509 4.04253C13.3837 3.9097 13.4583 3.72953 13.4583 3.54167V2.83333H14.1667C14.5424 2.83333 14.9027 2.98259 15.1684 3.24827C15.4341 3.51394 15.5833 3.87428 15.5833 4.25V14.1667Z" fill="white" fill-opacity="0.77"/>
<path d="M13.458 4.9585H3.54134C3.35348 4.9585 3.17331 5.03312 3.04047 5.16596C2.90764 5.2988 2.83301 5.47897 2.83301 5.66683C2.83301 5.85469 2.90764 6.03486 3.04047 6.1677C3.17331 6.30054 3.35348 6.37516 3.54134 6.37516H13.458C13.6459 6.37516 13.826 6.30054 13.9589 6.1677C14.0917 6.03486 14.1663 5.85469 14.1663 5.66683C14.1663 5.47897 14.0917 5.2988 13.9589 5.16596C13.826 5.03312 13.6459 4.9585 13.458 4.9585Z" fill="white" fill-opacity="0.77"/>
<path d="M4.95801 8.5H3.54134C3.35348 8.5 3.17331 8.57463 3.04047 8.70747C2.90764 8.8403 2.83301 9.02047 2.83301 9.20833C2.83301 9.3962 2.90764 9.57636 3.04047 9.7092C3.17331 9.84204 3.35348 9.91667 3.54134 9.91667H4.95801C5.14587 9.91667 5.32604 9.84204 5.45888 9.7092C5.59171 9.57636 5.66634 9.3962 5.66634 9.20833C5.66634 9.02047 5.59171 8.8403 5.45888 8.70747C5.32604 8.57463 5.14587 8.5 4.95801 8.5Z" fill="white" fill-opacity="0.77"/>
<path d="M4.95801 12.0415H3.54134C3.35348 12.0415 3.17331 12.1161 3.04047 12.249C2.90764 12.3818 2.83301 12.562 2.83301 12.7498C2.83301 12.9377 2.90764 13.1179 3.04047 13.2507C3.17331 13.3835 3.35348 13.4582 3.54134 13.4582H4.95801C5.14587 13.4582 5.32604 13.3835 5.45888 13.2507C5.59171 13.1179 5.66634 12.9377 5.66634 12.7498C5.66634 12.562 5.59171 12.3818 5.45888 12.249C5.32604 12.1161 5.14587 12.0415 4.95801 12.0415Z" fill="white" fill-opacity="0.77"/>
<path d="M9.20801 8.5H7.79134C7.60348 8.5 7.42331 8.57463 7.29047 8.70747C7.15764 8.8403 7.08301 9.02047 7.08301 9.20833C7.08301 9.3962 7.15764 9.57636 7.29047 9.7092C7.42331 9.84204 7.60348 9.91667 7.79134 9.91667H9.20801C9.39587 9.91667 9.57604 9.84204 9.70888 9.7092C9.84171 9.57636 9.91634 9.3962 9.91634 9.20833C9.91634 9.02047 9.84171 8.8403 9.70888 8.70747C9.57604 8.57463 9.39587 8.5 9.20801 8.5Z" fill="white" fill-opacity="0.77"/>
<path d="M9.20801 12.0415H7.79134C7.60348 12.0415 7.42331 12.1161 7.29047 12.249C7.15764 12.3818 7.08301 12.562 7.08301 12.7498C7.08301 12.9377 7.15764 13.1179 7.29047 13.2507C7.42331 13.3835 7.60348 13.4582 7.79134 13.4582H9.20801C9.39587 13.4582 9.57604 13.3835 9.70888 13.2507C9.84171 13.1179 9.91634 12.9377 9.91634 12.7498C9.91634 12.562 9.84171 12.3818 9.70888 12.249C9.57604 12.1161 9.39587 12.0415 9.20801 12.0415Z" fill="white" fill-opacity="0.77"/>
<path d="M13.458 8.5H12.0413C11.8535 8.5 11.6733 8.57463 11.5405 8.70747C11.4076 8.8403 11.333 9.02047 11.333 9.20833C11.333 9.3962 11.4076 9.57636 11.5405 9.7092C11.6733 9.84204 11.8535 9.91667 12.0413 9.91667H13.458C13.6459 9.91667 13.826 9.84204 13.9589 9.7092C14.0917 9.57636 14.1663 9.3962 14.1663 9.20833C14.1663 9.02047 14.0917 8.8403 13.9589 8.70747C13.826 8.57463 13.6459 8.5 13.458 8.5Z" fill="white" fill-opacity="0.77"/>
<path d="M13.458 12.0415H12.0413C11.8535 12.0415 11.6733 12.1161 11.5405 12.249C11.4076 12.3818 11.333 12.562 11.333 12.7498C11.333 12.9377 11.4076 13.1179 11.5405 13.2507C11.6733 13.3835 11.8535 13.4582 12.0413 13.4582H13.458C13.6459 13.4582 13.826 13.3835 13.9589 13.2507C14.0917 13.1179 14.1663 12.9377 14.1663 12.7498C14.1663 12.562 14.0917 12.3818 13.9589 12.249C13.826 12.1161 13.6459 12.0415 13.458 12.0415Z" fill="white" fill-opacity="0.77"/>
</g>
<defs>
<clipPath id="clip0_2169_4185">
<rect width="17" height="17" fill="white"/>
</clipPath>
</defs>
</svg>
