<svg width="28" height="27" viewBox="0 0 28 27" fill="none" xmlns="http://www.w3.org/2000/svg">
<path d="M10.8853 5.2561C10.9386 6.68926 10.6956 8.11801 10.1715 9.45296C9.64744 10.7879 8.85351 12.0004 7.83942 13.0145C6.82532 14.0286 5.61287 14.8225 4.27791 15.3466C2.94296 15.8707 1.51421 16.1137 0.0810547 16.0603C1.51421 16.007 2.94296 16.25 4.27791 16.7741C5.61287 17.2982 6.82532 18.0921 7.83942 19.1062C8.85351 20.1203 9.64744 21.3328 10.1715 22.6677C10.6956 24.0027 10.9386 25.4314 10.8853 26.8646C10.832 25.4314 11.075 24.0027 11.599 22.6677C12.1231 21.3328 12.9171 20.1203 13.9312 19.1062C14.9453 18.0921 16.1577 17.2982 17.4927 16.7741C18.8276 16.25 20.2564 16.007 21.6895 16.0603C20.2564 16.1137 18.8276 15.8707 17.4927 15.3466C16.1577 14.8225 14.9453 14.0286 13.9312 13.0145C12.9171 12.0004 12.1231 10.7879 11.599 9.45296C11.075 8.118 10.832 6.68926 10.8853 5.2561Z"/>
<path d="M21.858 0.337158C21.886 1.08753 21.7587 1.83559 21.4843 2.53455C21.2099 3.2335 20.7943 3.86832 20.2633 4.39928C19.7323 4.93024 19.0975 5.34592 18.3986 5.62033C17.6996 5.89473 16.9515 6.02195 16.2012 5.99403C16.9515 5.96611 17.6996 6.09334 18.3986 6.36774C19.0975 6.64214 19.7323 7.05783 20.2633 7.58879C20.7943 8.11975 21.2099 8.75456 21.4843 9.45351C21.7587 10.1525 21.886 10.9005 21.858 11.6509C21.8301 10.9005 21.9574 10.1525 22.2318 9.45352C22.5062 8.75456 22.9218 8.11975 23.4528 7.58879C23.9838 7.05783 24.6186 6.64215 25.3175 6.36774C26.0165 6.09334 26.7645 5.96612 27.5149 5.99403C26.7645 6.02195 26.0165 5.89473 25.3175 5.62032C24.6186 5.34592 23.9838 4.93023 23.4528 4.39927C22.9218 3.86831 22.5062 3.2335 22.2318 2.53454C21.9574 1.83559 21.8301 1.08753 21.858 0.337158Z"/>
</svg>
