<svg width="28" height="28" viewBox="0 0 28 28" fill="none" xmlns="http://www.w3.org/2000/svg">
<g clip-path="url(#clip0_2177_2714)">
<path d="M19.5998 6.16006C23.9297 6.16006 27.4398 4.90646 27.4398 3.36006C27.4398 1.81366 23.9297 0.560059 19.5998 0.560059C15.2699 0.560059 11.7598 1.81366 11.7598 3.36006C11.7598 4.90646 15.2699 6.16006 19.5998 6.16006Z" stroke="#C2C2C2" stroke-width="2" stroke-miterlimit="10" stroke-linecap="round" stroke-linejoin="round"/>
<path d="M11.7598 3.92004C11.7598 4.43076 11.7598 6.76932 11.7598 7.28004C11.7598 8.8262 15.2687 10.08 19.5998 10.08C23.9308 10.08 27.4398 8.8262 27.4398 7.28004C27.4398 6.76932 27.4398 4.43076 27.4398 3.92004" stroke="#C2C2C2" stroke-width="2" stroke-miterlimit="10" stroke-linecap="round" stroke-linejoin="round"/>
<path d="M15.9883 13.6858C17.0691 13.8863 18.2977 14 19.6003 14C23.9313 14 27.4403 12.7461 27.4403 11.2C27.4403 10.6892 27.4403 8.35069 27.4403 7.83997" stroke="#C2C2C2" stroke-width="2" stroke-miterlimit="10" stroke-linecap="round" stroke-linejoin="round"/>
<path d="M11.7598 7.83997C11.7598 8.35069 11.7598 10.2312 11.7598 10.2312" stroke="#C2C2C2" stroke-width="2" stroke-miterlimit="10" stroke-linecap="round" stroke-linejoin="round"/>
<path d="M16.2539 17.6529C17.2686 17.8243 18.4026 17.92 19.5999 17.92C23.9309 17.92 27.4399 16.6667 27.4399 15.12C27.4399 14.6093 27.4399 12.2707 27.4399 11.76" stroke="#C2C2C2" stroke-width="2" stroke-miterlimit="10" stroke-linecap="round" stroke-linejoin="round"/>
<path d="M16.2109 21.5657C17.2363 21.7415 18.386 21.8401 19.6001 21.8401C23.9311 21.8401 27.4401 20.5868 27.4401 19.0401C27.4401 18.5293 27.4401 16.1908 27.4401 15.6801" stroke="#C2C2C2" stroke-width="2" stroke-miterlimit="10" stroke-linecap="round" stroke-linejoin="round"/>
<path d="M8.39957 15.68C12.7295 15.68 16.2396 14.4264 16.2396 12.88C16.2396 11.3336 12.7295 10.08 8.39957 10.08C4.06966 10.08 0.55957 11.3336 0.55957 12.88C0.55957 14.4264 4.06966 15.68 8.39957 15.68Z" stroke="#C2C2C2" stroke-width="2" stroke-miterlimit="10" stroke-linecap="round" stroke-linejoin="round"/>
<path d="M0.55957 13.4399C0.55957 13.9507 0.55957 16.2892 0.55957 16.7999C0.55957 18.3467 4.06853 19.5999 8.39957 19.5999C12.7306 19.5999 16.2396 18.3467 16.2396 16.7999C16.2396 16.2892 16.2396 13.9507 16.2396 13.4399" stroke="#C2C2C2" stroke-width="2" stroke-miterlimit="10" stroke-linecap="round" stroke-linejoin="round"/>
<path d="M0.55957 17.36C0.55957 17.8707 0.55957 20.2093 0.55957 20.72C0.55957 22.2667 4.06853 23.52 8.39957 23.52C12.7306 23.52 16.2396 22.2667 16.2396 20.72C16.2396 20.2093 16.2396 17.8707 16.2396 17.36" stroke="#C2C2C2" stroke-width="2" stroke-miterlimit="10" stroke-linecap="round" stroke-linejoin="round"/>
<path d="M0.55957 21.28C0.55957 21.7907 0.55957 24.1293 0.55957 24.64C0.55957 26.1867 4.06853 27.44 8.39957 27.44C12.7306 27.44 16.2396 26.1867 16.2396 24.64C16.2396 24.1293 16.2396 21.7907 16.2396 21.28" stroke="#C2C2C2" stroke-width="2" stroke-miterlimit="10" stroke-linecap="round" stroke-linejoin="round"/>
</g>
<defs>
<clipPath id="clip0_2177_2714">
<rect width="28" height="28" fill="white"/>
</clipPath>
</defs>
</svg>
