<svg width="20" height="15" viewBox="0 0 20 15" fill="none" xmlns="http://www.w3.org/2000/svg">
<path d="M19.5947 8.88102V8.88036C19.57 8.67015 19.4654 8.48205 19.3004 8.35071C19.1327 8.21706 18.9261 8.15898 18.7176 8.18274C18.5067 8.2065 18.3173 8.31144 18.185 8.47875L16.9613 10.0218V2.97332C16.9613 1.33387 15.6274 0 13.988 0H7.33711C6.89953 0 6.54346 0.355741 6.54346 0.792995C6.54346 1.23058 6.89953 1.58665 7.33711 1.58665H13.988C14.7523 1.58665 15.3743 2.20871 15.3743 2.97332V10.0222C15.1842 9.78226 14.9899 9.53674 14.8219 9.32421C14.452 8.85726 14.2592 8.61405 14.1408 8.48733L14.1507 8.47875C13.8728 8.12796 13.396 8.07417 13.0405 8.35368C12.735 8.5959 12.6016 9.07738 12.9079 9.46447L14.9965 12.0979C15.2846 12.4546 15.7113 12.6592 16.171 12.6592C16.6293 12.6582 17.0573 12.4507 17.3464 12.0883L19.4274 9.46546C19.5597 9.29947 19.6191 9.0919 19.5947 8.88102Z" fill="white"/>
<path d="M12.2778 12.6398H5.61556C4.85111 12.6398 4.22922 12.0177 4.22922 11.2531L4.22246 11.1129C4.23483 10.7944 4.23335 10.1229 4.22938 8.48242L4.22922 8.44381C4.22608 7.09773 4.22213 5.37809 4.22476 4.20064L5.45237 5.74769C5.58421 5.91402 5.77297 6.01896 5.98137 6.04305C6.19306 6.06648 6.40179 6.00906 6.56696 5.87673C6.73311 5.74506 6.83805 5.55629 6.86247 5.34542C6.88673 5.13455 6.82733 4.92698 6.69549 4.76198L4.60707 2.12922C4.31947 1.77183 3.89278 1.56689 3.43276 1.56689C2.97422 1.56789 2.54571 1.77578 2.25712 2.13813L0.172664 4.76528C-0.102063 5.11838 -0.0434884 5.5949 0.309449 5.87409C0.66156 6.15162 1.13825 6.09816 1.41826 5.74803L2.64207 4.2089V11.2531C2.64207 12.8926 3.97594 14.2264 5.61556 14.2264H12.2772C12.7827 14.2156 13.0556 13.8087 13.0556 13.4321C13.0563 13.0566 12.7837 12.6513 12.2778 12.6398Z" fill="white"/>
</svg>
