<svg width="19" height="19" viewBox="0 0 19 19" fill="none" xmlns="http://www.w3.org/2000/svg">
<g clip-path="url(#clip0_3149_3736)">
<path d="M9.5 0C7.62108 0 5.78435 0.557165 4.22209 1.60104C2.65982 2.64491 1.44218 4.12861 0.723149 5.86451C0.00411622 7.60041 -0.184015 9.51054 0.182544 11.3534C0.549104 13.1962 1.45389 14.8889 2.78249 16.2175C4.11109 17.5461 5.80383 18.4509 7.64665 18.8175C9.48947 19.184 11.3996 18.9959 13.1355 18.2769C14.8714 17.5578 16.3551 16.3402 17.399 14.7779C18.4428 13.2157 19 11.3789 19 9.5C18.9973 6.98128 17.9955 4.5665 16.2145 2.78549C14.4335 1.00449 12.0187 0.00272419 9.5 0ZM9.5 17.4167C7.93424 17.4167 6.40363 16.9524 5.10174 16.0825C3.79985 15.2126 2.78515 13.9762 2.18596 12.5296C1.58676 11.083 1.42999 9.49122 1.73545 7.95554C2.04092 6.41985 2.79491 5.00924 3.90208 3.90207C5.00924 2.79491 6.41986 2.04092 7.95554 1.73545C9.49122 1.42998 11.083 1.58676 12.5296 2.18595C13.9762 2.78515 15.2126 3.79985 16.0825 5.10174C16.9524 6.40363 17.4167 7.93423 17.4167 9.5C17.4144 11.5989 16.5796 13.6112 15.0954 15.0954C13.6112 16.5795 11.5989 17.4144 9.5 17.4167Z" fill="white"/>
<path d="M12.8987 6.56525L7.9167 11.5472L6.10141 9.73191C5.9521 9.58771 5.75213 9.50791 5.54455 9.50971C5.33698 9.51152 5.13842 9.59478 4.99164 9.74156C4.84486 9.88834 4.7616 10.0869 4.7598 10.2945C4.75799 10.502 4.83779 10.702 4.982 10.8513L7.357 13.2263C7.50546 13.3747 7.70678 13.4581 7.9167 13.4581C8.12663 13.4581 8.32795 13.3747 8.47641 13.2263L14.0181 7.68466C14.1623 7.53535 14.2421 7.33538 14.2403 7.12781C14.2385 6.92023 14.1552 6.72167 14.0084 6.57489C13.8617 6.42811 13.6631 6.34485 13.4555 6.34305C13.248 6.34124 13.048 6.42104 12.8987 6.56525Z" fill="white"/>
</g>
<defs>
<clipPath id="clip0_3149_3736">
<rect width="19" height="19" fill="white"/>
</clipPath>
</defs>
</svg>
