<svg width="76" height="76" viewBox="0 0 76 76" fill="none" xmlns="http://www.w3.org/2000/svg">
<g clip-path="url(#clip0_2401_3451)">
<path d="M38.1419 58.5774L39.0225 60.3604L40.9874 60.6442L39.561 62.0343L39.8958 63.9919L38.1419 63.0677L36.3807 63.9919L36.7155 62.0343L35.2891 60.6442L37.2613 60.3604L38.1419 58.5774Z" fill="#F7D384"/>
<path d="M44.0511 58.5774L44.6697 59.8437L46.0669 60.0475L45.0554 61.0299L45.2955 62.42L44.0511 61.765L42.7993 62.42L43.0395 61.0299L42.0352 60.0475L43.4252 59.8437L44.0511 58.5774Z" fill="#F7D384"/>
<path d="M32.2249 58.5774L32.8508 59.8437L34.2481 60.0475L33.2365 61.0299L33.4766 62.42L32.2249 61.765L30.9804 62.42L31.2206 61.0299L30.209 60.0475L31.6063 59.8437L32.2249 58.5774Z" fill="#F7D384"/>
<path d="M51.0597 0H24.9331C23.2246 0.00667053 21.5877 0.686541 20.3773 1.89218L1.89218 20.3773C0.686541 21.5877 0.00667053 23.2246 0 24.9331L0 51.0597C0.00045433 52.7736 0.680977 54.4173 1.89218 55.63L20.3773 74.1005C21.5888 75.3144 23.2326 75.9976 24.9476 76H51.0742C51.9236 76.0004 52.7647 75.8328 53.5491 75.5068C54.3335 75.1808 55.0456 74.7029 55.6446 74.1005L74.1224 55.63C75.3336 54.4173 76.0141 52.7736 76.0146 51.0597V24.9331C76.0117 23.2196 75.3316 21.5768 74.1224 20.3627L55.63 1.89218C54.4173 0.680977 52.7736 0.00045433 51.0597 0Z" fill="url(#paint0_linear_2401_3451)"/>
<path d="M73.613 38.7533C73.613 45.6479 71.5685 52.3876 67.7381 58.1203C63.9076 63.8529 58.4633 68.321 52.0935 70.9594C45.7237 73.5979 38.7146 74.2882 31.9525 72.9432C25.1904 71.5981 18.979 68.278 14.1037 63.4028C9.22853 58.5276 5.90846 52.3162 4.56339 45.5541C3.21832 38.7919 3.90866 31.7828 6.54711 25.413C9.18556 19.0433 13.6536 13.5989 19.3863 9.76848C25.1189 5.93804 31.8587 3.89355 38.7533 3.89355C47.9987 3.89355 56.8654 7.56626 63.4028 14.1037C69.9403 20.6412 73.613 29.5079 73.613 38.7533Z" fill="url(#paint1_linear_2401_3451)"/>
<path d="M38.7531 71.7281C32.2292 71.7296 25.8514 69.7962 20.4264 66.1727C15.0015 62.5491 10.7729 57.3981 8.27569 51.3711C5.77845 45.3441 5.12468 38.7119 6.39707 32.3133C7.66946 25.9147 10.8109 20.0372 15.4239 15.4242C20.037 10.8111 25.9145 7.66971 32.3131 6.39732C38.7117 5.12493 45.3439 5.7787 51.3708 8.27594C57.3978 10.7732 62.5489 15.0017 66.1724 20.4267C69.796 25.8517 71.7293 32.2294 71.7279 38.7533C71.7163 47.4952 68.2385 55.8758 62.057 62.0573C55.8755 68.2387 47.495 71.7166 38.7531 71.7281Z" fill="#0B0B0B"/>
<path d="M38.7533 69.0937C32.7505 69.0951 26.8821 67.3163 21.8904 63.9822C16.8986 60.6481 13.0078 55.9085 10.7099 50.3629C8.41208 44.8173 7.81048 38.7148 8.98122 32.8273C10.152 26.9398 13.0424 21.5317 17.2871 17.2871C21.5317 13.0424 26.9398 10.152 32.8273 8.98122C38.7148 7.81048 44.8173 8.41208 50.3629 10.7099C55.9085 13.0078 60.6481 16.8986 63.9822 21.8904C67.3163 26.8821 69.0951 32.7505 69.0937 38.7533C69.084 46.7971 65.8844 54.5087 60.1965 60.1965C54.5087 65.8844 46.7971 69.084 38.7533 69.0937Z" fill="url(#paint2_linear_2401_3451)"/>
<path d="M67.9723 38.3749V38.7533C67.9723 46.5029 64.8939 53.935 59.4141 59.4147C53.9344 64.8944 46.5023 67.9729 38.7528 67.9729C31.0033 67.9729 23.5711 64.8944 18.0914 59.4147C12.6117 53.935 9.5332 46.5029 9.5332 38.7533C9.5332 38.6223 9.5332 38.5059 9.5332 38.3749C9.65424 30.7062 12.7856 23.3926 18.2515 18.0123C23.7173 12.632 31.0795 9.61646 38.7491 9.61646C46.4188 9.61646 53.7809 12.632 59.2468 18.0123C64.7127 23.3926 67.844 30.7062 67.9651 38.3749H67.9723Z" fill="url(#paint3_linear_2401_3451)"/>
<path d="M67.9723 38.3748V38.7532C67.9723 46.5027 64.8939 53.9348 59.4141 59.4145C53.9344 64.8943 46.5023 67.9728 38.7528 67.9728C31.0033 67.9728 23.5711 64.8943 18.0914 59.4145C12.6117 53.9348 9.5332 46.5027 9.5332 38.7532C9.5332 38.6222 9.5332 38.5058 9.5332 38.3748H67.9723Z" fill="#0B0B0B"/>
<path d="M38.7528 14.0894L39.466 15.5449L41.067 15.7778L39.9099 16.9058L40.1792 18.4923L38.7528 17.7427L37.3191 18.4923L37.5956 16.9058L36.4385 15.7778L38.0323 15.5449L38.7528 14.0894Z" fill="#F7D384"/>
<path d="M44.5535 14.0894L45.2667 15.5449L46.8678 15.7778L45.7107 16.9058L45.9872 18.4923L44.5535 17.7427L43.1271 18.4923L43.3964 16.9058L42.2393 15.7778L43.8403 15.5449L44.5535 14.0894Z" fill="#F7D384"/>
<path d="M50.3533 14.0894L51.0738 15.5449L52.6749 15.7778L51.5105 16.9058L51.787 18.4923L50.3533 17.7427L48.9269 18.4923L49.1962 16.9058L48.0391 15.7778L49.6401 15.5449L50.3533 14.0894Z" fill="#F7D384"/>
<path d="M27.1453 14.0894L27.8585 15.5449L29.4596 15.7778L28.3025 16.9058L28.579 18.4923L27.1453 17.7427L25.7116 18.4923L25.9882 16.9058L24.8311 15.7778L26.4321 15.5449L27.1453 14.0894Z" fill="#F7D384"/>
<path d="M32.9461 14.0894L33.6666 15.5449L35.2604 15.7778L34.1033 16.9058L34.3798 18.4923L32.9461 17.7427L31.5197 18.4923L31.789 16.9058L30.6318 15.7778L32.2329 15.5449L32.9461 14.0894Z" fill="#F7D384"/>
<path d="M33.7968 29.518C34.2204 30.0401 34.4471 30.6943 34.4372 31.3665C34.4486 31.9524 34.2893 32.5289 33.9788 33.0258C33.6467 33.5162 33.1824 33.9023 32.6397 34.1393C31.9885 34.4237 31.2832 34.5628 30.5728 34.5468H25.4785V22.8008H30.3254C31.0312 22.7853 31.7326 22.9166 32.385 23.1865C32.9166 23.4113 33.3716 23.7854 33.6949 24.2636C34.0163 24.723 34.1937 25.2677 34.2044 25.8283C34.2263 26.4466 34.0334 27.0535 33.6585 27.5458C33.285 28.0126 32.7768 28.3531 32.203 28.521C32.8391 28.6454 33.4067 29.0005 33.7968 29.518ZM27.8583 27.655H30.0416C30.4908 27.6745 30.933 27.5383 31.2933 27.2692C31.4488 27.139 31.5723 26.9749 31.6543 26.7894C31.7364 26.6039 31.7747 26.4021 31.7664 26.1994C31.7787 25.9945 31.7438 25.7895 31.6643 25.6002C31.5848 25.4109 31.4629 25.2424 31.3079 25.1078C30.9384 24.8234 30.4777 24.6836 30.0125 24.7148H27.8292L27.8583 27.655ZM31.5699 32.2326C31.7248 32.0857 31.8455 31.9066 31.9235 31.7079C32.0015 31.5092 32.0348 31.2957 32.0211 31.0827C32.034 30.8597 31.9955 30.6367 31.9084 30.431C31.8213 30.2253 31.688 30.0424 31.5189 29.8965C31.1303 29.5917 30.6438 29.439 30.1507 29.4671H27.8583V32.6256H30.2308C30.7106 32.6561 31.1855 32.5141 31.5699 32.2253V32.2326Z" fill="#0B0B0B"/>
<path d="M38.6802 22.8008V34.5468H36.3223V22.8008H38.6802Z" fill="#0B0B0B"/>
<path d="M49.1751 26.3375C48.9243 25.8617 48.5398 25.4696 48.0689 25.2095C47.5603 24.9418 46.9915 24.809 46.4169 24.8238C45.7703 24.812 45.1322 24.9728 44.5684 25.2895C44.0276 25.6097 43.5885 26.0765 43.3021 26.6359C42.9915 27.2643 42.8367 27.9582 42.8509 28.6591C42.8326 29.3713 42.9927 30.0768 43.3167 30.7114C43.6043 31.2747 44.0493 31.7424 44.5975 32.0577C45.1862 32.3782 45.8487 32.5388 46.5188 32.5235C47.3101 32.5491 48.0844 32.291 48.7021 31.7957C49.2957 31.292 49.7011 30.6019 49.852 29.838H45.8493V28.0186H52.2099V30.0709C52.0474 30.8941 51.7017 31.6702 51.1983 32.3415C50.6725 33.0466 49.9898 33.6197 49.2042 34.0154C48.3575 34.4466 47.418 34.664 46.4679 34.6485C45.3966 34.6647 44.3399 34.3986 43.404 33.8771C42.4905 33.3887 41.7336 32.6521 41.2207 31.7521C40.7048 30.8002 40.4346 29.7345 40.4346 28.6518C40.4346 27.5691 40.7048 26.5034 41.2207 25.5515C41.7335 24.6496 42.4902 23.9105 43.404 23.4192C44.4106 22.8834 45.5397 22.6197 46.6796 22.6541C47.8194 22.6886 48.9305 23.02 49.9029 23.6157C50.8763 24.2553 51.5907 25.22 51.9188 26.3375H49.1751Z" fill="#0B0B0B"/>
<path d="M21.4039 48.0686C21.8592 47.9394 22.2634 47.6725 22.561 47.3044C22.9006 46.8226 23.0505 46.2324 22.982 45.6469C22.9135 45.0615 22.6315 44.5218 22.1899 44.1314C21.5375 43.6619 20.7436 43.4306 19.9411 43.4764H15.6982V52.9009H20.0648C20.8936 52.9397 21.709 52.6817 22.3645 52.1731C22.8281 51.7607 23.1197 51.1892 23.1817 50.5718C23.2437 49.9545 23.0716 49.3364 22.6993 48.84C22.3728 48.4372 21.9136 48.1637 21.4039 48.0686ZM17.9907 45.3176H19.4972C19.807 45.296 20.1144 45.3863 20.3632 45.5723C20.5501 45.7686 20.6543 46.0291 20.6543 46.3001C20.6543 46.5711 20.5501 46.8317 20.3632 47.0279C20.1105 47.2052 19.8054 47.2924 19.4972 47.2753H17.9907V45.3176ZM20.5742 50.7831C20.3186 50.9726 20.004 51.0655 19.6864 51.0451H17.9907V48.9637H19.65C19.9755 48.944 20.2968 49.0451 20.5524 49.2475C20.664 49.3431 20.7523 49.463 20.8103 49.598C20.8684 49.733 20.8946 49.8795 20.8872 50.0262C20.8967 50.168 20.8734 50.31 20.8191 50.4412C20.7648 50.5725 20.681 50.6895 20.5742 50.7831Z" fill="url(#paint4_linear_2401_3451)"/>
<path d="M31.3299 48.1196C31.681 47.6299 31.8671 47.0411 31.8612 46.4385C31.8694 45.91 31.7336 45.3892 31.4682 44.932C31.195 44.465 30.7864 44.0919 30.2965 43.8622C29.6965 43.5889 29.0416 43.4569 28.3825 43.4765H24.5254V52.901H26.8251V49.3423H27.3709L29.3359 52.901H31.9267L29.7434 49.1676C30.377 49.0111 30.9373 48.641 31.3299 48.1196ZM29.2122 47.3919C29.0821 47.5048 28.9307 47.5907 28.767 47.6444C28.6033 47.6981 28.4305 47.7187 28.2588 47.7048H26.8397V45.3832H28.2588C28.6043 45.3565 28.9466 45.4662 29.2122 45.6889C29.3181 45.8016 29.4004 45.9343 29.4541 46.0793C29.5079 46.2243 29.532 46.3786 29.5251 46.5331C29.5343 46.6922 29.5113 46.8516 29.4575 47.0016C29.4038 47.1517 29.3203 47.2893 29.2122 47.4064V47.3919Z" fill="url(#paint5_linear_2401_3451)"/>
<path d="M36.09 43.4763L32.6768 52.9008H35.0856L35.6606 51.2342H39.1757L39.7433 52.9008H42.174L38.7463 43.4763H36.09ZM36.2501 49.4876L37.4072 46.0308L38.5716 49.4876H36.2501Z" fill="url(#paint6_linear_2401_3451)"/>
<path d="M49.3274 49.313L45.4848 43.4763H43.1924V52.9008H45.4848V47.086L49.3274 52.9008H51.6198V43.4763H49.3274V49.313Z" fill="url(#paint7_linear_2401_3451)"/>
<path d="M61.1314 45.7252C60.7289 45.017 60.1298 44.4406 59.4066 44.0659C58.6001 43.6575 57.705 43.455 56.8012 43.4764H53.2861V52.9009H56.8158C57.717 52.9196 58.609 52.7172 59.4139 52.3114C60.1357 51.9339 60.7323 51.3549 61.1314 50.6448C61.5328 49.8871 61.7427 49.0425 61.7427 48.185C61.7427 47.3275 61.5328 46.4829 61.1314 45.7252ZM58.6934 50.2155C58.4218 50.4657 58.1029 50.659 57.7554 50.784C57.4079 50.909 57.039 50.9631 56.6702 50.9432H55.5786V45.4341H56.6702C57.0402 45.3992 57.4132 45.4465 57.7628 45.5724C58.1124 45.6983 58.4299 45.8999 58.6926 46.1626C58.9554 46.4253 59.1569 46.7428 59.2828 47.0924C59.4087 47.442 59.456 47.8151 59.4212 48.185C59.4477 48.5554 59.3967 48.9273 59.2714 49.277C59.146 49.6266 58.9492 49.9462 58.6934 50.2155Z" fill="url(#paint8_linear_2401_3451)"/>
<path d="M38.1419 58.5774L39.0225 60.3604L40.9874 60.6442L39.561 62.0343L39.8958 63.9919L38.1419 63.0677L36.3807 63.9919L36.7155 62.0343L35.2891 60.6442L37.2613 60.3604L38.1419 58.5774Z" fill="#F7D384"/>
<path d="M44.0511 58.5774L44.6697 59.8437L46.0669 60.0475L45.0554 61.0299L45.2955 62.42L44.0511 61.765L42.7993 62.42L43.0395 61.0299L42.0352 60.0475L43.4252 59.8437L44.0511 58.5774Z" fill="#F7D384"/>
<path d="M32.2249 58.5774L32.8508 59.8437L34.2481 60.0475L33.2365 61.0299L33.4766 62.42L32.2249 61.765L30.9804 62.42L31.2206 61.0299L30.209 60.0475L31.6063 59.8437L32.2249 58.5774Z" fill="#F7D384"/>
</g>
<defs>
<linearGradient id="paint0_linear_2401_3451" x1="0" y1="37.9964" x2="76" y2="37.9964" gradientUnits="userSpaceOnUse">
<stop stop-color="#B07515"/>
<stop offset="0.09" stop-color="#E1BA60"/>
<stop offset="0.14" stop-color="#F5D77F"/>
<stop offset="0.26" stop-color="#FFFFD7"/>
<stop offset="0.36" stop-color="#F5D77F"/>
<stop offset="0.49" stop-color="#B07515"/>
<stop offset="0.57" stop-color="#E1BA60"/>
<stop offset="0.61" stop-color="#F5D77F"/>
<stop offset="0.74" stop-color="#FFFFD7"/>
<stop offset="0.84" stop-color="#F5D77F"/>
<stop offset="1" stop-color="#B07515"/>
</linearGradient>
<linearGradient id="paint1_linear_2401_3451" x1="38.7533" y1="-1.50643" x2="38.7533" y2="80.8105" gradientUnits="userSpaceOnUse">
<stop stop-color="#B07515"/>
<stop offset="0.09" stop-color="#E1BA60"/>
<stop offset="0.14" stop-color="#F5D77F"/>
<stop offset="0.26" stop-color="#FFFFD7"/>
<stop offset="0.36" stop-color="#F5D77F"/>
<stop offset="0.49" stop-color="#B07515"/>
<stop offset="0.57" stop-color="#E1BA60"/>
<stop offset="0.61" stop-color="#F5D77F"/>
<stop offset="0.74" stop-color="#FFFFD7"/>
<stop offset="0.84" stop-color="#F5D77F"/>
<stop offset="1" stop-color="#B07515"/>
</linearGradient>
<linearGradient id="paint2_linear_2401_3451" x1="8.40573" y1="38.7533" x2="69.0937" y2="38.7533" gradientUnits="userSpaceOnUse">
<stop stop-color="#B07515"/>
<stop offset="0.09" stop-color="#E1BA60"/>
<stop offset="0.14" stop-color="#F5D77F"/>
<stop offset="0.26" stop-color="#FFFFD7"/>
<stop offset="0.36" stop-color="#F5D77F"/>
<stop offset="0.49" stop-color="#B07515"/>
<stop offset="0.57" stop-color="#E1BA60"/>
<stop offset="0.61" stop-color="#F5D77F"/>
<stop offset="0.74" stop-color="#FFFFD7"/>
<stop offset="0.84" stop-color="#F5D77F"/>
<stop offset="1" stop-color="#B07515"/>
</linearGradient>
<linearGradient id="paint3_linear_2401_3451" x1="9.5332" y1="38.7533" x2="67.9724" y2="38.7533" gradientUnits="userSpaceOnUse">
<stop offset="0.01" stop-color="#EEB456"/>
<stop offset="0.17" stop-color="#F0C561"/>
<stop offset="0.19" stop-color="#F0C762"/>
<stop offset="0.73" stop-color="#C37808"/>
<stop offset="0.95" stop-color="#EDB05A"/>
</linearGradient>
<linearGradient id="paint4_linear_2401_3451" x1="15.6982" y1="48.185" x2="23.216" y2="48.185" gradientUnits="userSpaceOnUse">
<stop stop-color="#B07515"/>
<stop offset="0.09" stop-color="#E1BA60"/>
<stop offset="0.14" stop-color="#F5D77F"/>
<stop offset="0.26" stop-color="#FFFFD7"/>
<stop offset="0.36" stop-color="#F5D77F"/>
<stop offset="0.61" stop-color="#F5D77F"/>
<stop offset="0.74" stop-color="#FFFFD7"/>
<stop offset="0.84" stop-color="#F5D77F"/>
<stop offset="1" stop-color="#B07515"/>
</linearGradient>
<linearGradient id="paint5_linear_2401_3451" x1="24.5399" y1="48.1851" x2="31.9413" y2="48.1851" gradientUnits="userSpaceOnUse">
<stop stop-color="#B07515"/>
<stop offset="0.09" stop-color="#E1BA60"/>
<stop offset="0.14" stop-color="#F5D77F"/>
<stop offset="0.26" stop-color="#FFFFD7"/>
<stop offset="0.36" stop-color="#F5D77F"/>
<stop offset="0.61" stop-color="#F5D77F"/>
<stop offset="0.74" stop-color="#FFFFD7"/>
<stop offset="0.84" stop-color="#F5D77F"/>
<stop offset="1" stop-color="#B07515"/>
</linearGradient>
<linearGradient id="paint6_linear_2401_3451" x1="32.6768" y1="48.1849" x2="42.1595" y2="48.1849" gradientUnits="userSpaceOnUse">
<stop stop-color="#B07515"/>
<stop offset="0.09" stop-color="#E1BA60"/>
<stop offset="0.14" stop-color="#F5D77F"/>
<stop offset="0.26" stop-color="#FFFFD7"/>
<stop offset="0.36" stop-color="#F5D77F"/>
<stop offset="0.61" stop-color="#F5D77F"/>
<stop offset="0.74" stop-color="#FFFFD7"/>
<stop offset="0.84" stop-color="#F5D77F"/>
<stop offset="1" stop-color="#B07515"/>
</linearGradient>
<linearGradient id="paint7_linear_2401_3451" x1="43.1924" y1="48.1849" x2="51.6198" y2="48.1849" gradientUnits="userSpaceOnUse">
<stop stop-color="#B07515"/>
<stop offset="0.09" stop-color="#E1BA60"/>
<stop offset="0.14" stop-color="#F5D77F"/>
<stop offset="0.26" stop-color="#FFFFD7"/>
<stop offset="0.36" stop-color="#F5D77F"/>
<stop offset="0.61" stop-color="#F5D77F"/>
<stop offset="0.74" stop-color="#FFFFD7"/>
<stop offset="0.84" stop-color="#F5D77F"/>
<stop offset="1" stop-color="#B07515"/>
</linearGradient>
<linearGradient id="paint8_linear_2401_3451" x1="53.2861" y1="48.185" x2="61.7573" y2="48.185" gradientUnits="userSpaceOnUse">
<stop stop-color="#B07515"/>
<stop offset="0.09" stop-color="#E1BA60"/>
<stop offset="0.14" stop-color="#F5D77F"/>
<stop offset="0.26" stop-color="#FFFFD7"/>
<stop offset="0.36" stop-color="#F5D77F"/>
<stop offset="0.61" stop-color="#F5D77F"/>
<stop offset="0.74" stop-color="#FFFFD7"/>
<stop offset="0.84" stop-color="#F5D77F"/>
<stop offset="1" stop-color="#B07515"/>
</linearGradient>
<clipPath id="clip0_2401_3451">
<rect width="76" height="76" fill="white"/>
</clipPath>
</defs>
</svg>
