<svg width="87" height="89" viewBox="0 0 87 89" fill="none" xmlns="http://www.w3.org/2000/svg">
<path d="M0.737676 44.1614L0.0418644 34.4989C-0.441669 27.8474 3.43839 27.8177 6.98823 28.56L21.4706 31.672L22.7148 48.8947L0.737676 44.1614Z" fill="url(#paint0_linear_2730_3724)"/>
<path d="M7.00499 6.14324L7.42744 43.5902C7.49608 45.2049 8.07274 46.744 9.05975 47.9469C10.0468 49.1498 11.3835 49.9425 12.8435 50.1908L74.7327 60.6073C78.0433 61.1499 81.049 63.0265 83.16 65.8688L87 71L86.4584 18.0291C86.4008 16.4051 85.829 14.8534 84.8411 13.6396C83.8531 12.4258 82.5103 11.6253 81.0423 11.3751L13.3093 0.0877259C12.5163 -0.0636914 11.7025 -0.0186691 10.9276 0.21948C10.1527 0.457628 9.43642 0.882842 8.83156 1.46383C8.22671 2.04481 7.74864 2.76678 7.43253 3.5766C7.11642 4.38642 6.97033 5.26348 7.00499 6.14324Z" fill="#181A21"/>
<path d="M2.8239 73.0481L0.0347346 34.4454C0.506474 40.9782 4.52216 42.8074 8.06611 43.5675L57.7403 51.1931C58.4321 51.37 59.0432 51.7798 59.4721 52.3544C59.9011 52.929 60.1223 53.634 60.099 54.3525L60.1992 85.6029C60.1992 87.7172 58.4302 89.3385 56.5255 88.9346L10.8553 82.1584C7.31722 81.4041 3.99735 77.6389 2.8239 73.0481Z" fill="url(#paint1_linear_2730_3724)"/>
<path d="M22.0897 17.435L19.2198 16.9526L19.6131 14.6124L22.483 15.0947C22.8811 15.1616 23.2204 15.1262 23.501 14.9885C23.7881 14.8519 24.0158 14.636 24.1842 14.3409C24.3538 14.0393 24.472 13.6894 24.5389 13.2914C24.6068 12.8869 24.609 12.5011 24.5452 12.1338C24.489 11.7613 24.3541 11.4448 24.1404 11.1845C23.9331 10.9252 23.6272 10.7615 23.2227 10.6936L21.2581 10.3634L19.2948 22.0453L16.4827 21.5726L18.8392 7.55054L23.616 8.35333C24.5598 8.51195 25.3385 8.84748 25.9522 9.35992C26.5658 9.87236 26.9936 10.5087 27.2356 11.2689C27.485 12.0239 27.5342 12.8507 27.3831 13.7496C27.231 14.6549 26.9158 15.4106 26.4376 16.0168C25.9669 16.6177 25.3606 17.0439 24.6185 17.2955C23.8764 17.5471 23.0335 17.5936 22.0897 17.435Z" fill="white"/>
<path d="M30.0589 9.43614L34.5563 10.192C35.4937 10.3495 36.2661 10.6444 36.8734 11.0765C37.4808 11.5087 37.9081 12.069 38.1555 12.7576C38.4029 13.4461 38.4489 14.2527 38.2935 15.1772C38.1662 15.9348 37.9545 16.566 37.6584 17.0708C37.3634 17.5692 36.9962 17.9663 36.557 18.2621C36.1189 18.5516 35.6187 18.758 35.0567 18.8814L34.1138 19.2478L30.4638 18.6344L30.8475 16.2925L33.3803 16.7182C33.7655 16.7829 34.0973 16.7529 34.3758 16.628C34.6617 16.4979 34.8916 16.2889 35.0654 16.0012C35.2467 15.7082 35.3724 15.3531 35.4425 14.9357C35.517 14.4927 35.5228 14.1042 35.4602 13.7702C35.405 13.4308 35.2694 13.1572 35.0535 12.9492C34.8451 12.736 34.5482 12.597 34.163 12.5322L32.4873 12.2506L30.524 23.9325L27.7023 23.4582L30.0589 9.43614ZM34.0681 24.5281L32.5471 17.8457L35.5053 18.333L37.1051 24.8999L37.0824 25.0347L34.0681 24.5281Z" fill="white"/>
<path d="M43.898 11.762L41.5414 25.7841L38.7389 25.3131L41.0955 11.291L43.898 11.762Z" fill="white"/>
<path d="M51.4176 22.6412L54.2201 23.1122C54.0046 24.1586 53.6433 25.0122 53.1362 25.673C52.6301 26.3273 51.9894 26.7808 51.2142 27.0334C50.4454 27.2871 49.5602 27.3298 48.5586 27.1615C47.7817 27.0309 47.1131 26.7865 46.5527 26.4283C45.9935 26.0636 45.5446 25.592 45.2061 25.0136C44.8676 24.4352 44.6518 23.7553 44.5586 22.9738C44.473 22.187 44.5122 21.3057 44.6762 20.3298L45.076 17.951C45.24 16.9751 45.4975 16.1305 45.8485 15.417C46.2058 14.7047 46.639 14.1305 47.148 13.6946C47.6645 13.2532 48.2461 12.9549 48.8928 12.7995C49.5469 12.6387 50.256 12.6226 51.0201 12.751C52.0409 12.9225 52.8624 13.2587 53.4847 13.7593C54.1069 14.26 54.5422 14.9108 54.7905 15.7118C55.0463 16.5073 55.1237 17.4413 55.0227 18.5136L52.2105 18.041C52.3035 17.37 52.3144 16.8338 52.2432 16.4324C52.1796 16.0256 52.0194 15.7214 51.7628 15.5198C51.5073 15.3118 51.1292 15.1657 50.6284 15.0816C50.256 15.019 49.9236 15.0325 49.6313 15.122C49.3401 15.2051 49.0835 15.3765 48.8616 15.6363C48.6397 15.8961 48.4476 16.2533 48.2854 16.7079C48.1296 17.1637 47.995 17.7286 47.8817 18.4028L47.4787 20.8008C47.3676 21.4621 47.3079 22.033 47.2998 22.5135C47.2927 22.9877 47.3414 23.3854 47.4459 23.7066C47.5503 24.0278 47.7228 24.278 47.9634 24.4571C48.2104 24.6372 48.5394 24.7618 48.9503 24.8309C49.4254 24.9107 49.8193 24.9043 50.1319 24.8116C50.451 24.72 50.7119 24.5031 50.9147 24.1608C51.1174 23.8186 51.2851 23.3121 51.4176 22.6412Z" fill="white"/>
<path d="M63.6307 27.1001L63.239 29.4307L57.1429 28.4061L57.5346 26.0755L63.6307 27.1001ZM60.3759 14.5313L58.0193 28.5534L55.1975 28.0792L57.5541 14.0571L60.3759 14.5313ZM63.8221 20.953L63.4417 23.2162L58.1642 22.3292L58.5445 20.066L63.8221 20.953ZM65.5764 15.4053L65.1831 17.7455L59.1062 16.7242L59.4995 14.384L65.5764 15.4053Z" fill="white"/>
<path d="M36.0278 41.7207L33.5515 41.3124L33.9552 38.9838L36.4123 39.3889C37.0932 39.5012 37.6433 39.4665 38.0625 39.2849C38.4818 39.1033 38.8119 38.7618 39.0529 38.2605C39.3004 37.7602 39.4945 37.0829 39.6354 36.2286L39.996 34.0413C40.103 33.3925 40.1518 32.8364 40.1424 32.373C40.1341 31.9031 40.0532 31.5137 39.8996 31.2046C39.7471 30.8891 39.5149 30.6364 39.2031 30.4464C38.8913 30.2565 38.4881 30.1207 37.9935 30.0391L35.4304 29.6165L35.8165 27.2751L38.3795 27.6977C39.1889 27.8312 39.9027 28.0841 40.5209 28.4566C41.1392 28.829 41.6441 29.3082 42.0358 29.894C42.4285 30.4735 42.6925 31.1537 42.8276 31.9348C42.9628 32.7159 42.9525 33.5786 42.7968 34.5229L42.4393 36.6909C42.2826 37.6416 42.0153 38.4619 41.6377 39.1518C41.26 39.8418 40.7916 40.4013 40.2326 40.8304C39.681 41.2541 39.0495 41.5426 38.338 41.6958C37.6265 41.849 36.8565 41.8573 36.0278 41.7207ZM37.5027 27.5531L35.1895 41.5825L32.3663 41.117L34.6795 27.0876L37.5027 27.5531Z" fill="#F2CD37"/>
<path d="M45.8471 28.929L50.3469 29.6709C51.2847 29.8255 52.058 30.118 52.6667 30.5483C53.2754 30.9785 53.7045 31.5376 53.954 32.2253C54.2035 32.9131 54.252 33.7195 54.0994 34.6445C53.9745 35.4025 53.7647 36.0344 53.4702 36.5401C53.1767 37.0393 52.8108 37.4376 52.3725 37.7348C51.9353 38.0256 51.4358 38.2336 50.8741 38.3587L49.9323 38.728L46.2805 38.1259L46.6569 35.7829L49.191 36.2007C49.5765 36.2643 49.9082 36.2332 50.1863 36.1075C50.4718 35.9764 50.701 35.7668 50.8739 35.4785C51.0543 35.185 51.1789 34.8294 51.2477 34.4119C51.3208 33.9686 51.3255 33.5801 51.2618 33.2463C51.2055 32.9071 51.0691 32.6339 50.8526 32.4266C50.6435 32.214 50.3462 32.0759 49.9608 32.0123L48.2842 31.7359L46.3571 43.4238L43.5339 42.9583L45.8471 28.929ZM49.903 44.0084L48.3614 37.3308L51.3211 37.8089L52.9411 44.3708L52.9189 44.5057L49.903 44.0084Z" fill="#F2CD37"/>
<path d="M65.6442 38.2801L65.2581 40.6215C65.095 41.6108 64.83 42.4579 64.463 43.1628C64.1036 43.8623 63.6609 44.426 63.1351 44.854C62.6167 45.2766 62.0253 45.5618 61.3609 45.7096C60.7029 45.8584 59.9981 45.8709 59.2466 45.747C58.495 45.6231 57.8283 45.3845 57.2465 45.0312C56.6712 44.679 56.1994 44.2185 55.8313 43.6498C55.4707 43.0756 55.2292 42.3991 55.1069 41.6201C54.9857 40.8347 55.0066 39.9474 55.1698 38.9581L55.5558 36.6167C55.7232 35.6018 55.9882 34.7349 56.3508 34.0161C56.7145 33.2909 57.163 32.7116 57.6964 32.2782C58.2308 31.8385 58.8275 31.541 59.4865 31.3857C60.1466 31.224 60.8525 31.2051 61.604 31.3291C62.3556 31.453 63.018 31.6975 63.5913 32.0625C64.1656 32.4211 64.6352 32.8945 65.0001 33.4825C65.3661 34.0641 65.6049 34.7567 65.7165 35.5603C65.8357 36.3586 65.8116 37.2652 65.6442 38.2801ZM62.4542 40.1592L62.8434 37.7985C62.9536 37.1305 62.9992 36.554 62.9801 36.0692C62.9621 35.578 62.8817 35.1655 62.7388 34.8318C62.5958 34.4981 62.3979 34.2378 62.145 34.051C61.8921 33.8641 61.5825 33.7405 61.2164 33.6801C60.8502 33.6198 60.5142 33.6369 60.2082 33.7316C59.9087 33.8274 59.6377 34.0104 59.3952 34.2805C59.1592 34.5517 58.9538 34.917 58.779 35.3765C58.6118 35.8306 58.4731 36.3917 58.3629 37.0598L57.9737 39.4205C57.8678 40.0628 57.8254 40.62 57.8465 41.092C57.8677 41.5639 57.9508 41.9603 58.0959 42.2812C58.2409 42.602 58.4399 42.8559 58.6928 43.0427C58.9532 43.2242 59.2665 43.3452 59.6326 43.4055C59.9924 43.4649 60.3215 43.4498 60.6199 43.3605C60.9259 43.2658 61.1958 43.0892 61.4297 42.8309C61.6637 42.5725 61.8665 42.2233 62.038 41.7831C62.2096 41.3429 62.3483 40.8016 62.4542 40.1592Z" fill="#F2CD37"/>
<path d="M71.9547 42.567L69.0833 42.0935L69.4694 39.7521L72.3408 40.2255C72.739 40.2912 73.0782 40.2548 73.3584 40.1162C73.645 39.9787 73.8721 39.7621 74.0396 39.4664C74.2082 39.1643 74.3253 38.8141 74.391 38.4158C74.4577 38.0111 74.4587 37.6253 74.3938 37.2583C74.3364 36.8859 74.2005 36.5699 73.986 36.3102C73.7779 36.0515 73.4715 35.8888 73.0668 35.8221L71.1012 35.498L69.174 47.1859L66.3605 46.722L68.6736 32.6927L73.4529 33.4807C74.3971 33.6364 75.1769 33.9695 75.7921 34.48C76.4074 34.9905 76.8372 35.6256 77.0814 36.3851C77.3332 37.1392 77.3849 37.9659 77.2367 38.8652C77.0873 39.771 76.7745 40.5277 76.2982 41.1354C75.8294 41.7377 75.2243 42.1658 74.483 42.4197C73.7418 42.6736 72.899 42.7227 71.9547 42.567Z" fill="#F2CD37"/>
<path d="M16.9303 61.831L14.424 60.9216L17.361 52.5272L25.3556 53.2512L24.6585 56.0121L19.3365 55.5301L17.9893 59.1029C18.2948 58.9344 18.6158 58.8105 18.9525 58.7312C19.2891 58.6519 19.6251 58.6235 19.9604 58.646C20.7384 58.7164 21.3528 58.9486 21.8035 59.3424C22.2627 59.7291 22.5995 60.2107 22.8141 60.7871C23.0286 61.3634 23.1487 61.9862 23.1744 62.6553C23.2001 63.3244 23.1575 63.9677 23.0467 64.5852C22.9161 65.3343 22.6791 66.0463 22.3355 66.7212C21.992 67.3961 21.5622 67.9847 21.046 68.4871C20.5299 68.9895 19.9306 69.3706 19.2481 69.6304C18.5656 69.8902 17.8209 69.9718 17.0138 69.8752C16.3072 69.7955 15.6977 69.5952 15.1855 69.2743C14.6811 68.9541 14.2633 68.5436 13.9321 68.0429C13.6087 67.543 13.3804 66.9889 13.2472 66.3807C13.1218 65.7731 13.0961 65.1472 13.1701 64.5028L16.3213 64.7881C16.3009 65.1001 16.3067 65.4261 16.3386 65.7663C16.3784 66.1072 16.48 66.4145 16.6434 66.6882C16.8154 66.9548 17.0917 67.1092 17.4722 67.1515C17.8754 67.2037 18.2152 67.1325 18.4917 66.9379C18.7767 66.7363 19.0122 66.4752 19.1981 66.1547C19.3847 65.8264 19.5299 65.4787 19.6338 65.1116C19.7461 64.7374 19.8273 64.4035 19.8774 64.11C19.9261 63.832 19.9614 63.5292 19.9832 63.2017C20.005 62.8743 19.983 62.5546 19.9171 62.2427C19.8597 61.9237 19.7347 61.6574 19.5423 61.4439C19.3498 61.2303 19.0743 61.1113 18.7157 61.0866C18.3429 61.045 18.0126 61.0975 17.7248 61.244C17.4454 61.3834 17.1806 61.5791 16.9303 61.831Z" fill="#181A21"/>
<path d="M35.8089 61.2578L35.0991 64.1587C34.8999 64.9722 34.6371 65.7956 34.3106 66.6289C33.9919 67.4629 33.5735 68.2291 33.0553 68.9274C32.5455 69.6186 31.9243 70.1546 31.1917 70.5354C30.4676 70.9091 29.6089 71.0354 28.6158 70.914C27.8547 70.8294 27.2357 70.6047 26.7589 70.2399C26.2898 69.8758 25.9346 69.424 25.6932 68.8844C25.4518 68.3448 25.3013 67.7546 25.2417 67.1138C25.182 66.473 25.1818 65.8258 25.241 65.1722C25.3086 64.5116 25.4082 63.8891 25.5395 63.3048L26.2504 60.3922C26.4411 59.5858 26.7032 58.7702 27.0368 57.9454C27.371 57.1127 27.7891 56.3505 28.2911 55.6585C28.8008 54.9673 29.4216 54.4352 30.1536 54.0622C30.8933 53.6899 31.7597 53.5644 32.7528 53.6857C33.5061 53.7696 34.1173 53.9936 34.5864 54.3577C35.0555 54.7218 35.4107 55.1736 35.6521 55.7132C35.8942 56.245 36.045 56.8313 36.1047 57.4721C36.165 58.1052 36.1617 58.7481 36.0947 59.401C36.0356 60.0546 35.9403 60.6735 35.8089 61.2578ZM31.8123 64.3317L32.7372 60.4854C32.7682 60.3157 32.8177 60.073 32.8854 59.7575C32.9539 59.4343 33.0125 59.0905 33.0612 58.7262C33.1106 58.3542 33.1232 57.9984 33.099 57.6589C33.0833 57.3123 33.0079 57.0191 32.8727 56.7794C32.7383 56.5319 32.5119 56.3898 32.1936 56.3531C31.7373 56.2805 31.3558 56.3793 31.0489 56.6496C30.742 56.9199 30.49 57.2775 30.2928 57.7225C30.0963 58.1597 29.938 58.6081 29.818 59.0679C29.6979 59.5277 29.6008 59.9072 29.5266 60.2065L28.6251 64.0549C28.594 64.2247 28.5403 64.4708 28.4641 64.7934C28.3963 65.1089 28.3373 65.4565 28.2872 65.8364C28.2379 66.2084 28.221 66.5678 28.2367 66.9143C28.2524 67.2609 28.3275 67.558 28.4619 67.8055C28.6049 68.0459 28.8348 68.1922 29.1517 68.2445C29.6002 68.3165 29.9817 68.2176 30.2964 67.9481C30.6118 67.6707 30.8684 67.3056 31.0663 66.8529C31.2642 66.4001 31.4196 65.9396 31.5326 65.4713C31.6534 65.0037 31.7466 64.6239 31.8123 64.3317Z" fill="#181A21"/>
<path d="M37.8313 64.6759L37.8055 64.149C37.7981 63.7233 37.881 63.3446 38.0541 63.0129C38.2267 62.6767 38.4712 62.4079 38.7876 62.2066C39.1081 62.0003 39.4794 61.8776 39.9015 61.8385C40.3095 61.7965 40.6728 61.8445 40.9913 61.9824C41.3143 62.1198 41.5724 62.3311 41.7655 62.6163C41.9632 62.9011 42.0717 63.2488 42.0911 63.6594L42.1101 64.187C42.1175 64.6127 42.0346 64.9915 41.8615 65.3231C41.6884 65.6548 41.4436 65.9213 41.1272 66.1226C40.8107 66.3239 40.4437 66.4438 40.0261 66.4823C39.6226 66.5239 39.2596 66.4782 38.9371 66.3453C38.6141 66.2079 38.3538 65.9968 38.1561 65.7121C37.963 65.4268 37.8547 65.0814 37.8313 64.6759ZM39.2725 63.9814L39.2675 64.5393C39.2729 64.6671 39.2959 64.7883 39.3365 64.903C39.3817 65.0171 39.4494 65.1079 39.5397 65.1756C39.6295 65.2387 39.7493 65.264 39.8993 65.2515C40.0582 65.2379 40.1902 65.1884 40.2951 65.103C40.4041 65.0126 40.4878 64.9021 40.5462 64.7716C40.6042 64.6366 40.6387 64.4973 40.6499 64.3538L40.664 63.8155C40.6626 63.6827 40.6414 63.5567 40.6002 63.4375C40.5591 63.3184 40.4911 63.2252 40.3963 63.1581C40.3055 63.0859 40.1828 63.0563 40.0284 63.0694C39.8694 63.083 39.7354 63.135 39.6265 63.2254C39.5176 63.3158 39.4341 63.4286 39.3762 63.5636C39.3182 63.6987 39.2836 63.8379 39.2725 63.9814ZM42.0529 69.8286L42.0339 69.301C42.022 68.8757 42.1049 68.497 42.2825 68.1648C42.4601 67.8326 42.7071 67.5659 43.0236 67.3646C43.344 67.1582 43.7151 67.0333 44.1367 66.9897C44.5452 66.9522 44.9087 67.0024 45.2272 67.1403C45.5497 67.2732 45.8075 67.4823 46.0007 67.7675C46.1938 68.0528 46.3023 68.4004 46.3263 68.8105L46.3453 69.3382C46.3526 69.7639 46.27 70.1449 46.0974 70.4811C45.9289 70.8123 45.6843 71.081 45.3639 71.2874C45.0475 71.4886 44.6804 71.6086 44.2628 71.6471C43.8543 71.6846 43.4888 71.6369 43.1663 71.504C42.8433 71.3666 42.5829 71.1556 42.3853 70.8708C42.1871 70.5816 42.0763 70.2342 42.0529 69.8286ZM43.5009 69.1334L43.5026 69.6905C43.5075 69.8138 43.5326 69.9324 43.5777 70.0466C43.6274 70.1601 43.6976 70.253 43.7884 70.3252C43.8833 70.3924 43.9988 70.4204 44.1352 70.4094C44.3128 70.3983 44.4543 70.3523 44.5598 70.2715C44.6692 70.1856 44.7507 70.0754 44.8041 69.9408C44.8575 69.8063 44.8868 69.6608 44.8918 69.5042L44.906 68.9659C44.9001 68.8336 44.8768 68.7101 44.8362 68.5955C44.795 68.4763 44.727 68.3832 44.6322 68.3161C44.5414 68.2439 44.421 68.214 44.2711 68.2266C44.1121 68.2402 43.9759 68.2924 43.8624 68.3834C43.753 68.4693 43.667 68.58 43.6045 68.7156C43.546 68.8461 43.5115 68.9854 43.5009 69.1334ZM45.1408 62.8912L40.0582 71.2193L38.9448 70.7479L44.0349 62.4259L45.1408 62.8912Z" fill="#181A21"/>
<path d="M40.4169 77.3529L40.3292 77.6691C40.2158 78.0646 40.055 78.4388 39.8469 78.7917C39.6388 79.1446 39.3868 79.4516 39.0907 79.7126C38.7951 79.9707 38.4599 80.1613 38.0852 80.2844C37.7109 80.4045 37.3009 80.4296 36.8551 80.3595C36.4296 80.2923 36.0824 80.15 35.8136 79.9328C35.5451 79.7126 35.3456 79.4427 35.2149 79.1232C35.0872 78.804 35.0192 78.4591 35.011 78.0883C35.006 77.715 35.0524 77.3443 35.1502 76.9763L35.2386 76.6557C35.3516 76.2631 35.5134 75.892 35.724 75.5424C35.935 75.1899 36.1883 74.8846 36.4839 74.6265C36.78 74.3655 37.1152 74.1749 37.4895 74.0547C37.8667 73.935 38.2753 73.9097 38.7152 73.979C39.1411 74.0433 39.4883 74.1856 39.7567 74.4057C40.0256 74.623 40.2239 74.8912 40.3516 75.2104C40.4793 75.5295 40.5459 75.8743 40.5513 76.2447C40.5595 76.6154 40.5148 76.9849 40.4169 77.3529ZM39.1469 77.5246L39.2371 77.191C39.2919 76.9856 39.3356 76.7639 39.3683 76.5259C39.4013 76.285 39.4021 76.053 39.3706 75.8298C39.3395 75.6038 39.2581 75.4108 39.1263 75.2507C38.9948 75.0878 38.7921 74.9816 38.5179 74.9322C38.2293 74.8807 37.9702 74.9043 37.7408 75.003C37.5118 75.0987 37.31 75.244 37.1354 75.4389C36.9641 75.6313 36.8191 75.8479 36.7003 76.0889C36.5843 76.3303 36.4922 76.5705 36.424 76.8095L36.3338 77.1431C36.2798 77.3427 36.2363 77.5629 36.2033 77.8039C36.1702 78.0448 36.169 78.2797 36.1997 78.5086C36.2308 78.7347 36.3118 78.9306 36.4429 79.0965C36.5743 79.2594 36.7773 79.3641 37.0518 79.4107C37.3434 79.4625 37.6038 79.4391 37.8332 79.3405C38.0627 79.2418 38.263 79.0963 38.4343 78.904C38.606 78.7087 38.7512 78.4906 38.8701 78.2496C38.9893 78.0057 39.0816 77.7641 39.1469 77.5246Z" fill="#181A21"/>
<path d="M43.5098 74.7255L41.5386 80.9134L40.3674 80.7527L42.3343 74.5642L43.5098 74.7255ZM45.1368 77.7388L44.8417 78.6608L42.051 78.2779L42.3461 77.3559L45.1368 77.7388ZM46.3093 75.1096L46.0142 76.0316L42.8969 75.6039L43.1964 74.6825L46.3093 75.1096Z" fill="#181A21"/>
<path d="M48.2641 75.3778L46.2929 81.5657L45.1217 81.405L47.0886 75.2165L48.2641 75.3778ZM49.8911 78.3911L49.596 79.3131L46.8053 78.9302L47.1004 78.0082L49.8911 78.3911ZM51.0636 75.7619L50.7685 76.6839L47.6512 76.2562L47.9506 75.3348L51.0636 75.7619Z" fill="#181A21"/>
<defs>
<linearGradient id="paint0_linear_2730_3724" x1="2.05059" y1="24.8607" x2="9.81274" y2="34.521" gradientUnits="userSpaceOnUse">
<stop stop-color="#F6BA26"/>
<stop offset="1" stop-color="#DC7E22"/>
</linearGradient>
<linearGradient id="paint1_linear_2730_3724" x1="31.9053" y1="85.564" x2="28.7795" y2="45.1082" gradientUnits="userSpaceOnUse">
<stop stop-color="#EBB029"/>
<stop offset="1" stop-color="#F4D63B"/>
</linearGradient>
</defs>
</svg>
