<svg width="112" height="111" viewBox="0 0 112 111" fill="none" xmlns="http://www.w3.org/2000/svg">
<g clip-path="url(#clip0_2137_1967)">
<path d="M111.259 7.26741C111.155 7.20211 110.98 7.14395 110.749 7.09855C110.518 7.05315 110.24 7.02203 109.941 7.00821C109.642 6.99439 109.332 6.99833 109.042 7.01964C108.751 7.04096 108.49 7.07893 108.283 7.1299L92 11.0001L92.1756 10.958H112V7.63115L111.259 7.26741Z" fill="white"/>
<path d="M8.19143 107.533C7.86367 109.779 8.02049 110.893 8.19143 111H11L10.9717 88.0001C10.49 91.0082 8.19143 107.533 8.19143 107.533Z" fill="white"/>
<path d="M107.559 5.00012H64.7244C61.4106 5.00134 58.2329 6.31862 55.8903 8.66225L9.66246 54.8859C7.31862 57.2283 6.00122 60.4057 6 63.7192C6 63.7192 6 100.081 6 109.03C5.99992 109.286 6.0512 109.54 6.1508 109.777C6.25041 110.013 6.39634 110.227 6.57999 110.406C6.76364 110.585 6.98129 110.726 7.22012 110.82C7.45895 110.913 7.71413 110.958 7.97062 110.952H9.48944C7.46114 110.539 8.37435 108.664 9.19144 107.819L25.5331 91.4111L92.2938 24.7333L108.338 7.96059C108.542 7.7397 108.799 7.57512 109.085 7.48274C109.371 7.39036 109.677 7.3733 109.971 7.4332C110.266 7.4931 110.54 7.62793 110.768 7.8247C110.995 8.02147 111.168 8.27351 111.269 8.55652L112 10.1137V9.46004C112.003 8.87527 111.89 8.29575 111.667 7.75476C111.445 7.21377 111.119 6.72196 110.706 6.30756C110.293 5.89317 109.803 5.56435 109.263 5.33998C108.723 5.11561 108.144 5.00012 107.559 5.00012Z" fill="white"/>
</g>
<g clip-path="url(#clip1_2137_1967)">
<path d="M26.4414 74.5352C26.3136 74.9497 25.7594 75.021 25.4967 74.6559L22.6899 70.7593L17.8276 70.9384C17.3731 70.9547 17.0816 70.4315 17.3451 70.0725L20.2665 66.08L18.6935 61.4954C18.5519 61.082 18.924 60.7004 19.3408 60.8317L23.9634 62.2892L27.8814 59.2686C28.2336 58.9961 28.764 59.2745 28.7584 59.7299L28.702 64.5945L32.6678 67.3027C33.0394 67.5562 32.982 68.112 32.5708 68.2501L27.8899 69.8186L26.4414 74.5352Z" fill="#C60D0D"/>
</g>
<path d="M44.9896 53.449C44.512 53.9387 44.0356 54.178 43.5602 54.167C43.0849 54.156 42.6238 53.9327 42.1771 53.497L36.5199 47.9799L37.8897 46.5753L43.8175 52.3563L44.7978 51.3511L45.9447 52.4696L44.9896 53.449ZM41.6215 56.9026C41.144 57.3923 40.6675 57.6316 40.1922 57.6206C39.7168 57.6096 39.2558 57.3863 38.809 56.9506L33.1519 51.4335L34.5217 50.0289L40.4495 55.8099L41.4297 54.8047L42.5766 55.9232L41.6215 56.9026Z" fill="#C60D0D"/>
<path d="M49.6671 48.9621C48.9465 49.7009 48.1531 50.0418 47.2869 49.9848C46.412 49.9194 45.5364 49.4594 44.6601 48.6048L40.1756 44.2314L41.5454 42.8267L45.8753 47.0494C46.4251 47.5856 46.955 47.8844 47.465 47.9459C47.9747 47.9904 48.4767 47.7593 48.971 47.2524C49.1553 47.0634 49.3182 46.8534 49.4595 46.6225C49.5923 46.3833 49.6784 46.1403 49.7177 45.8938C49.7654 45.6386 49.7538 45.3926 49.683 45.1559C49.6119 44.9022 49.469 44.6707 49.2542 44.4612L44.4862 39.8113L45.856 38.4067L51.7838 44.1876L52.5127 43.4402L53.6596 44.5587L52.7548 45.4865C52.4029 45.8474 52.0359 46.0174 51.6538 45.9968C51.2631 45.9677 50.8703 45.7775 50.4756 45.426L50.4127 45.4904C50.6655 46.0219 50.7448 46.5937 50.6506 47.2059C50.5563 47.8011 50.2284 48.3865 49.6671 48.9621Z" fill="#C60D0D"/>
<path d="M55.1662 40.6678C54.7305 41.1146 54.2964 41.3449 53.8638 41.3588C53.4311 41.3727 53.0215 41.1912 52.6349 40.8141L51.9777 40.1732L53.2093 38.9103L53.9181 39.6015L56.0168 37.4495L57.1895 38.5931L55.1662 40.6678ZM51.9188 37.5009C51.4831 37.9476 51.0533 38.1821 50.6292 38.2044C50.1966 38.2183 49.787 38.0368 49.4004 37.6597L48.7303 37.0062L49.9619 35.7434L50.6707 36.4346L52.7694 34.2825L53.9421 35.4261L51.9188 37.5009Z" fill="#C60D0D"/>
<path d="M62.6148 35.6854C61.8943 36.4242 61.1009 36.7651 60.2346 36.7081C59.3598 36.6427 58.4842 36.1827 57.6079 35.3282L53.1234 30.9547L54.4932 29.5501L58.8231 33.7727C59.3729 34.3089 59.9028 34.6078 60.4127 34.6693C60.9224 34.7138 61.4245 34.4826 61.9188 33.9757C62.1031 33.7867 62.2659 33.5768 62.4073 33.3459C62.5401 33.1066 62.6261 32.8637 62.6655 32.6171C62.7132 32.3619 62.7016 32.116 62.6308 31.8793C62.5597 31.6256 62.4168 31.394 62.202 31.1846L57.434 26.5347L58.8038 25.13L64.7316 30.911L65.4605 30.1636L66.6074 31.2821L65.7026 32.2099C65.3507 32.5707 64.9837 32.7408 64.6016 32.7201C64.2108 32.6911 63.8181 32.5008 63.4233 32.1494L63.3605 32.2138C63.6133 32.7452 63.6926 33.3171 63.5984 33.9292C63.504 34.5244 63.1762 35.1098 62.6148 35.6854Z" fill="#C60D0D"/>
<path d="M56.4423 24.2C56.6182 24.0196 56.7134 23.8275 56.7278 23.6236C56.7253 23.42 56.6381 23.2344 56.4662 23.0668L56.2601 22.8657C56.0882 22.6982 55.9048 22.6199 55.7098 22.6308C55.4978 22.6419 55.3038 22.7377 55.1278 22.9181C54.9519 23.0985 54.8652 23.2906 54.8678 23.4942C54.8533 23.698 54.932 23.8837 55.1039 24.0513L55.3101 24.2524C55.4819 24.4199 55.6738 24.4982 55.8858 24.487C56.0808 24.4761 56.2663 24.3804 56.4423 24.2ZM57.2928 25.0294C56.8236 25.5105 56.309 25.7546 55.749 25.7616C55.1891 25.7686 54.69 25.5585 54.2518 25.1312C53.8137 24.7039 53.5911 24.2103 53.5841 23.6503C53.5771 23.0903 53.8082 22.5698 54.2773 22.0887C54.7465 21.6076 55.2611 21.3635 55.8211 21.3565C56.3811 21.3495 56.8801 21.5596 57.3183 21.9869C57.7564 22.4142 57.979 22.9078 57.986 23.4678C57.993 24.0278 57.762 24.5483 57.2928 25.0294Z" fill="#C60D0D"/>
<path d="M65.9571 22.3583C65.5447 21.9561 65.1222 21.7535 64.6893 21.7505C64.2565 21.7474 63.8139 21.9778 63.3615 22.4418C62.9761 22.8369 62.752 23.2386 62.6892 23.6467C62.6179 24.0464 62.6315 24.4621 62.7303 24.8936L61.1534 25.0152C60.9931 24.4063 60.9853 23.7869 61.1301 23.1571C61.275 22.5273 61.6658 21.886 62.3025 21.2331C63.1404 20.374 63.9832 19.9136 64.831 19.8521C65.6788 19.7905 66.4807 20.1284 67.2367 20.8657L72.1207 25.6287L70.7509 27.0333L65.9571 22.3583Z" fill="#C60D0D"/>
<defs>
<clipPath id="clip0_2137_1967">
<rect width="106" height="106" fill="white" transform="translate(6 5.00012)"/>
</clipPath>
<clipPath id="clip1_2137_1967">
<rect width="16" height="16" fill="white" transform="translate(12.8638 66.339) rotate(-45.7185)"/>
</clipPath>
</defs>
</svg>
