<svg width="50" height="51" viewBox="0 0 50 51" fill="none" xmlns="http://www.w3.org/2000/svg">
<path d="M24.9161 2.66951L28.0453 0.37085L30.5034 3.37421L34.1023 1.92286L35.7383 5.44635L39.5889 4.93461L40.2936 8.76011L44.1527 9.22152L43.8842 13.0974L47.5 14.5068L46.2836 18.1896L49.4379 20.4547L47.3406 23.7266L49.8322 26.7047L46.9883 29.3474L48.6577 32.8541L45.2433 34.6997L45.9899 38.5168L42.2232 39.4564L42.005 43.3323L38.1208 43.3155L36.9379 47.0151L33.1879 46.0252L31.1242 49.3138L27.7349 47.4262L24.9161 50.1024L22.0973 47.4262L18.7081 49.3138L16.6443 46.0252L12.8859 47.0151L11.7114 43.3155L7.82718 43.3323L7.60067 39.4564L3.83389 38.5168L4.58893 34.6997L1.1745 32.8541L2.84396 29.3474L0 26.7047L2.49161 23.7266L0.394295 20.4547L3.54866 18.1896L2.32383 14.5068L5.94799 13.0974L5.67953 9.22152L9.5302 8.76011L10.2433 4.93461L14.094 5.44635L15.7215 1.92286L19.3289 3.37421L21.7869 0.37085L24.9161 2.66951Z" fill="url(#paint0_linear_2730_3703)"/>
<path d="M10.4431 36C10.0031 36 9.67646 35.89 9.46313 35.67C9.25646 35.45 9.15313 35.14 9.15313 34.74V29.45C9.15313 29.25 9.17979 29.0767 9.23313 28.93C9.28646 28.7767 9.35646 28.6467 9.44313 28.54C9.52979 28.4333 9.62979 28.3467 9.74313 28.28C9.86313 28.2133 9.98646 28.16 10.1131 28.12V28.07H7.95312V27.07H11.4431V28.07H11.3131C11.0331 28.07 10.8165 28.1567 10.6631 28.33C10.5098 28.4967 10.4331 28.73 10.4331 29.03V34.98H11.1631V36H10.4431Z" fill="white"/>
<path d="M15.1155 36.12C14.8822 36.12 14.6755 36.09 14.4955 36.03C14.3222 35.9767 14.1689 35.9033 14.0355 35.81C13.9089 35.71 13.8022 35.5967 13.7155 35.47C13.6355 35.3433 13.5722 35.2133 13.5255 35.08H13.4755V36H12.1955V30.48H13.4755V34.14C13.4755 34.2933 13.5089 34.43 13.5755 34.55C13.6422 34.6633 13.7289 34.76 13.8355 34.84C13.9422 34.9133 14.0622 34.97 14.1955 35.01C14.3289 35.05 14.4622 35.07 14.5955 35.07C14.7955 35.07 14.9622 35.04 15.0955 34.98C15.2289 34.9133 15.3355 34.8267 15.4155 34.72C15.5022 34.6067 15.5622 34.4767 15.5955 34.33C15.6289 34.1767 15.6455 34.0133 15.6455 33.84V30.48H16.9255V33.96C16.9255 34.6533 16.7689 35.1867 16.4555 35.56C16.1489 35.9333 15.7022 36.12 15.1155 36.12Z" fill="white"/>
<path d="M19.9079 36.1C19.3679 36.1 18.9379 35.97 18.6179 35.71C18.2979 35.4433 18.1379 35.0333 18.1379 34.48C18.1379 33.96 18.2912 33.56 18.5979 33.28C18.9046 33 19.3412 32.86 19.9079 32.86H21.5879V32.5C21.5879 32.14 21.4912 31.8667 21.2979 31.68C21.1046 31.4867 20.7979 31.39 20.3779 31.39C19.9846 31.39 19.6679 31.4767 19.4279 31.65C19.1879 31.8167 18.9912 32.0133 18.8379 32.24L18.0279 31.53C18.1412 31.3567 18.2712 31.2 18.4179 31.06C18.5712 30.9133 18.7446 30.79 18.9379 30.69C19.1379 30.5833 19.3612 30.5033 19.6079 30.45C19.8612 30.39 20.1446 30.36 20.4579 30.36C21.2512 30.36 21.8512 30.54 22.2579 30.9C22.6646 31.26 22.8679 31.7767 22.8679 32.45V36H21.5879V33.69H20.3379C19.7446 33.69 19.4479 33.9267 19.4479 34.4V34.59C19.4479 34.8233 19.5146 35.0067 19.6479 35.14C19.7812 35.2733 19.9646 35.34 20.1979 35.34C20.3046 35.34 20.3979 35.33 20.4779 35.31L20.5679 36.03C20.5146 36.05 20.4179 36.0667 20.2779 36.08C20.1379 36.0933 20.0146 36.1 19.9079 36.1Z" fill="white"/>
<path d="M20.5316 28.8C20.5316 28.4667 20.6282 28.2133 20.8216 28.04C21.0149 27.86 21.3016 27.77 21.6816 27.77H23.7316V28.73H21.5916V29.57H20.5316V28.8Z" fill="white"/>
<path d="M26.0054 36.12C25.4321 36.12 24.9921 35.9333 24.6854 35.56C24.3787 35.1867 24.2254 34.6533 24.2254 33.96V30.48H25.5054V33.84C25.5054 34.22 25.5787 34.52 25.7254 34.74C25.8787 34.96 26.1421 35.07 26.5154 35.07C26.6554 35.07 26.7921 35.05 26.9254 35.01C27.0587 34.97 27.1754 34.9133 27.2754 34.84C27.3821 34.76 27.4687 34.6633 27.5354 34.55C27.6021 34.43 27.6354 34.2933 27.6354 34.14V30.48H28.9154V34.98H29.4454V36H28.6454C28.0721 36 27.7754 35.6733 27.7554 35.02H27.6954C27.5821 35.3267 27.3887 35.5867 27.1154 35.8C26.8487 36.0133 26.4787 36.12 26.0054 36.12Z" fill="white"/>
<path d="M26.9665 28.6H27.6365V28.25C27.6365 28.1233 27.6065 28.0333 27.5465 27.98C27.4865 27.92 27.3765 27.89 27.2165 27.89H26.9665V26.99H27.7165C28.0365 26.99 28.2832 27.0633 28.4565 27.21C28.6298 27.35 28.7165 27.5367 28.7165 27.77C28.7165 27.9233 28.6732 28.0733 28.5865 28.22C28.4932 28.36 28.3632 28.4667 28.1965 28.54V28.6H30.0265V29.5H26.9665V28.6Z" fill="white"/>
<path d="M32.7056 36.12C32.359 36.12 32.039 36.0733 31.7456 35.98C31.4523 35.88 31.199 35.7467 30.9856 35.58C30.7723 35.4067 30.6056 35.2033 30.4856 34.97C30.3656 34.73 30.3056 34.4667 30.3056 34.18V33.68C30.3056 33.4267 30.369 33.23 30.4956 33.09C30.629 32.9433 30.839 32.87 31.1256 32.87H32.2856V33.84H31.4756V34.08C31.4756 34.4267 31.589 34.69 31.8156 34.87C32.0423 35.0433 32.3556 35.13 32.7556 35.13C33.1423 35.13 33.4423 35.0033 33.6556 34.75C33.869 34.4967 33.9756 34.1467 33.9756 33.7V32.81C33.9756 32.3633 33.8556 32.0167 33.6156 31.77C33.3756 31.5167 33.039 31.39 32.6056 31.39C32.219 31.39 31.8856 31.4733 31.6056 31.64C31.3323 31.8067 31.129 31.99 30.9956 32.19L30.2156 31.49C30.409 31.17 30.709 30.9033 31.1156 30.69C31.529 30.47 32.0423 30.36 32.6556 30.36C33.0756 30.36 33.449 30.4267 33.7756 30.56C34.1023 30.6867 34.379 30.8767 34.6056 31.13C34.839 31.3767 35.0156 31.68 35.1356 32.04C35.2556 32.3933 35.3156 32.7933 35.3156 33.24C35.3156 34.14 35.089 34.8467 34.6356 35.36C34.1823 35.8667 33.539 36.12 32.7056 36.12Z" fill="white"/>
<path d="M38.562 36.12C37.8553 36.12 37.302 35.98 36.902 35.7C36.502 35.4133 36.302 35.01 36.302 34.49C36.302 34.17 36.3953 33.8967 36.582 33.67C36.7753 33.4433 37.022 33.2867 37.322 33.2V33.14C36.9886 33.06 36.7286 32.9033 36.542 32.67C36.3553 32.43 36.262 32.14 36.262 31.8C36.262 31.5867 36.2986 31.3933 36.372 31.22C36.452 31.04 36.5586 30.8867 36.692 30.76C36.832 30.6333 36.9986 30.5367 37.192 30.47C37.392 30.3967 37.612 30.36 37.852 30.36C38.0053 30.36 38.172 30.3767 38.352 30.41C38.532 30.4367 38.6953 30.49 38.842 30.57L38.572 31.5C38.4853 31.4533 38.402 31.4233 38.322 31.41C38.2486 31.39 38.1686 31.38 38.082 31.38C37.8886 31.38 37.7286 31.4367 37.602 31.55C37.4753 31.6567 37.412 31.8067 37.412 32C37.412 32.1933 37.4686 32.35 37.582 32.47C37.6953 32.59 37.902 32.65 38.202 32.65H38.742V33.51H38.202C38.0286 33.51 37.882 33.5667 37.762 33.68C37.642 33.7933 37.582 33.9467 37.582 34.14V34.34C37.582 34.5933 37.6686 34.7833 37.842 34.91C38.022 35.03 38.2753 35.09 38.602 35.09C38.982 35.09 39.2786 34.99 39.492 34.79C39.712 34.5833 39.822 34.2867 39.822 33.9V30.48H41.102V34.07C41.102 34.3833 41.042 34.6667 40.922 34.92C40.802 35.1733 40.632 35.39 40.412 35.57C40.192 35.7433 39.9253 35.88 39.612 35.98C39.2986 36.0733 38.9486 36.12 38.562 36.12Z" fill="white"/>
<path d="M14.56 21.72C14.56 16.3587 18.9187 12 24.28 12C29.6413 12 34 16.3587 34 21.72C34 22.0614 33.7966 22.352 33.506 22.4828C33.4116 22.5554 33.2881 22.5917 33.1646 22.5917H30.7673C30.4476 22.5917 30.1861 22.3302 30.1861 22.0106C30.1861 21.6909 30.4476 21.4294 30.7673 21.4294H32.3219C32.2565 19.5116 31.5155 17.7681 30.3314 16.4169L29.2853 17.463C29.1691 17.5792 29.0238 17.63 28.8712 17.63C28.7187 17.63 28.5734 17.5719 28.4571 17.463C28.2319 17.2378 28.2319 16.8673 28.4571 16.6421L29.496 15.6032C28.2392 14.5208 26.6265 13.8161 24.8612 13.6926V15.2327C24.8612 15.5524 24.5996 15.8139 24.28 15.8139C23.9604 15.8139 23.6988 15.5524 23.6988 15.2327V13.6926C21.919 13.8234 20.299 14.5281 19.0204 15.6323L20.0375 16.6493C20.2627 16.8745 20.2627 17.245 20.0375 17.4702C19.9213 17.5865 19.776 17.6373 19.6234 17.6373C19.4709 17.6373 19.3256 17.5792 19.2093 17.4702L18.1923 16.4532C17.0227 17.7971 16.2962 19.5334 16.2309 21.4367H17.7855C18.1051 21.4367 18.3666 21.6982 18.3666 22.0178C18.3666 22.3375 18.1051 22.599 17.7855 22.599H15.3882C15.2574 22.599 15.1412 22.5554 15.0467 22.49C14.7634 22.352 14.56 22.0614 14.56 21.72Z" fill="white"/>
<path d="M21.1971 19.4534C20.9211 18.9303 21.4877 18.371 22.0108 18.6398L22.374 18.8286C23.2385 19.2863 24.132 19.6786 25.0256 20.0781C25.7084 20.3833 26.1661 21.1097 26.0717 21.9306C25.9772 22.7515 25.3161 23.4126 24.4952 23.507C23.6743 23.6015 22.9552 23.1438 22.6428 22.4609C22.2432 21.5674 21.8509 20.6738 21.3933 19.8094L21.1971 19.4534Z" fill="white"/>
<defs>
<linearGradient id="paint0_linear_2730_3703" x1="0" y1="25.2366" x2="49.8322" y2="25.2366" gradientUnits="userSpaceOnUse">
<stop stop-color="#BE1E2D"/>
<stop offset="0.5" stop-color="#ED1C24"/>
<stop offset="1" stop-color="#BE1E2D"/>
</linearGradient>
</defs>
</svg>
