<svg width="210" height="78" viewBox="0 0 210 78" fill="none" xmlns="http://www.w3.org/2000/svg">
<g filter="url(#filter0_d_2726_3658)">
<path d="M202.46 39.8853L179.362 14.7522C178.502 13.8244 177.721 13.4532 177.148 13.577H15.3068C13.5549 13.577 11.8203 13.3031 10.2025 12.771C8.58464 12.239 7.1154 11.4593 5.87908 10.4765C4.64276 9.49384 3.66368 8.32752 2.99803 7.04451C2.33237 5.76149 1.99325 4.38704 2.0001 3V62.4206C1.99668 63.8059 2.33834 65.1782 3.00553 66.4588C3.67272 67.7394 4.65234 68.9033 5.88832 69.8838C7.1243 70.8643 8.59238 71.6422 10.2085 72.173C11.8247 72.7037 13.5571 72.9769 15.3068 72.9769H177.148C177.721 73.1006 178.502 72.7295 179.362 71.7811L202.46 46.7304C203.311 45.7162 203.765 44.5256 203.765 43.3079C203.765 42.0902 203.311 40.8996 202.46 39.8853Z" fill="url(#paint0_linear_2726_3658)"/>
</g>
<path d="M58.7472 52.7327C57.3733 52.7327 56.2046 52.5007 55.2411 52.0368C54.2954 51.555 53.4657 50.8859 52.752 50.0294L54.5987 48.2897C55.134 48.9678 55.7585 49.4852 56.4722 49.8421C57.186 50.1989 57.9978 50.3774 58.9078 50.3774C59.8714 50.3774 60.5851 50.2079 61.049 49.8688C61.5308 49.512 61.7717 49.0124 61.7717 48.37C61.7717 47.799 61.5843 47.3619 61.2096 47.0586C60.8527 46.7374 60.2818 46.5233 59.4967 46.4162L58.1317 46.2288C57.4715 46.1396 56.847 45.9969 56.2581 45.8006C55.6693 45.6043 55.1519 45.3367 54.7058 44.9977C54.2775 44.6587 53.9296 44.2393 53.662 43.7397C53.4121 43.2401 53.2872 42.6245 53.2872 41.893C53.2872 41.1792 53.4211 40.5458 53.6887 39.9927C53.9564 39.4217 54.3311 38.9488 54.8128 38.5741C55.2946 38.1816 55.8656 37.8872 56.5258 37.6909C57.2038 37.4946 57.9443 37.3965 58.7472 37.3965C60.0855 37.3965 61.1828 37.6017 62.0393 38.0121C62.8958 38.4046 63.6541 38.9578 64.3143 39.6715L62.5478 41.438C62.1374 40.974 61.6111 40.5815 60.9687 40.2603C60.3264 39.9391 59.5859 39.7786 58.7472 39.7786C57.8729 39.7786 57.2127 39.9481 56.7667 40.2871C56.3206 40.6261 56.0975 41.09 56.0975 41.6788C56.0975 42.3034 56.3027 42.7673 56.7131 43.0706C57.1235 43.3739 57.7302 43.5791 58.5331 43.6862L59.8981 43.9003C60.594 44.0074 61.2274 44.159 61.7984 44.3553C62.3872 44.5516 62.8869 44.8192 63.2972 45.1583C63.7076 45.4794 64.0199 45.8809 64.234 46.3627C64.466 46.8444 64.5819 47.4243 64.5819 48.1024C64.5819 48.7983 64.4392 49.4317 64.1537 50.0027C63.8861 50.5736 63.4935 51.0643 62.9761 51.4747C62.4765 51.8673 61.8609 52.1795 61.1293 52.4115C60.4156 52.6256 59.6216 52.7327 58.7472 52.7327Z" fill="white"/>
<path d="M74.4044 42.455C74.4044 41.5986 74.1813 40.9384 73.7353 40.4744C73.2892 40.0105 72.5844 39.7786 71.6209 39.7786C70.8001 39.7786 70.1399 39.957 69.6403 40.3138C69.1407 40.6529 68.7124 41.0989 68.3556 41.6521L66.5891 40.0997C67.0709 39.2968 67.7221 38.6455 68.5429 38.1459C69.3637 37.6463 70.4521 37.3965 71.8082 37.3965C73.5925 37.3965 74.9575 37.8158 75.9032 38.6544C76.8489 39.4931 77.3217 40.6975 77.3217 42.2677V52.4115H74.4044V42.455Z" fill="white"/>
<path d="M81.23 43.3918C81.23 42.4818 81.3817 41.661 81.685 40.9294C82.0062 40.18 82.4612 39.5466 83.05 39.0291C83.6388 38.4938 84.3436 38.0924 85.1644 37.8247C86.003 37.5392 86.9398 37.3965 87.9747 37.3965C89.0096 37.3965 89.9375 37.5392 90.7582 37.8247C91.5969 38.0924 92.3106 38.4938 92.8994 39.0291C93.4882 39.5466 93.9343 40.18 94.2377 40.9294C94.5588 41.661 94.7194 42.4818 94.7194 43.3918V52.4115H91.8021V43.5791C91.8021 42.348 91.463 41.4112 90.785 40.7688C90.107 40.1087 89.1702 39.7786 87.9747 39.7786C86.7792 39.7786 85.8425 40.1087 85.1644 40.7688C84.4864 41.4112 84.1474 42.348 84.1474 43.5791V46.9515H84.2812C84.3882 46.5946 84.5399 46.2467 84.7362 45.9077C84.9325 45.5687 85.1823 45.2742 85.4856 45.0244C85.7889 44.7568 86.1547 44.5427 86.5829 44.3821C87.0112 44.2215 87.5108 44.1412 88.0818 44.1412H88.8847V46.9515H87.7606C86.6008 46.9515 85.7086 47.1478 85.0841 47.5403C84.4596 47.915 84.1474 48.5038 84.1474 49.3068V52.4115H81.23V43.3918Z" fill="white"/>
<path d="M104.907 42.455C104.907 41.5986 104.684 40.9384 104.238 40.4744C103.792 40.0105 103.087 39.7786 102.123 39.7786C101.302 39.7786 100.642 39.957 100.143 40.3138C99.643 40.6529 99.2148 41.0989 98.8579 41.6521L97.0914 40.0997C97.5732 39.2968 98.2245 38.6455 99.0453 38.1459C99.866 37.6463 100.954 37.3965 102.311 37.3965C104.095 37.3965 105.46 37.8158 106.406 38.6544C107.351 39.4931 107.824 40.6975 107.824 42.2677V52.4115H104.907V42.455Z" fill="white"/>
<path d="M111.096 37.7177H113.853L114.736 44.9709L115.057 49.0927H115.218L116.235 44.9709L118.216 37.7177H120.437L122.418 44.9709L123.435 49.0927H123.595L123.917 44.9709L124.8 37.7177H127.503L125.415 52.4115H122.311L120.143 44.0609L119.367 40.8224H119.233L118.457 44.0609L116.289 52.4115H113.184L111.096 37.7177Z" fill="white"/>
<path d="M115.99 32.793H127.526V35.0947H115.99V32.793Z" fill="white"/>
<path d="M134.795 52.4115C133.778 52.4115 133.028 52.1528 132.547 51.6353C132.065 51.1179 131.824 50.3952 131.824 49.4674V37.7177H134.741V50.0294H136.829V52.4115H134.795Z" fill="white"/>
<path d="M139.621 43.3918C139.621 42.4818 139.773 41.661 140.076 40.9294C140.397 40.18 140.852 39.5466 141.441 39.0291C142.03 38.4938 142.735 38.0924 143.555 37.8247C144.394 37.5392 145.331 37.3965 146.366 37.3965C148.096 37.3965 149.524 37.7712 150.648 38.5206C150.755 37.4679 151.362 36.9415 152.468 36.9415H156.108V39.4841H151.772V39.5644C152.664 40.5637 153.11 41.8394 153.11 43.3918V52.4115H150.193V43.5791C150.193 42.348 149.854 41.4112 149.176 40.7688C148.498 40.1087 147.561 39.7786 146.366 39.7786C145.17 39.7786 144.233 40.1087 143.555 40.7688C142.877 41.4112 142.538 42.348 142.538 43.5791V46.9515H142.672C142.779 46.5946 142.931 46.2467 143.127 45.9077C143.323 45.5687 143.573 45.2742 143.877 45.0244C144.18 44.7568 144.546 44.5427 144.974 44.3821C145.402 44.2215 145.902 44.1412 146.473 44.1412H147.276V46.9515H146.152C144.992 46.9515 144.1 47.1478 143.475 47.5403C142.851 47.915 142.538 48.5038 142.538 49.3068V52.4115H139.621V43.3918Z" fill="white"/>
<path d="M164.63 52.7327C163.631 52.7327 162.73 52.5988 161.927 52.3312C161.124 52.0457 160.437 51.6532 159.866 51.1536C159.313 50.6361 158.885 50.0205 158.581 49.3068C158.278 48.5931 158.126 47.7901 158.126 46.898V37.7177H161.044V46.6571C161.044 47.8169 161.356 48.7269 161.98 49.3871C162.623 50.0294 163.506 50.3506 164.63 50.3506C165.754 50.3506 166.628 50.0294 167.253 49.3871C167.895 48.7269 168.217 47.8169 168.217 46.6571V45.7203H165.915C164.238 45.7203 163.399 45.0066 163.399 43.5791V42.0536H165.942V43.6059H168.217V37.7177H171.134V43.6059H172.981V45.7203H171.134V46.898C171.134 47.7901 170.982 48.5931 170.679 49.3068C170.376 50.0205 169.938 50.6361 169.367 51.1536C168.814 51.6532 168.136 52.0457 167.333 52.3312C166.53 52.5988 165.629 52.7327 164.63 52.7327Z" fill="white"/>
<path d="M25.2148 35.3489C24.4716 37.7045 24.4366 40.0516 25.1248 42.4055C25.1665 42.0736 25.1479 41.7395 25.1749 41.4063C25.3045 39.8069 25.9247 38.4185 26.9448 37.1905C27.4715 36.5566 28.0218 35.9399 28.4461 35.2274C28.9723 34.3437 29.2315 33.3817 29.2881 32.3638C29.3694 30.9002 29.0874 29.4934 28.591 28.1225C28.5433 27.9907 28.4763 27.8629 28.4663 27.7233C28.5387 27.6807 28.5793 27.7274 28.621 27.7531C30.1769 28.7086 31.6342 29.791 32.9023 31.1085C34.5425 32.8127 35.7567 34.7638 36.3384 37.0744C36.6098 38.1526 36.6967 39.2464 36.6151 40.39C36.8111 40.2883 36.9486 40.1586 37.0727 40.0139C37.6443 39.3473 37.8806 38.5536 37.9364 37.6984C37.9647 37.2627 37.9573 36.8252 37.8768 36.3768C37.9959 36.3866 38.0209 36.4665 38.0604 36.5211C38.9553 37.7611 39.8278 39.0165 40.5229 40.3818C41.4518 42.2064 42.0627 44.1193 42.157 46.1816C42.2714 48.6825 41.4464 50.8518 39.8735 52.7674C38.8096 54.0632 37.5214 55.0967 36.0865 55.9562C36.0325 55.9886 35.9708 56.0672 35.9085 56.0127C35.8497 55.9612 35.9129 55.8853 35.9325 55.8238C36.211 54.9526 36.4832 54.0794 36.5971 53.168C36.7641 51.8305 36.6064 50.5603 35.7885 49.433C35.7797 49.4208 35.7718 49.4075 35.7613 49.3967C35.695 49.3288 35.6534 49.1949 35.5502 49.2181C35.4629 49.2377 35.481 49.3721 35.455 49.4553C35.137 50.4754 34.5064 51.2314 33.5416 51.7045C33.465 51.742 33.374 51.8301 33.2946 51.7602C33.2267 51.7005 33.2991 51.605 33.3205 51.5283C33.9614 49.2213 33.7718 46.9951 32.6423 44.8706C31.94 43.5497 30.9464 42.4841 29.6938 41.6593C29.6452 41.6273 29.5953 41.5662 29.5334 41.5957C29.4701 41.6259 29.5127 41.6885 29.5234 41.7369C29.9591 43.7103 29.4559 45.44 28.166 46.9721C27.7228 47.4986 27.2795 48.0272 26.9433 48.633C26.5365 49.3658 26.3125 50.1526 26.2588 50.9853C26.1466 52.7231 26.614 54.318 27.4779 55.8129C27.5144 55.876 27.5762 55.93 27.5698 56.018C27.4848 56.0573 27.4252 55.9928 27.3638 55.9615C25.3219 54.9223 23.5873 53.5209 22.2824 51.6292C21.2197 50.0886 20.6103 48.3916 20.5376 46.5083C20.4579 44.4454 20.9587 42.5124 21.7995 40.6505C22.6547 38.7567 23.8376 37.0654 25.0845 35.4146C25.1068 35.385 25.1262 35.3504 25.2148 35.3489Z" fill="white"/>
<defs>
<filter id="filter0_d_2726_3658" x="0" y="0" width="209.766" height="78" filterUnits="userSpaceOnUse" color-interpolation-filters="sRGB">
<feFlood flood-opacity="0" result="BackgroundImageFix"/>
<feColorMatrix in="SourceAlpha" type="matrix" values="0 0 0 0 0 0 0 0 0 0 0 0 0 0 0 0 0 0 127 0" result="hardAlpha"/>
<feOffset dx="2" dy="1"/>
<feGaussianBlur stdDeviation="2"/>
<feColorMatrix type="matrix" values="0 0 0 0 0 0 0 0 0 0 0 0 0 0 0 0 0 0 0.25 0"/>
<feBlend mode="normal" in2="BackgroundImageFix" result="effect1_dropShadow_2726_3658"/>
<feBlend mode="normal" in="SourceGraphic" in2="effect1_dropShadow_2726_3658" result="shape"/>
</filter>
<linearGradient id="paint0_linear_2726_3658" x1="2.0001" y1="37.9885" x2="203.788" y2="37.9885" gradientUnits="userSpaceOnUse">
<stop stop-color="#BE1E2D"/>
<stop offset="0.5" stop-color="#ED1C24"/>
<stop offset="1" stop-color="#BE1E2D"/>
</linearGradient>
</defs>
</svg>
