<svg width="76" height="59" viewBox="0 0 76 59" fill="none" xmlns="http://www.w3.org/2000/svg">
<path d="M3.88613 0C3.88613 0 0 0.209932 0 3H11C11 3 9.31922 0.374154 3.88613 0Z" fill="#DD1D28"/>
<path style="mix-blend-mode:overlay" d="M3.88613 0C3.88613 0 0 0.209932 0 3H11C11 3 9.31922 0.374154 3.88613 0Z" fill="url(#paint0_linear_2728_3676)"/>
<path d="M72.1139 0C72.1139 0 76 0.209932 76 3H65C65 3 66.6808 0.374154 72.1139 0Z" fill="#DD1D28"/>
<path style="mix-blend-mode:overlay" d="M72.1139 0C72.1139 0 76 0.209932 76 3H65C65 3 66.6808 0.374154 72.1139 0Z" fill="url(#paint1_linear_2728_3676)"/>
<path d="M4 0C4 0 8.1202 0.735095 8.1202 7.46935V48.0722L38 59L67.8798 48.0722V7.46935C67.8798 0.735095 72 0 72 0H4Z" fill="url(#paint2_linear_2728_3676)"/>
<path d="M21.7707 23.0909C20.7827 23.0909 19.9767 22.8786 19.3527 22.4539C18.7374 22.0206 18.4297 21.4096 18.4297 20.6209C18.4297 20.5429 18.4384 20.4259 18.4557 20.2699H20.7697C20.7437 20.5992 20.8217 20.8592 21.0037 21.0499C21.1857 21.2406 21.463 21.3359 21.8357 21.3359C22.1737 21.3359 22.438 21.2622 22.6287 21.1149C22.828 20.9676 22.9277 20.7596 22.9277 20.4909C22.9277 20.2136 22.802 19.9882 22.5507 19.8149C22.308 19.6416 21.9267 19.4466 21.4067 19.2299C20.904 19.0219 20.4924 18.8269 20.1717 18.6449C19.8597 18.4542 19.5867 18.1986 19.3527 17.8779C19.1187 17.5572 19.0017 17.1542 19.0017 16.6689C18.993 16.0709 19.1404 15.5509 19.4437 15.1089C19.747 14.6669 20.1674 14.3289 20.7047 14.0949C21.242 13.8609 21.8574 13.7439 22.5507 13.7439C23.1747 13.7439 23.7294 13.8436 24.2147 14.0429C24.7 14.2336 25.077 14.5152 25.3457 14.8879C25.6144 15.2519 25.7487 15.6852 25.7487 16.1879C25.7487 16.3179 25.7444 16.4132 25.7357 16.4739H23.3697C23.3784 16.4392 23.3827 16.3872 23.3827 16.3179C23.3827 16.0752 23.296 15.8802 23.1227 15.7329C22.958 15.5769 22.7284 15.4989 22.4337 15.4989C22.1217 15.4989 21.866 15.5769 21.6667 15.7329C21.476 15.8802 21.3807 16.0839 21.3807 16.3439C21.3807 16.6039 21.502 16.8249 21.7447 17.0069C21.9874 17.1802 22.3644 17.3839 22.8757 17.6179C23.387 17.8519 23.803 18.0686 24.1237 18.2679C24.453 18.4672 24.7347 18.7359 24.9687 19.0739C25.2027 19.4032 25.3197 19.8106 25.3197 20.2959C25.3197 20.8332 25.1767 21.3142 24.8907 21.7389C24.6047 22.1636 24.193 22.4972 23.6557 22.7399C23.1184 22.9739 22.49 23.0909 21.7707 23.0909Z" fill="white"/>
<path d="M30.0266 13.8739L29.0646 19.3209C29.0299 19.5462 29.0126 19.7022 29.0126 19.7889C29.0126 20.1876 29.1253 20.4952 29.3506 20.7119C29.5759 20.9199 29.9096 21.0239 30.3516 21.0239C30.8716 21.0239 31.2963 20.8766 31.6256 20.5819C31.9549 20.2872 32.1673 19.8669 32.2626 19.3209L33.2246 13.8739H35.4476L34.4856 19.3209C34.3383 20.1442 34.0436 20.8419 33.6016 21.4139C33.1683 21.9772 32.6353 22.3976 32.0026 22.6749C31.3786 22.9522 30.6983 23.0909 29.9616 23.0909C29.0083 23.0909 28.2369 22.8439 27.6476 22.3499C27.0669 21.8559 26.7766 21.1409 26.7766 20.2049C26.7766 19.9276 26.8026 19.6329 26.8546 19.3209L27.8036 13.8739H30.0266Z" fill="white"/>
<path d="M43.4436 16.8119C43.357 17.3406 43.1533 17.8259 42.8326 18.2679C42.512 18.7012 42.0743 19.0522 41.5196 19.3209C40.9736 19.5896 40.328 19.7239 39.5826 19.7239H38.2046L37.6196 22.9999H35.3966L37.0086 13.8739H40.6096C41.563 13.8739 42.2823 14.0862 42.7676 14.5109C43.253 14.9269 43.4956 15.4946 43.4956 16.2139C43.4956 16.4306 43.4783 16.6299 43.4436 16.8119ZM39.7126 17.9819C40.5446 17.9819 41.0343 17.5919 41.1816 16.8119C41.199 16.6732 41.2076 16.5736 41.2076 16.5129C41.2076 16.2356 41.1166 16.0232 40.9346 15.8759C40.7613 15.7199 40.4926 15.6419 40.1286 15.6419H38.9196L38.5166 17.9819H39.7126Z" fill="white"/>
<path d="M47.0319 15.6289L46.7069 17.5269H49.6839L49.3849 19.2039H46.4079L46.0439 21.2449H49.4109L49.0989 22.9999H43.5089L45.1209 13.8739H50.7109L50.3989 15.6289H47.0319Z" fill="white"/>
<path d="M55.8851 13.8739C56.8298 13.8739 57.5491 14.0906 58.0431 14.5239C58.5371 14.9486 58.7841 15.5032 58.7841 16.1879C58.7841 16.3872 58.7668 16.5736 58.7321 16.7469C58.6281 17.3536 58.3638 17.8952 57.9391 18.3719C57.5145 18.8486 56.9468 19.1866 56.2361 19.3859L57.7051 22.9999H55.1961L53.9091 19.5549H53.3761L52.7651 22.9999H50.5421L52.1541 13.8739H55.8851ZM56.4571 16.8379C56.4745 16.6992 56.4831 16.6082 56.4831 16.5649C56.4831 16.2876 56.3921 16.0752 56.2101 15.9279C56.0368 15.7719 55.7768 15.6939 55.4301 15.6939H54.0521L53.6491 17.9819H55.0271C55.4345 17.9819 55.7551 17.8822 55.9891 17.6829C56.2318 17.4836 56.3878 17.2019 56.4571 16.8379Z" fill="white"/>
<path d="M22.8647 38.1119C21.478 38.1119 20.3687 37.8346 19.5367 37.2799C18.7154 36.7252 18.3047 35.9146 18.3047 34.8479C18.3047 34.7412 18.3154 34.5812 18.3367 34.3679H22.1127C22.0807 34.6986 22.1287 34.9439 22.2567 35.1039C22.3954 35.2639 22.6194 35.3439 22.9287 35.3439C23.1207 35.3439 23.2807 35.2959 23.4087 35.1999C23.5367 35.1039 23.6007 34.9652 23.6007 34.7839C23.6007 34.5279 23.4727 34.3146 23.2167 34.1439C22.9714 33.9732 22.5714 33.7706 22.0167 33.5359C21.4087 33.2799 20.9074 33.0346 20.5127 32.7999C20.1287 32.5652 19.7927 32.2452 19.5047 31.8399C19.2167 31.4346 19.0727 30.9279 19.0727 30.3199C19.0727 29.5199 19.27 28.8319 19.6647 28.2559C20.07 27.6692 20.63 27.2266 21.3447 26.9279C22.0594 26.6292 22.8754 26.4799 23.7927 26.4799C24.614 26.4799 25.3447 26.6079 25.9847 26.8639C26.6354 27.1199 27.142 27.4932 27.5047 27.9839C27.878 28.4639 28.0647 29.0346 28.0647 29.6959C28.0647 29.7812 28.054 29.9306 28.0327 30.1439H24.2087C24.23 30.0159 24.2407 29.9306 24.2407 29.8879C24.2407 29.6852 24.182 29.5306 24.0647 29.4239C23.9474 29.3066 23.7874 29.2479 23.5847 29.2479C23.4034 29.2479 23.254 29.3012 23.1367 29.4079C23.0194 29.5146 22.9607 29.6532 22.9607 29.8239C22.9607 30.0586 23.0834 30.2666 23.3287 30.4479C23.574 30.6186 23.9634 30.8319 24.4967 31.0879C25.1047 31.3759 25.606 31.6479 26.0007 31.9039C26.406 32.1599 26.7527 32.5012 27.0407 32.9279C27.3287 33.3439 27.4727 33.8559 27.4727 34.4639C27.4727 35.1572 27.286 35.7812 26.9127 36.3359C26.55 36.8906 26.022 37.3279 25.3287 37.6479C24.6354 37.9572 23.814 38.1119 22.8647 38.1119Z" fill="white"/>
<path d="M35.8343 36.2879H32.0583L31.1943 37.9999H27.4663L33.6103 26.6719H37.7063L39.8343 37.9999H36.0903L35.8343 36.2879ZM35.4503 33.6159L34.9863 30.4639L33.4023 33.6159H35.4503Z" fill="white"/>
<path d="M44.6733 35.3119H48.0973L47.6173 37.9999H40.6413L42.6413 26.6719H46.1933L44.6733 35.3119Z" fill="white"/>
<path d="M53.7911 29.4879L53.5511 30.8959H57.0711L56.5911 33.5679H53.0711L52.7831 35.1679H56.7831L56.2871 37.9999H48.7351L50.7351 26.6719H58.2871L57.7911 29.4879H53.7911Z" fill="white"/>
<defs>
<linearGradient id="paint0_linear_2728_3676" x1="0" y1="1.5" x2="11" y2="1.5" gradientUnits="userSpaceOnUse">
<stop stop-opacity="0"/>
<stop offset="1"/>
</linearGradient>
<linearGradient id="paint1_linear_2728_3676" x1="65" y1="1.5" x2="76" y2="1.5" gradientUnits="userSpaceOnUse">
<stop/>
<stop offset="1" stop-opacity="0"/>
</linearGradient>
<linearGradient id="paint2_linear_2728_3676" x1="38" y1="59" x2="38" y2="0" gradientUnits="userSpaceOnUse">
<stop stop-color="#890D0D"/>
<stop offset="0.18" stop-color="#C20303"/>
<stop offset="0.51" stop-color="#EB2626"/>
<stop offset="0.78" stop-color="#F64949"/>
<stop offset="1" stop-color="#FF2424"/>
</linearGradient>
</defs>
</svg>
