<svg width="137" height="30" viewBox="0 0 137 30" fill="none" xmlns="http://www.w3.org/2000/svg">
<path d="M3.44571 0H9V3H0C0 2.20435 0.36303 1.44129 1.00923 0.87868C1.65542 0.316071 2.53185 0 3.44571 0Z" fill="url(#paint0_linear_2730_3695)"/>
<path d="M137 3L127 3V-1.2718e-07L133.2 -1.2718e-07C134.21 0.00590872 135.177 0.324586 135.889 0.886556C136.601 1.44853 137 2.20821 137 3Z" fill="url(#paint1_linear_2730_3695)"/>
<path d="M123.945 0H4C10.0823 0 11.3069 9.35376 11.5654 14.3265V17.3227C11.8428 20.7607 13.5112 23.9754 16.2377 26.3253C18.9642 28.6752 22.5483 29.9874 26.2744 30H111.739C115.455 29.9774 119.026 28.6602 121.74 26.3107C124.453 23.9612 126.11 20.752 126.38 17.3227V14.3265C126.707 9.35376 127.999 0 134 0H123.945Z" fill="url(#paint2_linear_2730_3695)"/>
<path d="M123.945 0H4C10.0823 0 11.3069 9.35262 11.5654 14.3228V17.3253C11.87 20.7879 13.5532 24.0155 16.2794 26.3646C19.0055 28.7137 22.5744 30.0117 26.2744 29.9999H111.739C115.429 30.0016 118.985 28.6983 121.698 26.3497C124.411 24.001 126.083 20.7791 126.38 17.3253V14.3228C126.707 9.35262 127.999 0 134 0H123.945Z" fill="url(#paint3_linear_2730_3695)"/>
<path d="M40.5624 19.1561C39.8951 19.1561 39.3274 19.0434 38.8594 18.8181C38.4001 18.5841 37.9971 18.2591 37.6504 17.8431L38.5474 16.9981C38.8074 17.3274 39.1107 17.5788 39.4574 17.7521C39.8041 17.9254 40.1984 18.0121 40.6404 18.0121C41.1084 18.0121 41.4551 17.9298 41.6804 17.7651C41.9144 17.5918 42.0314 17.3491 42.0314 17.0371C42.0314 16.7598 41.9404 16.5474 41.7584 16.4001C41.5851 16.2441 41.3077 16.1401 40.9264 16.0881L40.2634 15.9971C39.9427 15.9538 39.6394 15.8844 39.3534 15.7891C39.0674 15.6938 38.8161 15.5638 38.5994 15.3991C38.3914 15.2344 38.2224 15.0308 38.0924 14.7881C37.9711 14.5454 37.9104 14.2464 37.9104 13.8911C37.9104 13.5444 37.9754 13.2368 38.1054 12.9681C38.2354 12.6908 38.4174 12.4611 38.6514 12.2791C38.8854 12.0884 39.1627 11.9454 39.4834 11.8501C39.8127 11.7548 40.1724 11.7071 40.5624 11.7071C41.2124 11.7071 41.7454 11.8068 42.1614 12.0061C42.5774 12.1968 42.9457 12.4654 43.2664 12.8121L42.4084 13.6701C42.2091 13.4448 41.9534 13.2541 41.6414 13.0981C41.3294 12.9421 40.9697 12.8641 40.5624 12.8641C40.1377 12.8641 39.8171 12.9464 39.6004 13.1111C39.3837 13.2758 39.2754 13.5011 39.2754 13.7871C39.2754 14.0904 39.3751 14.3158 39.5744 14.4631C39.7737 14.6104 40.0684 14.7101 40.4584 14.7621L41.1214 14.8661C41.4594 14.9181 41.7671 14.9918 42.0444 15.0871C42.3304 15.1824 42.5731 15.3124 42.7724 15.4771C42.9717 15.6331 43.1234 15.8281 43.2274 16.0621C43.3401 16.2961 43.3964 16.5778 43.3964 16.9071C43.3964 17.2451 43.3271 17.5528 43.1884 17.8301C43.0584 18.1074 42.8677 18.3458 42.6164 18.5451C42.3737 18.7358 42.0747 18.8874 41.7194 19.0001C41.3727 19.1041 40.9871 19.1561 40.5624 19.1561Z" fill="white"/>
<path d="M47.1533 19.0001C46.6593 19.0001 46.291 18.8744 46.0483 18.6231C45.8143 18.3718 45.6973 18.0208 45.6973 17.5701V15.0611L44.5793 14.5931C44.614 14.1684 44.718 13.7784 44.8913 13.4231C45.0733 13.0678 45.3116 12.7644 45.6063 12.5131C45.9096 12.2531 46.2606 12.0538 46.6593 11.9151C47.058 11.7764 47.4913 11.7071 47.9593 11.7071C48.9906 11.7071 49.788 11.9714 50.3513 12.5001C50.9233 13.0201 51.2093 13.7264 51.2093 14.6191V19.0001H49.7923V14.8011C49.7923 14.1771 49.6233 13.7004 49.2853 13.3711C48.956 13.0331 48.4966 12.8641 47.9073 12.8641C47.422 12.8641 46.9973 12.9724 46.6333 13.1891C46.278 13.3971 46.0353 13.6788 45.9053 14.0341L46.4643 14.2551C46.707 14.3504 46.876 14.4631 46.9713 14.5931C47.0666 14.7144 47.1143 14.8964 47.1143 15.1391V17.8431H47.8683V19.0001H47.1533Z" fill="white"/>
<path d="M55.3566 19.1561C54.9926 19.1561 54.6459 19.1128 54.3166 19.0261C53.9873 18.9394 53.6969 18.8094 53.4456 18.6361L53.9786 17.6221C54.1519 17.7261 54.3426 17.8171 54.5506 17.8951C54.7673 17.9644 55.0143 17.9991 55.2916 17.9991C55.8116 17.9991 56.2103 17.8258 56.4876 17.4791C56.7736 17.1238 56.9166 16.6384 56.9166 16.0231V14.8401C56.9166 14.2334 56.7779 13.7524 56.5006 13.3971C56.2319 13.0418 55.8333 12.8641 55.3046 12.8641C54.8799 12.8641 54.5333 12.9638 54.2646 13.1631C53.9959 13.3538 53.8009 13.6138 53.6796 13.9431L52.5226 13.3971C52.7393 12.8771 53.0859 12.4654 53.5626 12.1621C54.0393 11.8588 54.6373 11.7071 55.3566 11.7071C55.8506 11.7071 56.2883 11.7938 56.6696 11.9671C57.0509 12.1404 57.3716 12.3874 57.6316 12.7081C57.8916 13.0288 58.0866 13.4188 58.2166 13.8781C58.3553 14.3374 58.4246 14.8531 58.4246 15.4251C58.4246 15.9971 58.3553 16.5171 58.2166 16.9851C58.0779 17.4444 57.8786 17.8344 57.6186 18.1551C57.3586 18.4758 57.0379 18.7228 56.6566 18.8961C56.2753 19.0694 55.8419 19.1561 55.3566 19.1561Z" fill="white"/>
<path d="M63.0843 14.1641C63.0843 13.7481 62.9759 13.4274 62.7593 13.2021C62.5426 12.9768 62.2003 12.8641 61.7323 12.8641C61.3336 12.8641 61.0129 12.9508 60.7703 13.1241C60.5276 13.2888 60.3196 13.5054 60.1463 13.7741L59.2883 13.0201C59.5223 12.6301 59.8386 12.3138 60.2373 12.0711C60.6359 11.8284 61.1646 11.7071 61.8233 11.7071C62.6899 11.7071 63.3529 11.9108 63.8123 12.3181C64.2716 12.7254 64.5013 13.3104 64.5013 14.0731V19.0001H63.0843V14.1641Z" fill="white"/>
<path d="M69.0126 19.1561C68.3453 19.1561 67.7776 19.0434 67.3096 18.8181C66.8503 18.5841 66.4473 18.2591 66.1006 17.8431L66.9976 16.9981C67.2576 17.3274 67.5609 17.5788 67.9076 17.7521C68.2543 17.9254 68.6486 18.0121 69.0906 18.0121C69.5586 18.0121 69.9053 17.9298 70.1306 17.7651C70.3646 17.5918 70.4816 17.3491 70.4816 17.0371C70.4816 16.7598 70.3906 16.5474 70.2086 16.4001C70.0353 16.2441 69.7579 16.1401 69.3766 16.0881L68.7136 15.9971C68.3929 15.9538 68.0896 15.8844 67.8036 15.7891C67.5176 15.6938 67.2663 15.5638 67.0496 15.3991C66.8416 15.2344 66.6726 15.0308 66.5426 14.7881C66.4213 14.5454 66.3606 14.2464 66.3606 13.8911C66.3606 13.5444 66.4256 13.2368 66.5556 12.9681C66.6856 12.6908 66.8676 12.4611 67.1016 12.2791C67.3356 12.0884 67.6129 11.9454 67.9336 11.8501C68.2629 11.7548 68.6226 11.7071 69.0126 11.7071C69.6626 11.7071 70.1956 11.8068 70.6116 12.0061C71.0276 12.1968 71.3959 12.4654 71.7166 12.8121L70.8586 13.6701C70.6593 13.4448 70.4036 13.2541 70.0916 13.0981C69.7796 12.9421 69.4199 12.8641 69.0126 12.8641C68.5879 12.8641 68.2673 12.9464 68.0506 13.1111C67.8339 13.2758 67.7256 13.5011 67.7256 13.7871C67.7256 14.0904 67.8253 14.3158 68.0246 14.4631C68.2239 14.6104 68.5186 14.7101 68.9086 14.7621L69.5716 14.8661C69.9096 14.9181 70.2173 14.9918 70.4946 15.0871C70.7806 15.1824 71.0233 15.3124 71.2226 15.4771C71.4219 15.6331 71.5736 15.8281 71.6776 16.0621C71.7903 16.2961 71.8466 16.5778 71.8466 16.9071C71.8466 17.2451 71.7773 17.5528 71.6386 17.8301C71.5086 18.1074 71.3179 18.3458 71.0666 18.5451C70.8239 18.7358 70.5249 18.8874 70.1696 19.0001C69.8229 19.1041 69.4373 19.1561 69.0126 19.1561Z" fill="white"/>
<path d="M70.4326 10.5891C69.982 10.5891 69.644 10.4808 69.4186 10.2641C69.1933 10.0474 69.0806 9.74409 69.0806 9.35409V8.44409H70.3286V9.47109H73.7086V10.5891H70.4326Z" fill="white"/>
<path d="M75.7855 19.1561C75.0402 19.1561 74.4638 18.9178 74.0565 18.4411C73.6492 17.9558 73.4455 17.2711 73.4455 16.3871V11.8631H74.8625V16.2311C74.8625 16.7858 74.9752 17.2104 75.2005 17.5051C75.4345 17.7911 75.8072 17.9341 76.3185 17.9341C76.5092 17.9341 76.6998 17.9124 76.8905 17.8691C77.0812 17.8171 77.2502 17.7391 77.3975 17.6351C77.5535 17.5311 77.6748 17.4011 77.7615 17.2451C77.8568 17.0804 77.9045 16.8898 77.9045 16.6731V11.8631H79.3215V17.8431H80.0755V19.0001H79.1395C78.7755 19.0001 78.5025 18.8961 78.3205 18.6881C78.1385 18.4714 78.0388 18.1724 78.0215 17.7911H77.9565C77.8092 18.1898 77.5535 18.5191 77.1895 18.7791C76.8342 19.0304 76.3662 19.1561 75.7855 19.1561Z" fill="white"/>
<path d="M84.3679 19.1561C83.3453 19.1561 82.5566 18.8354 82.0019 18.1941C81.4559 17.5441 81.1829 16.6124 81.1829 15.3991C81.1829 14.2118 81.3649 13.3018 81.7289 12.6691C82.0929 12.0278 82.6519 11.7071 83.4059 11.7071C83.7786 11.7071 84.0906 11.8154 84.3419 12.0321C84.5933 12.2401 84.7536 12.5304 84.8229 12.9031H84.9009C84.9789 12.5304 85.1609 12.2401 85.4469 12.0321C85.7329 11.8154 86.0839 11.7071 86.4999 11.7071C87.0286 11.7071 87.4446 11.8804 87.7479 12.2271C88.0513 12.5651 88.2029 13.0461 88.2029 13.6701V19.0001H86.7859V13.7871C86.7859 13.4838 86.7253 13.2584 86.6039 13.1111C86.4826 12.9638 86.3093 12.8901 86.0839 12.8901C85.8066 12.8901 85.6159 12.9941 85.5119 13.2021C85.4079 13.4014 85.3386 13.6311 85.3039 13.8911H84.4199C84.4026 13.7611 84.3766 13.6354 84.3419 13.5141C84.3159 13.3928 84.2726 13.2888 84.2119 13.2021C84.1513 13.1068 84.0733 13.0331 83.9779 12.9811C83.8913 12.9204 83.7786 12.8901 83.6399 12.8901C83.2846 12.8901 83.0376 13.0634 82.8989 13.4101C82.7603 13.7481 82.6909 14.1988 82.6909 14.7621V15.9581C82.6909 16.2701 82.7256 16.5518 82.7949 16.8031C82.8643 17.0544 82.9726 17.2711 83.1199 17.4531C83.2759 17.6264 83.4709 17.7608 83.7049 17.8561C83.9476 17.9514 84.2423 17.9991 84.5889 17.9991C84.6756 17.9991 84.7666 17.9948 84.8619 17.9861C84.9573 17.9774 85.0526 17.9644 85.1479 17.9471L85.3039 19.0651C85.1653 19.0998 85.0093 19.1214 84.8359 19.1301C84.6713 19.1474 84.5153 19.1561 84.3679 19.1561Z" fill="white"/>
<path d="M82.5976 9.47109H86.8746V8.44409H88.2006V10.5891H82.5976V9.47109Z" fill="white"/>
<path d="M91.9217 19.0001C91.4277 19.0001 91.0637 18.8744 90.8297 18.6231C90.5957 18.3718 90.4787 18.0208 90.4787 17.5701V11.8631H91.8957V17.8431H92.9097V19.0001H91.9217Z" fill="white"/>
<path d="M94.3308 11.8631H95.7478V14.0211L97.5678 13.7611C97.8971 13.7091 98.1528 13.6138 98.3348 13.4751C98.5255 13.3278 98.6425 13.0764 98.6858 12.7211L98.7768 11.8631H100.246L100.142 12.7601C100.098 13.1674 99.9425 13.5054 99.6738 13.7741C99.4138 14.0341 99.0628 14.1901 98.6208 14.2421V14.3071C98.8808 14.3591 99.1018 14.4544 99.2838 14.5931C99.4658 14.7318 99.6131 14.8964 99.7258 15.0871C99.8471 15.2778 99.9381 15.4901 99.9988 15.7241C100.059 15.9581 100.103 16.1964 100.129 16.4391L100.376 19.0001H98.9068L98.6858 16.3351C98.6598 16.1184 98.6121 15.9191 98.5428 15.7371C98.4821 15.5551 98.3911 15.4034 98.2698 15.2821C98.1485 15.1521 97.9968 15.0611 97.8148 15.0091C97.6328 14.9484 97.4161 14.9354 97.1648 14.9701L95.7478 15.1651V19.0001H94.3308V11.8631Z" fill="white"/>
<path d="M104.23 19.1301C103.528 19.1301 102.965 18.9568 102.54 18.6101C102.124 18.2634 101.916 17.7391 101.916 17.0371C101.916 16.3698 102.116 15.8541 102.515 15.4901C102.922 15.1261 103.494 14.9441 104.23 14.9441H106.44V14.3981C106.44 13.8954 106.302 13.5141 106.024 13.2541C105.756 12.9941 105.335 12.8641 104.763 12.8641C104.252 12.8641 103.832 12.9724 103.503 13.1891C103.182 13.4058 102.918 13.6788 102.71 14.0081L101.799 13.2151C102.077 12.7731 102.454 12.4134 102.931 12.1361C103.416 11.8501 104.057 11.7071 104.854 11.7071C105.834 11.7071 106.579 11.9368 107.09 12.3961C107.602 12.8468 107.857 13.4968 107.857 14.3461V19.0001H106.44V15.8931H104.66C104.244 15.8931 103.923 15.9798 103.698 16.1531C103.481 16.3264 103.372 16.5778 103.372 16.9071V17.1671C103.372 17.4964 103.472 17.7564 103.672 17.9471C103.871 18.1378 104.144 18.2331 104.491 18.2331C104.664 18.2331 104.803 18.2201 104.907 18.1941L105.023 19.0521C104.945 19.0694 104.824 19.0868 104.66 19.1041C104.495 19.1214 104.352 19.1301 104.23 19.1301Z" fill="white"/>
<path d="M102.25 9.47109H104.551V8.44409H105.721V9.57509H106.683V8.44409H107.853V10.5891H102.25V9.47109Z" fill="white"/>
<path d="M112.614 19.1561C112.181 19.1561 111.773 19.0954 111.392 18.9741C111.019 18.8441 110.694 18.6708 110.417 18.4541C110.148 18.2288 109.936 17.9601 109.78 17.6481C109.624 17.3361 109.546 16.9894 109.546 16.6081V15.9581C109.546 15.6548 109.615 15.4208 109.754 15.2561C109.893 15.0828 110.144 14.9961 110.508 14.9961H111.964V16.1141H110.885V16.5041C110.885 17.0241 111.045 17.4054 111.366 17.6481C111.695 17.8821 112.133 17.9991 112.679 17.9991C113.242 17.9991 113.676 17.8258 113.979 17.4791C114.291 17.1324 114.447 16.6428 114.447 16.0101V14.8921C114.447 14.2508 114.274 13.7524 113.927 13.3971C113.589 13.0418 113.108 12.8641 112.484 12.8641C111.964 12.8641 111.518 12.9724 111.145 13.1891C110.781 13.4058 110.504 13.6658 110.313 13.9691L109.429 13.1761C109.68 12.7601 110.066 12.4134 110.586 12.1361C111.106 11.8501 111.76 11.7071 112.549 11.7071C113.624 11.7071 114.46 12.0364 115.058 12.6951C115.656 13.3451 115.955 14.2551 115.955 15.4251C115.955 15.9971 115.881 16.5171 115.734 16.9851C115.587 17.4444 115.37 17.8344 115.084 18.1551C114.798 18.4758 114.447 18.7228 114.031 18.8961C113.615 19.0694 113.143 19.1561 112.614 19.1561Z" fill="white"/>
<path d="M22.4653 16.0467H25.996L26.0314 20.6598C26.0326 20.8625 26.164 21.0418 26.3564 21.1033C26.4023 21.118 26.4494 21.125 26.4965 21.125C26.6436 21.125 26.786 21.0541 26.875 20.9287L31.9132 13.8196C32.0144 13.6766 32.0283 13.4891 31.9487 13.3326C31.8684 13.1762 31.7091 13.0784 31.5347 13.0784H28.004L27.9686 8.46532C27.9674 8.26258 27.836 8.08329 27.6436 8.02177C27.4511 7.96084 27.2419 8.03056 27.125 8.19639L22.0868 15.3055C21.9856 15.4485 21.9717 15.636 22.0513 15.7925C22.1316 15.9489 22.2909 16.0467 22.4653 16.0467Z" fill="white"/>
<defs>
<linearGradient id="paint0_linear_2730_3695" x1="2.36571" y1="1.5" x2="8.84571" y2="1.5" gradientUnits="userSpaceOnUse">
<stop stop-color="#EA0303"/>
<stop offset="0.14" stop-color="#D60000"/>
<stop offset="1" stop-color="#6E0000"/>
</linearGradient>
<linearGradient id="paint1_linear_2730_3695" x1="134.371" y1="1.5" x2="127.171" y2="1.5" gradientUnits="userSpaceOnUse">
<stop stop-color="#EA0303"/>
<stop offset="0.14" stop-color="#D60000"/>
<stop offset="1" stop-color="#6E0000"/>
</linearGradient>
<linearGradient id="paint2_linear_2730_3695" x1="69" y1="2.42971" x2="69" y2="28.6026" gradientUnits="userSpaceOnUse">
<stop stop-color="#EA0303"/>
<stop offset="0.14" stop-color="#D60000"/>
<stop offset="1" stop-color="#6E0000"/>
</linearGradient>
<linearGradient id="paint3_linear_2730_3695" x1="69" y1="2.42759" x2="69" y2="28.6072" gradientUnits="userSpaceOnUse">
<stop stop-color="#F30808"/>
<stop offset="0.14" stop-color="#E70000"/>
<stop offset="1" stop-color="#A20000"/>
</linearGradient>
</defs>
</svg>
